<svg id="Layer_1" data-name="Layer 1" xmlns="http://www.w3.org/2000/svg" viewBox="0 0 439 318.15"><defs><style>.cls-1{fill:#8ecb91;}.cls-2{fill:#fff;}</style></defs><title>res</title><rect class="cls-1" width="137.52" height="97.24" rx="8.42" ry="8.42"/><rect class="cls-1" x="150.74" width="137.52" height="97.24" rx="8.42" ry="8.42"/><rect class="cls-1" x="301.48" width="137.52" height="97.24" rx="8.42" ry="8.42"/><rect class="cls-1" y="110.46" width="137.52" height="97.24" rx="8.42" ry="8.42"/><rect class="cls-1" x="150.74" y="110.46" width="137.52" height="97.24" rx="8.42" ry="8.42"/><rect class="cls-1" x="301.48" y="110.46" width="137.52" height="97.24" rx="8.42" ry="8.42"/><rect class="cls-1" y="220.92" width="137.52" height="97.24" rx="8.42" ry="8.42"/><rect class="cls-1" x="150.74" y="220.92" width="137.52" height="97.24" rx="8.42" ry="8.42"/><rect class="cls-1" x="301.48" y="220.92" width="137.52" height="97.24" rx="8.42" ry="8.42"/><path class="cls-2" d="M68.76,28.59a20,20,0,1,0,20,20A20,20,0,0,0,68.76,28.59Zm12,21.73L63.45,59a1.9,1.9,0,0,1-2.75-1.7V40a1.9,1.9,0,0,1,2.75-1.7l17.28,8.64A1.9,1.9,0,0,1,80.73,50.32Z"/><path class="cls-2" d="M219.5,28.59a20,20,0,1,0,20,20A20,20,0,0,0,219.5,28.59Zm12,21.73L214.19,59a1.9,1.9,0,0,1-2.75-1.7V40a1.9,1.9,0,0,1,2.75-1.7l17.28,8.64A1.9,1.9,0,0,1,231.47,50.32Z"/><path class="cls-2" d="M370.24,28.59a20,20,0,1,0,20,20A20,20,0,0,0,370.24,28.59Zm12,21.73L364.93,59a1.9,1.9,0,0,1-2.75-1.7V40a1.9,1.9,0,0,1,2.75-1.7l17.28,8.64A1.9,1.9,0,0,1,382.21,50.32Z"/><path class="cls-2" d="M68.76,139a20,20,0,1,0,20,20A20,20,0,0,0,68.76,139Zm12,21.73-17.28,8.64a1.9,1.9,0,0,1-2.75-1.7V150.44a1.9,1.9,0,0,1,2.75-1.7l17.28,8.64A1.9,1.9,0,0,1,80.73,160.78Z"/><path class="cls-2" d="M219.5,139a20,20,0,1,0,20,20A20,20,0,0,0,219.5,139Zm12,21.73-17.28,8.64a1.9,1.9,0,0,1-2.75-1.7V150.44a1.9,1.9,0,0,1,2.75-1.7l17.28,8.64A1.9,1.9,0,0,1,231.47,160.78Z"/><path class="cls-2" d="M370.24,139a20,20,0,1,0,20,20A20,20,0,0,0,370.24,139Zm12,21.73-17.28,8.64a1.9,1.9,0,0,1-2.75-1.7V150.44a1.9,1.9,0,0,1,2.75-1.7l17.28,8.64A1.9,1.9,0,0,1,382.21,160.78Z"/><path class="cls-2" d="M68.76,249.5a20,20,0,1,0,20,20A20,20,0,0,0,68.76,249.5Zm12,21.73-17.28,8.64a1.9,1.9,0,0,1-2.75-1.7V260.89a1.9,1.9,0,0,1,2.75-1.7l17.28,8.64A1.9,1.9,0,0,1,80.73,271.23Z"/><path class="cls-2" d="M219.5,249.5a20,20,0,1,0,20,20A20,20,0,0,0,219.5,249.5Zm12,21.73-17.28,8.64a1.9,1.9,0,0,1-2.75-1.7V260.89a1.9,1.9,0,0,1,2.75-1.7l17.28,8.64A1.9,1.9,0,0,1,231.47,271.23Z"/><path class="cls-2" d="M370.24,249.5a20,20,0,1,0,20,20A20,20,0,0,0,370.24,249.5Zm12,21.73-17.28,8.64a1.9,1.9,0,0,1-2.75-1.7V260.89a1.9,1.9,0,0,1,2.75-1.7l17.28,8.64A1.9,1.9,0,0,1,382.21,271.23Z"/></svg>