<svg id="Layer_1" data-name="Layer 1" xmlns="http://www.w3.org/2000/svg" viewBox="0 0 437 317.98"><defs><style>.cls-1{fill:#8ecb91;}.cls-2{fill:#f8fcff;}.cls-3{fill:#fff;}</style></defs><title>res</title><polygon class="cls-1" points="109 296.49 0 317.98 0 0 109 51.49 109 296.49"/><rect class="cls-1" x="109" y="51.49" width="219" height="245"/><polygon class="cls-1" points="328 296.49 437 317.98 437 0 328 51.49 328 296.49"/><rect class="cls-2" x="125.32" y="75.49" width="186.68" height="33.82"/><rect class="cls-2" x="135.32" y="125.49" width="116.68" height="13"/><rect class="cls-2" x="135.32" y="152.49" width="116.68" height="13"/><rect class="cls-2" x="135.32" y="179.49" width="116.68" height="13"/><rect class="cls-2" x="135.32" y="206.49" width="116.68" height="13"/><rect class="cls-2" x="135.32" y="233.49" width="116.68" height="13"/><path class="cls-2" d="M60,115.49l.44-64-.44,0c-13.25,0-24,28.65-24,64s10.75,64,24,64,24-28.65,24-64c0-15.13-2-29-5.26-40Z"/><path class="cls-2" d="M93,234.49v-29l-.22,0c-4.54,0-8.22,12.88-8.22,28.77S88.24,263,92.78,263,101,250.11,101,234.23q0-.81,0-1.61Z"/><path class="cls-2" d="M64,233.49v-32c-6.08,0-11,14.21-11,31.74a72.27,72.27,0,0,0,3.05,21.93Z"/><path class="cls-2" d="M28,240.49v-41c-8.28,0-15,15.67-15,35s6.72,35,15,35c4.55,0,8.62-4.72,11.37-12.18Z"/><polygon class="cls-3" points="337 129.49 415 107.37 415 42.99 337 76.49 337 129.49"/><polygon class="cls-3" points="337 200.49 415 195.43 415 128.05 337 145.49 337 200.49"/><polygon class="cls-3" points="337 268.49 415 281.49 415 215.11 337 216.49 337 268.49"/></svg>