<svg id="Layer_1" data-name="Layer 1" xmlns="http://www.w3.org/2000/svg" viewBox="0 0 408.52 393.84"><defs><style>.cls-1{fill:#8ecb91;}.cls-2,.cls-4{fill:#fff;}.cls-3{fill:none;stroke:#fff;stroke-miterlimit:10;stroke-width:2.8px;}.cls-4{font-size:25.29px;font-family:PTMono-Bold, PT Mono;font-weight:700;}</style></defs><title>res</title><path class="cls-1" d="M288.22,111.39c-.2-.43-5.16-8.63-5.33-9-27.74-13.28-61.73-16.24-80-16.24s-52.28,3-80,16.24c-.18.38-5.13,8.58-5.33,9-6.82,14.61-6.74,26.35,13.7,18.62q7.18-2.71,14.25-4.9A192.55,192.55,0,0,1,202.86,116a192.44,192.44,0,0,1,57.21,9.1q7.17,2.22,14.45,5C295,137.74,295,126,288.22,111.39Z"/><path class="cls-1" d="M283,85.56c-2.52-46.76-15.6-71.11-54.51-77.78a102.64,102.64,0,0,1,7.17,20.11c4.46,18.5,4.24,28.44,4.24,28.44s-5-24.83-14.1-42.09a85.62,85.62,0,0,0-4.44-7.46c-3.08-.34-6.31-.58-9.67-.73C211,2.63,207.32,0,202.86,0S194.71,2.62,194,6.06a131.11,131.11,0,0,0-19.31,2.19c-1.19,1.88-2.38,3.89-3.49,6-9.06,17.26-14.1,42.09-14.1,42.09s-.22-9.93,4.24-28.44A102.39,102.39,0,0,1,167.53,10c-31.43,9-42.51,33-44.8,75.6-.24,4.45-1,8.87-1.06,13.23a1.66,1.66,0,0,0,2.7,1.18c23-16.39,58.1-22.76,78.5-22.76s55.54,6.37,78.5,22.76a1.66,1.66,0,0,0,2.7-1.18C284,94.43,283.24,90,283,85.56Z"/><polygon class="cls-1" points="175.79 227.78 175.79 258.9 143.19 258.9 143.19 383.84 265.33 383.84 265.33 227.78 175.79 227.78"/><polygon class="cls-1" points="172.02 227.78 171.99 227.78 143.19 255.27 143.19 255.29 172.02 255.29 172.02 227.78"/><polygon class="cls-1" points="32.59 201.33 32.59 232.44 0 232.44 0 357.39 122.14 357.39 122.14 201.33 32.59 201.33"/><polygon class="cls-1" points="28.82 201.33 28.8 201.33 0 228.82 0 228.84 28.82 228.84 28.82 201.33"/><polygon class="cls-1" points="318.98 192.22 318.98 223.33 286.38 223.33 286.38 348.28 408.52 348.28 408.52 192.22 318.98 192.22"/><polygon class="cls-1" points="315.21 192.22 315.19 192.22 286.38 219.71 286.38 219.73 315.21 219.73 315.21 192.22"/><path class="cls-1" d="M205.47,215.73l6.47-58.16a93,93,0,0,0,15.54-2.7l44.62,34.57c2.52,2,5.85-1.22,3.81-3.63L244.1,148.23c8.22-4.7,13.95-10.79,16-17.59-19.48-9.12-38.42-11-57.21-11s-37.86,1.94-57.41,11.13c2.05,6.79,7.81,12.87,16,17.56l-31.8,37.41c-2,2.41,1.27,5.59,3.8,3.64l44.64-34.43a93.11,93.11,0,0,0,15.61,2.68l6.34,58.13C200.42,218.81,205.12,218.81,205.47,215.73Z"/><path class="cls-2" d="M49.16,233.81,54.71,248a.67.67,0,0,0,1.14.17L79.6,219.7a1.7,1.7,0,0,1,2.42-.16l5.84,5.32a1.52,1.52,0,0,1-.08,2.34l-33,26.3a.68.68,0,0,1-.94-.09L40.7,237.6a1.54,1.54,0,0,1,.65-2.42L47,232.92A1.67,1.67,0,0,1,49.16,233.81Z"/><path class="cls-2" d="M49.16,275.06l5.55,14.18a.67.67,0,0,0,1.14.17L79.6,260.94a1.7,1.7,0,0,1,2.42-.16l5.84,5.32a1.52,1.52,0,0,1-.08,2.34l-33,26.3a.68.68,0,0,1-.94-.09L40.7,278.84a1.54,1.54,0,0,1,.65-2.42L47,274.16A1.67,1.67,0,0,1,49.16,275.06Z"/><path class="cls-2" d="M49.16,316.3l5.55,14.18a.67.67,0,0,0,1.14.17L79.6,302.18A1.7,1.7,0,0,1,82,302l5.84,5.32a1.52,1.52,0,0,1-.08,2.34l-33,26.3a.68.68,0,0,1-.94-.09L40.7,320.08a1.54,1.54,0,0,1,.65-2.42L47,315.4A1.67,1.67,0,0,1,49.16,316.3Z"/><ellipse class="cls-3" cx="176.44" cy="275.42" rx="8.94" ry="8.53"/><ellipse class="cls-3" cx="176.44" cy="302.76" rx="8.94" ry="8.53"/><ellipse class="cls-2" cx="176.44" cy="330.1" rx="8.94" ry="8.53"/><ellipse class="cls-2" cx="176.44" cy="357.44" rx="8.94" ry="8.53"/><ellipse class="cls-2" cx="205.07" cy="275.42" rx="8.94" ry="8.53"/><ellipse class="cls-3" cx="205.07" cy="302.76" rx="8.94" ry="8.53"/><ellipse class="cls-3" cx="205.07" cy="330.1" rx="8.94" ry="8.53"/><ellipse class="cls-3" cx="205.07" cy="357.44" rx="8.94" ry="8.53"/><ellipse class="cls-3" cx="233.71" cy="275.42" rx="8.94" ry="8.53"/><ellipse class="cls-2" cx="233.71" cy="302.76" rx="8.94" ry="8.53"/><ellipse class="cls-3" cx="233.71" cy="330.1" rx="8.94" ry="8.53"/><ellipse class="cls-3" cx="233.71" cy="357.44" rx="8.94" ry="8.53"/><text class="cls-4" transform="translate(309.01 257.88) scale(1.05 1)">1 0 0<tspan x="0" y="30.34">0 1 0</tspan><tspan x="0" y="60.69">1 0 1</tspan></text></svg>