<?xml version="1.0" encoding="utf-8"?>
<!-- Generator: Adobe Illustrator 21.1.0, SVG Export Plug-In . SVG Version: 6.00 Build 0)  -->
<svg version="1.1" id="Layer_1" xmlns="http://www.w3.org/2000/svg" xmlns:xlink="http://www.w3.org/1999/xlink" x="0px" y="0px"
	 viewBox="0 0 418 314" style="enable-background:new 0 0 418 314;" xml:space="preserve">
<style type="text/css">
	.st0{fill:none;stroke:#2C3D6C;stroke-width:12;stroke-miterlimit:10;}
	.st1{fill:none;stroke:#2C3D6C;stroke-width:5;stroke-miterlimit:10;}
	.st2{fill:none;stroke:#2C3D6C;stroke-width:20;stroke-miterlimit:10;}
	.st3{fill:none;stroke:#2C3D6C;stroke-width:8.48;stroke-miterlimit:10;}
	.st4{fill:none;stroke:#2C3D6C;stroke-width:5.2;stroke-miterlimit:10;}
	.st5{fill:none;stroke:#2C3D6C;stroke-width:7.71;stroke-miterlimit:10;}
	.st6{fill:#2C3D6C;}
	.st7{enable-background:new    ;}
	.st8{fill:#FFFFFF;}
</style>
<title>ri</title>
<g id="Layer_1_1_">
	<circle class="st0" cx="209" cy="157" r="75.4"/>
	<path class="st1" d="M358.4,157C358.5,74.5,291.6,7.5,209,7.5c-82.5,0-149.5,66.9-149.5,149.4c0,42.6,18.1,83.1,49.9,111.5"/>
	<path class="st2" d="M332.5,196.3c21.7-68.2-16-141.2-84.3-162.9c-3.8-1.2-7.7-2.3-11.7-3.1"/>
	<path class="st2" d="M101.7,84.3C61.6,143.5,77,224.1,136.3,264.2c51.4,34.9,120.4,28.3,164.3-15.7"/>
	<path class="st3" d="M197,269.4c4,0.4,8,0.6,12,0.6c62.4,0,113-50.6,113-113"/>
	<path class="st3" d="M313.9,115c-23.2-57.9-89-86.1-146.9-62.9C124.1,69.3,96,110.8,96,157c0,1.9,0,3.8,0.1,5.7"/>
	<path class="st4" d="M228.7,65.4c-50.6-10.9-100.4,21.3-111.2,71.9s21.3,100.4,71.9,111.2s100.4-21.3,111.2-71.9
		c1.3-6.1,2-12.3,2.1-18.5"/>
	<path class="st5" d="M198.6,259.3c3.4,0.3,6.9,0.5,10.4,0.5c56.8,0,102.8-46,102.8-102.8c0-31.4-14.4-61.1-39-80.6"/>
	<path class="st5" d="M185.7,56.9C130.4,69.8,96,125,108.9,180.3c4.2,18.1,13.2,34.6,26.1,48"/>
	<circle class="st6" cx="209" cy="157" r="66.2"/>
</g>
<g id="Layer_2">
	<g class="st7">
		<path class="st8" d="M171.4,172.4v-30.7h11.5c2.3,0,4.2,0.3,5.6,0.9c1.4,0.6,2.5,1.6,3.3,2.9s1.2,2.6,1.2,4c0,1.3-0.4,2.5-1.1,3.7
			c-0.7,1.2-1.8,2.1-3.2,2.8c1.9,0.5,3.3,1.5,4.3,2.8c1,1.3,1.5,2.9,1.5,4.6c0,1.4-0.3,2.8-0.9,4c-0.6,1.2-1.4,2.2-2.2,2.9
			c-0.9,0.7-2,1.2-3.4,1.5c-1.3,0.3-3,0.5-5,0.5H171.4z M175.5,154.6h6.6c1.8,0,3.1-0.1,3.9-0.4c1-0.3,1.8-0.8,2.3-1.5
			s0.8-1.6,0.8-2.7c0-1-0.2-1.9-0.7-2.7s-1.2-1.3-2.1-1.6s-2.5-0.4-4.7-0.4h-6.1V154.6z M175.5,168.8h7.6c1.3,0,2.2,0,2.8-0.1
			c0.9-0.2,1.7-0.4,2.3-0.8c0.6-0.4,1.1-1,1.5-1.7c0.4-0.7,0.6-1.6,0.6-2.6c0-1.1-0.3-2.1-0.9-3c-0.6-0.8-1.4-1.4-2.4-1.8
			c-1-0.3-2.5-0.5-4.5-0.5h-7.1V168.8z"/>
		<path class="st8" d="M198,172.4v-30.7h11.5c2.3,0,4.2,0.3,5.6,0.9c1.4,0.6,2.5,1.6,3.3,2.9s1.2,2.6,1.2,4c0,1.3-0.4,2.5-1.1,3.7
			c-0.7,1.2-1.8,2.1-3.2,2.8c1.9,0.5,3.3,1.5,4.3,2.8c1,1.3,1.5,2.9,1.5,4.6c0,1.4-0.3,2.8-0.9,4c-0.6,1.2-1.4,2.2-2.2,2.9
			c-0.9,0.7-2,1.2-3.4,1.5c-1.3,0.3-3,0.5-5,0.5H198z M202.1,154.6h6.6c1.8,0,3.1-0.1,3.9-0.4c1-0.3,1.8-0.8,2.3-1.5
			s0.8-1.6,0.8-2.7c0-1-0.2-1.9-0.7-2.7s-1.2-1.3-2.1-1.6s-2.5-0.4-4.7-0.4h-6.1V154.6z M202.1,168.8h7.6c1.3,0,2.2,0,2.8-0.1
			c0.9-0.2,1.7-0.4,2.3-0.8c0.6-0.4,1.1-1,1.5-1.7c0.4-0.7,0.6-1.6,0.6-2.6c0-1.1-0.3-2.1-0.9-3c-0.6-0.8-1.4-1.4-2.4-1.8
			c-1-0.3-2.5-0.5-4.5-0.5h-7.1V168.8z"/>
		<path class="st8" d="M246.7,161.6l4.1,1c-0.9,3.3-2.4,5.9-4.6,7.6s-4.9,2.6-8.1,2.6c-3.3,0-6-0.7-8.1-2c-2.1-1.3-3.6-3.3-4.7-5.9
			c-1.1-2.6-1.6-5.3-1.6-8.2c0-3.2,0.6-6,1.8-8.4c1.2-2.4,3-4.2,5.2-5.4c2.3-1.2,4.7-1.9,7.4-1.9c3.1,0,5.7,0.8,7.7,2.3
			c2.1,1.6,3.6,3.8,4.4,6.6l-4,0.9c-0.7-2.2-1.7-3.9-3.1-4.9c-1.4-1-3.1-1.5-5.1-1.5c-2.4,0-4.3,0.6-5.9,1.7
			c-1.6,1.1-2.7,2.6-3.3,4.6c-0.6,1.9-1,3.9-1,5.9c0,2.6,0.4,4.9,1.1,6.8c0.8,1.9,1.9,3.4,3.5,4.4s3.3,1.4,5.2,1.4
			c2.3,0,4.2-0.7,5.8-2S246.2,164.2,246.7,161.6z"/>
	</g>
</g>
</svg>
