<svg xmlns="http://www.w3.org/2000/svg" viewBox="0 0 437 317.98"><defs><style>.cls-1{fill:#2c3d6c;}.cls-2,.cls-3,.cls-4,.cls-5{fill:none;stroke:#fff;stroke-miterlimit:10;}.cls-2{stroke-width:1.74px;}.cls-3{stroke-width:1.33px;}.cls-4{stroke-width:1.74px;}.cls-5{stroke-width:1.51px;}.cls-6{fill:#fff;}</style></defs><title>ri</title><g id="Layer_4" data-name="Layer 4"><rect class="cls-1" x="110.35" y="62.15" width="225.98" height="205.56"/><path class="cls-1" d="M329.41,60.33l62.37-34.42a6.36,6.36,0,0,1,9.43,5.57V275a6.36,6.36,0,0,1-7.61,6.24l-62.37-12.5a6.36,6.36,0,0,1-5.11-6.24V65.9A6.36,6.36,0,0,1,329.41,60.33Z"/><path class="cls-1" d="M52.82,24.83,118,61.44a4.94,4.94,0,0,1,2.52,4.31V263.66a4.94,4.94,0,0,1-4,4.84L51.37,281.56a4.94,4.94,0,0,1-5.91-4.84V29.14A4.94,4.94,0,0,1,52.82,24.83Z"/><polygon class="cls-2" points="199.16 126.56 182.33 143.38 188.49 166.36 211.47 172.52 228.3 155.7 222.14 132.71 199.16 126.56"/><line class="cls-3" x1="222.91" y1="154.25" x2="218.19" y2="136.66"/><line class="cls-3" x1="192.43" y1="162.42" x2="210.03" y2="167.13"/><line class="cls-3" x1="200.6" y1="131.94" x2="187.72" y2="144.82"/><line class="cls-4" x1="232.55" y1="93.08" x2="238.71" y2="116.06"/><polyline class="cls-4" points="278.2 105.8 261.97 122.02 238.75 116.1 221.93 132.93"/><line class="cls-4" x1="188.79" y1="166.51" x2="171.97" y2="183.33"/><line class="cls-4" x1="217.93" y1="195.65" x2="211.77" y2="172.67"/><rect class="cls-5" x="147.97" y="81.09" width="143.15" height="131.1" rx="6.06" ry="6.06"/><rect class="cls-6" x="147.97" y="220.63" width="143.15" height="8.1" rx="0.98" ry="0.98"/><rect class="cls-6" x="147.97" y="234.57" width="133.43" height="8.1" rx="0.98" ry="0.98"/><path class="cls-6" d="M347.46,91.07V199.52a2.52,2.52,0,0,0,2.11,2.49l31.18,5.09a2.52,2.52,0,0,0,2.93-2.48l.27-129.33A2.52,2.52,0,0,0,380.3,73L348.85,88.81A2.52,2.52,0,0,0,347.46,91.07Z"/><path class="cls-6" d="M69.33,134.15l32.47,8.31A4.19,4.19,0,0,0,107,138.4V101.07a4.19,4.19,0,0,0-2.59-3.87L72,83.74a4.19,4.19,0,0,0-5.8,3.87v42.47A4.19,4.19,0,0,0,69.33,134.15Z"/><path class="cls-6" d="M70.18,202.86l32.47,1.44a4.19,4.19,0,0,0,4.38-4.19V162.4a4.19,4.19,0,0,0-3.36-4.11L71.21,151.7a4.19,4.19,0,0,0-5,4.11v42.86A4.19,4.19,0,0,0,70.18,202.86Z"/></g></svg>