<?xml version="1.0" encoding="utf-8"?>
<!-- Generator: Adobe Illustrator 22.0.1, SVG Export Plug-In . SVG Version: 6.00 Build 0)  -->
<svg version="1.1" id="Layer_1" xmlns="http://www.w3.org/2000/svg" xmlns:xlink="http://www.w3.org/1999/xlink" x="0px" y="0px"
	 viewBox="0 0 50 50" style="enable-background:new 0 0 50 50;" xml:space="preserve">
<style type="text/css">
	.st0{fill:#FFFFFF;}
</style>
<path id="facebook-circle-icon" class="st0" d="M25.7,7c-9.9,0-18,8.1-18,18c0,9.9,8.1,18,18,18c9.9,0,18-8.1,18-18
	C43.7,15.1,35.7,7,25.7,7z M31,17.6c0,0-1.8,0-2.5,0c-0.9,0-1.1,0.4-1.1,1.3c0,0.8,0,2.2,0,2.2H31L30.7,25h-3.2v11.6h-4.6V25h-2.4
	v-3.9h2.4c0,0,0-0.6,0-3.1c0-2.9,1.6-4.4,5-4.4c0.6,0,3.2,0,3.2,0V17.6L31,17.6z"/>
</svg>
