<?xml version="1.0" encoding="utf-8"?>
<!-- Generator: Adobe Illustrator 22.0.1, SVG Export Plug-In . SVG Version: 6.00 Build 0)  -->
<svg version="1.1" id="Layer_1" xmlns="http://www.w3.org/2000/svg" xmlns:xlink="http://www.w3.org/1999/xlink" x="0px" y="0px"
	 viewBox="0 0 50 50" style="enable-background:new 0 0 50 50;" xml:space="preserve">
<style type="text/css">
	.st0{fill:#FFFFFF;}
</style>
<g>
	<path id="flickr-circle-icon_2_" class="st0" d="M26.2,7.3c-10,0-18.1,8.1-18.1,18.1s8.1,18.1,18.1,18.1c10,0,18.1-8.1,18.1-18.1
		S36.2,7.3,26.2,7.3z M31.6,31.4c-2.3,0-4.4-1.3-5.4-3.3c-1,2-3,3.3-5.4,3.3c-3.3,0-6-2.7-6-6s2.7-6,6-6c2.3,0,4.4,1.3,5.4,3.3
		c1-2,3-3.3,5.4-3.3c3.3,0,6,2.7,6,6S34.9,31.4,31.6,31.4z M36,25.4c0,2.4-2,4.4-4.4,4.4c-2.4,0-4.4-2-4.4-4.4c0-2.4,2-4.4,4.4-4.4
		C34,20.9,36,22.9,36,25.4z"/>
</g>
</svg>
