<?xml version="1.0" encoding="utf-8"?>
<!-- Generator: Adobe Illustrator 22.0.1, SVG Export Plug-In . SVG Version: 6.00 Build 0)  -->
<svg version="1.1" id="Layer_1" xmlns="http://www.w3.org/2000/svg" xmlns:xlink="http://www.w3.org/1999/xlink" x="0px" y="0px"
	 viewBox="0 0 50 50" style="enable-background:new 0 0 50 50;" xml:space="preserve">
<style type="text/css">
	.st0{fill:#FFFFFF;}
</style>
<path id="instagram-circle-icon" class="st0" d="M34.6,17.1v2.2c0,0.4-0.3,0.6-0.6,0.6h-2.2c-0.4,0-0.6-0.3-0.6-0.6v-2.2
	c0-0.4,0.3-0.6,0.6-0.6h2.2C34.3,16.5,34.6,16.8,34.6,17.1z M26.3,28c1.6,0,2.9-1.3,2.9-2.9c0-1.6-1.3-2.9-2.9-2.9s-2.9,1.3-2.9,2.9
	C23.4,26.7,24.7,28,26.3,28z M44,25c0,9.9-8.1,18-18,18c-9.9,0-18-8.1-18-18c0-9.9,8.1-18,18-18C36,7,44,15.1,44,25z M36.4,22.1
	h-5.9c0.6,0.8,1,1.9,1,3c0,2.9-2.3,5.2-5.2,5.2c-2.9,0-5.2-2.3-5.2-5.2c0-1.1,0.4-2.2,1-3h-5.9v9.1c0,2.2,1.8,4,4,4h12.2
	c2.2,0,4-1.8,4-4V22.1z M26.3,29.1c2.2,0,4-1.8,4-4c0-1.2-0.5-2.3-1.4-3c-0.3-0.3-0.6-0.5-1-0.6c-0.5-0.2-1.1-0.4-1.6-0.4
	c-0.6,0-1.1,0.1-1.6,0.4c-0.4,0.2-0.7,0.4-1,0.6c-0.8,0.7-1.4,1.8-1.4,3C22.3,27.3,24.1,29.1,26.3,29.1z M36.4,18.8c0-2.2-1.8-4-4-4
	H21.5v5h-0.8v-5h-0.5c0,0-0.1,0-0.1,0v5h-0.8v-4.9c-0.2,0-0.4,0.1-0.6,0.2v4.8h-0.8v-4.3c-1,0.7-1.7,1.9-1.7,3.3v2.6h6.4
	c0.9-1,2.2-1.5,3.7-1.5c1.4,0,2.8,0.6,3.7,1.5h6.4L36.4,18.8L36.4,18.8z"/>
</svg>
