<?xml version="1.0" encoding="utf-8"?>
<!-- Generator: Adobe Illustrator 22.0.1, SVG Export Plug-In . SVG Version: 6.00 Build 0)  -->
<svg version="1.1" id="Layer_1" xmlns="http://www.w3.org/2000/svg" xmlns:xlink="http://www.w3.org/1999/xlink" x="0px" y="0px"
	 viewBox="0 0 50 50" style="enable-background:new 0 0 50 50;" xml:space="preserve">
<style type="text/css">
	.st0{fill:#FFFFFF;}
</style>
<path id="linkedin-circle-icon" class="st0" d="M26.4,7c-9.9,0-18,8.1-18,18c0,9.9,8.1,18,18,18c9.9,0,18-8.1,18-18
	C44.4,15.1,36.3,7,26.4,7z M21.6,33.7h-4V20.9h4V33.7z M19.6,19.3c-1.3,0-2.3-1.1-2.3-2.4c0-1.3,1-2.4,2.3-2.4
	c1.3,0,2.3,1.1,2.3,2.4C21.9,18.2,20.9,19.3,19.6,19.3z M36.4,33.7h-3.9c0,0,0-4.9,0-6.7c0-1.8-0.7-2.9-2.2-2.9
	c-1.6,0-2.4,1.1-2.4,2.9c0,2,0,6.7,0,6.7h-3.8V20.9h3.8v1.7c0,0,1.1-2.1,3.8-2.1c2.7,0,4.6,1.7,4.6,5.1C36.4,29,36.4,33.7,36.4,33.7
	z"/>
</svg>
