<?xml version="1.0" encoding="utf-8"?>
<!-- Generator: Adobe Illustrator 22.0.1, SVG Export Plug-In . SVG Version: 6.00 Build 0)  -->
<svg version="1.1" id="Layer_1" xmlns="http://www.w3.org/2000/svg" xmlns:xlink="http://www.w3.org/1999/xlink" x="0px" y="0px"
	 viewBox="0 0 50 50" style="enable-background:new 0 0 50 50;" xml:space="preserve">
<style type="text/css">
	.st0{fill:#FFFFFF;}
</style>
<path id="twitter-4-icon" class="st0" d="M26.4,7c-9.9,0-18,8.1-18,18c0,9.9,8.1,18,18,18c9.9,0,18-8.1,18-18
	C44.4,15.1,36.3,7,26.4,7z M35.4,21.9c0.3,5.9-4.1,12.4-11.9,12.4c-2.4,0-4.6-0.7-6.4-1.9c2.2,0.3,4.4-0.4,6.2-1.7
	c-1.8,0-3.4-1.2-3.9-2.9c0.7,0.1,1.3,0.1,1.9-0.1c-2-0.4-3.4-2.2-3.3-4.1c0.6,0.3,1.2,0.5,1.9,0.5c-1.9-1.2-2.4-3.7-1.3-5.6
	c2.1,2.5,5.1,4.2,8.6,4.4c-0.6-2.6,1.4-5.1,4.1-5.1c1.2,0,2.3,0.5,3,1.3c1-0.2,1.8-0.5,2.7-1c-0.3,1-1,1.8-1.8,2.3
	c0.8-0.1,1.6-0.3,2.4-0.7C37,20.6,36.2,21.3,35.4,21.9z"/>
</svg>
