<?xml version="1.0" encoding="utf-8"?>
<!-- Generator: Adobe Illustrator 22.0.1, SVG Export Plug-In . SVG Version: 6.00 Build 0)  -->
<svg version="1.1" id="Layer_1" xmlns="http://www.w3.org/2000/svg" xmlns:xlink="http://www.w3.org/1999/xlink" x="0px" y="0px"
	 viewBox="0 0 50 50" style="enable-background:new 0 0 50 50;" xml:space="preserve">
<style type="text/css">
	.st0{fill:#FFFFFF;}
</style>
<path id="youtube-4-icon" class="st0" d="M28.5,28c-0.4,0-0.8,0.3-1,0.6v-2.7h-1.2v8.4h1.2v-0.5c0.3,0.4,0.7,0.6,1.1,0.6
	c0.8,0,1.1-0.6,1.1-1.4v-3.4C29.6,28.7,29.3,28,28.5,28z M28.4,32.8c0,0.2,0,0.3-0.1,0.4c-0.1,0.2-0.4,0.2-0.6,0.1
	c-0.1,0-0.2-0.1-0.3-0.2v-3.9c0.1-0.1,0.2-0.1,0.2-0.2c0.2-0.1,0.5-0.1,0.6,0.1c0.1,0.1,0.1,0.3,0.1,0.5V32.8L28.4,32.8z M24.5,20.7
	v-3c0-0.4,0.2-0.6,0.5-0.6c0.4,0,0.5,0.3,0.5,0.6v3c0,0.4-0.2,0.6-0.5,0.6C24.7,21.3,24.5,21,24.5,20.7z M24,28.1h1.1v6.2H24v-0.7
	c-0.2,0.3-0.4,0.4-0.7,0.6c-0.6,0.4-1.5,0.3-1.5-0.9v-5.2H23v4.7c0,0.2,0.1,0.4,0.3,0.4c0.2,0,0.5-0.3,0.7-0.5V28.1z M21.9,27.1
	h-1.3v7.2h-1.3v-7.2h-1.3v-1.2h4V27.1L21.9,27.1z M32.2,27.9c-1,0-1.7,0.7-1.7,1.8v2.8c0,1.1,0.6,1.9,1.7,1.9c1.2,0,1.7-0.7,1.7-1.9
	v-0.5h-1.2v0.4c0,0.5,0,0.9-0.5,0.9c-0.5,0-0.5-0.4-0.5-0.9v-1.2h2.2v-1.6C33.8,28.6,33.3,27.9,32.2,27.9z M32.6,30.4h-1v-0.6
	c0-0.4,0.1-0.7,0.5-0.7c0.4,0,0.5,0.3,0.5,0.7V30.4L32.6,30.4z M25.7,7.2c-10,0-18.1,8.1-18.1,18.1s8.1,18.1,18.1,18.1
	c10,0,18.1-8.1,18.1-18.1S35.7,7.2,25.7,7.2z M27.8,15.9H29v5c0,0.3,0.1,0.4,0.3,0.4c0.2,0,0.6-0.3,0.7-0.5v-4.9h1.2v6.5h-1.2v-0.7
	c-0.5,0.6-1,0.8-1.4,0.8c-0.6,0-0.8-0.5-0.8-1.2V15.9L27.8,15.9z M25.1,15.8c1,0,1.7,0.7,1.7,1.7v3.2c0,1.1-0.8,1.7-1.7,1.7
	c-1.2,0-1.8-0.6-1.8-1.7v-3.2C23.3,16.5,24,15.8,25.1,15.8z M20.2,13.6l0.9,3.5l0.9-3.5h1.4l-1.6,5.2v3.6h-1.4v-3.6l-1.6-5.2H20.2z
	 M35.6,33.6c0,1.5-1.2,2.8-2.8,2.8H18.7c-1.5,0-2.8-1.2-2.8-2.8v-7c0-1.5,1.2-2.8,2.8-2.8h14.2c1.5,0,2.8,1.2,2.8,2.8V33.6z"/>
</svg>
