<svg id="Layer_1" data-name="Layer 1" xmlns="http://www.w3.org/2000/svg" viewBox="0 0 627.97 475.15"><defs><style>.cls-1{font-size:18px;fill:#2c3d6c;font-family:OpenSans-Bold, Open Sans;}.cls-2,.cls-79{font-weight:700;}.cls-3{letter-spacing:-0.01em;}.cls-4{letter-spacing:0em;}.cls-5{letter-spacing:-0.02em;}.cls-6{letter-spacing:-0.01em;}.cls-7{letter-spacing:0em;}.cls-8{letter-spacing:-0.01em;}.cls-9{letter-spacing:-0.01em;}.cls-10{letter-spacing:-0.01em;}.cls-11{letter-spacing:0em;}.cls-12{font-size:14px;}.cls-12,.cls-33{font-family:OpenSans, Open Sans;}.cls-13{letter-spacing:0em;}.cls-14{letter-spacing:-0.01em;}.cls-15{letter-spacing:0.01em;}.cls-16{letter-spacing:-0.01em;}.cls-17{letter-spacing:0em;}.cls-18{letter-spacing:0em;}.cls-19{letter-spacing:0em;}.cls-20{letter-spacing:0em;}.cls-21{letter-spacing:-0.01em;}.cls-22{letter-spacing:-0.01em;}.cls-23{letter-spacing:-0.01em;}.cls-24{letter-spacing:0em;}.cls-25{letter-spacing:0.02em;}.cls-26{letter-spacing:0em;}.cls-27{letter-spacing:-0.01em;}.cls-28{letter-spacing:-0.01em;}.cls-29{letter-spacing:0em;}.cls-30{letter-spacing:-0.01em;}.cls-31{letter-spacing:0em;}.cls-32{letter-spacing:-0.01em;}.cls-33,.cls-79{font-size:11px;}.cls-34{letter-spacing:0em;}.cls-35{letter-spacing:0em;}.cls-36{letter-spacing:0em;}.cls-37{letter-spacing:0em;}.cls-38{letter-spacing:0em;}.cls-39{letter-spacing:0em;}.cls-40{letter-spacing:-0.01em;}.cls-41{letter-spacing:0.02em;}.cls-42{letter-spacing:0em;}.cls-43{letter-spacing:0em;}.cls-44{letter-spacing:0em;}.cls-45{letter-spacing:0em;}.cls-46{letter-spacing:0.02em;}.cls-47{letter-spacing:0em;}.cls-48{letter-spacing:0.02em;}.cls-49{letter-spacing:0em;}.cls-50{letter-spacing:0.01em;}.cls-51{letter-spacing:0.05em;}.cls-52{letter-spacing:0.01em;}.cls-53{letter-spacing:0em;}.cls-54{letter-spacing:0em;}.cls-55{letter-spacing:0em;}.cls-56{letter-spacing:-0.03em;}.cls-57{letter-spacing:0.01em;}.cls-58{letter-spacing:0em;}.cls-59{letter-spacing:0.01em;}.cls-60{letter-spacing:0.05em;}.cls-61{letter-spacing:0em;}.cls-62{letter-spacing:0.01em;}.cls-63{letter-spacing:0em;}.cls-64{letter-spacing:0em;}.cls-65{letter-spacing:0em;}.cls-66{letter-spacing:0.01em;}.cls-67{letter-spacing:0em;}.cls-68{letter-spacing:0em;}.cls-69{letter-spacing:0em;}.cls-70{letter-spacing:0em;}.cls-71{letter-spacing:0em;}.cls-72{letter-spacing:-0.01em;}.cls-73{letter-spacing:0em;}.cls-74{letter-spacing:0.05em;}.cls-75{letter-spacing:-0.01em;}.cls-76{letter-spacing:0.02em;}.cls-77{letter-spacing:0em;}.cls-78{letter-spacing:0em;}.cls-80{letter-spacing:0.03em;}.cls-81{letter-spacing:0.01em;}.cls-82{letter-spacing:0.01em;}.cls-83{letter-spacing:0.01em;}.cls-84{letter-spacing:0em;}.cls-85{letter-spacing:-0.01em;}.cls-86{letter-spacing:0em;}.cls-87{letter-spacing:0.01em;}.cls-88{letter-spacing:0em;}.cls-89{letter-spacing:0.01em;}.cls-90{letter-spacing:0em;}.cls-91{letter-spacing:0.01em;}.cls-92{letter-spacing:0em;}.cls-93{letter-spacing:0.01em;}.cls-94{letter-spacing:0.03em;}.cls-95{letter-spacing:0.02em;}.cls-96{letter-spacing:0em;}.cls-97{letter-spacing:0em;}.cls-98{letter-spacing:0.02em;}.cls-99{letter-spacing:0.04em;}.cls-100{letter-spacing:0.03em;}.cls-101{letter-spacing:0.02em;}.cls-102{letter-spacing:0.03em;}.cls-103{fill:#8ecb91;}.cls-104{fill:none;stroke:#8ecb91;stroke-linecap:round;stroke-miterlimit:10;stroke-width:3px;}.cls-105{letter-spacing:0em;}.cls-106{letter-spacing:-0.01em;}.cls-107{letter-spacing:0em;}.cls-108{letter-spacing:0.01em;}.cls-109{letter-spacing:0em;}.cls-110{letter-spacing:0em;}.cls-111{letter-spacing:-0.01em;}.cls-112{letter-spacing:0em;}.cls-113{letter-spacing:-0.02em;}.cls-114{letter-spacing:-0.01em;}.cls-115{letter-spacing:-0.01em;}.cls-116{letter-spacing:-0.01em;}.cls-117{letter-spacing:-0.01em;}.cls-118{letter-spacing:0em;}.cls-119{letter-spacing:-0.01em;}.cls-120{letter-spacing:-0.02em;}.cls-121{letter-spacing:0em;}.cls-122{letter-spacing:0em;}.cls-123{letter-spacing:-0.01em;}.cls-124{letter-spacing:-0.01em;}.cls-125{letter-spacing:-0.01em;}.cls-126{letter-spacing:0em;}.cls-127{letter-spacing:-0.01em;}.cls-128{letter-spacing:0em;}.cls-129{letter-spacing:0.01em;}.cls-130{letter-spacing:0.01em;}.cls-131{letter-spacing:0.02em;}.cls-132{letter-spacing:0.03em;}.cls-133{letter-spacing:-0.03em;}.cls-134{letter-spacing:-0.02em;}.cls-135{letter-spacing:0em;}.cls-136{letter-spacing:-0.01em;}.cls-137{letter-spacing:-0.01em;}.cls-138{letter-spacing:0em;}.cls-139{letter-spacing:0em;}.cls-140{letter-spacing:0em;}.cls-141{letter-spacing:0em;}.cls-142{letter-spacing:0em;}.cls-143{letter-spacing:0em;}.cls-144{letter-spacing:-0.01em;}.cls-145{letter-spacing:0em;}.cls-146{letter-spacing:0em;}.cls-147{letter-spacing:-0.01em;}.cls-148{letter-spacing:-0.07em;}.cls-149{letter-spacing:-0.03em;}.cls-150{letter-spacing:-0.02em;}.cls-151{letter-spacing:-0.01em;}.cls-152{letter-spacing:0em;}.cls-153{letter-spacing:-0.01em;}.cls-154{letter-spacing:0em;}.cls-155{letter-spacing:-0.01em;}.cls-156{letter-spacing:-0.01em;}.cls-157{letter-spacing:-0.02em;}.cls-158{letter-spacing:0em;}.cls-159{letter-spacing:0.02em;}.cls-160{letter-spacing:0em;}.cls-161{letter-spacing:0em;}.cls-162{letter-spacing:0.01em;}.cls-163{letter-spacing:0.01em;}.cls-164{letter-spacing:0em;}.cls-165{letter-spacing:-0.01em;}.cls-166{letter-spacing:0.01em;}.cls-167{letter-spacing:0em;}.cls-168{letter-spacing:0em;}.cls-169{letter-spacing:0em;}.cls-170{letter-spacing:0em;}.cls-171{letter-spacing:0.01em;}.cls-172{letter-spacing:0.01em;}.cls-173{letter-spacing:0.05em;}.cls-174{letter-spacing:0.03em;}.cls-175{letter-spacing:0.03em;}.cls-176{letter-spacing:0.02em;}.cls-177{letter-spacing:0.01em;}.cls-178{letter-spacing:-0.01em;}.cls-179{letter-spacing:0em;}.cls-180{letter-spacing:-0.01em;}.cls-181{letter-spacing:-0.01em;}.cls-182{letter-spacing:-0.01em;}.cls-183{letter-spacing:0em;}.cls-184{letter-spacing:-0.01em;}.cls-185{letter-spacing:0em;}.cls-186{letter-spacing:0em;}.cls-187{letter-spacing:0em;}.cls-188{letter-spacing:-0.01em;}.cls-189{letter-spacing:-0.01em;}.cls-190{letter-spacing:0em;}.cls-191{letter-spacing:-0.01em;}.cls-192{letter-spacing:0.02em;}.cls-193{letter-spacing:-0.01em;}.cls-194{letter-spacing:-0.01em;}.cls-195{letter-spacing:0.01em;}.cls-196{letter-spacing:0em;}.cls-197{letter-spacing:0em;}.cls-198{letter-spacing:0em;}.cls-199{letter-spacing:0em;}.cls-200{letter-spacing:0.05em;}.cls-201{letter-spacing:0.04em;}.cls-202{letter-spacing:0.04em;}.cls-203{letter-spacing:0.01em;}.cls-204{letter-spacing:0em;}.cls-205{letter-spacing:0.01em;}.cls-206{letter-spacing:-0.01em;}.cls-207{letter-spacing:0em;}.cls-208{letter-spacing:0em;}.cls-209{letter-spacing:-0.01em;}.cls-210{letter-spacing:-0.01em;}.cls-211{letter-spacing:0em;}.cls-212{letter-spacing:0em;}.cls-213{letter-spacing:0.01em;}.cls-214{letter-spacing:0.01em;}.cls-215{letter-spacing:0.01em;}.cls-216{letter-spacing:0.02em;}.cls-217{letter-spacing:0em;}.cls-218{letter-spacing:-0.05em;}.cls-219{letter-spacing:-0.02em;}</style></defs><title>admin-core</title><text class="cls-1" transform="translate(245.98 15.42)"><tspan class="cls-2">K <tspan class="cls-3" x="16.63" y="0">G</tspan><tspan class="cls-4" x="29.56" y="0">u</tspan><tspan x="41.42" y="0">s </tspan><tspan class="cls-5" x="55.05" y="0">K</tspan><tspan class="cls-6" x="66.62" y="0">o</tspan><tspan class="cls-4" x="77.66" y="0">u</tspan><tspan class="cls-7" x="89.53" y="0">s</tspan><tspan class="cls-8" x="98.44" y="0">o</tspan><tspan class="cls-9" x="109.48" y="0">u</tspan><tspan class="cls-10" x="121.14" y="0">l</tspan><tspan class="cls-11" x="126.51" y="0">a</tspan><tspan x="137.39" y="0">s</tspan></tspan><tspan class="cls-12"><tspan class="cls-13" x="0.98" y="16.8">(</tspan><tspan class="cls-14" x="5.07" y="16.8">P</tspan><tspan class="cls-15" x="13.36" y="16.8">r</tspan><tspan class="cls-16" x="19.16" y="16.8">i</tspan><tspan class="cls-17" x="22.58" y="16.8">n</tspan><tspan class="cls-18" x="31.12" y="16.8">c</tspan><tspan class="cls-16" x="37.73" y="16.8">i</tspan><tspan class="cls-19" x="41.16" y="16.8">p</tspan><tspan class="cls-20" x="49.7" y="16.8">l</tspan><tspan x="53.18" y="16.8">e </tspan><tspan class="cls-21" x="64.67" y="16.8">I</tspan><tspan class="cls-22" x="68.48" y="16.8">n</tspan><tspan class="cls-23" x="77" y="16.8">v</tspan><tspan class="cls-24" x="83.93" y="16.8">e</tspan><tspan class="cls-25" x="91.79" y="16.8">s</tspan><tspan class="cls-26" x="98.74" y="16.8">t</tspan><tspan class="cls-27" x="103.72" y="16.8">i</tspan><tspan class="cls-28" x="107.15" y="16.8">g</tspan><tspan class="cls-29" x="114.69" y="16.8">a</tspan><tspan class="cls-30" x="122.46" y="16.8">t</tspan><tspan class="cls-31" x="127.27" y="16.8">o</tspan><tspan class="cls-32" x="135.66" y="16.8">r</tspan><tspan x="141.22" y="16.8">)</tspan></tspan><tspan class="cls-33"><tspan class="cls-34" x="6.71" y="45.8">L</tspan><tspan class="cls-35" x="12.43" y="45.8">o</tspan><tspan class="cls-36" x="19.1" y="45.8">u</tspan><tspan class="cls-37" x="25.83" y="45.8">is</tspan><tspan class="cls-38" x="33.77" y="45.8">i</tspan><tspan x="36.51" y="45.8">a</tspan><tspan class="cls-39" x="42.62" y="45.8">n</tspan><tspan x="49.36" y="45.8">a </tspan><tspan class="cls-40" x="58.33" y="45.8">S</tspan><tspan class="cls-41" x="64.3" y="45.8">t</tspan><tspan class="cls-42" x="68.43" y="45.8">a</tspan><tspan class="cls-43" x="74.59" y="45.8">t</tspan><tspan x="78.43" y="45.8">e </tspan><tspan class="cls-44" x="87.46" y="45.8">U</tspan><tspan class="cls-45" x="95.46" y="45.8">n</tspan><tspan class="cls-46" x="102.2" y="45.8">i</tspan><tspan x="105.17" y="45.8">v</tspan><tspan class="cls-47" x="110.68" y="45.8">e</tspan><tspan class="cls-48" x="116.87" y="45.8">r</tspan><tspan class="cls-49" x="121.57" y="45.8">s</tspan><tspan class="cls-50" x="126.78" y="45.8">i</tspan><tspan class="cls-51" x="129.67" y="45.8">t</tspan><tspan x="134.08" y="45.8">y</tspan><tspan class="cls-52" x="-3.44" y="59.8">S</tspan><tspan class="cls-53" x="2.71" y="59.8">ch</tspan><tspan class="cls-54" x="14.74" y="59.8">o</tspan><tspan class="cls-35" x="21.43" y="59.8">o</tspan><tspan x="28.1" y="59.8">l </tspan><tspan class="cls-55" x="33.74" y="59.8">o</tspan><tspan x="40.35" y="59.8">f </tspan><tspan class="cls-56" x="46.94" y="59.8">V</tspan><tspan class="cls-57" x="53.17" y="59.8">e</tspan><tspan class="cls-58" x="59.4" y="59.8">t</tspan><tspan class="cls-47" x="63.25" y="59.8">e</tspan><tspan class="cls-59" x="69.43" y="59.8">r</tspan><tspan class="cls-55" x="74.05" y="59.8">i</tspan><tspan class="cls-39" x="76.8" y="59.8">n</tspan><tspan x="83.53" y="59.8">a</tspan><tspan class="cls-60" x="89.65" y="59.8">r</tspan><tspan x="94.73" y="59.8">y </tspan><tspan class="cls-61" x="103.13" y="59.8">M</tspan><tspan class="cls-62" x="113.08" y="59.8">e</tspan><tspan class="cls-36" x="119.33" y="59.8">d</tspan><tspan x="126.05" y="59.8">i</tspan><tspan class="cls-63" x="128.83" y="59.8">c</tspan><tspan class="cls-64" x="134.08" y="59.8">i</tspan><tspan class="cls-65" x="136.83" y="59.8">n</tspan><tspan x="143.61" y="59.8">e</tspan><tspan class="cls-66" x="13.61" y="73.8">B</tspan><tspan class="cls-42" x="20.87" y="73.8">a</tspan><tspan class="cls-67" x="27.04" y="73.8">t</tspan><tspan class="cls-68" x="30.88" y="73.8">o</tspan><tspan x="37.53" y="73.8">n </tspan><tspan class="cls-69" x="47.14" y="73.8">R</tspan><tspan class="cls-70" x="53.9" y="73.8">o</tspan><tspan class="cls-71" x="60.56" y="73.8">u</tspan><tspan class="cls-72" x="67.3" y="73.8">g</tspan><tspan class="cls-73" x="73.21" y="73.8">e</tspan><tspan x="79.37" y="73.8">, </tspan><tspan class="cls-74" x="84.93" y="73.8">L</tspan><tspan x="91.23" y="73.8">A </tspan><tspan class="cls-75" x="101.05" y="73.8">7</tspan><tspan class="cls-76" x="107.23" y="73.8">08</tspan><tspan class="cls-77" x="120.15" y="73.8">0</tspan><tspan class="cls-78" x="126.43" y="73.8">3</tspan></tspan><tspan class="cls-79"><tspan class="cls-80" x="29.46" y="87.8">v</tspan><tspan class="cls-81" x="36.05" y="87.8">t</tspan><tspan class="cls-82" x="40.96" y="87.8">g</tspan><tspan class="cls-83" x="47.23" y="87.8">u</tspan><tspan class="cls-84" x="54.55" y="87.8">s</tspan><tspan class="cls-85" x="60.06" y="87.8">k</tspan><tspan class="cls-86" x="66.81" y="87.8">@</tspan><tspan class="cls-87" x="76.72" y="87.8">l</tspan><tspan class="cls-88" x="80.17" y="87.8">s</tspan><tspan class="cls-89" x="85.66" y="87.8">u</tspan><tspan class="cls-90" x="93" y="87.8">.</tspan><tspan class="cls-91" x="96.09" y="87.8">e</tspan><tspan class="cls-92" x="102.71" y="87.8">d</tspan><tspan x="109.65" y="87.8">u</tspan><tspan class="cls-93" x="33.64" y="101.8">(</tspan><tspan class="cls-94" x="37.42" y="101.8">2</tspan><tspan class="cls-95" x="44" y="101.8">2</tspan><tspan class="cls-96" x="50.53" y="101.8">5</tspan><tspan x="56.83" y="101.8">) </tspan><tspan class="cls-97" x="63.41" y="101.8">5</tspan><tspan class="cls-98" x="69.73" y="101.8">7</tspan><tspan class="cls-99" x="76.17" y="101.8">8</tspan><tspan class="cls-100" x="82.94" y="101.8">-</tspan><tspan class="cls-101" x="86.8" y="101.8">5</tspan><tspan class="cls-102" x="93.33" y="101.8">8</tspan><tspan class="cls-95" x="99.89" y="101.8">3</tspan><tspan x="106.42" y="101.8">3</tspan></tspan></text><circle class="cls-103" cx="319.15" cy="43.76" r="2.47"/><line class="cls-104" x1="231.5" y1="44.23" x2="309.47" y2="44.23"/><line class="cls-104" x1="329.5" y1="44.23" x2="407.47" y2="44.23"/><text class="cls-1" transform="translate(221.39 182.42)"><tspan class="cls-2"><tspan class="cls-105">R</tspan><tspan class="cls-106" x="11.92" y="0">a</tspan><tspan class="cls-107" x="22.63" y="0">m</tspan><tspan class="cls-108" x="40.21" y="0">e</tspan><tspan class="cls-109" x="50.94" y="0">s</tspan><tspan x="59.85" y="0">h </tspan><tspan class="cls-110" x="76.35" y="0">S</tspan><tspan class="cls-111" x="86.18" y="0">u</tspan><tspan class="cls-112" x="97.85" y="0">b</tspan><tspan class="cls-113" x="109.19" y="0">r</tspan><tspan class="cls-106" x="117.08" y="0">ama</tspan><tspan class="cls-114" x="156.02" y="0">n</tspan><tspan class="cls-115" x="167.67" y="0">i</tspan><tspan class="cls-106" x="172.98" y="0">a</tspan><tspan x="183.7" y="0">n</tspan></tspan><tspan class="cls-12"><tspan class="cls-13" x="24.69" y="16.8">(</tspan><tspan class="cls-14" x="28.79" y="16.8">P</tspan><tspan class="cls-116" x="37.07" y="16.8">r</tspan><tspan class="cls-117" x="42.66" y="16.8">o</tspan><tspan class="cls-118" x="51.04" y="16.8">g</tspan><tspan class="cls-119" x="58.72" y="16.8">r</tspan><tspan class="cls-23" x="64.35" y="16.8">a</tspan><tspan x="72.05" y="16.8">m </tspan><tspan class="cls-120" x="88.71" y="16.8">C</tspan><tspan class="cls-121" x="97.31" y="16.8">o</tspan><tspan class="cls-122" x="105.76" y="16.8">o</tspan><tspan class="cls-123" x="114.15" y="16.8">r</tspan><tspan class="cls-124" x="119.77" y="16.8">d</tspan><tspan class="cls-16" x="128.25" y="16.8">i</tspan><tspan class="cls-125" x="131.67" y="16.8">n</tspan><tspan class="cls-29" x="140.16" y="16.8">a</tspan><tspan class="cls-30" x="147.93" y="16.8">t</tspan><tspan class="cls-126" x="152.74" y="16.8">o</tspan><tspan class="cls-32" x="161.13" y="16.8">r</tspan><tspan x="166.69" y="16.8">)</tspan></tspan><tspan class="cls-33"><tspan class="cls-34" x="31.31" y="45.8">L</tspan><tspan class="cls-35" x="37.03" y="45.8">o</tspan><tspan class="cls-36" x="43.69" y="45.8">u</tspan><tspan class="cls-37" x="50.42" y="45.8">is</tspan><tspan class="cls-38" x="58.37" y="45.8">i</tspan><tspan x="61.1" y="45.8">a</tspan><tspan class="cls-39" x="67.22" y="45.8">n</tspan><tspan x="73.95" y="45.8">a </tspan><tspan class="cls-40" x="82.93" y="45.8">S</tspan><tspan class="cls-41" x="88.9" y="45.8">t</tspan><tspan class="cls-42" x="93.02" y="45.8">a</tspan><tspan class="cls-43" x="99.19" y="45.8">t</tspan><tspan x="103.03" y="45.8">e </tspan><tspan class="cls-44" x="112.06" y="45.8">U</tspan><tspan class="cls-45" x="120.06" y="45.8">n</tspan><tspan class="cls-46" x="126.79" y="45.8">i</tspan><tspan x="129.77" y="45.8">v</tspan><tspan class="cls-47" x="135.28" y="45.8">e</tspan><tspan class="cls-48" x="141.46" y="45.8">r</tspan><tspan class="cls-49" x="146.16" y="45.8">s</tspan><tspan class="cls-50" x="151.37" y="45.8">i</tspan><tspan class="cls-51" x="154.26" y="45.8">t</tspan><tspan x="158.67" y="45.8">y</tspan><tspan class="cls-52" x="21.15" y="59.8">S</tspan><tspan class="cls-53" x="27.31" y="59.8">ch</tspan><tspan class="cls-54" x="39.33" y="59.8">o</tspan><tspan class="cls-35" x="46.03" y="59.8">o</tspan><tspan x="52.69" y="59.8">l </tspan><tspan class="cls-55" x="58.33" y="59.8">o</tspan><tspan x="64.94" y="59.8">f </tspan><tspan class="cls-56" x="71.53" y="59.8">V</tspan><tspan class="cls-57" x="77.77" y="59.8">e</tspan><tspan class="cls-58" x="84" y="59.8">t</tspan><tspan class="cls-47" x="87.84" y="59.8">e</tspan><tspan class="cls-59" x="94.03" y="59.8">r</tspan><tspan class="cls-55" x="98.64" y="59.8">i</tspan><tspan class="cls-39" x="101.4" y="59.8">n</tspan><tspan x="108.13" y="59.8">a</tspan><tspan class="cls-60" x="114.25" y="59.8">r</tspan><tspan x="119.32" y="59.8">y </tspan><tspan class="cls-61" x="127.72" y="59.8">M</tspan><tspan class="cls-62" x="137.68" y="59.8">e</tspan><tspan class="cls-36" x="143.92" y="59.8">d</tspan><tspan x="150.64" y="59.8">i</tspan><tspan class="cls-63" x="153.42" y="59.8">c</tspan><tspan class="cls-64" x="158.68" y="59.8">i</tspan><tspan class="cls-65" x="161.43" y="59.8">n</tspan><tspan x="168.2" y="59.8">e</tspan><tspan class="cls-66" x="38.21" y="73.8">B</tspan><tspan class="cls-42" x="45.47" y="73.8">a</tspan><tspan class="cls-67" x="51.64" y="73.8">t</tspan><tspan class="cls-68" x="55.47" y="73.8">o</tspan><tspan x="62.13" y="73.8">n </tspan><tspan class="cls-69" x="71.74" y="73.8">R</tspan><tspan class="cls-70" x="78.49" y="73.8">o</tspan><tspan class="cls-71" x="85.16" y="73.8">u</tspan><tspan class="cls-72" x="91.9" y="73.8">g</tspan><tspan class="cls-73" x="97.8" y="73.8">e</tspan><tspan x="103.97" y="73.8">, </tspan><tspan class="cls-74" x="109.52" y="73.8">L</tspan><tspan x="115.82" y="73.8">A </tspan><tspan class="cls-75" x="125.64" y="73.8">7</tspan><tspan class="cls-76" x="131.82" y="73.8">08</tspan><tspan class="cls-77" x="144.75" y="73.8">0</tspan><tspan class="cls-78" x="151.03" y="73.8">3</tspan></tspan><tspan class="cls-79"><tspan class="cls-127" x="58.2" y="87.8">r</tspan><tspan class="cls-128" x="63.1" y="87.8">amj</tspan><tspan class="cls-129" x="83.82" y="87.8">i</tspan><tspan class="cls-86" x="87.25" y="87.8">@</tspan><tspan class="cls-130" x="97.16" y="87.8">l</tspan><tspan class="cls-88" x="100.61" y="87.8">s</tspan><tspan class="cls-89" x="106.1" y="87.8">u</tspan><tspan class="cls-90" x="113.45" y="87.8">.</tspan><tspan class="cls-91" x="116.53" y="87.8">e</tspan><tspan class="cls-92" x="123.16" y="87.8">d</tspan><tspan x="130.1" y="87.8">u</tspan><tspan class="cls-93" x="58.77" y="101.8">(</tspan><tspan class="cls-94" x="62.56" y="101.8">2</tspan><tspan class="cls-95" x="69.13" y="101.8">2</tspan><tspan class="cls-96" x="75.66" y="101.8">5</tspan><tspan x="81.96" y="101.8">) </tspan><tspan class="cls-97" x="88.54" y="101.8">5</tspan><tspan class="cls-98" x="94.86" y="101.8">7</tspan><tspan class="cls-99" x="101.3" y="101.8">8</tspan><tspan class="cls-131" x="108.07" y="101.8">-</tspan><tspan class="cls-132" x="111.87" y="101.8">9</tspan><tspan class="cls-133" x="118.45" y="101.8">6</tspan><tspan class="cls-134" x="124.4" y="101.8">1</tspan><tspan x="130.48" y="101.8">9</tspan></tspan></text><circle class="cls-103" cx="319.15" cy="210.76" r="2.47"/><line class="cls-104" x1="231.5" y1="211.23" x2="309.47" y2="211.23"/><line class="cls-104" x1="329.5" y1="211.23" x2="407.47" y2="211.23"/><text class="cls-1" transform="translate(228.51 355.42)"><tspan class="cls-2"><tspan class="cls-135">J</tspan><tspan class="cls-136" x="5.9" y="0">o</tspan><tspan class="cls-137" x="16.95" y="0">h</tspan><tspan x="28.63" y="0">n </tspan><tspan class="cls-138" x="45.14" y="0">Q</tspan><tspan class="cls-139" x="59.44" y="0">u</tspan><tspan class="cls-140" x="71.18" y="0">e</tspan><tspan class="cls-141" x="81.81" y="0">b</tspan><tspan class="cls-108" x="93.24" y="0">e</tspan><tspan class="cls-142" x="103.97" y="0">d</tspan><tspan class="cls-143" x="115.27" y="0">e</tspan><tspan class="cls-144" x="125.84" y="0">a</tspan><tspan class="cls-145" x="136.54" y="0">u</tspan><tspan class="cls-146" x="148.39" y="0">x </tspan><tspan class="cls-147" x="163.48" y="0">J</tspan><tspan class="cls-148" x="169.31" y="0">r</tspan><tspan x="176.14" y="0">.</tspan></tspan><tspan class="cls-12"><tspan class="cls-149" x="23.56" y="16.8">(</tspan><tspan class="cls-150" x="27.28" y="16.8">C</tspan><tspan class="cls-122" x="35.89" y="16.8">o</tspan><tspan class="cls-151" x="44.28" y="16.8">m</tspan><tspan class="cls-19" x="57.21" y="16.8">p</tspan><tspan class="cls-152" x="65.75" y="16.8">u</tspan><tspan class="cls-153" x="74.41" y="16.8">t</tspan><tspan class="cls-154" x="79.22" y="16.8">e</tspan><tspan x="87.02" y="16.8">r </tspan><tspan class="cls-155" x="96.37" y="16.8">M</tspan><tspan class="cls-156" x="108.89" y="16.8">a</tspan><tspan class="cls-125" x="116.59" y="16.8">n</tspan><tspan class="cls-151" x="125.08" y="16.8">a</tspan><tspan class="cls-157" x="132.78" y="16.8">g</tspan><tspan class="cls-20" x="140.22" y="16.8">e</tspan><tspan class="cls-32" x="148.01" y="16.8">r</tspan><tspan x="153.57" y="16.8">)</tspan></tspan><tspan class="cls-33"><tspan class="cls-34" x="24.18" y="45.8">L</tspan><tspan class="cls-35" x="29.9" y="45.8">o</tspan><tspan class="cls-36" x="36.56" y="45.8">u</tspan><tspan class="cls-37" x="43.29" y="45.8">is</tspan><tspan class="cls-38" x="51.24" y="45.8">i</tspan><tspan x="53.97" y="45.8">a</tspan><tspan class="cls-39" x="60.09" y="45.8">n</tspan><tspan x="66.82" y="45.8">a </tspan><tspan class="cls-40" x="75.8" y="45.8">S</tspan><tspan class="cls-41" x="81.77" y="45.8">t</tspan><tspan class="cls-42" x="85.89" y="45.8">a</tspan><tspan class="cls-43" x="92.06" y="45.8">t</tspan><tspan x="95.9" y="45.8">e </tspan><tspan class="cls-44" x="104.93" y="45.8">U</tspan><tspan class="cls-45" x="112.93" y="45.8">n</tspan><tspan class="cls-46" x="119.67" y="45.8">i</tspan><tspan x="122.64" y="45.8">v</tspan><tspan class="cls-47" x="128.15" y="45.8">e</tspan><tspan class="cls-48" x="134.34" y="45.8">r</tspan><tspan class="cls-49" x="139.03" y="45.8">s</tspan><tspan class="cls-50" x="144.24" y="45.8">i</tspan><tspan class="cls-51" x="147.14" y="45.8">t</tspan><tspan x="151.55" y="45.8">y</tspan><tspan class="cls-158" x="20.68" y="59.8">D</tspan><tspan class="cls-47" x="28.75" y="59.8">ep</tspan><tspan class="cls-159" x="41.7" y="59.8">t</tspan><tspan x="45.76" y="59.8">. </tspan><tspan class="cls-55" x="51.54" y="59.8">o</tspan><tspan x="58.15" y="59.8">f </tspan><tspan class="cls-158" x="64.74" y="59.8">B</tspan><tspan class="cls-160" x="71.92" y="59.8">i</tspan><tspan class="cls-35" x="74.68" y="59.8">o</tspan><tspan class="cls-161" x="81.34" y="59.8">l</tspan><tspan x="84.14" y="59.8">o</tspan><tspan class="cls-162" x="90.79" y="59.8">g</tspan><tspan x="96.88" y="59.8">i</tspan><tspan class="cls-163" x="99.66" y="59.8">c</tspan><tspan x="105.06" y="59.8">al </tspan><tspan class="cls-52" x="116.82" y="59.8">S</tspan><tspan class="cls-164" x="122.97" y="59.8">c</tspan><tspan class="cls-160" x="128.23" y="59.8">i</tspan><tspan class="cls-161" x="130.99" y="59.8">e</tspan><tspan class="cls-65" x="137.17" y="59.8">n</tspan><tspan class="cls-165" x="143.95" y="59.8">c</tspan><tspan class="cls-166" x="149.11" y="59.8">e</tspan><tspan class="cls-167" x="155.34" y="59.8">s</tspan><tspan class="cls-66" x="31.08" y="73.8">B</tspan><tspan class="cls-42" x="38.34" y="73.8">a</tspan><tspan class="cls-67" x="44.51" y="73.8">t</tspan><tspan class="cls-68" x="48.34" y="73.8">o</tspan><tspan x="55" y="73.8">n </tspan><tspan class="cls-69" x="64.61" y="73.8">R</tspan><tspan class="cls-70" x="71.36" y="73.8">o</tspan><tspan class="cls-71" x="78.03" y="73.8">u</tspan><tspan class="cls-72" x="84.77" y="73.8">g</tspan><tspan class="cls-73" x="90.68" y="73.8">e</tspan><tspan x="96.84" y="73.8">, </tspan><tspan class="cls-74" x="102.39" y="73.8">L</tspan><tspan x="108.7" y="73.8">A </tspan><tspan class="cls-75" x="118.51" y="73.8">7</tspan><tspan class="cls-76" x="124.69" y="73.8">08</tspan><tspan class="cls-77" x="137.62" y="73.8">0</tspan><tspan class="cls-78" x="143.9" y="73.8">3</tspan></tspan><tspan class="cls-79"><tspan class="cls-44" x="49.75" y="87.8">j</tspan><tspan class="cls-168" x="53.1" y="87.8">o</tspan><tspan class="cls-169" x="59.92" y="87.8">h</tspan><tspan class="cls-170" x="67.13" y="87.8">n</tspan><tspan class="cls-171" x="74.39" y="87.8">q</tspan><tspan class="cls-86" x="81.45" y="87.8">@</tspan><tspan class="cls-130" x="91.35" y="87.8">l</tspan><tspan class="cls-88" x="94.81" y="87.8">s</tspan><tspan class="cls-172" x="100.3" y="87.8">u</tspan><tspan class="cls-90" x="107.64" y="87.8">.</tspan><tspan class="cls-91" x="110.73" y="87.8">e</tspan><tspan class="cls-92" x="117.35" y="87.8">d</tspan><tspan x="124.29" y="87.8">u</tspan><tspan class="cls-93" x="50.92" y="101.8">(</tspan><tspan class="cls-94" x="54.71" y="101.8">2</tspan><tspan class="cls-95" x="61.28" y="101.8">2</tspan><tspan class="cls-96" x="67.81" y="101.8">5</tspan><tspan x="74.11" y="101.8">) </tspan><tspan class="cls-97" x="80.69" y="101.8">5</tspan><tspan class="cls-98" x="87.01" y="101.8">7</tspan><tspan class="cls-99" x="93.45" y="101.8">8</tspan><tspan class="cls-173" x="100.22" y="101.8">-</tspan><tspan class="cls-174" x="104.35" y="101.8">0</tspan><tspan class="cls-175" x="110.99" y="101.8">0</tspan><tspan class="cls-176" x="117.62" y="101.8">6</tspan><tspan x="124.07" y="101.8">2</tspan></tspan></text><circle class="cls-103" cx="319.15" cy="383.76" r="2.47"/><line class="cls-104" x1="231.5" y1="384.23" x2="309.47" y2="384.23"/><line class="cls-104" x1="329.5" y1="384.23" x2="407.47" y2="384.23"/><circle class="cls-103" cx="319.15" cy="148.76" r="2.47"/><circle class="cls-103" cx="319.15" cy="158.76" r="2.47"/><circle class="cls-103" cx="319.15" cy="138.76" r="2.47"/><circle class="cls-103" cx="319.15" cy="128.76" r="2.47"/><text class="cls-1" transform="translate(448.62 355.42)"><tspan class="cls-2"><tspan class="cls-177">K</tspan><tspan class="cls-178" x="12.18" y="0">i</tspan><tspan class="cls-179" x="17.52" y="0">r</tspan><tspan class="cls-138" x="25.78" y="0">s</tspan><tspan class="cls-180" x="34.7" y="0">c</tspan><tspan class="cls-181" x="43.85" y="0">h</tspan><tspan class="cls-182" x="55.53" y="0">l</tspan><tspan class="cls-106" x="60.89" y="0">a</tspan><tspan x="71.6" y="0">n B</tspan><tspan class="cls-10" x="100.2" y="0">l</tspan><tspan class="cls-106" x="105.57" y="0">a</tspan><tspan class="cls-183" x="116.28" y="0">n</tspan><tspan class="cls-180" x="128.05" y="0">c</tspan><tspan class="cls-184" x="137.19" y="0">ha</tspan><tspan class="cls-185" x="159.57" y="0">r</tspan><tspan x="167.67" y="0">d</tspan></tspan><tspan class="cls-12"><tspan class="cls-186" x="48.62" y="16.8">(</tspan><tspan class="cls-187" x="52.81" y="16.8">A</tspan><tspan class="cls-188" x="61.63" y="16.8">c</tspan><tspan class="cls-189" x="68.14" y="16.8">c</tspan><tspan class="cls-190" x="74.62" y="16.8">o</tspan><tspan class="cls-191" x="83.02" y="16.8">u</tspan><tspan class="cls-112" x="91.5" y="16.8">n</tspan><tspan class="cls-192" x="100.05" y="16.8">t</tspan><tspan class="cls-156" x="105.23" y="16.8">a</tspan><tspan class="cls-112" x="112.94" y="16.8">n</tspan><tspan class="cls-193" x="121.49" y="16.8">t</tspan><tspan x="126.3" y="16.8">)</tspan></tspan><tspan class="cls-33"><tspan class="cls-34" x="23.08" y="45.8">L</tspan><tspan class="cls-35" x="28.79" y="45.8">o</tspan><tspan class="cls-36" x="35.46" y="45.8">u</tspan><tspan class="cls-37" x="42.19" y="45.8">is</tspan><tspan class="cls-38" x="50.14" y="45.8">i</tspan><tspan x="52.87" y="45.8">a</tspan><tspan class="cls-39" x="58.99" y="45.8">n</tspan><tspan x="65.72" y="45.8">a </tspan><tspan class="cls-40" x="74.69" y="45.8">S</tspan><tspan class="cls-41" x="80.67" y="45.8">t</tspan><tspan class="cls-42" x="84.79" y="45.8">a</tspan><tspan class="cls-43" x="90.96" y="45.8">t</tspan><tspan x="94.8" y="45.8">e </tspan><tspan class="cls-44" x="103.83" y="45.8">U</tspan><tspan class="cls-45" x="111.83" y="45.8">n</tspan><tspan class="cls-46" x="118.56" y="45.8">i</tspan><tspan x="121.53" y="45.8">v</tspan><tspan class="cls-47" x="127.05" y="45.8">e</tspan><tspan class="cls-48" x="133.23" y="45.8">r</tspan><tspan class="cls-49" x="137.93" y="45.8">s</tspan><tspan class="cls-50" x="143.14" y="45.8">i</tspan><tspan class="cls-51" x="146.03" y="45.8">t</tspan><tspan x="150.44" y="45.8">y</tspan><tspan class="cls-158" x="22.23" y="59.8">D</tspan><tspan class="cls-47" x="30.31" y="59.8">ep</tspan><tspan class="cls-159" x="43.25" y="59.8">t</tspan><tspan x="47.31" y="59.8">. </tspan><tspan class="cls-55" x="53.09" y="59.8">o</tspan><tspan x="59.71" y="59.8">f </tspan><tspan class="cls-158" x="66.29" y="59.8">B</tspan><tspan class="cls-160" x="73.47" y="59.8">i</tspan><tspan class="cls-35" x="76.23" y="59.8">o</tspan><tspan class="cls-161" x="82.9" y="59.8">l</tspan><tspan x="85.69" y="59.8">o</tspan><tspan class="cls-162" x="92.34" y="59.8">g</tspan><tspan x="98.43" y="59.8">i</tspan><tspan class="cls-163" x="101.21" y="59.8">c</tspan><tspan x="106.61" y="59.8">al </tspan><tspan class="cls-52" x="118.37" y="59.8">S</tspan><tspan class="cls-164" x="124.53" y="59.8">c</tspan><tspan class="cls-160" x="129.78" y="59.8">i</tspan><tspan class="cls-161" x="132.54" y="59.8">e</tspan><tspan class="cls-65" x="138.73" y="59.8">n</tspan><tspan class="cls-194" x="145.5" y="59.8">c</tspan><tspan x="150.66" y="59.8">e</tspan><tspan class="cls-66" x="29.98" y="73.8">B</tspan><tspan class="cls-42" x="37.24" y="73.8">a</tspan><tspan class="cls-67" x="43.4" y="73.8">t</tspan><tspan class="cls-68" x="47.24" y="73.8">o</tspan><tspan x="53.89" y="73.8">n </tspan><tspan class="cls-69" x="63.5" y="73.8">R</tspan><tspan class="cls-70" x="70.26" y="73.8">o</tspan><tspan class="cls-71" x="76.92" y="73.8">u</tspan><tspan class="cls-72" x="83.67" y="73.8">g</tspan><tspan class="cls-73" x="89.57" y="73.8">e</tspan><tspan x="95.73" y="73.8">, </tspan><tspan class="cls-74" x="101.29" y="73.8">L</tspan><tspan x="107.59" y="73.8">A </tspan><tspan class="cls-75" x="117.41" y="73.8">7</tspan><tspan class="cls-76" x="123.59" y="73.8">08</tspan><tspan class="cls-77" x="136.51" y="73.8">0</tspan><tspan class="cls-78" x="142.8" y="73.8">3</tspan></tspan><tspan class="cls-79"><tspan class="cls-195" x="33.14" y="87.8">k</tspan><tspan class="cls-196" x="40.07" y="87.8">b</tspan><tspan class="cls-197" x="47.08" y="87.8">l</tspan><tspan class="cls-198" x="50.42" y="87.8">a</tspan><tspan class="cls-170" x="57.04" y="87.8">n</tspan><tspan x="64.3" y="87.8">c</tspan><tspan class="cls-199" x="69.96" y="87.8">ha</tspan><tspan class="cls-61" x="83.77" y="87.8">r</tspan><tspan class="cls-171" x="88.79" y="87.8">d</tspan><tspan class="cls-86" x="95.85" y="87.8">@</tspan><tspan class="cls-87" x="105.75" y="87.8">l</tspan><tspan class="cls-88" x="109.21" y="87.8">s</tspan><tspan class="cls-89" x="114.69" y="87.8">u</tspan><tspan class="cls-90" x="122.04" y="87.8">.</tspan><tspan class="cls-91" x="125.13" y="87.8">e</tspan><tspan class="cls-92" x="131.75" y="87.8">d</tspan><tspan x="138.69" y="87.8">u</tspan><tspan class="cls-93" x="49.76" y="101.8">(</tspan><tspan class="cls-94" x="53.54" y="101.8">2</tspan><tspan class="cls-95" x="60.12" y="101.8">2</tspan><tspan class="cls-96" x="66.65" y="101.8">5</tspan><tspan x="72.95" y="101.8">) </tspan><tspan class="cls-97" x="79.53" y="101.8">5</tspan><tspan class="cls-98" x="85.85" y="101.8">7</tspan><tspan class="cls-99" x="92.29" y="101.8">8</tspan><tspan class="cls-200" x="99.06" y="101.8">-</tspan><tspan class="cls-201" x="103.09" y="101.8">8</tspan><tspan class="cls-202" x="109.77" y="101.8">4</tspan><tspan class="cls-102" x="116.46" y="101.8">8</tspan><tspan x="123.03" y="101.8">3</tspan></tspan></text><circle class="cls-103" cx="538.15" cy="383.76" r="2.47"/><line class="cls-104" x1="450.5" y1="384.23" x2="528.47" y2="384.23"/><line class="cls-104" x1="548.5" y1="384.23" x2="626.47" y2="384.23"/><text class="cls-1" transform="translate(33.6 355.42)"><tspan class="cls-2"><tspan class="cls-203">A</tspan><tspan class="cls-143" x="12.6" y="0">l</tspan><tspan x="18.02" y="0">e</tspan><tspan class="cls-204" x="28.66" y="0">x</tspan><tspan x="39.08" y="0">is </tspan><tspan class="cls-205" x="58.2" y="0">W</tspan><tspan class="cls-114" x="75.78" y="0">h</tspan><tspan class="cls-206" x="87.43" y="0">it</tspan><tspan x="100.47" y="0">e</tspan></tspan><tspan class="cls-12"><tspan class="cls-149" x="-13.54" y="16.8">(</tspan><tspan class="cls-207" x="-9.81" y="16.8">G</tspan><tspan class="cls-123" x="0.42" y="16.8">r</tspan><tspan class="cls-23" x="6.04" y="16.8">a</tspan><tspan class="cls-112" x="13.75" y="16.8">n</tspan><tspan x="22.3" y="16.8">t </tspan><tspan class="cls-208" x="30.88" y="16.8">A</tspan><tspan class="cls-191" x="39.71" y="16.8">d</tspan><tspan class="cls-209" x="48.18" y="16.8">m</tspan><tspan class="cls-16" x="61.1" y="16.8">i</tspan><tspan class="cls-210" x="64.52" y="16.8">n</tspan><tspan class="cls-153" x="73.01" y="16.8">i</tspan><tspan class="cls-25" x="76.42" y="16.8">s</tspan><tspan class="cls-26" x="83.37" y="16.8">t</tspan><tspan class="cls-119" x="88.35" y="16.8">r</tspan><tspan class="cls-29" x="93.97" y="16.8">a</tspan><tspan class="cls-30" x="101.75" y="16.8">t</tspan><tspan class="cls-31" x="106.55" y="16.8">o</tspan><tspan class="cls-32" x="114.94" y="16.8">r</tspan><tspan x="120.5" y="16.8">)</tspan></tspan><tspan class="cls-33"><tspan class="cls-34" x="-10.9" y="45.8">L</tspan><tspan class="cls-35" x="-5.19" y="45.8">o</tspan><tspan class="cls-36" x="1.48" y="45.8">u</tspan><tspan class="cls-37" x="8.21" y="45.8">is</tspan><tspan class="cls-38" x="16.16" y="45.8">i</tspan><tspan x="18.89" y="45.8">a</tspan><tspan class="cls-39" x="25.01" y="45.8">n</tspan><tspan x="31.74" y="45.8">a </tspan><tspan class="cls-40" x="40.72" y="45.8">S</tspan><tspan class="cls-41" x="46.69" y="45.8">t</tspan><tspan class="cls-42" x="50.81" y="45.8">a</tspan><tspan class="cls-43" x="56.98" y="45.8">t</tspan><tspan x="60.82" y="45.8">e </tspan><tspan class="cls-44" x="69.85" y="45.8">U</tspan><tspan class="cls-45" x="77.85" y="45.8">n</tspan><tspan class="cls-46" x="84.58" y="45.8">i</tspan><tspan x="87.56" y="45.8">v</tspan><tspan class="cls-47" x="93.07" y="45.8">e</tspan><tspan class="cls-48" x="99.25" y="45.8">r</tspan><tspan class="cls-49" x="103.95" y="45.8">s</tspan><tspan class="cls-50" x="109.16" y="45.8">i</tspan><tspan class="cls-51" x="112.05" y="45.8">t</tspan><tspan x="116.46" y="45.8">y</tspan><tspan class="cls-52" x="-21.06" y="59.8">S</tspan><tspan class="cls-53" x="-14.91" y="59.8">ch</tspan><tspan class="cls-54" x="-2.88" y="59.8">o</tspan><tspan class="cls-35" x="3.81" y="59.8">o</tspan><tspan x="10.48" y="59.8">l </tspan><tspan class="cls-55" x="16.12" y="59.8">o</tspan><tspan x="22.73" y="59.8">f </tspan><tspan class="cls-56" x="29.32" y="59.8">V</tspan><tspan class="cls-57" x="35.55" y="59.8">e</tspan><tspan class="cls-58" x="41.79" y="59.8">t</tspan><tspan class="cls-47" x="45.63" y="59.8">e</tspan><tspan class="cls-59" x="51.82" y="59.8">r</tspan><tspan class="cls-55" x="56.43" y="59.8">i</tspan><tspan class="cls-39" x="59.18" y="59.8">n</tspan><tspan x="65.92" y="59.8">a</tspan><tspan class="cls-60" x="72.04" y="59.8">r</tspan><tspan x="77.11" y="59.8">y </tspan><tspan class="cls-61" x="85.51" y="59.8">M</tspan><tspan class="cls-62" x="95.47" y="59.8">e</tspan><tspan class="cls-36" x="101.71" y="59.8">d</tspan><tspan x="108.43" y="59.8">i</tspan><tspan class="cls-63" x="111.21" y="59.8">c</tspan><tspan class="cls-64" x="116.47" y="59.8">i</tspan><tspan class="cls-65" x="119.22" y="59.8">n</tspan><tspan x="125.99" y="59.8">e</tspan><tspan class="cls-66" x="-4" y="73.8">B</tspan><tspan class="cls-42" x="3.26" y="73.8">a</tspan><tspan class="cls-67" x="9.42" y="73.8">t</tspan><tspan class="cls-68" x="13.26" y="73.8">o</tspan><tspan x="19.91" y="73.8">n </tspan><tspan class="cls-69" x="29.52" y="73.8">R</tspan><tspan class="cls-70" x="36.28" y="73.8">o</tspan><tspan class="cls-71" x="42.94" y="73.8">u</tspan><tspan class="cls-72" x="49.69" y="73.8">g</tspan><tspan class="cls-73" x="55.59" y="73.8">e</tspan><tspan x="61.75" y="73.8">, </tspan><tspan class="cls-74" x="67.31" y="73.8">L</tspan><tspan x="73.61" y="73.8">A </tspan><tspan class="cls-75" x="83.43" y="73.8">7</tspan><tspan class="cls-76" x="89.61" y="73.8">08</tspan><tspan class="cls-77" x="102.53" y="73.8">0</tspan><tspan class="cls-78" x="108.82" y="73.8">3</tspan></tspan><tspan class="cls-79"><tspan class="cls-211" x="9.73" y="87.8">a</tspan><tspan class="cls-212" x="16.34" y="87.8">l</tspan><tspan class="cls-213" x="19.73" y="87.8">e</tspan><tspan class="cls-214" x="26.3" y="87.8">x</tspan><tspan class="cls-215" x="32.74" y="87.8">i</tspan><tspan class="cls-216" x="36.16" y="87.8">s</tspan><tspan class="cls-217" x="41.84" y="87.8">w</tspan><tspan class="cls-86" x="51.31" y="87.8">@</tspan><tspan class="cls-87" x="61.21" y="87.8">l</tspan><tspan class="cls-88" x="64.66" y="87.8">s</tspan><tspan class="cls-89" x="70.15" y="87.8">u</tspan><tspan class="cls-90" x="77.5" y="87.8">.</tspan><tspan class="cls-91" x="80.59" y="87.8">e</tspan><tspan class="cls-92" x="87.21" y="87.8">d</tspan><tspan x="94.15" y="87.8">u</tspan><tspan class="cls-93" x="16.54" y="101.8">(</tspan><tspan class="cls-94" x="20.32" y="101.8">2</tspan><tspan class="cls-95" x="26.9" y="101.8">2</tspan><tspan class="cls-96" x="33.43" y="101.8">5</tspan><tspan x="39.73" y="101.8">) </tspan><tspan class="cls-97" x="46.31" y="101.8">5</tspan><tspan class="cls-98" x="52.63" y="101.8">7</tspan><tspan class="cls-99" x="59.07" y="101.8">8</tspan><tspan class="cls-218" x="65.84" y="101.8">-</tspan><tspan class="cls-219" x="68.84" y="101.8">1</tspan><tspan class="cls-201" x="74.92" y="101.8">8</tspan><tspan class="cls-202" x="81.6" y="101.8">4</tspan><tspan x="88.29" y="101.8">8</tspan></tspan></text><circle class="cls-103" cx="89.15" cy="383.76" r="2.47"/><line class="cls-104" x1="1.5" y1="384.23" x2="79.47" y2="384.23"/><line class="cls-104" x1="99.5" y1="384.23" x2="177.47" y2="384.23"/><circle class="cls-103" cx="319.15" cy="323.76" r="2.47"/><circle class="cls-103" cx="319.15" cy="333.76" r="2.47"/><circle class="cls-103" cx="319.15" cy="313.76" r="2.47"/><circle class="cls-103" cx="319.15" cy="303.76" r="2.47"/><circle class="cls-103" cx="319.15" cy="293.76" r="2.47"/><circle class="cls-103" cx="309.15" cy="313.76" r="2.47"/><circle class="cls-103" cx="329.15" cy="313.76" r="2.47"/><circle class="cls-103" cx="349.15" cy="313.76" r="2.47"/><circle class="cls-103" cx="339.15" cy="313.76" r="2.47"/><circle class="cls-103" cx="359.15" cy="313.76" r="2.47"/><circle class="cls-103" cx="379.15" cy="313.76" r="2.47"/><circle class="cls-103" cx="369.15" cy="313.76" r="2.47"/><circle class="cls-103" cx="389.15" cy="313.76" r="2.47"/><circle class="cls-103" cx="409.15" cy="313.76" r="2.47"/><circle class="cls-103" cx="399.15" cy="313.76" r="2.47"/><circle class="cls-103" cx="419.15" cy="313.76" r="2.47"/><circle class="cls-103" cx="439.15" cy="313.76" r="2.47"/><circle class="cls-103" cx="429.15" cy="313.76" r="2.47"/><circle class="cls-103" cx="449.15" cy="313.76" r="2.47"/><circle class="cls-103" cx="469.15" cy="313.76" r="2.47"/><circle class="cls-103" cx="459.15" cy="313.76" r="2.47"/><circle class="cls-103" cx="479.15" cy="313.76" r="2.47"/><circle class="cls-103" cx="499.15" cy="313.76" r="2.47"/><circle class="cls-103" cx="489.15" cy="313.76" r="2.47"/><circle class="cls-103" cx="509.15" cy="313.76" r="2.47"/><circle class="cls-103" cx="529.15" cy="313.76" r="2.47"/><circle class="cls-103" cx="519.15" cy="313.76" r="2.47"/><circle class="cls-103" cx="539.15" cy="313.76" r="2.47"/><circle class="cls-103" cx="99.15" cy="313.76" r="2.47"/><circle class="cls-103" cx="89.15" cy="313.76" r="2.47"/><circle class="cls-103" cx="109.15" cy="313.76" r="2.47"/><circle class="cls-103" cx="129.15" cy="313.76" r="2.47"/><circle class="cls-103" cx="119.15" cy="313.76" r="2.47"/><circle class="cls-103" cx="139.15" cy="313.76" r="2.47"/><circle class="cls-103" cx="159.15" cy="313.76" r="2.47"/><circle class="cls-103" cx="149.15" cy="313.76" r="2.47"/><circle class="cls-103" cx="169.15" cy="313.76" r="2.47"/><circle class="cls-103" cx="189.15" cy="313.76" r="2.47"/><circle class="cls-103" cx="179.15" cy="313.76" r="2.47"/><circle class="cls-103" cx="199.15" cy="313.76" r="2.47"/><circle class="cls-103" cx="219.15" cy="313.76" r="2.47"/><circle class="cls-103" cx="209.15" cy="313.76" r="2.47"/><circle class="cls-103" cx="229.15" cy="313.76" r="2.47"/><circle class="cls-103" cx="249.15" cy="313.76" r="2.47"/><circle class="cls-103" cx="239.15" cy="313.76" r="2.47"/><circle class="cls-103" cx="259.15" cy="313.76" r="2.47"/><circle class="cls-103" cx="279.15" cy="313.76" r="2.47"/><circle class="cls-103" cx="269.15" cy="313.76" r="2.47"/><circle class="cls-103" cx="289.15" cy="313.76" r="2.47"/><circle class="cls-103" cx="309.15" cy="313.76" r="2.47"/><circle class="cls-103" cx="299.15" cy="313.76" r="2.47"/><circle class="cls-103" cx="539.15" cy="323.76" r="2.47"/><circle class="cls-103" cx="539.15" cy="333.76" r="2.47"/><circle class="cls-103" cx="539.15" cy="313.76" r="2.47"/><circle class="cls-103" cx="89.15" cy="323.76" r="2.47"/><circle class="cls-103" cx="89.15" cy="333.76" r="2.47"/><circle class="cls-103" cx="89.15" cy="313.76" r="2.47"/></svg>