<svg id="Layer_1" data-name="Layer 1" xmlns="http://www.w3.org/2000/svg" viewBox="0 0 673.31 431.81"><defs><style>.cls-1,.cls-65{font-size:14px;fill:#2c3d6c;font-family:OpenSans-Bold, Open Sans;}.cls-2,.cls-65{font-weight:700;}.cls-3{letter-spacing:-0.01em;}.cls-4{letter-spacing:-0.01em;}.cls-5{letter-spacing:-0.01em;}.cls-6{letter-spacing:0em;}.cls-7{letter-spacing:0.01em;}.cls-8{letter-spacing:-0.01em;}.cls-9{letter-spacing:0em;}.cls-10{letter-spacing:0em;}.cls-11{letter-spacing:0em;}.cls-12{letter-spacing:0em;}.cls-13{letter-spacing:-0.07em;}.cls-14{letter-spacing:-0.02em;}.cls-15{letter-spacing:0em;}.cls-16{letter-spacing:0em;}.cls-17{letter-spacing:0em;}.cls-18{font-size:12px;font-family:OpenSans, Open Sans;}.cls-19{letter-spacing:0em;}.cls-20{letter-spacing:0em;}.cls-21{letter-spacing:-0.02em;}.cls-22{letter-spacing:0em;}.cls-23{letter-spacing:-0.01em;}.cls-24{letter-spacing:0em;}.cls-25{letter-spacing:-0.01em;}.cls-26{letter-spacing:-0.01em;}.cls-27{letter-spacing:0em;}.cls-28{letter-spacing:0.03em;}.cls-29{letter-spacing:-0.01em;}.cls-30{fill:#8ecb91;}.cls-31{fill:none;stroke:#8ecb91;stroke-linecap:round;stroke-miterlimit:10;stroke-width:3px;}.cls-32{letter-spacing:-0.01em;}.cls-33{letter-spacing:0em;}.cls-34{letter-spacing:0em;}.cls-35{letter-spacing:-0.01em;}.cls-36{letter-spacing:-0.01em;}.cls-37{letter-spacing:0.03em;}.cls-38{letter-spacing:0em;}.cls-39{letter-spacing:0em;}.cls-40{letter-spacing:0em;}.cls-41{letter-spacing:0.03em;}.cls-42{letter-spacing:0em;}.cls-43{letter-spacing:0em;}.cls-44{letter-spacing:0em;}.cls-45{letter-spacing:-0.01em;}.cls-46{letter-spacing:-0.01em;}.cls-47{letter-spacing:0em;}.cls-48{letter-spacing:-0.01em;}.cls-49{letter-spacing:0.01em;}.cls-50{letter-spacing:0.01em;}.cls-51{letter-spacing:-0.01em;}.cls-52{letter-spacing:0em;}.cls-53{letter-spacing:-0.01em;}.cls-54{letter-spacing:-0.01em;}.cls-55{letter-spacing:0em;}.cls-56{letter-spacing:0em;}.cls-57{letter-spacing:0.01em;}.cls-58{letter-spacing:-0.01em;}.cls-59{letter-spacing:-0.01em;}.cls-60{letter-spacing:0.02em;}.cls-61{letter-spacing:0.02em;}.cls-62{letter-spacing:0em;}.cls-63{letter-spacing:0em;}.cls-64{letter-spacing:-0.01em;}.cls-66{letter-spacing:0em;}.cls-67{letter-spacing:0em;}.cls-68{letter-spacing:0em;}.cls-69{letter-spacing:-0.02em;}.cls-70{letter-spacing:-0.01em;}.cls-71{letter-spacing:0em;}.cls-72{letter-spacing:-0.01em;}.cls-73{letter-spacing:-0.01em;}.cls-74{letter-spacing:0em;}.cls-75{letter-spacing:0em;}.cls-76{letter-spacing:0.01em;}.cls-77{letter-spacing:-0.01em;}.cls-78{letter-spacing:0em;}.cls-79{letter-spacing:0em;}.cls-80{letter-spacing:0.02em;}.cls-81{letter-spacing:-0.02em;}.cls-82{letter-spacing:-0.01em;}.cls-83{letter-spacing:0.01em;}.cls-84{letter-spacing:-0.01em;}.cls-85{letter-spacing:0em;}.cls-86{letter-spacing:-0.01em;}.cls-87{letter-spacing:0em;}.cls-88{letter-spacing:-0.01em;}.cls-89{letter-spacing:0em;}.cls-90{letter-spacing:0em;}.cls-91{letter-spacing:0em;}.cls-92{letter-spacing:0em;}.cls-93{letter-spacing:-0.01em;}.cls-94{letter-spacing:0.05em;}.cls-95{letter-spacing:-0.08em;}.cls-96{letter-spacing:0em;}.cls-97{letter-spacing:0.02em;}.cls-98{letter-spacing:-0.01em;}.cls-99{letter-spacing:0.02em;}.cls-100{letter-spacing:-0.02em;}.cls-101{letter-spacing:0.01em;}.cls-102{letter-spacing:0.04em;}.cls-103{letter-spacing:-0.04em;}.cls-104{letter-spacing:-0.06em;}.cls-105{letter-spacing:0em;}.cls-106{letter-spacing:-0.01em;}.cls-107{letter-spacing:-0.01em;}.cls-108{letter-spacing:-0.02em;}.cls-109{letter-spacing:0em;}.cls-110{letter-spacing:0em;}.cls-111{letter-spacing:0.01em;}.cls-112{letter-spacing:0.01em;}.cls-113{letter-spacing:0.01em;}.cls-114{letter-spacing:0em;}.cls-115{letter-spacing:0.01em;}.cls-116{letter-spacing:-0.01em;}.cls-117{letter-spacing:0em;}.cls-118{letter-spacing:0.03em;}.cls-119{letter-spacing:0.02em;}.cls-120{letter-spacing:0em;}.cls-121{letter-spacing:0em;}.cls-122{letter-spacing:-0.01em;}.cls-123{letter-spacing:-0.01em;}.cls-124{letter-spacing:0em;}.cls-125{letter-spacing:0em;}.cls-126{letter-spacing:-0.01em;}.cls-127{letter-spacing:0em;}.cls-128{letter-spacing:-0.01em;}.cls-129{letter-spacing:0em;}.cls-130{letter-spacing:-0.01em;}.cls-131{letter-spacing:-0.01em;}.cls-132{letter-spacing:-0.01em;}.cls-133{letter-spacing:0em;}.cls-134{letter-spacing:-0.01em;}.cls-135{letter-spacing:0.02em;}.cls-136{letter-spacing:-0.01em;}</style></defs><title>bbc-core</title><text class="cls-1" transform="translate(272.17 12)"><tspan class="cls-2"><tspan class="cls-3">C</tspan><tspan class="cls-4" x="8.84" y="0">h</tspan><tspan class="cls-5" x="17.94" y="0">r</tspan><tspan class="cls-6" x="24.22" y="0">i</tspan><tspan class="cls-7" x="28.5" y="0">s</tspan><tspan class="cls-8" x="35.6" y="0">t</tspan><tspan class="cls-9" x="41.58" y="0">o</tspan><tspan class="cls-10" x="50.19" y="0">p</tspan><tspan class="cls-11" x="59.03" y="0">h</tspan><tspan class="cls-12" x="68.18" y="0">e</tspan><tspan x="76.46" y="0">r </tspan><tspan class="cls-13" x="86.46" y="0">T</tspan><tspan class="cls-14" x="93.55" y="0">a</tspan><tspan class="cls-15" x="101.77" y="0">y</tspan><tspan class="cls-16" x="109.8" y="0">l</tspan><tspan class="cls-9" x="114.04" y="0">o</tspan><tspan class="cls-17" x="122.65" y="0">r</tspan></tspan><tspan class="cls-18"><tspan class="cls-19" x="14" y="15">B</tspan><tspan class="cls-20" x="21.79" y="15">B</tspan><tspan x="29.54" y="15">C </tspan><tspan class="cls-21" x="40.23" y="15">C</tspan><tspan class="cls-22" x="47.61" y="15">o</tspan><tspan class="cls-23" x="54.81" y="15">r</tspan><tspan x="59.61" y="15">e </tspan><tspan class="cls-24" x="69.46" y="15">D</tspan><tspan class="cls-25" x="78.19" y="15">i</tspan><tspan class="cls-26" x="81.14" y="15">r</tspan><tspan class="cls-27" x="85.93" y="15">e</tspan><tspan class="cls-28" x="92.69" y="15">c</tspan><tspan class="cls-29" x="98.78" y="15">t</tspan><tspan class="cls-22" x="102.91" y="15">o</tspan><tspan x="110.11" y="15">r</tspan></tspan></text><circle class="cls-30" cx="336.67" cy="37.34" r="2.47"/><line class="cls-31" x1="281.53" y1="37.34" x2="327.74" y2="37.34"/><line class="cls-31" x1="345.61" y1="37.34" x2="391.81" y2="37.34"/><text class="cls-1" transform="translate(280.87 109)"><tspan class="cls-2"><tspan class="cls-32">M</tspan><tspan class="cls-33" x="13.13" y="0">i</tspan><tspan class="cls-34" x="17.34" y="0">c</tspan><tspan class="cls-35" x="24.48" y="0">h</tspan><tspan class="cls-36" x="33.57" y="0">a</tspan><tspan x="41.92" y="0">l B</tspan><tspan class="cls-37" x="59.24" y="0">r</tspan><tspan class="cls-15" x="66.06" y="0">y</tspan><tspan class="cls-4" x="74.08" y="0">li</tspan><tspan class="cls-38" x="82.43" y="0">n</tspan><tspan class="cls-39" x="91.64" y="0">s</tspan><tspan class="cls-40" x="98.58" y="0">k</tspan><tspan x="107.33" y="0">i</tspan></tspan><tspan class="cls-18"><tspan class="cls-41" x="5.04" y="15">A</tspan><tspan class="cls-42" x="12.99" y="15">s</tspan><tspan class="cls-43" x="18.78" y="15">s</tspan><tspan x="24.51" y="15">o</tspan><tspan class="cls-44" x="31.76" y="15">c</tspan><tspan class="cls-45" x="37.44" y="15">i</tspan><tspan x="40.36" y="15">a</tspan><tspan class="cls-46" x="47.03" y="15">t</tspan><tspan x="51.16" y="15">e </tspan><tspan class="cls-24" x="61.01" y="15">D</tspan><tspan class="cls-25" x="69.75" y="15">i</tspan><tspan class="cls-23" x="72.69" y="15">r</tspan><tspan class="cls-47" x="77.49" y="15">e</tspan><tspan class="cls-28" x="84.24" y="15">c</tspan><tspan class="cls-29" x="90.34" y="15">t</tspan><tspan class="cls-22" x="94.47" y="15">o</tspan><tspan x="101.67" y="15">r</tspan></tspan></text><circle class="cls-30" cx="336.67" cy="134.34" r="2.47"/><line class="cls-31" x1="281.53" y1="134.34" x2="327.74" y2="134.34"/><line class="cls-31" x1="345.61" y1="134.34" x2="391.81" y2="134.34"/><text class="cls-1" transform="translate(438.22 109)"><tspan class="cls-2"><tspan class="cls-48">U</tspan><tspan class="cls-49" x="10.49" y="0">r</tspan><tspan class="cls-39" x="16.93" y="0">s</tspan><tspan class="cls-34" x="23.88" y="0">k</tspan><tspan x="32.49" y="0">a </tspan><tspan class="cls-50" x="44.59" y="0">C</tspan><tspan class="cls-51" x="53.59" y="0">v</tspan><tspan class="cls-52" x="61.37" y="0">e</tspan><tspan x="69.71" y="0">c</tspan></tspan><tspan class="cls-18"><tspan class="cls-41" x="-12.31" y="15">A</tspan><tspan class="cls-42" x="-4.36" y="15">s</tspan><tspan class="cls-43" x="1.43" y="15">s</tspan><tspan x="7.16" y="15">o</tspan><tspan class="cls-44" x="14.41" y="15">c</tspan><tspan class="cls-45" x="20.08" y="15">i</tspan><tspan x="23.01" y="15">a</tspan><tspan class="cls-46" x="29.68" y="15">t</tspan><tspan x="33.81" y="15">e </tspan><tspan class="cls-24" x="43.66" y="15">D</tspan><tspan class="cls-25" x="52.4" y="15">i</tspan><tspan class="cls-23" x="55.34" y="15">r</tspan><tspan class="cls-47" x="60.14" y="15">e</tspan><tspan class="cls-28" x="66.89" y="15">c</tspan><tspan class="cls-29" x="72.99" y="15">t</tspan><tspan class="cls-22" x="77.11" y="15">o</tspan><tspan x="84.32" y="15">r</tspan></tspan></text><circle class="cls-30" cx="476.67" cy="134.34" r="2.47"/><line class="cls-31" x1="421.53" y1="134.34" x2="467.74" y2="134.34"/><line class="cls-31" x1="485.61" y1="134.34" x2="531.81" y2="134.34"/><text class="cls-1" transform="translate(574.64 109)"><tspan class="cls-2"><tspan class="cls-53">N</tspan><tspan class="cls-14" x="11.31" y="0">a</tspan><tspan class="cls-54" x="19.53" y="0">y</tspan><tspan class="cls-55" x="27.33" y="0">o</tspan><tspan class="cls-56" x="35.94" y="0">n</tspan><tspan x="45.11" y="0">g </tspan><tspan class="cls-57" x="56.65" y="0">K</tspan><tspan class="cls-58" x="66.14" y="0">i</tspan><tspan x="70.32" y="0">m</tspan></tspan><tspan class="cls-18"><tspan class="cls-41" x="-7.75" y="15">A</tspan><tspan class="cls-42" x="0.2" y="15">s</tspan><tspan class="cls-59" x="5.98" y="15">si</tspan><tspan class="cls-60" x="14.54" y="15">s</tspan><tspan class="cls-61" x="20.51" y="15">t</tspan><tspan class="cls-62" x="24.95" y="15">a</tspan><tspan class="cls-63" x="31.57" y="15">n</tspan><tspan x="38.91" y="15">t </tspan><tspan class="cls-24" x="46.26" y="15">D</tspan><tspan class="cls-64" x="55" y="15">i</tspan><tspan class="cls-26" x="57.94" y="15">r</tspan><tspan class="cls-47" x="62.74" y="15">e</tspan><tspan class="cls-28" x="69.49" y="15">c</tspan><tspan class="cls-29" x="75.59" y="15">t</tspan><tspan class="cls-22" x="79.71" y="15">o</tspan><tspan x="86.92" y="15">r</tspan></tspan></text><circle class="cls-30" cx="616.67" cy="134.34" r="2.47"/><line class="cls-31" x1="561.53" y1="134.34" x2="607.74" y2="134.34"/><line class="cls-31" x1="625.61" y1="134.34" x2="671.81" y2="134.34"/><text class="cls-65" transform="translate(574.69 176)"><tspan class="cls-66">J</tspan><tspan class="cls-9" x="4.61" y="0">o</tspan><tspan class="cls-58" x="13.22" y="0">h</tspan><tspan x="22.32" y="0">n </tspan><tspan class="cls-67" x="35.16" y="0">C</tspan><tspan class="cls-68" x="44.07" y="0">a</tspan><tspan class="cls-39" x="52.56" y="0">s</tspan><tspan class="cls-69" x="59.5" y="0">k</tspan><tspan class="cls-70" x="67.84" y="0">e</tspan><tspan x="76" y="0">y</tspan></text><circle class="cls-30" cx="616.67" cy="184.34" r="2.47"/><line class="cls-31" x1="561.53" y1="184.34" x2="607.74" y2="184.34"/><line class="cls-31" x1="625.61" y1="184.34" x2="671.81" y2="184.34"/><text class="cls-65" transform="translate(566.69 225)"><tspan class="cls-71">S</tspan><tspan class="cls-72" x="7.7" y="0">h</tspan><tspan class="cls-14" x="16.8" y="0">a</tspan><tspan class="cls-8" x="25.02" y="0">y</tspan><tspan class="cls-73" x="32.88" y="0">a</tspan><tspan x="41.23" y="0">n </tspan><tspan class="cls-74" x="54.07" y="0">S</tspan><tspan class="cls-35" x="61.77" y="0">ha</tspan><tspan class="cls-75" x="79.21" y="0">m</tspan><tspan x="93" y="0">s</tspan></text><circle class="cls-30" cx="616.67" cy="233.34" r="2.47"/><line class="cls-31" x1="561.53" y1="233.34" x2="607.74" y2="233.34"/><line class="cls-31" x1="625.61" y1="233.34" x2="671.81" y2="233.34"/><text class="cls-1" transform="translate(140.1 109)"><tspan class="cls-2"><tspan class="cls-76">S</tspan><tspan x="7.82" y="0">e</tspan><tspan class="cls-77" x="16.09" y="0">u</tspan><tspan class="cls-78" x="25.18" y="0">n</tspan><tspan class="cls-79" x="34.36" y="0">g</tspan><tspan class="cls-80" x="42.33" y="0">-</tspan><tspan class="cls-66" x="47.18" y="0">J</tspan><tspan class="cls-55" x="51.79" y="0">o</tspan><tspan class="cls-56" x="60.4" y="0">n</tspan><tspan x="69.57" y="0">g </tspan><tspan class="cls-81" x="81.12" y="0">P</tspan><tspan class="cls-73" x="89.66" y="0">a</tspan><tspan class="cls-5" x="98.01" y="0">r</tspan><tspan x="104.29" y="0">k</tspan></tspan><tspan class="cls-18"><tspan class="cls-41" x="5.72" y="15">A</tspan><tspan class="cls-42" x="13.67" y="15">s</tspan><tspan class="cls-43" x="19.46" y="15">s</tspan><tspan x="25.19" y="15">o</tspan><tspan class="cls-44" x="32.44" y="15">c</tspan><tspan class="cls-45" x="38.12" y="15">i</tspan><tspan x="41.04" y="15">a</tspan><tspan class="cls-46" x="47.71" y="15">t</tspan><tspan x="51.84" y="15">e </tspan><tspan class="cls-24" x="61.69" y="15">D</tspan><tspan class="cls-25" x="70.43" y="15">i</tspan><tspan class="cls-23" x="73.37" y="15">r</tspan><tspan class="cls-47" x="78.17" y="15">e</tspan><tspan class="cls-28" x="84.92" y="15">c</tspan><tspan class="cls-29" x="91.02" y="15">t</tspan><tspan class="cls-22" x="95.15" y="15">o</tspan><tspan x="102.35" y="15">r</tspan></tspan></text><circle class="cls-30" cx="196.58" cy="134.34" r="2.47"/><line class="cls-31" x1="141.44" y1="134.34" x2="187.65" y2="134.34"/><line class="cls-31" x1="205.52" y1="134.34" x2="251.72" y2="134.34"/><text class="cls-1" transform="translate(0 109)"><tspan class="cls-2"><tspan class="cls-82">R</tspan><tspan class="cls-55" x="9.07" y="0">o</tspan><tspan class="cls-72" x="17.68" y="0">n</tspan><tspan class="cls-36" x="26.77" y="0">a</tspan><tspan x="35.13" y="0">ld </tspan><tspan class="cls-56" x="51.9" y="0">H</tspan><tspan class="cls-55" x="62.58" y="0">o</tspan><tspan class="cls-49" x="71.19" y="0">r</tspan><tspan class="cls-83" x="77.64" y="0">s</tspan><tspan class="cls-84" x="84.8" y="0">w</tspan><tspan class="cls-85" x="96.63" y="0">e</tspan><tspan class="cls-86" x="104.91" y="0">l</tspan><tspan x="109.07" y="0">l</tspan></tspan><tspan class="cls-18"><tspan class="cls-41" x="5.91" y="15">A</tspan><tspan class="cls-42" x="13.86" y="15">s</tspan><tspan class="cls-43" x="19.64" y="15">s</tspan><tspan x="25.38" y="15">o</tspan><tspan class="cls-44" x="32.63" y="15">c</tspan><tspan class="cls-45" x="38.3" y="15">i</tspan><tspan x="41.22" y="15">a</tspan><tspan class="cls-46" x="47.9" y="15">t</tspan><tspan x="52.03" y="15">e </tspan><tspan class="cls-24" x="61.88" y="15">D</tspan><tspan class="cls-25" x="70.62" y="15">i</tspan><tspan class="cls-23" x="73.56" y="15">r</tspan><tspan class="cls-47" x="78.36" y="15">e</tspan><tspan class="cls-28" x="85.11" y="15">c</tspan><tspan class="cls-29" x="91.21" y="15">t</tspan><tspan class="cls-22" x="95.33" y="15">o</tspan><tspan x="102.54" y="15">r</tspan></tspan></text><circle class="cls-30" cx="56.67" cy="134.34" r="2.47"/><line class="cls-31" x1="1.53" y1="134.34" x2="47.74" y2="134.34"/><line class="cls-31" x1="65.61" y1="134.34" x2="111.81" y2="134.34"/><circle class="cls-30" cx="336.67" cy="57.34" r="2.47"/><circle class="cls-30" cx="336.67" cy="47.34" r="2.47"/><circle class="cls-30" cx="336.67" cy="78.34" r="2.47"/><circle class="cls-30" cx="336.67" cy="88.34" r="2.47"/><circle class="cls-30" cx="476.67" cy="78.34" r="2.47"/><circle class="cls-30" cx="476.67" cy="88.34" r="2.47"/><circle class="cls-30" cx="196.67" cy="78.34" r="2.47"/><circle class="cls-30" cx="196.67" cy="88.34" r="2.47"/><circle class="cls-30" cx="336.67" cy="68.34" r="2.47"/><circle class="cls-30" cx="326.67" cy="68.34" r="2.47"/><circle class="cls-30" cx="346.67" cy="68.34" r="2.47"/><circle class="cls-30" cx="366.67" cy="68.34" r="2.47"/><circle class="cls-30" cx="356.67" cy="68.34" r="2.47"/><circle class="cls-30" cx="376.67" cy="68.34" r="2.47"/><circle class="cls-30" cx="396.67" cy="68.34" r="2.47"/><circle class="cls-30" cx="386.67" cy="68.34" r="2.47"/><circle class="cls-30" cx="406.67" cy="68.34" r="2.47"/><circle class="cls-30" cx="426.67" cy="68.34" r="2.47"/><circle class="cls-30" cx="416.67" cy="68.34" r="2.47"/><circle class="cls-30" cx="436.67" cy="68.34" r="2.47"/><circle class="cls-30" cx="456.67" cy="68.34" r="2.47"/><circle class="cls-30" cx="446.67" cy="68.34" r="2.47"/><circle class="cls-30" cx="466.67" cy="68.34" r="2.47"/><circle class="cls-30" cx="486.67" cy="68.34" r="2.47"/><circle class="cls-30" cx="476.67" cy="68.34" r="2.47"/><circle class="cls-30" cx="496.67" cy="68.34" r="2.47"/><circle class="cls-30" cx="516.67" cy="68.34" r="2.47"/><circle class="cls-30" cx="506.67" cy="68.34" r="2.47"/><circle class="cls-30" cx="526.67" cy="68.34" r="2.47"/><circle class="cls-30" cx="546.67" cy="68.34" r="2.47"/><circle class="cls-30" cx="536.67" cy="68.34" r="2.47"/><circle class="cls-30" cx="556.67" cy="68.34" r="2.47"/><circle class="cls-30" cx="116.67" cy="68.34" r="2.47"/><circle class="cls-30" cx="106.67" cy="68.34" r="2.47"/><circle class="cls-30" cx="126.67" cy="68.34" r="2.47"/><circle class="cls-30" cx="146.67" cy="68.34" r="2.47"/><circle class="cls-30" cx="136.67" cy="68.34" r="2.47"/><circle class="cls-30" cx="156.67" cy="68.34" r="2.47"/><circle class="cls-30" cx="176.67" cy="68.34" r="2.47"/><circle class="cls-30" cx="166.67" cy="68.34" r="2.47"/><circle class="cls-30" cx="186.67" cy="68.34" r="2.47"/><circle class="cls-30" cx="206.67" cy="68.34" r="2.47"/><circle class="cls-30" cx="196.67" cy="68.34" r="2.47"/><circle class="cls-30" cx="216.67" cy="68.34" r="2.47"/><circle class="cls-30" cx="236.67" cy="68.34" r="2.47"/><circle class="cls-30" cx="226.67" cy="68.34" r="2.47"/><circle class="cls-30" cx="246.67" cy="68.34" r="2.47"/><circle class="cls-30" cx="266.67" cy="68.34" r="2.47"/><circle class="cls-30" cx="256.67" cy="68.34" r="2.47"/><circle class="cls-30" cx="276.67" cy="68.34" r="2.47"/><circle class="cls-30" cx="296.67" cy="68.34" r="2.47"/><circle class="cls-30" cx="286.67" cy="68.34" r="2.47"/><circle class="cls-30" cx="306.67" cy="68.34" r="2.47"/><circle class="cls-30" cx="326.67" cy="68.34" r="2.47"/><circle class="cls-30" cx="316.67" cy="68.34" r="2.47"/><circle class="cls-30" cx="556.67" cy="68.34" r="2.47"/><circle class="cls-30" cx="566.67" cy="68.34" r="2.47"/><circle class="cls-30" cx="566.67" cy="68.34" r="2.47"/><circle class="cls-30" cx="576.67" cy="68.34" r="2.47"/><circle class="cls-30" cx="576.67" cy="68.34" r="2.47"/><circle class="cls-30" cx="586.67" cy="68.34" r="2.47"/><circle class="cls-30" cx="586.67" cy="68.34" r="2.47"/><circle class="cls-30" cx="596.67" cy="68.34" r="2.47"/><circle class="cls-30" cx="596.67" cy="68.34" r="2.47"/><circle class="cls-30" cx="606.67" cy="68.34" r="2.47"/><circle class="cls-30" cx="606.67" cy="68.34" r="2.47"/><circle class="cls-30" cx="616.67" cy="68.34" r="2.47"/><circle class="cls-30" cx="616.67" cy="78.34" r="2.47"/><circle class="cls-30" cx="616.67" cy="88.34" r="2.47"/><circle class="cls-30" cx="616.67" cy="68.34" r="2.47"/><circle class="cls-30" cx="106.67" cy="68.34" r="2.47"/><circle class="cls-30" cx="96.67" cy="68.34" r="2.47"/><circle class="cls-30" cx="96.67" cy="68.34" r="2.47"/><circle class="cls-30" cx="86.67" cy="68.34" r="2.47"/><circle class="cls-30" cx="86.67" cy="68.34" r="2.47"/><circle class="cls-30" cx="76.67" cy="68.34" r="2.47"/><circle class="cls-30" cx="76.67" cy="68.34" r="2.47"/><circle class="cls-30" cx="66.67" cy="68.34" r="2.47"/><circle class="cls-30" cx="66.67" cy="68.34" r="2.47"/><circle class="cls-30" cx="56.67" cy="68.34" r="2.47"/><circle class="cls-30" cx="56.67" cy="78.34" r="2.47"/><circle class="cls-30" cx="56.67" cy="88.34" r="2.47"/><circle class="cls-30" cx="56.67" cy="68.34" r="2.47"/><circle class="cls-30" cx="366.67" cy="254.34" r="2.47"/><circle class="cls-30" cx="376.67" cy="254.34" r="2.47"/><circle class="cls-30" cx="396.67" cy="254.34" r="2.47"/><circle class="cls-30" cx="386.67" cy="254.34" r="2.47"/><circle class="cls-30" cx="406.67" cy="254.34" r="2.47"/><circle class="cls-30" cx="426.67" cy="254.34" r="2.47"/><circle class="cls-30" cx="416.67" cy="254.34" r="2.47"/><circle class="cls-30" cx="436.67" cy="254.34" r="2.47"/><circle class="cls-30" cx="456.67" cy="254.34" r="2.47"/><circle class="cls-30" cx="446.67" cy="254.34" r="2.47"/><circle class="cls-30" cx="466.67" cy="254.34" r="2.47"/><circle class="cls-30" cx="366.67" cy="204.34" r="2.47"/><circle class="cls-30" cx="356.67" cy="204.34" r="2.47"/><circle class="cls-30" cx="376.67" cy="204.34" r="2.47"/><circle class="cls-30" cx="396.67" cy="204.34" r="2.47"/><circle class="cls-30" cx="386.67" cy="204.34" r="2.47"/><circle class="cls-30" cx="406.67" cy="204.34" r="2.47"/><circle class="cls-30" cx="426.67" cy="204.34" r="2.47"/><circle class="cls-30" cx="416.67" cy="204.34" r="2.47"/><circle class="cls-30" cx="436.67" cy="204.34" r="2.47"/><circle class="cls-30" cx="456.67" cy="204.34" r="2.47"/><circle class="cls-30" cx="446.67" cy="204.34" r="2.47"/><circle class="cls-30" cx="466.67" cy="204.34" r="2.47"/><circle class="cls-30" cx="486.67" cy="254.34" r="2.47"/><circle class="cls-30" cx="476.67" cy="254.34" r="2.47"/><circle class="cls-30" cx="496.67" cy="254.34" r="2.47"/><circle class="cls-30" cx="516.67" cy="254.34" r="2.47"/><circle class="cls-30" cx="506.67" cy="254.34" r="2.47"/><circle class="cls-30" cx="526.67" cy="254.34" r="2.47"/><circle class="cls-30" cx="546.67" cy="254.34" r="2.47"/><circle class="cls-30" cx="536.67" cy="254.34" r="2.47"/><circle class="cls-30" cx="556.67" cy="254.34" r="2.47"/><circle class="cls-30" cx="116.67" cy="254.34" r="2.47"/><circle class="cls-30" cx="106.67" cy="254.34" r="2.47"/><circle class="cls-30" cx="126.67" cy="254.34" r="2.47"/><circle class="cls-30" cx="146.67" cy="254.34" r="2.47"/><circle class="cls-30" cx="136.67" cy="254.34" r="2.47"/><circle class="cls-30" cx="156.67" cy="254.34" r="2.47"/><circle class="cls-30" cx="176.67" cy="254.34" r="2.47"/><circle class="cls-30" cx="166.67" cy="254.34" r="2.47"/><circle class="cls-30" cx="186.67" cy="254.34" r="2.47"/><circle class="cls-30" cx="206.67" cy="254.34" r="2.47"/><circle class="cls-30" cx="196.67" cy="254.34" r="2.47"/><circle class="cls-30" cx="216.67" cy="254.34" r="2.47"/><circle class="cls-30" cx="236.67" cy="254.34" r="2.47"/><circle class="cls-30" cx="226.67" cy="254.34" r="2.47"/><circle class="cls-30" cx="246.67" cy="254.34" r="2.47"/><circle class="cls-30" cx="266.67" cy="254.34" r="2.47"/><circle class="cls-30" cx="256.67" cy="254.34" r="2.47"/><circle class="cls-30" cx="276.67" cy="254.34" r="2.47"/><circle class="cls-30" cx="296.67" cy="254.34" r="2.47"/><circle class="cls-30" cx="286.67" cy="254.34" r="2.47"/><circle class="cls-30" cx="306.67" cy="254.34" r="2.47"/><circle class="cls-30" cx="206.67" cy="204.34" r="2.47"/><circle class="cls-30" cx="216.67" cy="204.34" r="2.47"/><circle class="cls-30" cx="236.67" cy="204.34" r="2.47"/><circle class="cls-30" cx="226.67" cy="204.34" r="2.47"/><circle class="cls-30" cx="246.67" cy="204.34" r="2.47"/><circle class="cls-30" cx="266.67" cy="204.34" r="2.47"/><circle class="cls-30" cx="256.67" cy="204.34" r="2.47"/><circle class="cls-30" cx="276.67" cy="204.34" r="2.47"/><circle class="cls-30" cx="296.67" cy="204.34" r="2.47"/><circle class="cls-30" cx="286.67" cy="204.34" r="2.47"/><circle class="cls-30" cx="306.67" cy="204.34" r="2.47"/><circle class="cls-30" cx="316.67" cy="204.34" r="2.47"/><circle class="cls-30" cx="556.67" cy="254.34" r="2.47"/><circle class="cls-30" cx="566.67" cy="254.34" r="2.47"/><circle class="cls-30" cx="566.67" cy="254.34" r="2.47"/><circle class="cls-30" cx="576.67" cy="254.34" r="2.47"/><circle class="cls-30" cx="576.67" cy="254.34" r="2.47"/><circle class="cls-30" cx="586.67" cy="254.34" r="2.47"/><circle class="cls-30" cx="586.67" cy="254.34" r="2.47"/><circle class="cls-30" cx="596.67" cy="254.34" r="2.47"/><circle class="cls-30" cx="596.67" cy="254.34" r="2.47"/><circle class="cls-30" cx="606.67" cy="254.34" r="2.47"/><circle class="cls-30" cx="606.67" cy="254.34" r="2.47"/><circle class="cls-30" cx="616.67" cy="254.34" r="2.47"/><circle class="cls-30" cx="616.67" cy="244.34" r="2.47"/><circle class="cls-30" cx="616.67" cy="195.34" r="2.47"/><circle class="cls-30" cx="616.67" cy="205.34" r="2.47"/><circle class="cls-30" cx="106.67" cy="254.34" r="2.47"/><circle class="cls-30" cx="96.67" cy="254.34" r="2.47"/><circle class="cls-30" cx="96.67" cy="254.34" r="2.47"/><circle class="cls-30" cx="86.67" cy="254.34" r="2.47"/><circle class="cls-30" cx="76.67" cy="254.34" r="2.47"/><circle class="cls-30" cx="76.67" cy="254.34" r="2.47"/><circle class="cls-30" cx="66.67" cy="254.34" r="2.47"/><circle class="cls-30" cx="66.67" cy="254.34" r="2.47"/><circle class="cls-30" cx="336.67" cy="144.34" r="2.47"/><circle class="cls-30" cx="336.67" cy="154.34" r="2.47"/><circle class="cls-30" cx="476.67" cy="144.34" r="2.47"/><circle class="cls-30" cx="476.67" cy="154.34" r="2.47"/><circle class="cls-30" cx="196.67" cy="144.34" r="2.47"/><circle class="cls-30" cx="196.67" cy="154.34" r="2.47"/><circle class="cls-30" cx="616.67" cy="144.34" r="2.47"/><circle class="cls-30" cx="616.67" cy="154.34" r="2.47"/><circle class="cls-30" cx="56.67" cy="144.34" r="2.47"/><circle class="cls-30" cx="56.67" cy="154.34" r="2.47"/><circle class="cls-30" cx="336.67" cy="164.34" r="2.47"/><circle class="cls-30" cx="336.67" cy="174.34" r="2.47"/><circle class="cls-30" cx="476.67" cy="164.34" r="2.47"/><circle class="cls-30" cx="476.67" cy="174.34" r="2.47"/><circle class="cls-30" cx="196.67" cy="164.34" r="2.47"/><circle class="cls-30" cx="196.67" cy="174.34" r="2.47"/><circle class="cls-30" cx="56.67" cy="164.34" r="2.47"/><circle class="cls-30" cx="56.67" cy="174.34" r="2.47"/><circle class="cls-30" cx="336.67" cy="184.34" r="2.47"/><circle class="cls-30" cx="336.67" cy="194.34" r="2.47"/><circle class="cls-30" cx="476.67" cy="184.34" r="2.47"/><circle class="cls-30" cx="476.67" cy="194.34" r="2.47"/><circle class="cls-30" cx="196.67" cy="184.34" r="2.47"/><circle class="cls-30" cx="196.67" cy="194.34" r="2.47"/><circle class="cls-30" cx="56.67" cy="184.34" r="2.47"/><circle class="cls-30" cx="56.67" cy="194.34" r="2.47"/><circle class="cls-30" cx="336.67" cy="204.34" r="2.47"/><circle class="cls-30" cx="476.67" cy="204.34" r="2.47"/><circle class="cls-30" cx="196.67" cy="204.34" r="2.47"/><circle class="cls-30" cx="56.67" cy="204.34" r="2.47"/><circle class="cls-30" cx="336.67" cy="214.34" r="2.47"/><circle class="cls-30" cx="56.67" cy="214.34" r="2.47"/><circle class="cls-30" cx="336.67" cy="224.34" r="2.47"/><circle class="cls-30" cx="336.67" cy="234.34" r="2.47"/><circle class="cls-30" cx="56.67" cy="224.34" r="2.47"/><circle class="cls-30" cx="56.67" cy="234.34" r="2.47"/><circle class="cls-30" cx="336.67" cy="244.34" r="2.47"/><circle class="cls-30" cx="336.67" cy="254.34" r="2.47"/><circle class="cls-30" cx="56.67" cy="244.34" r="2.47"/><circle class="cls-30" cx="56.67" cy="254.34" r="2.47"/><circle class="cls-30" cx="336.67" cy="264.34" r="2.47"/><circle class="cls-30" cx="336.67" cy="274.34" r="2.47"/><circle class="cls-30" cx="326.67" cy="204.34" r="2.47"/><circle class="cls-30" cx="326.67" cy="214.34" r="2.47"/><circle class="cls-30" cx="326.67" cy="224.34" r="2.47"/><circle class="cls-30" cx="326.67" cy="234.34" r="2.47"/><circle class="cls-30" cx="326.67" cy="244.34" r="2.47"/><circle class="cls-30" cx="326.67" cy="254.34" r="2.47"/><circle class="cls-30" cx="326.67" cy="264.34" r="2.47"/><circle class="cls-30" cx="326.67" cy="274.34" r="2.47"/><circle class="cls-30" cx="316.67" cy="254.34" r="2.47"/><circle class="cls-30" cx="316.67" cy="264.34" r="2.47"/><circle class="cls-30" cx="346.67" cy="204.34" r="2.47"/><circle class="cls-30" cx="346.67" cy="214.34" r="2.47"/><circle class="cls-30" cx="346.67" cy="224.34" r="2.47"/><circle class="cls-30" cx="346.67" cy="234.34" r="2.47"/><circle class="cls-30" cx="346.67" cy="244.34" r="2.47"/><circle class="cls-30" cx="346.67" cy="254.34" r="2.47"/><circle class="cls-30" cx="346.67" cy="264.34" r="2.47"/><circle class="cls-30" cx="346.67" cy="274.34" r="2.47"/><circle class="cls-30" cx="356.67" cy="254.34" r="2.47"/><circle class="cls-30" cx="356.67" cy="264.34" r="2.47"/><text class="cls-1" transform="translate(204.26 344)"><tspan class="cls-2"><tspan class="cls-87">S</tspan><tspan class="cls-88" x="7.67" y="0">u</tspan><tspan class="cls-89" x="16.76" y="0">m</tspan><tspan class="cls-90" x="30.45" y="0">e</tspan><tspan class="cls-91" x="38.76" y="0">e</tspan><tspan x="47.05" y="0">t </tspan><tspan class="cls-92" x="56.76" y="0">D</tspan><tspan class="cls-93" x="67.09" y="0">u</tspan><tspan x="76.19" y="0">a</tspan></tspan><tspan class="cls-18"><tspan class="cls-94" x="20.8" y="15">L</tspan><tspan x="27.63" y="15">A </tspan><tspan class="cls-95" x="38.34" y="15">T</tspan><tspan class="cls-47" x="44.05" y="15">e</tspan><tspan class="cls-44" x="50.8" y="15">c</tspan><tspan x="56.48" y="15">h</tspan></tspan></text><circle class="cls-30" cx="246.58" cy="369.34" r="2.47"/><line class="cls-31" x1="191.44" y1="369.34" x2="237.65" y2="369.34"/><line class="cls-31" x1="255.52" y1="369.34" x2="301.72" y2="369.34"/><text class="cls-1" transform="translate(117.41 404)"><tspan class="cls-2"><tspan class="cls-48">U</tspan><tspan class="cls-49" x="10.49" y="0">r</tspan><tspan class="cls-39" x="16.93" y="0">s</tspan><tspan class="cls-34" x="23.88" y="0">k</tspan><tspan x="32.49" y="0">a </tspan><tspan class="cls-50" x="44.59" y="0">C</tspan><tspan class="cls-51" x="53.59" y="0">v</tspan><tspan class="cls-96" x="61.37" y="0">e</tspan><tspan x="69.66" y="0">k</tspan></tspan><tspan class="cls-18"><tspan class="cls-97" x="23.06" y="15">L</tspan><tspan class="cls-98" x="29.58" y="15">S</tspan><tspan class="cls-99" x="36.07" y="15">U</tspan><tspan class="cls-100" x="45.06" y="15">-</tspan><tspan x="48.69" y="15">S</tspan></tspan></text><circle class="cls-30" cx="156.58" cy="429.34" r="2.47"/><line class="cls-31" x1="101.44" y1="429.34" x2="147.65" y2="429.34"/><line class="cls-31" x1="165.52" y1="429.34" x2="211.72" y2="429.34"/><text class="cls-1" transform="translate(284.06 404)"><tspan class="cls-2"><tspan class="cls-101">H</tspan><tspan class="cls-51" x="10.78" y="0">y</tspan><tspan class="cls-102" x="18.57" y="0">e</tspan><tspan class="cls-103" x="27.36" y="0">-</tspan><tspan class="cls-104" x="31.31" y="0">Y</tspan><tspan class="cls-105" x="39.22" y="0">o</tspan><tspan class="cls-77" x="47.83" y="0">u</tspan><tspan class="cls-78" x="56.92" y="0">n</tspan><tspan x="66.09" y="0">g </tspan><tspan class="cls-57" x="77.63" y="0">K</tspan><tspan class="cls-4" x="87.12" y="0">i</tspan><tspan x="91.3" y="0">m</tspan></tspan><tspan class="cls-18"><tspan class="cls-106" x="38.65" y="15">S</tspan><tspan class="cls-107" x="45.12" y="15">E</tspan><tspan class="cls-108" x="51.64" y="15">L</tspan><tspan x="57.65" y="15">U</tspan></tspan></text><circle class="cls-30" cx="336.58" cy="429.34" r="2.47"/><line class="cls-31" x1="281.44" y1="429.34" x2="327.65" y2="429.34"/><line class="cls-31" x1="345.52" y1="429.34" x2="391.72" y2="429.34"/><text class="cls-1" transform="translate(466.5 404)"><tspan class="cls-2"><tspan class="cls-109">T</tspan><tspan class="cls-11" x="8.13" y="0">ho</tspan><tspan class="cls-73" x="25.89" y="0">m</tspan><tspan class="cls-110" x="39.53" y="0">a</tspan><tspan x="48.02" y="0">s </tspan><tspan class="cls-111" x="58.61" y="0">W</tspan><tspan class="cls-33" x="72.35" y="0">i</tspan><tspan class="cls-112" x="76.57" y="0">e</tspan><tspan x="84.93" y="0">se</tspan></tspan><tspan class="cls-18"><tspan class="cls-113" x="32.88" y="15">X</tspan><tspan class="cls-114" x="39.93" y="15">a</tspan><tspan class="cls-115" x="46.57" y="15">v</tspan><tspan class="cls-116" x="52.74" y="15">i</tspan><tspan class="cls-117" x="55.69" y="15">e</tspan><tspan x="62.39" y="15">r</tspan></tspan></text><circle class="cls-30" cx="516.58" cy="429.34" r="2.47"/><line class="cls-31" x1="461.44" y1="429.34" x2="507.65" y2="429.34"/><line class="cls-31" x1="525.52" y1="429.34" x2="571.72" y2="429.34"/><text class="cls-1" transform="translate(6.29 344)"><tspan class="cls-2"><tspan class="cls-89">S</tspan><tspan class="cls-118" x="7.66" y="0">w</tspan><tspan class="cls-119" x="20.13" y="0">w</tspan><tspan class="cls-120" x="32.43" y="0">t</tspan><tspan class="cls-121" x="38.46" y="0">h</tspan><tspan class="cls-96" x="47.6" y="0">e</tspan><tspan class="cls-122" x="55.89" y="0">r</tspan><tspan class="cls-73" x="62.05" y="0">am</tspan><tspan x="84.04" y="0">a </tspan><tspan class="cls-66" x="96.13" y="0">J</tspan><tspan class="cls-123" x="100.75" y="0">o</tspan><tspan class="cls-124" x="109.33" y="0">i</tspan><tspan class="cls-17" x="113.62" y="0">s</tspan></tspan><tspan class="cls-18"><tspan class="cls-125" x="47.41" y="15">U</tspan><tspan class="cls-43" x="56.1" y="15">L</tspan><tspan x="62.34" y="15">M</tspan></tspan></text><circle class="cls-30" cx="66.58" cy="369.34" r="2.47"/><line class="cls-31" x1="11.44" y1="369.34" x2="57.65" y2="369.34"/><line class="cls-31" x1="75.52" y1="369.34" x2="121.72" y2="369.34"/><text class="cls-1" transform="translate(395.94 344)"><tspan class="cls-2"><tspan class="cls-81">P</tspan><tspan class="cls-126" x="8.54" y="0">au</tspan><tspan x="25.96" y="0">l </tspan><tspan class="cls-57" x="33.87" y="0">K</tspan><tspan class="cls-4" x="43.36" y="0">i</tspan><tspan x="47.53" y="0">m</tspan></tspan><tspan class="cls-18"><tspan class="cls-127" x="1.43" y="15">G</tspan><tspan class="cls-128" x="10.21" y="15">r</tspan><tspan class="cls-62" x="15.04" y="15">am</tspan><tspan class="cls-129" x="32.75" y="15">b</tspan><tspan class="cls-130" x="40.08" y="15">li</tspan><tspan class="cls-131" x="45.98" y="15">n</tspan><tspan x="53.28" y="15">g</tspan></tspan></text><circle class="cls-30" cx="426.58" cy="369.34" r="2.47"/><line class="cls-31" x1="371.44" y1="369.34" x2="417.65" y2="369.34"/><line class="cls-31" x1="435.52" y1="369.34" x2="481.72" y2="369.34"/><text class="cls-1" transform="translate(544.61 344)"><tspan class="cls-2">E<tspan class="cls-132" x="7.84" y="0">d</tspan><tspan class="cls-93" x="16.6" y="0">ua</tspan><tspan class="cls-92" x="34.05" y="0">r</tspan><tspan class="cls-133" x="40.37" y="0">d</tspan><tspan x="49.18" y="0">o </tspan><tspan class="cls-134" x="61.49" y="0">M</tspan><tspan class="cls-73" x="74.62" y="0">a</tspan><tspan class="cls-135" x="82.97" y="0">r</tspan><tspan class="cls-3" x="89.61" y="0">t</tspan><tspan class="cls-4" x="95.6" y="0">i</tspan><tspan class="cls-11" x="99.78" y="0">n</tspan><tspan class="cls-136" x="108.92" y="0">e</tspan><tspan x="117.11" y="0">z</tspan></tspan><tspan class="cls-18"><tspan class="cls-98" x="46.78" y="15">S</tspan><tspan class="cls-125" x="53.26" y="15">U</tspan><tspan class="cls-19" x="61.95" y="15">B</tspan><tspan x="69.75" y="15">R</tspan></tspan></text><circle class="cls-30" cx="606.58" cy="369.34" r="2.47"/><line class="cls-31" x1="551.44" y1="369.34" x2="597.65" y2="369.34"/><line class="cls-31" x1="615.52" y1="369.34" x2="661.72" y2="369.34"/><circle class="cls-30" cx="336.67" cy="284.34" r="2.47"/><circle class="cls-30" cx="336.67" cy="294.34" r="2.47"/><circle class="cls-30" cx="336.67" cy="304.34" r="2.47"/><circle class="cls-30" cx="356.67" cy="304.34" r="2.47"/><circle class="cls-30" cx="346.67" cy="304.34" r="2.47"/><circle class="cls-30" cx="366.67" cy="304.34" r="2.47"/><circle class="cls-30" cx="386.67" cy="304.34" r="2.47"/><circle class="cls-30" cx="376.67" cy="304.34" r="2.47"/><circle class="cls-30" cx="396.67" cy="304.34" r="2.47"/><circle class="cls-30" cx="416.67" cy="304.34" r="2.47"/><circle class="cls-30" cx="406.67" cy="304.34" r="2.47"/><circle class="cls-30" cx="426.67" cy="304.34" r="2.47"/><circle class="cls-30" cx="446.67" cy="304.34" r="2.47"/><circle class="cls-30" cx="436.67" cy="304.34" r="2.47"/><circle class="cls-30" cx="456.67" cy="304.34" r="2.47"/><circle class="cls-30" cx="476.67" cy="304.34" r="2.47"/><circle class="cls-30" cx="466.67" cy="304.34" r="2.47"/><circle class="cls-30" cx="486.67" cy="304.34" r="2.47"/><circle class="cls-30" cx="506.67" cy="304.34" r="2.47"/><circle class="cls-30" cx="496.67" cy="304.34" r="2.47"/><circle class="cls-30" cx="516.67" cy="304.34" r="2.47"/><circle class="cls-30" cx="536.67" cy="304.34" r="2.47"/><circle class="cls-30" cx="526.67" cy="304.34" r="2.47"/><circle class="cls-30" cx="546.67" cy="304.34" r="2.47"/><circle class="cls-30" cx="126.67" cy="304.34" r="2.47"/><circle class="cls-30" cx="116.67" cy="304.34" r="2.47"/><circle class="cls-30" cx="136.67" cy="304.34" r="2.47"/><circle class="cls-30" cx="156.67" cy="304.34" r="2.47"/><circle class="cls-30" cx="146.67" cy="304.34" r="2.47"/><circle class="cls-30" cx="166.67" cy="304.34" r="2.47"/><circle class="cls-30" cx="186.67" cy="304.34" r="2.47"/><circle class="cls-30" cx="176.67" cy="304.34" r="2.47"/><circle class="cls-30" cx="196.67" cy="304.34" r="2.47"/><circle class="cls-30" cx="216.67" cy="304.34" r="2.47"/><circle class="cls-30" cx="206.67" cy="304.34" r="2.47"/><circle class="cls-30" cx="226.67" cy="304.34" r="2.47"/><circle class="cls-30" cx="246.67" cy="304.34" r="2.47"/><circle class="cls-30" cx="236.67" cy="304.34" r="2.47"/><circle class="cls-30" cx="256.67" cy="304.34" r="2.47"/><circle class="cls-30" cx="276.67" cy="304.34" r="2.47"/><circle class="cls-30" cx="266.67" cy="304.34" r="2.47"/><circle class="cls-30" cx="286.67" cy="304.34" r="2.47"/><circle class="cls-30" cx="306.67" cy="304.34" r="2.47"/><circle class="cls-30" cx="296.67" cy="304.34" r="2.47"/><circle class="cls-30" cx="316.67" cy="304.34" r="2.47"/><circle class="cls-30" cx="326.67" cy="304.34" r="2.47"/><circle class="cls-30" cx="546.67" cy="304.34" r="2.47"/><circle class="cls-30" cx="556.67" cy="304.34" r="2.47"/><circle class="cls-30" cx="556.67" cy="304.34" r="2.47"/><circle class="cls-30" cx="566.67" cy="304.34" r="2.47"/><circle class="cls-30" cx="566.67" cy="304.34" r="2.47"/><circle class="cls-30" cx="576.67" cy="304.34" r="2.47"/><circle class="cls-30" cx="576.67" cy="304.34" r="2.47"/><circle class="cls-30" cx="586.67" cy="304.34" r="2.47"/><circle class="cls-30" cx="586.67" cy="304.34" r="2.47"/><circle class="cls-30" cx="596.67" cy="304.34" r="2.47"/><circle class="cls-30" cx="596.67" cy="304.34" r="2.47"/><circle class="cls-30" cx="606.67" cy="304.34" r="2.47"/><circle class="cls-30" cx="606.67" cy="304.34" r="2.47"/><circle class="cls-30" cx="116.67" cy="304.34" r="2.47"/><circle class="cls-30" cx="106.67" cy="304.34" r="2.47"/><circle class="cls-30" cx="106.67" cy="304.34" r="2.47"/><circle class="cls-30" cx="96.67" cy="304.34" r="2.47"/><circle class="cls-30" cx="96.67" cy="304.34" r="2.47"/><circle class="cls-30" cx="86.67" cy="304.34" r="2.47"/><circle class="cls-30" cx="86.67" cy="304.34" r="2.47"/><circle class="cls-30" cx="76.67" cy="304.34" r="2.47"/><circle class="cls-30" cx="76.67" cy="304.34" r="2.47"/><circle class="cls-30" cx="66.67" cy="304.34" r="2.47"/><circle class="cls-30" cx="426.67" cy="324.34" r="2.47"/><circle class="cls-30" cx="426.67" cy="314.34" r="2.47"/><circle class="cls-30" cx="336.67" cy="324.34" r="2.47"/><circle class="cls-30" cx="336.67" cy="314.34" r="2.47"/><circle class="cls-30" cx="606.67" cy="324.34" r="2.47"/><circle class="cls-30" cx="606.67" cy="314.34" r="2.47"/><circle class="cls-30" cx="246.67" cy="324.34" r="2.47"/><circle class="cls-30" cx="246.67" cy="314.34" r="2.47"/><circle class="cls-30" cx="156.67" cy="324.34" r="2.47"/><circle class="cls-30" cx="156.67" cy="314.34" r="2.47"/><circle class="cls-30" cx="516.67" cy="324.34" r="2.47"/><circle class="cls-30" cx="516.67" cy="314.34" r="2.47"/><circle class="cls-30" cx="336.67" cy="344.34" r="2.47"/><circle class="cls-30" cx="336.67" cy="334.34" r="2.47"/><circle class="cls-30" cx="156.67" cy="344.34" r="2.47"/><circle class="cls-30" cx="156.67" cy="334.34" r="2.47"/><circle class="cls-30" cx="516.67" cy="344.34" r="2.47"/><circle class="cls-30" cx="516.67" cy="334.34" r="2.47"/><circle class="cls-30" cx="336.67" cy="364.34" r="2.47"/><circle class="cls-30" cx="336.67" cy="354.34" r="2.47"/><circle class="cls-30" cx="156.67" cy="364.34" r="2.47"/><circle class="cls-30" cx="156.67" cy="354.34" r="2.47"/><circle class="cls-30" cx="516.67" cy="364.34" r="2.47"/><circle class="cls-30" cx="516.67" cy="354.34" r="2.47"/><circle class="cls-30" cx="336.67" cy="384.34" r="2.47"/><circle class="cls-30" cx="336.67" cy="374.34" r="2.47"/><circle class="cls-30" cx="156.67" cy="384.34" r="2.47"/><circle class="cls-30" cx="156.67" cy="374.34" r="2.47"/><circle class="cls-30" cx="516.67" cy="384.34" r="2.47"/><circle class="cls-30" cx="516.67" cy="374.34" r="2.47"/><circle class="cls-30" cx="66.67" cy="324.34" r="2.47"/><circle class="cls-30" cx="66.67" cy="314.34" r="2.47"/><circle class="cls-30" cx="66.67" cy="304.34" r="2.47"/></svg>