<svg id="Layer_1" data-name="Layer 1" xmlns="http://www.w3.org/2000/svg" viewBox="0 0 784.3 699.47"><defs><style>.cls-1{fill:#c2e3c4;}.cls-2{fill:#d6a48b;}.cls-2,.cls-23,.cls-3,.cls-4,.cls-5{stroke:#2c3d6c;stroke-miterlimit:10;}.cls-3{fill:#729fcc;}.cls-4{fill:#e7ea7a;}.cls-5{fill:#fff;}.cls-10,.cls-14,.cls-25,.cls-6{font-size:20px;fill:#2c3d6c;}.cls-10,.cls-14,.cls-6{font-family:Ubuntu-Medium, Ubuntu;}.cls-18,.cls-6{letter-spacing:0.02em;}.cls-7{letter-spacing:0em;}.cls-8{letter-spacing:-0.01em;}.cls-9{letter-spacing:0em;}.cls-11{letter-spacing:-0.02em;}.cls-12{letter-spacing:-0.01em;}.cls-13{letter-spacing:0.01em;}.cls-14{letter-spacing:-0.03em;}.cls-15{letter-spacing:-0.04em;}.cls-16{letter-spacing:-0.04em;}.cls-17{letter-spacing:-0.02em;}.cls-19{letter-spacing:-0.06em;}.cls-20{letter-spacing:-0.03em;}.cls-21{letter-spacing:-0.01em;}.cls-22{letter-spacing:0.02em;}.cls-23{fill:none;}.cls-24{letter-spacing:-0.02em;}.cls-25{font-family:Ubuntu, Ubuntu;}.cls-26{letter-spacing:-0.01em;}.cls-27{letter-spacing:0em;}</style></defs><title>campus-map</title><path class="cls-1" d="M678.3,630.32c-.91.3-9.75,1.91-9.75,1.91L665.72,636h4s3.28.3,3,1.91-2.51,4.42-2.51,4.42-1.3.61-1.6,0-3.12-2.29-3.12-2.29l-2.21,2.44h-.76v3.2l-2.74,3v.15l-.61,2.82,2.82,4.42-5-2.51-3.12-4.72-2.82-6.32-3.43-4.11s-3.12,5.64-3.12,6.63-8.15,11-8.15,11-6.93,7.85-6.93,9.14-2.21-2.51-2.21-2.51l4.42-5.64,9.75-11.66,4.72-9.14-.61-4.11-1.3-6.32-3.43-3.81-3.12-.3-.91,2.51-1.6,3.12-2.82.3-2.51,5,3.12-.3-5.33,3.81-1.6-4.11,2.51-3.43-1.91-2.82-3.43,2.21v1.45l-2.44-5.87v-3l-1.07-6.71-1.3-4.42-4.11-1.75V611H608.5v-5.33l-3.73,2.29-.3-4.11-2.82-5L598.51,601l-4.72-.61-5-.3-2.51-2.21-1.6.91-3.51-.46v2.13H578.7v-3.2h.38l-2.59-2.9,1.6-2.82-2.82-2.13-2.21,3.81h-4l-3.28-1.68,1.3-2.82-3.12-1.6-.3,4.11-4.42-.91.3,5.33-2.9,1.6-.38-4.42v-3.66s-2.36-3.58-2.67-2.67-1.3,3.28-1.3,3.28l-2.51-3h-4.88l2.67-2.13-2.82-3.12L540.37,579l-.3-3.12L541,572l1.3-6.32-3.43-5s-2.06,5.64-1.75,6.63,1.45,4.42,1.45,4.42v4.57l-3.2-.15-4.11.61-.3,5s1.6.3,1.91,1.6,3.43,3.12,3.43,4.42,1.91,3.43,3.12,3.43,5.33,2.21,5.33,2.21l2.82-2.82,3.12.91s-.3,4.11-.3,5a33.2,33.2,0,0,0,1.3,5.94,8,8,0,0,1,0,3.81,36.57,36.57,0,0,0-.61,4.42l-4.11-2.21.91-5-3.43,2.82s-1.68.61-2.06,1.3c-.69-1.37-2.36-4.11-2.36-4.11l-.91,3.81,3.81,4.11-.3,3.81,1.3,2.51,2.51,5.64,1.3,3.43,5.64-2.51,2.51-3.12,2.51-3.43,2.82-1.6,2.51,1.91L559,621.18l-6.63,6.63a17.74,17.74,0,0,0-4.11,2.82c-.91,1.3-3.43,1.91-4.42,3.12s-8.53,4.72-9.45,5.33-7.24,3.43-7.24,3.43l.61-4.42-.91-2.51-1.91-3.43.61-3.12-.76-3.81,2.36-2.82V618.2l-3.2-5,1.3-3.43-2.82-.91s-1.3,2.82-.61,4.11a33.81,33.81,0,0,1,1.6,4.72L521.32,620l-3.73-2.82v-3.66l.38-3.58,3-3.43-3-3.12-1.75-1.91a4.39,4.39,0,0,0-1.6,2.82,13.78,13.78,0,0,1-.3,2.82l-3.43-2.82,1.3,4.11.91,3.12-.61,5.64-1.6,3.12-3.43,3.12,1.6-7.85-1.3-5.94-2.51-2.21-1.91,2.51-2.21,2.82-3.12.61-2.82-1.91-.91-2.51-1.6-2.51-3.12,3.43-.61,1.91-3.81.91-2.82,1.91,3.43,3.81-1.91,1.3-1.91-.3-.61,2.21,2.21,4.11-4.42-2.51-1.68-2.51-3.28,2.21v2.74l-3.2,1.68v5.64l-.91,5.41-3.43.61L460,641.52l3.43-4.65H459.6l3.43-3.35-.91-3.81-5,2.51-2.21-1.91-1.3,4.72L451.37,637l-4.11-4.42-5-1.91a11.19,11.19,0,0,0,.3-1.3c-.3,1.3-5.64.91-5.64.91l-3.81-1.6-.3-4.11s.61-3.43-.3-3.81-3.81-1.6-3.81-1.6l-.61,8.53-2.82-.3-6.63-1.91-8.53-.91-8.15-3.81-5.72-5.94L391.78,612l4.42-.61,5-.91s1.6-4.42,2.51-5.33,3.43-2.82,3.43-2.82l.61,4.72s-.3,2.82,1.3,3.12a12,12,0,0,0,4.42-.61l.3,3.43s0,5.94.91,6.32,4.11-.61,5-1.3.08-2.82,1.75-3.12.84-3.81,0-4.42-4-4.72-4.88-5-4.42-4.11-4.42-4.11l-4.11-3.81,1.3-3.43,1.91-3.81-6.63,2.51-1.6-5.94-.3-6.93,5.33-2.51-1.6-5.33-.91-5.64s.91-5.64,1.3-6.63-3.12,5.94-3.12,5.94.91,5.94,1.3,6.93-3.12,4.11-3.12,4.11l-1.3,4.11-.3,5.64a7.6,7.6,0,0,1-1.6,3.81c-1.3,1.3-5,1.91-5,1.91L390.86,596l-.91-3.81,3.43-3.12L390.25,585s-3.43,1.91-3.81,2.82-3.43,2.51-4.42,2.51-5-.91-5-.91-2.51-2.82-1.6-3.43a33.45,33.45,0,0,0,3.43-3.58l-1.91-2h-3.81l-3.12.53s.3-3.12.3-4.11-1.3-6.93-1.3-6.93l-3.12-4.42-4.11,1.3-4.8-.91,1.68-2.82.61-5.94-.61-6.32-12-.3-11,2.82-3.12,1.91-2.21-1.3,1.91-2.82-1.91-3.12s-2.44-2.13,0-2.13a6.89,6.89,0,0,0,4-1.3v-2.74l-5.11-2.59s-2.44-1.3-3.66-.3-3.81,2.82-3.81,2.82l-4.42-2.51-2.51,3L312.91,545h-6l-5.26,6.1-4.42,1.6v-2.82l-2.9-.3-3.43,1.91s-1.6,2.21,0,2.82a12.23,12.23,0,0,0,4.42.3l1.91,1.91s2.82.3,2.82,1.3a16.48,16.48,0,0,1-1.3,3.81s-1.91.3-.3,3.12a9.08,9.08,0,0,0,4.42,3.81l5-.61,2.21.61L306,571.64l-1.91,1.91s-8.53-1-10.36.3-12.27,5.94-12.27,5.94h-9.22l-13.11-.53-17.6-5-4.42-.61-2.21-3.43L233,572.71l-7.85-2.82L181.68,551.6l-17-4.11-12.12,1.3-3-3.81v4.19l-12.34-.76s-5.64-2.51-6.93-1.6-2.21,1.3-5,1.6-14.78,2.82-14.78,2.82-7.54,0-9.45.91-8,3.89-8,3.89-2.21,3.43-1.91,4.42,0,6.1,0,6.1L88.64,562,85,552.82l-2.44-4.72v-5.72l4.88-1.83,6.63-4.11,5-11.35-.91-5.49L96,515.94l4.42-5.33,4.72-4.11-1.52-3.12v-3.73L106,498v-4l-1.6-6.32v-4.11l1.3-10.36-3.81-.91-2.67-1.91-.46-3.43v-6.78l4.34-4.27,2.13-3.81V442.4l-3.2-2.59v-3.89s.91-3.66,1.83-3.66,4.42-.3,4.42-.3l-.3-7.54,2.82-2.82,5.64-6.63.91-5.33.91-3.81,2.82-4.72,2.51-2.82-1.3-4.72.91-5,1.91-3.43,1.3-2.21-1.91-3.12-2.82-4.57s-.3-3.66.61-3.66h5.41v-3l-.91-4.11-2.21-3.12s-1.3-2.82,0-3.43,1.91-3.81,1.91-3.81l-.61-5.33-3.43-1.3L120,342a13.19,13.19,0,0,1-.46-4.42,28.53,28.53,0,0,1,1.14-3.81V332h-3.2l.69-4.57s1.91-3.51.91-3.51h-4l-.38-2.36,1.91-2.51-.91-1.91.61-3.66,2.21-2.44h-2.59l-4,3-3.2-.61v-4.72l-4.57-3,.91-2.67h3.66l5.18-2.51,5-2.29-4.11-1.68s-3.66-.84-3.66,0-2.29,3.2-2.29,3.2h-4.19l-.23-3.58.91-1.37,2.21-4.42,3.12-4.11-3.12-1.6a11.28,11.28,0,0,0-1.91,3.12c-.3,1.3-2.82,4.42-2.82,4.42l-3,2.21-1.68-4.11V286l2.44-5.72,2.13-4.11-5.41,4.42v-6.71l.38-4.34-3.81-8.84-7.24-8.15-3.89-4.42v-4.88H79.5v3.2l-3.43-3.2-4.57-2.36v-2.51l-2.44-2.51-4-3.89V84.1L414,85.93,413.11,90l-2.82,4.11,1.3,5.64,4.11.61,3.12-1.3.38-10.36,5,.3,1.3,4.11,2.21,5.33-2.82,3.43L423,107l-4.72,1.3s-2.51,1.91-2.51,3.12-.38,12.34-.38,12.34l7.54.3,4.42,2.82-.61,2.82-5.33,3.43-4.19,4.11v5.87l2.29,2.29,4.11-.3,5.33-2.21,2.21-4.11,2.21,1.91a21,21,0,0,1-2.21,3.12c-.91.91-3.12,2.21-2.82,3.43s-.61,2.59-1.91,3.58a25.58,25.58,0,0,0-3.43,3.58h4.72s4-.23,4,.76-.3,4.42-.3,4.42L428.35,157l-4.11-.61s-3.43-.61-3,.3,0,5.33,0,5.33a9.28,9.28,0,0,1,3.89,1.91c1.3,1.3,5.33,2.21,6,3.12s4.72-.61,4.72-.61-1.3,4.42-1.6,5.64-.91,6.93.3,6.93,6.63,2.21,6.63,2.21l5.64-.91s2.51-5.33,2.13-3.43l-1.83,7.24-3.81,4.42-3,.3-3,.3v4a10.42,10.42,0,0,1-.23,4.19c-.61,1.52-2.51,5-2.51,5l-1.3-4.42-4.11-.91-3.81,1.52L419.67,202h-4.19L414,211.21a36.05,36.05,0,0,1,3.81,1.3c1.6.61,5.33-.91,5.33-.91l3.43.61,1.91-5.64,3.43,1.3,2.21,3.43s-1.6,3.12-2.51,3.43-2.82,2.51-2.82,2.51-2.21.91-2.51,1.91-1.91,4.72-1.91,4.72l-3.28-1.91-2.36-2.82-2.82.91.91,4.11,4.27,1.6,3.28,1.6-.3,3.43-3,1.6L414,234.6l-1.3,3.81-.3,3.81-5.33,5L403,251.67l.91,5-2.82,1.91-1.6-4.72-1.91-1.6-4.42,1.91L390.94,262l-1.3,5.33-3.12,4.72.3,10.36-2.21,2.82-2.82,1.6-1.91-1.3-4.11-1.6s-2.51-.91-2.82.3,1.91,4.42,1.91,4.42,3.12,1.91,5,1.91,5.33.3,5.33.3l-1.91,5-4.72,1.3-5,.91s-2.9,4.11-2.21,5,1.91,9.75,1.91,9.75l4.11,6.32-1.91,3.12-4.11-1.3-1.52-5.33s-3.12-3.81-3.12-2.82a38.82,38.82,0,0,1-1.3,5l2.06,4.72L371,329v5.33l-4,1.3-9.45.61-2.82,1.6s1.3,2.82,2.21,3.43a24.29,24.29,0,0,1,4.11,5.64c.3.91-1.3,7.24-1.3,7.24l-.61,3.43,4.11,5,2.21,4.72-2.82,2.82-3.12,1.91-3,1.75H588.84v4l-1.37,1.83,1.37,5-3.58,1.91-.61,3.43-1.75,3.81-.46,4.11v4.11h-3.2l-1.83,3.43s-.3,2.21.61,3.12.3,3.81.3,3.81l-2.21,2.21.61,5-1.91,2.51,2.29,2.51,2,1.6v4l1.07,3.81a6.66,6.66,0,0,1,.61,2.21c0,.91,2.21,2.44,2.21,2.44l1.6,2.74h2.67l1.6,5.79s3.35.3,3,1.3,2.59,4.11,2.59,4.11v5.79l1.75,4.88,3.43,2.82,1.3,7.24s-.91,5,0,6,2.82.61,2.82,2.21,2.51,5.94,2.51,5.94l5.64,1.3-2.82,3-2.82,2.06h-3.73l-3.81,4-2.82,4.72-2.51,1.3-2-1.3-2.59,2.82v2.9l1.75,3.51-5-2.67H578.4s-3.51,2.9-3.51,4.11.61,3.66.61,5,3.43,4.65,3.43,4.65h5.87l3.58-1.68,1.91,1.68-3.12,3.66,5.94,6,4.42,1.6,8.15-2.21,1.3-5.94,1.3-3.43.61-7.54,3.28-3.43,5.79-2.82v-3.43s3.35-.61,3.66.3,3.58,2.21,3.58,2.21v4l-3.73,2.36,5.87-3.43h-.46l2.44-3.73h3.12l1.22,2.44-1.22,1.6-2.82-.15,1,1.75,2.21,2.21-4.11-.61-3.43,2.82,4.72,3.12,2.82,4.72-1.6,4.42,3.66.23V526.3h4v3.2h-2.67s-1.6,2.51,0,3.43a15,15,0,0,1,3.43,3.43l-1.6,1.6-2.82-2.82-2.82,2.67,3.43,4.57h5.33l1.6,4.88H629.07L627,549.7s-2-2.44-2,0c0,1.6-1.22,3.2-.53,4.11s3.12,4.72,3.12,4.72l-3.12,3.12-1.3,1.3-.91-4.42-1.91-2.82-.61-5.33-2.21-3.12.61,4.42-2.51,1.91.61,3.12-.91,3.43a2,2,0,0,0-.91,2.82,18,18,0,0,0,2.21,3.43l-5.33-2.51-2.51-2.51,3.12-1.91.61-4.11-1.6-1.6-3.12-2.82-1.6,3.43-1.91-3.43-2.21-3.43-1.6-4.11s-3.43,0-3.43,1.3a12.36,12.36,0,0,0,1.3,3.81l1.3,4.42,2.51,2.21,2.21,2.51.91,2.82-.91,3.12-.91,2.82-3.12-2.21.91,5L599,567.83l-3,1.14v.08H592.8l-2.29-1.37-.3,1.6,3.43,6.4v-3.35h8.08v4H594l1.3,2.36,3.43,4.88,5.33,3.28h4.11l2.82,4.8,3.12,1.75-.91,4h-2.67l1.68,4H617l2.44.53v-3h4.88v4l2.74.61,5,4.11,5.94,1.91.91-4.11,5.33-.3s2.82,3.81,2.82,4.42-2.82,3.43-2.82,3.43-2.82,1.91-2.82,2.82-.76,3.43.46,4.42,4.88,2.82,4.88,2.82V620l.3-5,3.12-3.43,4.11-1.3s-2.21-2.82,0-2.21,4.5,4.11,4.5,4.11,3.28,2.21,3.28,3.81v7.24s-2.06,3.2-3,3.2h-5s-2.44-1.45-2.44,0-1.68,4.65-1.68,4.65l4.42,3.12,1.91-3.12,5.87-3.81v2.36l5.79-1.45L672,626l4.11,2.82C676.39,628.72,679.29,630,678.3,630.32Z"/><path class="cls-2" d="M93.46,92.15a11.73,11.73,0,0,0-11.73,11.73c0,6.48,11.73,29.79,11.73,29.79s11.73-23.31,11.73-29.79A11.73,11.73,0,0,0,93.46,92.15Zm0,16.19a4.46,4.46,0,1,1,4.46-4.46A4.46,4.46,0,0,1,93.46,108.34Z"/><path class="cls-3" d="M102.37,102.85a11.73,11.73,0,0,0-11.73,11.73c0,6.48,11.73,29.79,11.73,29.79s11.73-23.31,11.73-29.79A11.73,11.73,0,0,0,102.37,102.85Zm0,16.19a4.46,4.46,0,1,1,4.46-4.46A4.46,4.46,0,0,1,102.37,119Z"/><path class="cls-2" d="M91.68,105.52a11.73,11.73,0,0,0-11.73,11.73c0,6.48,11.73,29.79,11.73,29.79s11.73-23.31,11.73-29.79A11.73,11.73,0,0,0,91.68,105.52Zm0,16.19a4.46,4.46,0,1,1,4.46-4.46A4.46,4.46,0,0,1,91.68,121.71Z"/><path class="cls-4" d="M98.81,112.92a11.73,11.73,0,0,0-11.73,11.73c0,6.48,11.73,29.79,11.73,29.79s11.73-23.31,11.73-29.79A11.73,11.73,0,0,0,98.81,112.92Zm0,16.19a4.46,4.46,0,1,1,4.46-4.46A4.46,4.46,0,0,1,98.81,129.1Z"/><path class="cls-4" d="M228.56,105.52a11.73,11.73,0,0,0-11.73,11.73c0,6.48,11.73,29.79,11.73,29.79s11.73-23.31,11.73-29.79A11.73,11.73,0,0,0,228.56,105.52Zm0,16.19a4.46,4.46,0,1,1,4.46-4.46A4.46,4.46,0,0,1,228.56,121.71Z"/><path class="cls-4" d="M212.18,112.92a11.73,11.73,0,0,0-11.73,11.73c0,6.48,11.73,29.79,11.73,29.79s11.73-23.31,11.73-29.79A11.73,11.73,0,0,0,212.18,112.92Zm0,16.19a4.46,4.46,0,1,1,4.46-4.46A4.46,4.46,0,0,1,212.18,129.1Z"/><path class="cls-4" d="M294.75,102.85A11.73,11.73,0,0,0,283,114.58c0,6.48,11.73,29.79,11.73,29.79s11.73-23.31,11.73-29.79A11.73,11.73,0,0,0,294.75,102.85Zm0,16.19a4.46,4.46,0,1,1,4.46-4.46A4.46,4.46,0,0,1,294.75,119Z"/><path class="cls-5" d="M494.57,58.78a11.73,11.73,0,0,0-11.73,11.73c0,6.48,11.73,29.79,11.73,29.79S506.31,77,506.31,70.52A11.73,11.73,0,0,0,494.57,58.78Zm0,16.19A4.46,4.46,0,1,1,499,70.52,4.46,4.46,0,0,1,494.57,75Z"/><path class="cls-4" d="M494.57,112.41a11.73,11.73,0,0,0-11.73,11.73c0,6.48,11.73,29.79,11.73,29.79s11.73-23.31,11.73-29.79A11.73,11.73,0,0,0,494.57,112.41Zm0,16.19a4.46,4.46,0,1,1,4.46-4.46A4.46,4.46,0,0,1,494.57,128.6Z"/><path class="cls-3" d="M494.57,165.75a11.73,11.73,0,0,0-11.73,11.73c0,6.48,11.73,29.79,11.73,29.79s11.73-23.31,11.73-29.79A11.73,11.73,0,0,0,494.57,165.75Zm0,16.19a4.46,4.46,0,1,1,4.46-4.46A4.46,4.46,0,0,1,494.57,181.94Z"/><path class="cls-2" d="M494.57,223.91a11.73,11.73,0,0,0-11.73,11.73c0,6.48,11.73,29.79,11.73,29.79s11.73-23.31,11.73-29.79A11.73,11.73,0,0,0,494.57,223.91Zm0,16.19a4.46,4.46,0,1,1,4.46-4.46A4.46,4.46,0,0,1,494.57,240.09Z"/><path class="cls-2" d="M169.58,222.77a11.73,11.73,0,0,0-11.73,11.73c0,6.48,11.73,29.79,11.73,29.79S181.32,241,181.32,234.5A11.73,11.73,0,0,0,169.58,222.77Zm0,16.19A4.46,4.46,0,1,1,174,234.5,4.46,4.46,0,0,1,169.58,239Z"/><path class="cls-2" d="M276.4,277.81a11.73,11.73,0,0,0-11.73,11.73c0,6.48,11.73,29.79,11.73,29.79s11.73-23.31,11.73-29.79A11.73,11.73,0,0,0,276.4,277.81Zm0,16.19a4.46,4.46,0,1,1,4.46-4.46A4.46,4.46,0,0,1,276.4,294Z"/><path class="cls-2" d="M283,291.58a11.73,11.73,0,0,0-11.73,11.73c0,6.48,11.73,29.79,11.73,29.79s11.73-23.31,11.73-29.79A11.73,11.73,0,0,0,283,291.58Zm0,16.19a4.46,4.46,0,1,1,4.46-4.46A4.46,4.46,0,0,1,283,307.76Z"/><path class="cls-2" d="M161.78,444.26A11.73,11.73,0,0,0,150,456c0,6.48,11.73,29.79,11.73,29.79s11.73-23.31,11.73-29.79A11.73,11.73,0,0,0,161.78,444.26Zm0,16.19a4.46,4.46,0,1,1,4.46-4.46A4.46,4.46,0,0,1,161.78,460.45Z"/><path class="cls-2" d="M313.82,439.68a11.73,11.73,0,0,0-11.73,11.73c0,6.48,11.73,29.79,11.73,29.79s11.73-23.31,11.73-29.79A11.73,11.73,0,0,0,313.82,439.68Zm0,16.19a4.46,4.46,0,1,1,4.46-4.46A4.46,4.46,0,0,1,313.82,455.87Z"/><path class="cls-4" d="M409.46,388.22A11.73,11.73,0,0,0,397.73,400c0,6.48,11.73,29.79,11.73,29.79s11.73-23.31,11.73-29.79A11.73,11.73,0,0,0,409.46,388.22Zm0,16.19a4.46,4.46,0,1,1,4.46-4.46A4.46,4.46,0,0,1,409.46,404.41Z"/><path class="cls-2" d="M422.19,394a11.73,11.73,0,0,0-11.73,11.73c0,6.48,11.73,29.79,11.73,29.79s11.73-23.31,11.73-29.79A11.73,11.73,0,0,0,422.19,394Zm0,16.19a4.46,4.46,0,1,1,4.46-4.46A4.46,4.46,0,0,1,422.19,410.21Z"/><path class="cls-5" d="M410.46,401.41a11.73,11.73,0,0,0-11.73,11.73c0,6.48,11.73,29.79,11.73,29.79s11.73-23.31,11.73-29.79A11.73,11.73,0,0,0,410.46,401.41Zm0,16.19a4.46,4.46,0,1,1,4.46-4.46A4.46,4.46,0,0,1,410.46,417.59Z"/><path class="cls-3" d="M419.82,405.88a11.73,11.73,0,0,0-11.73,11.73c0,6.48,11.73,29.79,11.73,29.79s11.73-23.31,11.73-29.79A11.73,11.73,0,0,0,419.82,405.88Zm0,16.19a4.46,4.46,0,1,1,4.46-4.46A4.46,4.46,0,0,1,419.82,422.07Z"/><path class="cls-2" d="M428,410.36a11.73,11.73,0,0,0-11.73,11.73c0,6.48,11.73,29.79,11.73,29.79s11.73-23.31,11.73-29.79A11.73,11.73,0,0,0,428,410.36Zm0,16.19a4.46,4.46,0,1,1,4.46-4.46A4.46,4.46,0,0,1,428,426.55Z"/><path class="cls-4" d="M491.26,402.72a11.73,11.73,0,0,0-11.73,11.73c0,6.48,11.73,29.79,11.73,29.79S503,420.93,503,414.45A11.73,11.73,0,0,0,491.26,402.72Zm0,16.19a4.46,4.46,0,1,1,4.46-4.46A4.46,4.46,0,0,1,491.26,418.91Z"/><path class="cls-3" d="M528.44,409a11.73,11.73,0,0,0-11.73,11.73c0,6.48,11.73,29.79,11.73,29.79s11.73-23.31,11.73-29.79A11.73,11.73,0,0,0,528.44,409Zm0,16.19a4.46,4.46,0,1,1,4.46-4.46A4.46,4.46,0,0,1,528.44,425.17Z"/><path class="cls-2" d="M543.46,458.28A11.73,11.73,0,0,0,531.73,470c0,6.48,11.73,29.79,11.73,29.79S555.2,476.5,555.2,470A11.73,11.73,0,0,0,543.46,458.28Zm0,16.19a4.46,4.46,0,1,1,4.46-4.46A4.46,4.46,0,0,1,543.46,474.47Z"/><path class="cls-2" d="M537.14,464.87a11.73,11.73,0,0,0-11.73,11.73c0,6.48,11.73,29.79,11.73,29.79s11.73-23.31,11.73-29.79A11.73,11.73,0,0,0,537.14,464.87Zm0,16.19a4.46,4.46,0,1,1,4.46-4.46A4.46,4.46,0,0,1,537.14,481.06Z"/><path class="cls-3" d="M546.63,473.31A11.73,11.73,0,0,0,534.9,485c0,6.48,11.73,29.79,11.73,29.79s11.73-23.31,11.73-29.79A11.73,11.73,0,0,0,546.63,473.31Zm0,16.19a4.46,4.46,0,1,1,4.46-4.46A4.46,4.46,0,0,1,546.63,489.5Z"/><path class="cls-4" d="M530.28,469.88a11.73,11.73,0,0,0-11.73,11.73c0,6.48,11.73,29.79,11.73,29.79S542,488.1,542,481.62A11.73,11.73,0,0,0,530.28,469.88Zm0,16.19a4.46,4.46,0,1,1,4.46-4.46A4.46,4.46,0,0,1,530.28,486.07Z"/><path class="cls-3" d="M530.28,483.06a11.73,11.73,0,0,0-11.73,11.73c0,6.48,11.73,29.79,11.73,29.79S542,501.28,542,494.8A11.73,11.73,0,0,0,530.28,483.06Zm0,16.19a4.46,4.46,0,1,1,4.46-4.46A4.46,4.46,0,0,1,530.28,499.25Z"/><path class="cls-2" d="M452.46,495.07a11.73,11.73,0,0,0-11.73,11.73c0,6.48,11.73,29.79,11.73,29.79s11.73-23.31,11.73-29.79A11.73,11.73,0,0,0,452.46,495.07Zm0,16.19a4.46,4.46,0,1,1,4.46-4.46A4.46,4.46,0,0,1,452.46,511.26Z"/><text class="cls-6" transform="translate(268.42 265.99)">L<tspan class="cls-7" x="11.18" y="0">A </tspan><tspan class="cls-8" x="29.52" y="0">C</tspan><tspan class="cls-9" x="42.02" y="0">ollege</tspan></text><text class="cls-10" transform="translate(390.73 343.93)">SUBR</text><text class="cls-10" transform="translate(396.64 573.59)">Nicholls</text><text class="cls-10" transform="translate(519 363.52)">SE<tspan class="cls-11" x="22.52" y="0">L</tspan><tspan class="cls-7" x="32.88" y="0">U</tspan></text><text class="cls-10" transform="translate(551.57 394.02)">TNP<tspan class="cls-12" x="38.84" y="0">R</tspan><tspan x="51.46" y="0">C</tspan></text><text class="cls-10" transform="translate(581.58 442.93)">UNO &amp; SUNO</text><text class="cls-10" transform="translate(596.21 467.87)">Dillard</text><text class="cls-10" transform="translate(589.92 509.83)"><tspan class="cls-13">L</tspan><tspan x="10.92" y="0">SUHSC</tspan></text><text class="cls-10" transform="translate(520.89 573.15)">X<tspan class="cls-8" x="13.14" y="0">a</tspan><tspan class="cls-7" x="23.56" y="0">vier</tspan></text><text class="cls-14" transform="translate(528.4 543.66)">T<tspan class="cls-7" x="10.92" y="0">ulane</tspan></text><text class="cls-10" transform="translate(396.15 483.2)">PB<tspan class="cls-12" x="25.6" y="0">R</tspan><tspan x="38.22" y="0">C</tspan></text><text class="cls-10" transform="translate(400.01 311.01)">O<tspan class="cls-15" x="15.64" y="0">L</tspan><tspan x="25.52" y="0">O</tspan><tspan class="cls-16" x="41.16" y="0">L</tspan><tspan x="51.04" y="0">C</tspan></text><text class="cls-10" transform="translate(334.02 429.78)"><tspan class="cls-13">L</tspan><tspan x="10.92" y="0">SU</tspan></text><text class="cls-10" transform="translate(398.56 368.83)">B<tspan class="cls-12" x="13.14" y="0">R</tspan><tspan class="cls-17" x="25.76" y="0">C</tspan><tspan x="38.16" y="0">C</tspan></text><text class="cls-10" transform="translate(289.41 513.16)">ULL</text><text class="cls-10" transform="translate(150.05 426.96)">McNeese</text><text class="cls-10" transform="translate(154.6 293.58)">NSU</text><text class="cls-10" transform="translate(295.02 59.78)"><tspan class="cls-18">L</tspan><tspan class="cls-7" x="11.18" y="0">A </tspan><tspan class="cls-19" x="29.52" y="0">T</tspan><tspan x="40" y="0">ech</tspan></text><text class="cls-10" transform="translate(198.37 180.49)">Grambling</text><text class="cls-10" transform="translate(73.62 45.43)">SUS</text><text class="cls-10" transform="translate(90.64 179.35)"><tspan class="cls-13">L</tspan><tspan x="10.92" y="0">SU-S</tspan></text><text class="cls-10" transform="translate(124.54 72.43)"><tspan class="cls-13">L</tspan><tspan x="10.92" y="0">SUHS</tspan><tspan class="cls-20" x="60.96" y="0">C</tspan><tspan x="73.18" y="0">-S</tspan></text><text class="cls-10" transform="translate(66.1 208.99)"><tspan class="cls-8">C</tspan><tspan x="12.5" y="0">en</tspan><tspan class="cls-21" x="35.62" y="0">t</tspan><tspan x="43.8" y="0">ena</tspan><tspan class="cls-22" x="77.6" y="0">r</tspan><tspan x="86.02" y="0">y</tspan></text><text class="cls-10" transform="translate(342.94 148.05)">ULM</text><text class="cls-10" transform="translate(235.92 385.01)"><tspan class="cls-13">L</tspan><tspan x="10.92" y="0">SU-A</tspan></text><polyline class="cls-23" points="78.75 120 52.14 131.95 52.14 202.19 62.8 202.19"/><polyline class="cls-23" points="86.68 130.23 70.14 140.95 70.14 171.19 87.8 171.19"/><polyline class="cls-23" points="82.16 94.75 54.07 66.93 54.07 38.69 71.73 38.69"/><polyline class="cls-23" points="106.59 100.89 113.59 66.15 122.42 66.15"/><polyline class="cls-23" points="235.15 103.76 269.15 53.3 290.81 53.3"/><polyline class="cls-23" points="197.07 174.32 188.55 174.29 188.55 143.38 200.8 132.46"/><polyline class="cls-23" points="341.47 140.69 323.81 140.69 307.37 123.61"/><polyline class="cls-23" points="155.56 240.29 136.55 255.07 136.55 285.7 151.32 285.7"/><polyline class="cls-23" points="269.42 309.29 211.55 340.95 211.55 378.58 230.94 378.58"/><polyline class="cls-23" points="147.23 420.63 128.12 420.67 128.12 438.3 148.84 448.99"/><polyline class="cls-23" points="288.3 506.21 269.19 506.17 269.19 478.54 299.91 457.85"/><polyline class="cls-23" points="264.56 281.39 250.55 270.6 250.55 258.29 265.32 258.29"/><polyline class="cls-23" points="394.87 567.21 381.19 567.17 381.19 539.54 437.93 511.41"/><polyline class="cls-23" points="551.58 470.42 570.81 460.33 590.58 460.33"/><polyline class="cls-23" points="518.55 505.61 512.76 511.41 512.76 535.88 527.54 535.88"/><polyline class="cls-23" points="552.58 460.42 566.81 434.33 581.58 434.33"/><polyline class="cls-23" points="518.19 487.73 505.76 497.41 505.76 565.88 520.54 565.88"/><polyline class="cls-23" points="558.08 495.6 567.81 503.42 587.58 503.42"/><polyline class="cls-23" points="387.87 336.41 374.19 336.45 374.19 384.08 396.73 394.02"/><polyline class="cls-23" points="396.87 361.41 383.19 361.45 383.19 376.15 411.68 397.09"/><polyline class="cls-23" points="514.87 355.41 501.19 355.45 493.19 400.08"/><polyline class="cls-23" points="547.87 387.41 534.19 387.45 528.19 405.08"/><polyline class="cls-23" points="377.19 422.41 386.87 422.45 397.43 416.41"/><polyline class="cls-23" points="395.3 476.21 376.19 476.17 376.19 448.54 406.91 425.26"/><polyline class="cls-23" points="438.93 411.36 484.42 368.92 484.42 301.29 470.03 301.29"/><text class="cls-10" transform="translate(559.74 42.26)">Map <tspan class="cls-24" x="44.94" y="0">K</tspan><tspan x="57.5" y="0">ey</tspan></text><polyline class="cls-23" points="652.4 36.62 743.47 36.62 743.47 277.58 467.55 277.58 467.55 36.62 545.38 36.62"/><text class="cls-25" transform="translate(522.08 83.53)">Flagship Campus</text><text class="cls-25" transform="translate(522.08 138.57)">PUI Campus</text><text class="cls-25" transform="translate(520.89 193.61)">Men<tspan class="cls-26" x="40.08" y="0">t</tspan><tspan class="cls-27" x="47.84" y="0">or Campus</tspan></text><text class="cls-25" transform="translate(520.89 248.65)">Research Program</text></svg>