<svg xmlns="http://www.w3.org/2000/svg" xmlns:xlink="http://www.w3.org/1999/xlink" viewBox="0 0 418 314"><defs><style>.cls-1{fill:none;}.cls-2{fill:#2c3d6c;}.cls-3{clip-path:url(#clip-path);}.cls-4{fill:#fff;}</style><clipPath id="clip-path"><rect class="cls-1" x="51.01" y="29.16" width="315.98" height="255.69" rx="29.67"/></clipPath></defs><title>drpp</title><g id="Layer_1" data-name="Layer 1"><rect class="cls-2" x="51.01" y="29.16" width="315.98" height="255.69" rx="29.67"/></g><g id="Layer_2" data-name="Layer 2"><g class="cls-3"><path class="cls-4" d="M137.19,193.33h55.36a4.08,4.08,0,0,0,3.37-2.38L215.16,157l-19.24-33.95a4.08,4.08,0,0,0-3.37-2.38H137.19c-3.93,0-6,7.42-3.36,12.07L147.57,157l-13.74,24.26C131.19,185.91,133.26,193.33,137.19,193.33Z"/><path class="cls-4" d="M214.37,193.33h55.36A4.08,4.08,0,0,0,273.1,191L292.34,157,273.1,123.05a4.08,4.08,0,0,0-3.37-2.38H214.37c-3.93,0-6,7.42-3.36,12.07L224.75,157,211,181.26C208.37,185.91,210.44,193.33,214.37,193.33Z"/><path class="cls-4" d="M291.55,193.33h55.36a4.08,4.08,0,0,0,3.37-2.38L369.52,157l-19.24-33.95a4.08,4.08,0,0,0-3.37-2.38H291.55c-3.93,0-6,7.42-3.36,12.07L301.93,157l-13.74,24.26C285.55,185.91,287.62,193.33,291.55,193.33Z"/><path class="cls-4" d="M60,193.33h55.36a4.08,4.08,0,0,0,3.37-2.38L138,157l-19.24-33.95a4.08,4.08,0,0,0-3.37-2.38H60c-3.93,0-6,7.42-3.36,12.07L70.39,157,56.65,181.26C54,185.91,56.08,193.33,60,193.33Z"/><path class="cls-4" d="M368.73,193.33h55.36a4.08,4.08,0,0,0,3.37-2.38L446.7,157l-19.24-33.95a4.08,4.08,0,0,0-3.37-2.38H368.73c-3.93,0-6,7.42-3.36,12.07L379.11,157l-13.74,24.26C362.73,185.91,364.8,193.33,368.73,193.33Z"/><path class="cls-4" d="M-17.17,193.33H38.19A4.08,4.08,0,0,0,41.56,191L60.8,157,41.56,123.05a4.08,4.08,0,0,0-3.37-2.38H-17.17c-3.93,0-6,7.42-3.36,12.07L-6.79,157l-13.74,24.26C-23.17,185.91-21.1,193.33-17.17,193.33Z"/><path class="cls-2" d="M119.64,156.73q0,11.13-6.19,17t-17.81,5.89H83.06v-45H97q10.73,0,16.7,5.78T119.64,156.73Zm-7.75.24q0-16.14-15.11-16.15H90.41v32.64h5.23Q111.89,173.46,111.89,157Z"/><path class="cls-2" d="M166.91,161.68v18h-7.36v-45h12.71q8.7,0,12.89,3.26t4.18,9.85q0,8.39-8.74,12l12.71,19.9h-8.37l-10.76-18Zm0-6.09H172q5.15,0,7.45-1.91a6.94,6.94,0,0,0,2.3-5.66c0-2.54-.83-4.37-2.49-5.47s-4.16-1.67-7.5-1.67h-4.86Z"/><path class="cls-2" d="M340.87,148.27q0,7-4.61,10.79t-13.14,3.76h-4.67v16.82h-7.36v-45h13q8.42,0,12.62,3.45T340.87,148.27Zm-22.42,8.36h3.9q5.67,0,8.31-2t2.64-6.16c0-2.58-.78-4.51-2.36-5.78s-4-1.91-7.39-1.91h-5.1Z"/><path class="cls-2" d="M263.69,148.27q0,7-4.61,10.79T246,162.82h-4.68v16.82h-7.35v-45h13q8.43,0,12.63,3.45T263.69,148.27Zm-22.42,8.36h3.91q5.65,0,8.3-2t2.65-6.16a7,7,0,0,0-2.37-5.78q-2.37-1.9-7.38-1.91h-5.11Z"/></g></g></svg>