<svg xmlns="http://www.w3.org/2000/svg" xmlns:xlink="http://www.w3.org/1999/xlink" viewBox="0 0 418 314"><defs><style>.cls-1{fill:none;}.cls-2{fill:#2c3d6c;}.cls-3{clip-path:url(#clip-path);}.cls-4{fill:#fff;}</style><clipPath id="clip-path"><rect class="cls-1" x="51.01" y="29.16" width="315.98" height="255.69" rx="29.67"/></clipPath></defs><title>drpp</title><g id="Layer_1" data-name="Layer 1"><rect class="cls-2" x="51.01" y="29.16" width="315.98" height="255.69" rx="29.67"/></g><g id="Layer_2" data-name="Layer 2"><g class="cls-3"><path class="cls-4" d="M144.72,193.33h49.83c1.15,0,2.25-.87,3-2.38L214.89,157l-17.31-33.95c-.78-1.51-1.88-2.38-3-2.38H144.72c-3.54,0-5.4,7.42-3,12.07L154.07,157l-12.38,24.26C139.32,185.91,141.18,193.33,144.72,193.33Z"/><path class="cls-4" d="M214.18,193.33H264c1.15,0,2.25-.87,3-2.38L284.36,157,267,123.05c-.78-1.51-1.88-2.38-3-2.38H214.18c-3.53,0-5.4,7.42-3,12.07L223.53,157l-12.38,24.26C208.78,185.91,210.65,193.33,214.18,193.33Z"/><path class="cls-4" d="M283.65,193.33h49.82c1.16,0,2.26-.87,3-2.38L353.82,157,336.5,123.05c-.77-1.51-1.87-2.38-3-2.38H283.65c-3.54,0-5.4,7.42-3,12.07L293,157l-12.37,24.26C278.25,185.91,280.11,193.33,283.65,193.33Z"/><path class="cls-4" d="M75.26,193.33h49.83c1.15,0,2.25-.87,3-2.38L145.43,157l-17.32-33.95c-.77-1.51-1.87-2.38-3-2.38H75.26c-3.54,0-5.4,7.42-3,12.07L84.6,157,72.23,181.26C69.86,185.91,71.72,193.33,75.26,193.33Z"/><path class="cls-4" d="M353.11,193.33h49.82c1.16,0,2.26-.87,3-2.38L423.28,157,406,123.05c-.77-1.51-1.87-2.38-3-2.38H353.11c-3.54,0-5.4,7.42-3,12.07L362.45,157l-12.37,24.26C347.71,185.91,349.57,193.33,353.11,193.33Z"/><path class="cls-4" d="M5.8,193.33H55.62c1.16,0,2.26-.87,3-2.38L76,157,58.65,123.05c-.77-1.51-1.87-2.38-3-2.38H5.8c-3.54,0-5.4,7.42-3,12.07L15.14,157,2.77,181.26C.4,185.91,2.26,193.33,5.8,193.33Z"/><path class="cls-2" d="M129.25,156.73q0,11.13-6.19,17t-17.81,5.89H92.67v-45h13.9q10.74,0,16.71,5.78T129.25,156.73Zm-7.76.24q0-16.14-15.1-16.15H100v32.64h5.23Q121.5,173.46,121.49,157Z"/><path class="cls-2" d="M169.52,161.68v18h-7.35v-45h12.7q8.72,0,12.89,3.26t4.19,9.85q0,8.39-8.74,12l12.7,19.9h-8.36l-10.77-18Zm0-6.09h5.11q5.13,0,7.44-1.91a6.92,6.92,0,0,0,2.31-5.66c0-2.54-.83-4.37-2.49-5.47s-4.17-1.67-7.51-1.67h-4.86Z"/><path class="cls-2" d="M330.88,148.27q0,7-4.62,10.79t-13.13,3.76h-4.68v16.82H301.1v-45h12.95q8.43,0,12.63,3.45T330.88,148.27Zm-22.43,8.36h3.91q5.65,0,8.31-2t2.64-6.16a7,7,0,0,0-2.37-5.78q-2.37-1.9-7.38-1.91h-5.11Z"/><path class="cls-2" d="M261.45,148.27q0,7-4.61,10.79t-13.14,3.76H239v16.82h-7.35v-45h12.95q8.42,0,12.62,3.45T261.45,148.27ZM239,156.63h3.9q5.67,0,8.31-2c1.76-1.32,2.65-3.37,2.65-6.16a7,7,0,0,0-2.37-5.78q-2.37-1.9-7.39-1.91H239Z"/></g></g></svg>