<svg id="Layer_1" data-name="Layer 1" xmlns="http://www.w3.org/2000/svg" viewBox="0 0 561.48 398.21"><defs><style>.cls-1{fill:#2c3d6c;}.cls-2{fill:#729fcc;}</style></defs><title>summerResearchIcons</title><path class="cls-1" d="M451.64,127.52c-4.33-9.08-11.93-11.43-20.35-11.7s-19.56,4.9-25.27,5.93A35.7,35.7,0,0,0,401.1,123a1.06,1.06,0,0,1-1-1.83,46.28,46.28,0,0,1,10-5.75c8.72-3.55,19.58-12.21,23.95-23.49s4.38-17.23-8.05-25.56-21.16.57-31.12,2.34c-6,1.07-21.12,11.66-32.15,19.89-1.08.8-2.42-.61-1.48-1.56h0c11.22-11.32,19.69-36.73,14.1-47.44-2.22-4.25-9.39-4.53-11.26-4.52a1.1,1.1,0,0,0-.76.3c-1.59,1.48-8.85,8.31-11.59,12-4.11,5.52-17.69,14-26.48,18.51-5.91,3-11.3,11.63-21.27,21.68S279,106.62,273.41,112s-18.11,44.54-23.11,58.2-6.26,24.95-8.14,32.08-55.62,56.14-55.62,56.14-81.35,77.89-94.2,93.45a120.45,120.45,0,0,0-7.54,10.85c-3.36,5.27.62,12,7.07,12H236.07a13.66,13.66,0,0,0,11-5.5c18-24.59,32.76-44.64,35.7-47.94,8.34-9.4,23-24.84,35.7-33.64S339,279.08,348,277s37.24-19.14,40.23-21,6-8.81,7.62-10.1,13.86-2.83,14.94-3.87,13.33-13.73,13.07-22.28c-.18-5.81-4.25-8.88-6.84-10.26a1,1,0,0,1,.05-1.87c1.83-.84,4.9-2.32,9.53-4.74,8.43-4.4,13.05-10.36,13.61-18.91.43-6.67-6.55-14.13-9.66-17.1a1,1,0,0,1,.34-1.71c1.68-.68,4.72-2.48,9.9-7.12C450,149.82,456,136.6,451.64,127.52Z"/><path class="cls-2" d="M312.85,258h0c8.46,3.15,18.37-1.79,22.15-11L423.68,30.09A122.87,122.87,0,0,0,409,22.94a125.22,125.22,0,0,0-15.9-4.27L304.38,235.59C300.6,244.83,304.39,254.88,312.85,258Z"/><path class="cls-1" d="M407,77.83s-11.84,3.88-16.72,9.72-7.54,18.58-.78,23.74,23.52.71,25.42,1.18S433.48,100.92,425.2,91A45.12,45.12,0,0,0,407,77.83Z"/><path class="cls-1" d="M410,125.37S399.58,136,392.5,139.57s-20.87,9.22-29.07,15.25-8.22,16.35-6.73,21,8.92,11,8.92,11A62.18,62.18,0,0,1,349,191.57c-5.88.9-16.25,3.32-19.49,10.45-1.88,4.13-2.72,12.27,2.92,16.77a29.76,29.76,0,0,0,5.48,3.4s-7.93-.56-9,9.75,12.75,12.82,17.59,13.53,31.65,0,31.65,0,23.14-35.17,27.25-48.32S410,125.37,410,125.37Z"/></svg>