<?xml version="1.0" encoding="utf-8"?>
<!-- Generator: Adobe Illustrator 24.0.2, SVG Export Plug-In . SVG Version: 6.00 Build 0)  -->
<svg version="1.1" id="Layer_1" xmlns="http://www.w3.org/2000/svg" xmlns:xlink="http://www.w3.org/1999/xlink" x="0px" y="0px"
	 viewBox="0 0 362 272.1" style="enable-background:new 0 0 362 272.1;" xml:space="preserve">
<style type="text/css">
	.st0{fill:#2C3D6C;}
	.st1{fill:#FFFFFF;}
</style>
<title>Asset 2</title>
<g id="Layer_2_1_">
	<g id="Layer_2-2">
		<path class="st0" d="M325.8,45.6v198.3c0,0.6-0.4,1-1,1H37.2c-0.6,0-1-0.4-1-1V68c0-4.1,3.3-7.5,7.5-7.5h1.6c3.3,0,6-2.7,6-6v-8.9
			c0-0.6,0.4-1,1-1h137.8l7.6-13.8c1.2-2.2,3.5-3.6,6-3.6h73.4c2.4,0,4.6,1.3,5.9,3.4l8.2,14h33.5C325.3,44.5,325.8,45,325.8,45.6
			C325.8,45.5,325.8,45.5,325.8,45.6z M181,95.5c-27.2,0-49.2,22-49.2,49.2s22,49.2,49.2,49.2s49.2-22,49.2-49.2l0,0
			C230.2,117.5,208.2,95.5,181,95.5L181,95.5z M176.7,177.7h9.4v-9.1c2.1-0.3,4.2-1,6.1-1.9c1.5-0.8,2.9-1.9,4.1-3.2
			c1-1.2,1.8-2.6,2.2-4.1c0.4-1.4,0.7-2.9,0.7-4.4c0-2-0.4-3.9-1.2-5.7c-0.8-1.6-1.9-3.1-3.2-4.3c-1.5-1.3-3.1-2.3-4.8-3.2
			c-2-1-4-1.9-6.1-2.6c-1.4-0.5-2.7-1-3.7-1.4c-0.9-0.4-1.8-0.8-2.6-1.3c-0.6-0.4-1.1-0.9-1.5-1.5c-0.3-0.6-0.5-1.3-0.5-2
			c0-1.2,0.6-2.4,1.6-3.1c1.1-0.8,2.8-1.2,5.1-1.2s4.6,0.2,6.8,0.7c1.9,0.4,3.9,1,5.7,1.8l2.3-8.9c-1.4-0.6-2.9-1.1-4.4-1.5
			c-2.2-0.5-4.4-0.9-6.7-1.1v-7.8h-9.4v8c-2,0.3-3.9,1-5.7,1.9c-1.5,0.8-2.8,1.9-3.9,3.2c-1,1.2-1.7,2.6-2.2,4.1s-0.7,3.1-0.7,4.7
			c-0.1,1.9,0.3,3.8,1.2,5.5c0.7,1.5,1.8,2.8,3.1,3.8c1.3,1.1,2.7,1.9,4.2,2.6c1.6,0.7,3.2,1.4,4.8,2s3.2,1.2,4.5,1.7
			c1.1,0.4,2.2,1,3.2,1.6c0.8,0.5,1.4,1.1,1.9,1.8s0.7,1.6,0.7,2.4c0.1,1.4-0.6,2.7-1.7,3.5c-1.1,0.8-3.2,1.2-6.2,1.2
			c-2.6,0-5.2-0.3-7.6-1c-2.1-0.6-4.2-1.4-6.2-2.3l-3.2,8.6c1.6,0.8,3.3,1.5,5,2c2.8,0.9,5.8,1.5,8.8,1.7L176.7,177.7z"/>
	</g>
</g>
<rect x="190.1" y="42.3" class="st1" width="103.4" height="2.3"/>
<path class="st0" d="M325.8,256H38.1c-1,0-1.9-0.8-1.9-1.9v-7h289.6V256z"/>
<rect x="36.2" y="244.9" class="st1" width="103.4" height="2.3"/>
</svg>
