<?xml version="1.0" encoding="utf-8"?>
<!-- Generator: Adobe Illustrator 24.0.2, SVG Export Plug-In . SVG Version: 6.00 Build 0)  -->
<svg version="1.1" id="Layer_1" xmlns="http://www.w3.org/2000/svg" xmlns:xlink="http://www.w3.org/1999/xlink" x="0px" y="0px"
	 viewBox="0 0 1928 540" style="enable-background:new 0 0 1928 540;" xml:space="preserve">
<style type="text/css">
	.st0{fill:#3D3D3D;}
	.st1{fill:url(#SVGID_1_);}
</style>
<title>header-background</title>
<rect class="st0" width="1928" height="540"/>
<linearGradient id="SVGID_1_" gradientUnits="userSpaceOnUse" x1="25" y1="260.5" x2="1837.0066" y2="260.5" gradientTransform="matrix(1 0 0 -1 0 540)">
	<stop  offset="0" style="stop-color:#1F1F1F"/>
	<stop  offset="0.55" style="stop-color:#323232"/>
	<stop  offset="1" style="stop-color:#363636"/>
</linearGradient>
<path class="st1" d="M1834.8,197.3c-6.4-17.1-25.2-25.7-41.9-19.1c-8.9,3.6-15.7,10.8-18.8,19.9l-295.8-84.7c-0.3-2.9-1-5.8-2-8.6
	c-6.4-17.1-25.2-25.7-41.9-19c-14.7,5.8-22.9,21.4-20.2,36.8l-183.7,44.1c-0.2-0.6-0.4-1.3-0.7-1.9c-6.4-17.1-25.2-25.7-41.9-19.1
	s-25,25.9-18.6,43c3.5,9.5,11.2,16.8,20.8,19.9l-49.6,210.9c-9.8-1.9-19.9-1-29.1,2.7c-0.8,0.3-1.6,0.6-2.3,1L953.2,103.4
	c4.2-5.8,6.4-12.8,6.4-19.9c0-18.4-14.5-33.3-32.4-33.3c-12,0.1-22.9,6.7-28.4,17.3L768.2,53.6c0-0.4,0-0.9,0-1.3
	c0-18.4-14.5-33.3-32.4-33.3s-32.4,14.9-32.4,33.3c0,1.8,0.1,3.5,0.4,5.3l-557.5,127c-3.8-14.2-16.5-24.1-31.2-24.2
	c-17.9,0-32.4,14.9-32.4,33.3c-0.2,15.1,9.9,28.4,24.5,32.3L61.5,473.7c-1.4-0.2-2.7-0.3-4.1-0.3c-17.9,0-32.4,14.9-32.4,33.3
	c0,18.4,14.5,33.3,32.4,33.3s32.4-14.9,32.4-33.3c0-3.5-0.5-7-1.6-10.4l267.4-120.8c8.7,18,26.8,30.3,47.6,30.3
	c12.9,0,25.3-4.8,34.8-13.4l72.2,77.5c-5.3,6.2-8.3,14-8.3,22.2c0,18.4,14.5,33.3,32.4,33.3c17,0,31-13.5,32.3-30.7l511-17
	c0.4,5.1,1.6,10.1,3.4,15c10.6,28.1,41.3,42.1,68.7,31.3c19.5-7.7,32-26,33.8-46l353.7,15.7c0.1,3.6,0.9,7.2,2.2,10.6
	c6.4,17.1,25.2,25.7,41.9,19.1s25-25.9,18.6-43c-1.5-4-3.7-7.6-6.6-10.8l193.2-232.6c8.7,6.1,19.9,7.4,29.8,3.5
	C1833,233.8,1841.3,214.5,1834.8,197.3z M1773.7,219.2l-594.4,232.1c-2.6-6.2-6.4-11.9-11.1-16.8l258.5-291c8.8,6.8,20.6,8.5,31,4.4
	c12-4.9,20-16.2,20.7-29.1l294.4,84.3C1771.7,208.5,1772.1,214,1773.7,219.2L1773.7,219.2z M403.2,296.7
	c-18.9,0.1-36.3,10.3-45.7,26.7L144.7,207.2c1-2.4,1.8-4.8,2.2-7.3l456.4,44.7c-0.1,1.2-0.1,2.5-0.1,3.8
	c-0.1,19.5,10.2,37.6,27,47.5l-82.8,165.9c-11.1-5.1-24.2-3.3-33.6,4.6l-72.1-77.5c9.5-10.2,14.7-23.7,14.6-37.6
	C456.4,321.1,432.5,296.7,403.2,296.7z M551.9,464.2l82.9-166c6.8,3.1,14.1,4.7,21.5,4.7c23.9,0,44.1-16.2,50.8-38.5l374.6,187.1
	c-2.8,6.7-4.3,13.9-4.3,21.1l-510.8,17C565.9,479.4,560.5,470,551.9,464.2z M1195.2,209.7c5.4,0.8,11,0.1,16.1-1.9
	c14.5-5.7,22.6-21,20.3-36.1l183.8-44.1c0.1,0.4,0.3,0.9,0.4,1.3c1.6,4.2,4,8,7.1,11.3L1164.5,431c-5.5-4.7-12-8.2-18.9-10.3
	L1195.2,209.7z M1083.9,446.9L708.4,259.3c0.7-3.6,1.1-7.3,1.1-11c0-9.3-2.3-18.5-6.8-26.7L898,98c5.3,11.4,16.6,18.7,29.2,18.8
	c8.4,0,16.4-3.3,22.3-9.2l155,317.9C1095.8,430.6,1088.6,438,1083.9,446.9L1083.9,446.9z M896.6,72.4c-2.3,6.7-2.4,13.9-0.5,20.6
	L700,217.2c-4.1-6.1-9.5-11.3-15.7-15.3l43.1-117.5c2.7,0.7,5.5,1.1,8.4,1.1c15.8,0,28.9-11.6,31.8-26.8L896.6,72.4z M705,62.6
	c2.8,8.9,9.2,16.2,17.6,20.1l-42.8,116.7c-7.3-3.7-15.3-5.6-23.5-5.6c-26.4,0-48.3,19.8-52.5,45.7l-456.4-44.7c0-0.4,0-0.7,0-1.1
	c0-1.4-0.1-2.7-0.3-4.1L705,62.6z M86.3,491.6c-4-8.1-11.1-14.1-19.8-16.8l45.7-247.9c1,0.1,1.9,0.1,2.9,0.1
	c11.1,0,21.4-5.8,27.2-15.2l212.8,116.2c-6.2,13.5-6.8,29-1.5,42.9L86.3,491.6z M1589.5,466c-8.9-7.2-21-9-31.6-4.8
	c-11.4,4.6-19.3,15.1-20.5,27.3l-353.7-15.7c0-5.7-0.9-11.3-2.6-16.8L1775.5,224c1.7,3.6,4.1,6.9,7,9.7L1589.5,466z"/>
</svg>
