<svg id="Layer_1" data-name="Layer 1" xmlns="http://www.w3.org/2000/svg" xmlns:xlink="http://www.w3.org/1999/xlink" viewBox="0 0 1928 540"><defs><style>.cls-1{fill:#2c3d6c;}.cls-2{fill:url(#linear-gradient);}</style><linearGradient id="linear-gradient" x1="25" y1="279.5" x2="1837" y2="279.5" gradientUnits="userSpaceOnUse"><stop offset="0" stop-color="#121f42"/><stop offset="0.55" stop-color="#23335a"/><stop offset="1" stop-color="#26365e"/></linearGradient></defs><title>header-background</title><rect class="cls-1" width="1928" height="540"/><path class="cls-2" d="M1834.82,197.34c-6.45-17.14-25.21-25.68-41.9-19.05a32.81,32.81,0,0,0-18.83,19.85L1478.25,113.4a34,34,0,0,0-2-8.56c-6.45-17.14-25.21-25.68-41.9-19.05-14.69,5.83-22.88,21.44-20.24,36.78l-183.66,44.06c-.2-.64-.41-1.27-.65-1.9-6.45-17.14-25.21-25.68-41.9-19.05s-25,25.89-18.55,43a32.69,32.69,0,0,0,20.82,19.85l-49.62,210.88a51.59,51.59,0,0,0-29.13,2.69c-.79.31-1.57.65-2.34,1L953.17,103.38a33.72,33.72,0,0,0,6.43-19.9c0-18.38-14.51-33.28-32.4-33.28a32.28,32.28,0,0,0-28.43,17.31L768.19,53.61c0-.44,0-.88,0-1.33,0-18.38-14.51-33.28-32.4-33.28s-32.4,14.9-32.4,33.28a34.38,34.38,0,0,0,.41,5.29l-557.55,127a32.55,32.55,0,0,0-31.17-24.18c-17.9,0-32.4,14.9-32.4,33.28A33.14,33.14,0,0,0,107.16,226L61.48,473.72a31.81,31.81,0,0,0-4.08-.27c-17.9,0-32.4,14.9-32.4,33.28S39.51,540,57.4,540s32.4-14.9,32.4-33.28a34.05,34.05,0,0,0-1.61-10.35l267.4-120.8c8.71,17.95,26.75,30.28,47.6,30.28A52.14,52.14,0,0,0,438,392.46L510.18,470a33.66,33.66,0,0,0-8.26,22.19c0,18.38,14.51,33.28,32.4,33.28,17.05,0,31-13.53,32.3-30.71l511-17a55.83,55.83,0,0,0,3.37,14.95c10.58,28.13,41.35,42.12,68.74,31.26,19.5-7.73,32-26,33.79-46l353.73,15.7a34,34,0,0,0,2.15,10.59c6.45,17.14,25.21,25.68,41.9,19.05s25-25.89,18.55-43a33.31,33.31,0,0,0-6.58-10.76l193.2-232.62a31.64,31.64,0,0,0,29.81,3.47C1833,233.75,1841.26,214.48,1834.82,197.34Zm-61.16,21.87L1179.3,451.27a54.4,54.4,0,0,0-11.08-16.75l258.45-291a31.67,31.67,0,0,0,31,4.36,33.21,33.21,0,0,0,20.67-29.1l294.4,84.32A33.93,33.93,0,0,0,1773.66,219.2ZM403.2,296.66a52.87,52.87,0,0,0-45.7,26.72L144.74,207.2a33.67,33.67,0,0,0,2.22-7.33l456.36,44.68c-.08,1.24-.14,2.49-.14,3.75a54.82,54.82,0,0,0,27,47.55L547.42,461.72a31.69,31.69,0,0,0-33.57,4.65l-72.14-77.51a55.18,55.18,0,0,0,14.65-37.61C456.35,321.1,432.55,296.66,403.2,296.66ZM551.91,464.22l82.88-166a51.77,51.77,0,0,0,21.55,4.69c23.91,0,44.13-16.21,50.81-38.51l374.57,187.14a55.89,55.89,0,0,0-4.32,21.13l-510.78,17A33.4,33.4,0,0,0,551.91,464.22Zm643.26-254.53a31.46,31.46,0,0,0,16.07-1.93c14.48-5.74,22.64-21,20.35-36.13l183.76-44.09c.14.43.28.85.44,1.27a33.27,33.27,0,0,0,7.05,11.28L1164.47,431a53,53,0,0,0-18.95-10.34Zm-111.25,237.2-375.5-187.6a56.27,56.27,0,0,0,1.08-11,55.47,55.47,0,0,0-6.8-26.7L898,98a32.34,32.34,0,0,0,29.17,18.78,31.84,31.84,0,0,0,22.32-9.16l155,317.88A53.69,53.69,0,0,0,1083.92,446.88ZM896.63,72.44a34.17,34.17,0,0,0-.46,20.64L700,217.22a54.06,54.06,0,0,0-15.68-15.31l43.1-117.48a31.63,31.63,0,0,0,8.37,1.13c15.75,0,28.87-11.55,31.79-26.85ZM705,62.57a33.07,33.07,0,0,0,17.63,20.11l-42.8,116.65a51.79,51.79,0,0,0-23.5-5.62c-26.42,0-48.33,19.8-52.45,45.74L147.49,194.77c0-.35,0-.71,0-1.06a34.45,34.45,0,0,0-.25-4.06Zm-618.74,429A32.69,32.69,0,0,0,66.5,474.79l45.72-247.94c1,.09,1.92.14,2.9.14a32.17,32.17,0,0,0,27.23-15.24L355.13,327.93a56,56,0,0,0-1.55,42.93ZM1589.51,466a31.69,31.69,0,0,0-31.57-4.78,33.15,33.15,0,0,0-20.52,27.31l-353.69-15.7a55.66,55.66,0,0,0-2.64-16.77L1775.51,224a33,33,0,0,0,7,9.67Z"/></svg>