<svg id="Layer_1" data-name="Layer 1" xmlns="http://www.w3.org/2000/svg" viewBox="0 0 716.04 373.25"><defs><style>.cls-1{font-size:14px;fill:#2c3d6c;font-family:OpenSans-Bold, Open Sans;}.cls-2{font-weight:700;}.cls-3{letter-spacing:-0.06em;}.cls-4{letter-spacing:0em;}.cls-5{letter-spacing:0em;}.cls-6{letter-spacing:0em;}.cls-7{letter-spacing:0.03em;}.cls-8{letter-spacing:0em;}.cls-9{letter-spacing:-0.01em;}.cls-10{letter-spacing:-0.01em;}.cls-11{letter-spacing:0em;}.cls-12{font-size:12px;font-family:OpenSans, Open Sans;}.cls-13{letter-spacing:0em;}.cls-14{letter-spacing:0em;}.cls-15{letter-spacing:-0.02em;}.cls-16{letter-spacing:0em;}.cls-17{letter-spacing:-0.01em;}.cls-18{letter-spacing:0em;}.cls-19{letter-spacing:-0.01em;}.cls-20{letter-spacing:0em;}.cls-21{letter-spacing:0.03em;}.cls-22{letter-spacing:-0.01em;}.cls-23{letter-spacing:-0.02em;}.cls-24{letter-spacing:0.02em;}.cls-25{letter-spacing:-0.01em;}.cls-26{letter-spacing:-0.01em;}.cls-27{letter-spacing:0em;}.cls-28{letter-spacing:0.01em;}.cls-29{fill:#8ecb91;}.cls-30{fill:none;stroke:#8ecb91;stroke-linecap:round;stroke-miterlimit:10;stroke-width:3px;}.cls-31{letter-spacing:-0.01em;}.cls-32{letter-spacing:-0.02em;}.cls-33{letter-spacing:0em;}.cls-34{letter-spacing:0em;}.cls-35{letter-spacing:-0.01em;}.cls-36{letter-spacing:-0.01em;}.cls-37{letter-spacing:0.03em;}.cls-38{letter-spacing:0em;}.cls-39{letter-spacing:0em;}.cls-40{letter-spacing:0em;}.cls-41{letter-spacing:-0.01em;}.cls-42{letter-spacing:-0.01em;}.cls-43{letter-spacing:-0.01em;}.cls-44{letter-spacing:-0.01em;}.cls-45{letter-spacing:0em;}.cls-46{letter-spacing:-0.01em;}.cls-47{letter-spacing:0em;}.cls-48{letter-spacing:-0.01em;}.cls-49{letter-spacing:-0.01em;}.cls-50{letter-spacing:0em;}.cls-51{letter-spacing:-0.01em;}.cls-52{letter-spacing:0em;}.cls-53{letter-spacing:0em;}.cls-54{letter-spacing:0em;}.cls-55{letter-spacing:-0.01em;}.cls-56{letter-spacing:0em;}.cls-57{letter-spacing:0em;}.cls-58{letter-spacing:-0.01em;}.cls-59{letter-spacing:0em;}.cls-60{letter-spacing:0em;}.cls-61{letter-spacing:0.04em;}.cls-62{letter-spacing:0em;}.cls-63{letter-spacing:-0.01em;}.cls-64{letter-spacing:-0.01em;}.cls-65{letter-spacing:0em;}.cls-66{letter-spacing:0em;}.cls-67{letter-spacing:-0.01em;}.cls-68{letter-spacing:0.05em;}.cls-69{letter-spacing:-0.08em;}.cls-70{letter-spacing:0em;}.cls-71{letter-spacing:-0.01em;}.cls-72{letter-spacing:-0.01em;}.cls-73{letter-spacing:-0.01em;}.cls-74{letter-spacing:0em;}.cls-75{letter-spacing:0.02em;}.cls-76{letter-spacing:0.01em;}.cls-77{letter-spacing:0em;}.cls-78{letter-spacing:0em;}.cls-79{letter-spacing:0em;}.cls-80{letter-spacing:0em;}.cls-81{letter-spacing:-0.02em;}.cls-82{letter-spacing:-0.01em;}.cls-83{letter-spacing:-0.01em;}.cls-84{letter-spacing:-0.02em;}.cls-85{letter-spacing:0.01em;}.cls-86{letter-spacing:-0.02em;}.cls-87{letter-spacing:0em;}.cls-88{letter-spacing:-0.01em;}.cls-89{letter-spacing:0em;}.cls-90{letter-spacing:-0.01em;}.cls-91{letter-spacing:0em;}.cls-92{letter-spacing:-0.01em;}.cls-93{letter-spacing:0em;}.cls-94{letter-spacing:0.01em;}.cls-95{letter-spacing:0em;}.cls-96{letter-spacing:0.01em;}.cls-97{letter-spacing:0em;}.cls-98{letter-spacing:-0.01em;}.cls-99{letter-spacing:-0.01em;}.cls-100{letter-spacing:0em;}.cls-101{letter-spacing:0em;}.cls-102{letter-spacing:0em;}.cls-103{letter-spacing:-0.01em;}.cls-104{letter-spacing:0em;}.cls-105{letter-spacing:0em;}.cls-106{letter-spacing:-0.02em;}.cls-107{letter-spacing:0em;}.cls-108{letter-spacing:0.01em;}.cls-109{letter-spacing:-0.01em;}.cls-110{letter-spacing:0em;}.cls-111{letter-spacing:-0.01em;}.cls-112{letter-spacing:0em;}.cls-113{letter-spacing:0em;}.cls-114{letter-spacing:-0.01em;}.cls-115{letter-spacing:-0.01em;}.cls-116{letter-spacing:0.01em;}.cls-117{letter-spacing:-0.01em;}.cls-118{letter-spacing:0em;}.cls-119{letter-spacing:-0.01em;}.cls-120{letter-spacing:-0.01em;}.cls-121{letter-spacing:0em;}.cls-122{letter-spacing:0em;}.cls-123{letter-spacing:-0.02em;}.cls-124{letter-spacing:-0.02em;}.cls-125{letter-spacing:0.03em;}.cls-126{letter-spacing:0.01em;}</style></defs><title>mcbr-core</title><text class="cls-1" transform="translate(306.02 12)"><tspan class="cls-2"><tspan class="cls-3">Y</tspan><tspan class="cls-4" x="7.91" y="0">o</tspan><tspan class="cls-5" x="16.52" y="0">n</tspan><tspan class="cls-6" x="25.69" y="0">g</tspan><tspan class="cls-7" x="33.67" y="0">-</tspan><tspan class="cls-8" x="38.54" y="0">H</tspan><tspan class="cls-9" x="49.26" y="0">w</tspan><tspan class="cls-10" x="61.08" y="0">a</tspan><tspan x="69.43" y="0">n L</tspan><tspan class="cls-11" x="90.18" y="0">e</tspan><tspan x="98.49" y="0">e</tspan></tspan><tspan class="cls-12"><tspan class="cls-13" x="-2.22" y="24">MC</tspan><tspan class="cls-14" x="16.11" y="24">B</tspan><tspan x="23.9" y="24">R </tspan><tspan class="cls-15" x="34.44" y="24">C</tspan><tspan class="cls-16" x="41.82" y="24">o</tspan><tspan class="cls-17" x="49.02" y="24">r</tspan><tspan x="53.82" y="24">e </tspan><tspan class="cls-18" x="63.67" y="24">D</tspan><tspan class="cls-19" x="72.4" y="24">i</tspan><tspan class="cls-17" x="75.35" y="24">r</tspan><tspan class="cls-20" x="80.14" y="24">e</tspan><tspan class="cls-21" x="86.9" y="24">c</tspan><tspan class="cls-22" x="92.99" y="24">t</tspan><tspan class="cls-16" x="97.12" y="24">o</tspan><tspan class="cls-23" x="104.32" y="24">r</tspan><tspan class="cls-24" x="15.24" y="39">L</tspan><tspan class="cls-25" x="21.76" y="39">S</tspan><tspan x="28.25" y="39">U B</tspan><tspan class="cls-26" x="47.88" y="39">i</tspan><tspan x="50.83" y="39">o D</tspan><tspan class="cls-27" x="69.94" y="39">ep</tspan><tspan class="cls-28" x="83.95" y="39">t</tspan><tspan x="88.32" y="39">.</tspan></tspan></text><circle class="cls-29" cx="359.4" cy="20.34" r="2.47"/><line class="cls-30" x1="304.26" y1="20.34" x2="350.47" y2="20.34"/><line class="cls-30" x1="368.34" y1="20.34" x2="414.54" y2="20.34"/><circle class="cls-29" cx="499.4" cy="88.34" r="2.47"/><circle class="cls-29" cx="219.4" cy="88.34" r="2.47"/><circle class="cls-29" cx="359.4" cy="78.34" r="2.47"/><circle class="cls-29" cx="359.4" cy="68.34" r="2.47"/><circle class="cls-29" cx="359.4" cy="58.34" r="2.47"/><circle class="cls-29" cx="349.4" cy="78.34" r="2.47"/><circle class="cls-29" cx="369.4" cy="78.34" r="2.47"/><circle class="cls-29" cx="389.4" cy="78.34" r="2.47"/><circle class="cls-29" cx="379.4" cy="78.34" r="2.47"/><circle class="cls-29" cx="399.4" cy="78.34" r="2.47"/><circle class="cls-29" cx="419.4" cy="78.34" r="2.47"/><circle class="cls-29" cx="409.4" cy="78.34" r="2.47"/><circle class="cls-29" cx="429.4" cy="78.34" r="2.47"/><circle class="cls-29" cx="449.4" cy="78.34" r="2.47"/><circle class="cls-29" cx="439.4" cy="78.34" r="2.47"/><circle class="cls-29" cx="459.4" cy="78.34" r="2.47"/><circle class="cls-29" cx="479.4" cy="78.34" r="2.47"/><circle class="cls-29" cx="469.4" cy="78.34" r="2.47"/><circle class="cls-29" cx="489.4" cy="78.34" r="2.47"/><circle class="cls-29" cx="499.4" cy="78.34" r="2.47"/><circle class="cls-29" cx="229.4" cy="78.34" r="2.47"/><circle class="cls-29" cx="219.4" cy="78.34" r="2.47"/><circle class="cls-29" cx="239.4" cy="78.34" r="2.47"/><circle class="cls-29" cx="259.4" cy="78.34" r="2.47"/><circle class="cls-29" cx="249.4" cy="78.34" r="2.47"/><circle class="cls-29" cx="269.4" cy="78.34" r="2.47"/><circle class="cls-29" cx="289.4" cy="78.34" r="2.47"/><circle class="cls-29" cx="279.4" cy="78.34" r="2.47"/><circle class="cls-29" cx="299.4" cy="78.34" r="2.47"/><circle class="cls-29" cx="319.4" cy="78.34" r="2.47"/><circle class="cls-29" cx="309.4" cy="78.34" r="2.47"/><circle class="cls-29" cx="329.4" cy="78.34" r="2.47"/><circle class="cls-29" cx="349.4" cy="78.34" r="2.47"/><circle class="cls-29" cx="339.4" cy="78.34" r="2.47"/><circle class="cls-29" cx="389.4" cy="184.34" r="2.47"/><circle class="cls-29" cx="379.4" cy="184.34" r="2.47"/><circle class="cls-29" cx="399.4" cy="184.34" r="2.47"/><circle class="cls-29" cx="419.4" cy="184.34" r="2.47"/><circle class="cls-29" cx="409.4" cy="184.34" r="2.47"/><circle class="cls-29" cx="429.4" cy="184.34" r="2.47"/><circle class="cls-29" cx="449.4" cy="184.34" r="2.47"/><circle class="cls-29" cx="439.4" cy="184.34" r="2.47"/><circle class="cls-29" cx="459.4" cy="184.34" r="2.47"/><circle class="cls-29" cx="479.4" cy="184.34" r="2.47"/><circle class="cls-29" cx="469.4" cy="184.34" r="2.47"/><circle class="cls-29" cx="489.4" cy="184.34" r="2.47"/><circle class="cls-29" cx="229.4" cy="184.34" r="2.47"/><circle class="cls-29" cx="239.4" cy="184.34" r="2.47"/><circle class="cls-29" cx="259.4" cy="184.34" r="2.47"/><circle class="cls-29" cx="249.4" cy="184.34" r="2.47"/><circle class="cls-29" cx="269.4" cy="184.34" r="2.47"/><circle class="cls-29" cx="289.4" cy="184.34" r="2.47"/><circle class="cls-29" cx="279.4" cy="184.34" r="2.47"/><circle class="cls-29" cx="299.4" cy="184.34" r="2.47"/><circle class="cls-29" cx="319.4" cy="184.34" r="2.47"/><circle class="cls-29" cx="309.4" cy="184.34" r="2.47"/><circle class="cls-29" cx="329.4" cy="184.34" r="2.47"/><circle class="cls-29" cx="339.4" cy="184.34" r="2.47"/><circle class="cls-29" cx="499.4" cy="98.34" r="2.47"/><circle class="cls-29" cx="219.4" cy="98.34" r="2.47"/><circle class="cls-29" cx="499.4" cy="164.34" r="2.47"/><circle class="cls-29" cx="219.4" cy="164.34" r="2.47"/><circle class="cls-29" cx="499.4" cy="174.34" r="2.47"/><circle class="cls-29" cx="219.4" cy="174.34" r="2.47"/><circle class="cls-29" cx="359.4" cy="184.34" r="2.47"/><circle class="cls-29" cx="499.4" cy="184.34" r="2.47"/><circle class="cls-29" cx="219.4" cy="184.34" r="2.47"/><circle class="cls-29" cx="359.4" cy="194.34" r="2.47"/><circle class="cls-29" cx="359.4" cy="204.34" r="2.47"/><circle class="cls-29" cx="349.4" cy="184.34" r="2.47"/><circle class="cls-29" cx="349.4" cy="194.34" r="2.47"/><circle class="cls-29" cx="369.4" cy="184.34" r="2.47"/><circle class="cls-29" cx="369.4" cy="194.34" r="2.47"/><circle class="cls-29" cx="379.4" cy="194.34" r="2.47"/><circle class="cls-29" cx="339.4" cy="194.34" r="2.47"/><circle class="cls-29" cx="349.4" cy="204.34" r="2.47"/><circle class="cls-29" cx="369.4" cy="204.34" r="2.47"/><circle class="cls-29" cx="359.4" cy="214.34" r="2.47"/><circle class="cls-29" cx="359.4" cy="224.34" r="2.47"/><circle class="cls-29" cx="359.4" cy="234.34" r="2.47"/><circle class="cls-29" cx="379.4" cy="234.34" r="2.47"/><circle class="cls-29" cx="369.4" cy="234.34" r="2.47"/><circle class="cls-29" cx="389.4" cy="234.34" r="2.47"/><circle class="cls-29" cx="419.4" cy="234.34" r="2.47"/><circle class="cls-29" cx="399.4" cy="234.34" r="2.47"/><circle class="cls-29" cx="409.4" cy="234.34" r="2.47"/><circle class="cls-29" cx="429.4" cy="234.34" r="2.47"/><circle class="cls-29" cx="449.4" cy="234.34" r="2.47"/><circle class="cls-29" cx="439.4" cy="234.34" r="2.47"/><circle class="cls-29" cx="459.4" cy="234.34" r="2.47"/><circle class="cls-29" cx="479.4" cy="234.34" r="2.47"/><circle class="cls-29" cx="469.4" cy="234.34" r="2.47"/><circle class="cls-29" cx="489.4" cy="234.34" r="2.47"/><circle class="cls-29" cx="509.4" cy="234.34" r="2.47"/><circle class="cls-29" cx="519.4" cy="234.34" r="2.47"/><circle class="cls-29" cx="529.4" cy="234.34" r="2.47"/><circle class="cls-29" cx="499.4" cy="234.34" r="2.47"/><circle class="cls-29" cx="539.4" cy="234.34" r="2.47"/><circle class="cls-29" cx="559.4" cy="234.34" r="2.47"/><circle class="cls-29" cx="549.4" cy="234.34" r="2.47"/><circle class="cls-29" cx="569.4" cy="234.34" r="2.47"/><circle class="cls-29" cx="589.4" cy="234.34" r="2.47"/><circle class="cls-29" cx="579.4" cy="234.34" r="2.47"/><circle class="cls-29" cx="599.4" cy="234.34" r="2.47"/><circle class="cls-29" cx="119.4" cy="234.34" r="2.47"/><circle class="cls-29" cx="109.4" cy="234.34" r="2.47"/><circle class="cls-29" cx="99.4" cy="234.34" r="2.47"/><circle class="cls-29" cx="129.4" cy="234.34" r="2.47"/><circle class="cls-29" cx="149.4" cy="234.34" r="2.47"/><circle class="cls-29" cx="139.4" cy="234.34" r="2.47"/><circle class="cls-29" cx="159.4" cy="234.34" r="2.47"/><circle class="cls-29" cx="179.4" cy="234.34" r="2.47"/><circle class="cls-29" cx="169.4" cy="234.34" r="2.47"/><circle class="cls-29" cx="209.4" cy="234.34" r="2.47"/><circle class="cls-29" cx="199.4" cy="234.34" r="2.47"/><circle class="cls-29" cx="189.4" cy="234.34" r="2.47"/><circle class="cls-29" cx="229.4" cy="234.34" r="2.47"/><circle class="cls-29" cx="219.4" cy="234.34" r="2.47"/><circle class="cls-29" cx="239.4" cy="234.34" r="2.47"/><circle class="cls-29" cx="259.4" cy="234.34" r="2.47"/><circle class="cls-29" cx="249.4" cy="234.34" r="2.47"/><circle class="cls-29" cx="269.4" cy="234.34" r="2.47"/><circle class="cls-29" cx="289.4" cy="234.34" r="2.47"/><circle class="cls-29" cx="279.4" cy="234.34" r="2.47"/><circle class="cls-29" cx="299.4" cy="234.34" r="2.47"/><circle class="cls-29" cx="329.4" cy="234.34" r="2.47"/><circle class="cls-29" cx="319.4" cy="234.34" r="2.47"/><circle class="cls-29" cx="309.4" cy="234.34" r="2.47"/><circle class="cls-29" cx="339.4" cy="234.34" r="2.47"/><circle class="cls-29" cx="349.4" cy="234.34" r="2.47"/><circle class="cls-29" cx="599.4" cy="234.34" r="2.47"/><circle class="cls-29" cx="609.4" cy="234.34" r="2.47"/><circle class="cls-29" cx="609.4" cy="234.34" r="2.47"/><circle class="cls-29" cx="619.4" cy="234.34" r="2.47"/><circle class="cls-29" cx="619.4" cy="234.34" r="2.47"/><circle class="cls-29" cx="629.4" cy="234.34" r="2.47"/><circle class="cls-29" cx="629.4" cy="234.34" r="2.47"/><circle class="cls-29" cx="639.4" cy="234.34" r="2.47"/><circle class="cls-29" cx="649.4" cy="234.34" r="2.47"/><circle class="cls-29" cx="659.4" cy="234.34" r="2.47"/><circle class="cls-29" cx="659.4" cy="234.34" r="2.47"/><circle class="cls-29" cx="89.4" cy="234.34" r="2.47"/><circle class="cls-29" cx="89.4" cy="234.34" r="2.47"/><circle class="cls-29" cx="79.4" cy="234.34" r="2.47"/><circle class="cls-29" cx="69.4" cy="234.34" r="2.47"/><circle class="cls-29" cx="59.4" cy="234.34" r="2.47"/><circle class="cls-29" cx="159.4" cy="234.34" r="2.47"/><circle class="cls-29" cx="359.4" cy="254.34" r="2.47"/><circle class="cls-29" cx="359.4" cy="244.34" r="2.47"/><circle class="cls-29" cx="59.4" cy="254.34" r="2.47"/><circle class="cls-29" cx="59.4" cy="244.34" r="2.47"/><circle class="cls-29" cx="59.4" cy="274.34" r="2.47"/><circle class="cls-29" cx="59.4" cy="264.34" r="2.47"/><circle class="cls-29" cx="59.4" cy="294.34" r="2.47"/><circle class="cls-29" cx="59.4" cy="284.34" r="2.47"/><circle class="cls-29" cx="59.4" cy="314.34" r="2.47"/><circle class="cls-29" cx="59.4" cy="304.34" r="2.47"/><circle class="cls-29" cx="59.4" cy="324.34" r="2.47"/><circle class="cls-29" cx="459.4" cy="254.34" r="2.47"/><circle class="cls-29" cx="459.4" cy="244.34" r="2.47"/><circle class="cls-29" cx="459.4" cy="274.34" r="2.47"/><circle class="cls-29" cx="459.4" cy="264.34" r="2.47"/><circle class="cls-29" cx="459.4" cy="294.34" r="2.47"/><circle class="cls-29" cx="459.4" cy="284.34" r="2.47"/><circle class="cls-29" cx="459.4" cy="314.34" r="2.47"/><circle class="cls-29" cx="459.4" cy="304.34" r="2.47"/><circle class="cls-29" cx="459.4" cy="324.34" r="2.47"/><circle class="cls-29" cx="159.4" cy="254.34" r="2.47"/><circle class="cls-29" cx="159.4" cy="244.34" r="2.47"/><text class="cls-1" transform="translate(181.06 118)"><tspan class="cls-2"><tspan class="cls-31">D</tspan><tspan class="cls-32" x="10.22" y="0">a</tspan><tspan class="cls-33" x="18.45" y="0">v</tspan><tspan class="cls-34" x="26.48" y="0">i</tspan><tspan x="30.72" y="0">d B</tspan><tspan class="cls-35" x="52.63" y="0">u</tspan><tspan class="cls-36" x="61.72" y="0">r</tspan><tspan x="67.99" y="0">k</tspan></tspan><tspan class="cls-12"><tspan class="cls-37" x="-12.43" y="24">A</tspan><tspan class="cls-38" x="-4.47" y="24">s</tspan><tspan class="cls-39" x="1.31" y="24">s</tspan><tspan x="7.05" y="24">o</tspan><tspan class="cls-40" x="14.29" y="24">c</tspan><tspan class="cls-41" x="19.97" y="24">i</tspan><tspan x="22.89" y="24">a</tspan><tspan class="cls-42" x="29.56" y="24">t</tspan><tspan x="33.7" y="24">e </tspan><tspan class="cls-18" x="43.55" y="24">D</tspan><tspan class="cls-43" x="52.28" y="24">i</tspan><tspan class="cls-44" x="55.23" y="24">r</tspan><tspan class="cls-45" x="60.02" y="24">e</tspan><tspan class="cls-21" x="66.78" y="24">c</tspan><tspan class="cls-46" x="72.87" y="24">t</tspan><tspan class="cls-47" x="77" y="24">o</tspan><tspan x="84.2" y="24">r</tspan><tspan class="cls-24" x="-22.17" y="39">L</tspan><tspan class="cls-25" x="-15.65" y="39">S</tspan><tspan x="-9.16" y="39">U B</tspan><tspan class="cls-26" x="10.46" y="39">i</tspan><tspan x="13.42" y="39">o D</tspan><tspan class="cls-27" x="32.53" y="39">ep</tspan><tspan class="cls-28" x="46.54" y="39">t</tspan><tspan x="50.91" y="39">. &amp; </tspan><tspan class="cls-48" x="69.1" y="39">P</tspan><tspan class="cls-14" x="76.16" y="39">B</tspan><tspan class="cls-49" x="83.95" y="39">R</tspan><tspan class="cls-50" x="91.27" y="39">C</tspan></tspan></text><circle class="cls-29" cx="219.4" cy="126.34" r="2.47"/><line class="cls-30" x1="164.26" y1="126.34" x2="210.47" y2="126.34"/><line class="cls-30" x1="228.34" y1="126.34" x2="274.54" y2="126.34"/><text class="cls-1" transform="translate(166.38 345.93)"><tspan class="cls-2"><tspan class="cls-51">R</tspan><tspan class="cls-52" x="9.07" y="0">e</tspan><tspan class="cls-53" x="17.36" y="0">b</tspan><tspan class="cls-54" x="26.26" y="0">e</tspan><tspan class="cls-55" x="34.6" y="0">c</tspan><tspan class="cls-56" x="41.7" y="0">c</tspan><tspan x="48.88" y="0">a </tspan><tspan class="cls-57" x="60.97" y="0">G</tspan><tspan class="cls-58" x="71.05" y="0">i</tspan><tspan class="cls-59" x="75.24" y="0">o</tspan><tspan class="cls-36" x="83.85" y="0">r</tspan><tspan class="cls-60" x="90.13" y="0">n</tspan><tspan class="cls-61" x="99.27" y="0">o</tspan><tspan class="cls-7" x="108.46" y="0">-</tspan><tspan x="113.33" y="0">M</tspan><tspan class="cls-62" x="126.53" y="0">c</tspan><tspan class="cls-63" x="133.68" y="0">C</tspan><tspan class="cls-4" x="142.47" y="0">o</tspan><tspan class="cls-64" x="151.08" y="0">n</tspan><tspan class="cls-65" x="160.18" y="0">n</tspan><tspan class="cls-66" x="169.33" y="0">e</tspan><tspan class="cls-67" x="177.61" y="0">l</tspan><tspan x="181.77" y="0">l</tspan></tspan><tspan class="cls-12"><tspan class="cls-68" x="71.5" y="24">L</tspan><tspan x="78.33" y="24">A </tspan><tspan class="cls-69" x="89.04" y="24">T</tspan><tspan class="cls-45" x="94.75" y="24">e</tspan><tspan class="cls-40" x="101.5" y="24">c</tspan><tspan x="107.18" y="24">h</tspan></tspan></text><circle class="cls-29" cx="259.4" cy="354.27" r="2.47"/><line class="cls-30" x1="204.26" y1="354.27" x2="250.47" y2="354.27"/><line class="cls-30" x1="268.34" y1="354.27" x2="314.54" y2="354.27"/><text class="cls-1" transform="translate(0 346)"><tspan class="cls-2"><tspan class="cls-70">E</tspan><tspan class="cls-71" x="7.83" y="0">l</tspan><tspan class="cls-10" x="12.02" y="0">a</tspan><tspan class="cls-60" x="20.37" y="0">h</tspan><tspan x="29.52" y="0">e </tspan><tspan class="cls-72" x="41.42" y="0">M</tspan><tspan class="cls-10" x="54.55" y="0">a</tspan><tspan class="cls-5" x="62.9" y="0">h</tspan><tspan class="cls-64" x="72.07" y="0">d</tspan><tspan class="cls-32" x="80.83" y="0">a</tspan><tspan class="cls-33" x="89.07" y="0">v</tspan><tspan class="cls-73" x="97.1" y="0">i</tspan><tspan class="cls-10" x="101.25" y="0">a</tspan><tspan class="cls-74" x="109.6" y="0">n</tspan></tspan><tspan class="cls-12"><tspan class="cls-24" x="42.59" y="24">L</tspan><tspan class="cls-25" x="49.12" y="24">S</tspan><tspan class="cls-75" x="55.6" y="24">U</tspan><tspan class="cls-76" x="64.59" y="24">-</tspan><tspan x="68.61" y="24">A</tspan></tspan></text><circle class="cls-29" cx="59.4" cy="354.34" r="2.47"/><line class="cls-30" x1="4.26" y1="354.34" x2="50.47" y2="354.34"/><line class="cls-30" x1="68.34" y1="354.34" x2="114.54" y2="354.34"/><circle class="cls-29" cx="259.4" cy="254.34" r="2.47"/><circle class="cls-29" cx="259.4" cy="244.34" r="2.47"/><circle class="cls-29" cx="659.4" cy="254.34" r="2.47"/><circle class="cls-29" cx="659.4" cy="244.34" r="2.47"/><circle class="cls-29" cx="559.4" cy="254.34" r="2.47"/><circle class="cls-29" cx="559.4" cy="244.34" r="2.47"/><circle class="cls-29" cx="259.4" cy="274.34" r="2.47"/><circle class="cls-29" cx="259.4" cy="264.34" r="2.47"/><circle class="cls-29" cx="259.4" cy="294.34" r="2.47"/><circle class="cls-29" cx="259.4" cy="284.34" r="2.47"/><circle class="cls-29" cx="259.4" cy="314.34" r="2.47"/><circle class="cls-29" cx="259.4" cy="304.34" r="2.47"/><circle class="cls-29" cx="259.4" cy="324.34" r="2.47"/><text class="cls-1" transform="translate(314.78 276)"><tspan class="cls-2"><tspan class="cls-71">C</tspan><tspan class="cls-64" x="8.84" y="0">h</tspan><tspan class="cls-36" x="17.94" y="0">r</tspan><tspan class="cls-77" x="24.22" y="0">i</tspan><tspan x="28.5" y="0">s </tspan><tspan class="cls-78" x="39.1" y="0">B</tspan><tspan class="cls-79" x="48.52" y="0">ea</tspan><tspan class="cls-80" x="65.18" y="0">c</tspan><tspan class="cls-81" x="72.31" y="0">h</tspan><tspan x="81.28" y="0">y</tspan></tspan><tspan class="cls-12"><tspan class="cls-82" x="30.75" y="24">S</tspan><tspan class="cls-83" x="37.22" y="24">E</tspan><tspan class="cls-84" x="43.74" y="24">L</tspan><tspan x="49.76" y="24">U</tspan></tspan></text><circle class="cls-29" cx="359.4" cy="284.34" r="2.47"/><line class="cls-30" x1="304.26" y1="284.34" x2="350.47" y2="284.34"/><line class="cls-30" x1="368.34" y1="284.34" x2="414.54" y2="284.34"/><circle class="cls-29" cx="659.4" cy="254.34" r="2.47"/><circle class="cls-29" cx="659.4" cy="244.34" r="2.47"/><circle class="cls-29" cx="659.4" cy="274.34" r="2.47"/><circle class="cls-29" cx="659.4" cy="264.34" r="2.47"/><circle class="cls-29" cx="659.4" cy="294.34" r="2.47"/><circle class="cls-29" cx="659.4" cy="284.34" r="2.47"/><circle class="cls-29" cx="659.4" cy="314.34" r="2.47"/><circle class="cls-29" cx="659.4" cy="304.34" r="2.47"/><circle class="cls-29" cx="659.4" cy="324.34" r="2.47"/><text class="cls-1" transform="translate(615.54 346)"><tspan class="cls-2"><tspan class="cls-85">S</tspan><tspan class="cls-10" x="7.85" y="0">an</tspan><tspan class="cls-73" x="25.29" y="0">j</tspan><tspan class="cls-86" x="29.45" y="0">a</tspan><tspan x="37.67" y="0">y </tspan><tspan class="cls-87" x="49.27" y="0">B</tspan><tspan class="cls-88" x="58.73" y="0">a</tspan><tspan class="cls-89" x="67.07" y="0">t</tspan><tspan class="cls-90" x="73.1" y="0">r</tspan><tspan x="79.26" y="0">a</tspan></tspan><tspan class="cls-12"><tspan class="cls-25" x="28.67" y="24">S</tspan><tspan class="cls-91" x="35.15" y="24">U</tspan><tspan class="cls-14" x="43.84" y="24">B</tspan><tspan x="51.64" y="24">R</tspan></tspan></text><circle class="cls-29" cx="659.4" cy="354.34" r="2.47"/><line class="cls-30" x1="604.26" y1="354.34" x2="650.47" y2="354.34"/><line class="cls-30" x1="668.34" y1="354.34" x2="714.54" y2="354.34"/><text class="cls-1" transform="translate(505.1 276)"><tspan class="cls-2"><tspan class="cls-58">H</tspan><tspan class="cls-10" x="10.63" y="0">a</tspan><tspan class="cls-92" x="18.98" y="0">rr</tspan><tspan class="cls-93" x="31.54" y="0">i</tspan><tspan x="35.82" y="0">s M</tspan><tspan class="cls-34" x="59.62" y="0">c</tspan><tspan class="cls-36" x="66.79" y="0">F</tspan><tspan class="cls-52" x="74.39" y="0">e</tspan><tspan class="cls-92" x="82.68" y="0">rr</tspan><tspan class="cls-64" x="95.23" y="0">i</tspan><tspan x="99.4" y="0">n</tspan></tspan><tspan class="cls-12"><tspan class="cls-94" x="37.1" y="24">X</tspan><tspan class="cls-95" x="44.15" y="24">a</tspan><tspan class="cls-96" x="50.79" y="24">v</tspan><tspan class="cls-26" x="56.96" y="24">i</tspan><tspan class="cls-27" x="59.92" y="24">e</tspan><tspan x="66.61" y="24">r</tspan></tspan></text><circle class="cls-29" cx="559.4" cy="284.34" r="2.47"/><line class="cls-30" x1="504.26" y1="284.34" x2="550.47" y2="284.34"/><line class="cls-30" x1="568.34" y1="284.34" x2="614.54" y2="284.34"/><text class="cls-1" transform="translate(97.8 276)"><tspan class="cls-2"><tspan class="cls-97">S</tspan><tspan class="cls-92" x="7.7" y="0">r</tspan><tspan class="cls-98" x="13.98" y="0">i</tspan><tspan class="cls-99" x="18.15" y="0">n</tspan><tspan class="cls-100" x="27.23" y="0">i</tspan><tspan class="cls-10" x="31.57" y="0">v</tspan><tspan class="cls-101" x="39.43" y="0">a</tspan><tspan x="47.91" y="0">s </tspan><tspan class="cls-102" x="58.51" y="0">G</tspan><tspan class="cls-10" x="68.59" y="0">a</tspan><tspan class="cls-36" x="76.94" y="0">rl</tspan><tspan class="cls-103" x="87.41" y="0">a</tspan><tspan class="cls-104" x="95.76" y="0">p</tspan><tspan class="cls-88" x="104.59" y="0">a</tspan><tspan class="cls-71" x="112.93" y="0">t</tspan><tspan class="cls-105" x="118.93" y="0">i</tspan></tspan><tspan class="cls-12"><tspan class="cls-91" x="48.72" y="24">U</tspan><tspan class="cls-39" x="57.41" y="24">L</tspan><tspan x="63.65" y="24">M</tspan></tspan></text><circle class="cls-29" cx="159.4" cy="284.34" r="2.47"/><line class="cls-30" x1="104.26" y1="284.34" x2="150.47" y2="284.34"/><line class="cls-30" x1="168.34" y1="284.34" x2="214.54" y2="284.34"/><text class="cls-1" transform="translate(400.96 346)"><tspan class="cls-2"><tspan class="cls-106">W</tspan><tspan class="cls-10" x="13.27" y="0">a</tspan><tspan class="cls-60" x="21.62" y="0">n</tspan><tspan class="cls-11" x="30.77" y="0">e</tspan><tspan class="cls-52" x="39.07" y="0">e</tspan><tspan class="cls-60" x="47.36" y="0">n</tspan><tspan x="56.51" y="0">e </tspan><tspan class="cls-107" x="68.42" y="0">D</tspan><tspan class="cls-59" x="78.76" y="0">o</tspan><tspan class="cls-108" x="87.37" y="0">r</tspan><tspan x="93.81" y="0">s</tspan><tspan class="cls-109" x="100.77" y="0">e</tspan><tspan x="108.92" y="0">y</tspan></tspan><tspan class="cls-12"><tspan class="cls-110" x="29.23" y="24">G</tspan><tspan class="cls-111" x="38.01" y="24">r</tspan><tspan class="cls-112" x="42.84" y="24">am</tspan><tspan class="cls-113" x="60.56" y="24">b</tspan><tspan class="cls-114" x="67.88" y="24">li</tspan><tspan class="cls-115" x="73.78" y="24">n</tspan><tspan x="81.08" y="24">g</tspan></tspan></text><circle class="cls-29" cx="459.4" cy="354.34" r="2.47"/><line class="cls-30" x1="404.26" y1="354.34" x2="450.47" y2="354.34"/><line class="cls-30" x1="468.34" y1="354.34" x2="514.54" y2="354.34"/><text class="cls-1" transform="translate(428.86 118)"><tspan class="cls-2"><tspan class="cls-116">V</tspan><tspan class="cls-71" x="9.26" y="0">l</tspan><tspan class="cls-79" x="13.45" y="0">a</tspan><tspan class="cls-117" x="21.87" y="0">di</tspan><tspan class="cls-88" x="34.8" y="0">m</tspan><tspan class="cls-64" x="48.43" y="0">i</tspan><tspan x="52.61" y="0">r </tspan><tspan class="cls-71" x="62.6" y="0">C</tspan><tspan class="cls-60" x="71.44" y="0">h</tspan><tspan class="cls-118" x="80.59" y="0">o</tspan><tspan class="cls-119" x="89.2" y="0">u</tspan><tspan class="cls-120" x="98.28" y="0">l</tspan><tspan class="cls-121" x="102.47" y="0">j</tspan><tspan class="cls-122" x="106.69" y="0">e</tspan><tspan class="cls-98" x="114.98" y="0">n</tspan><tspan class="cls-123" x="124.08" y="0">k</tspan><tspan x="132.42" y="0">o</tspan></tspan><tspan class="cls-12"><tspan class="cls-37" x="19.78" y="24">A</tspan><tspan class="cls-38" x="27.73" y="24">s</tspan><tspan class="cls-39" x="33.52" y="24">s</tspan><tspan x="39.25" y="24">o</tspan><tspan class="cls-40" x="46.5" y="24">c</tspan><tspan class="cls-41" x="52.18" y="24">i</tspan><tspan x="55.1" y="24">a</tspan><tspan class="cls-42" x="61.77" y="24">t</tspan><tspan x="65.91" y="24">e </tspan><tspan class="cls-18" x="75.75" y="24">D</tspan><tspan class="cls-43" x="84.49" y="24">i</tspan><tspan class="cls-44" x="87.43" y="24">r</tspan><tspan class="cls-45" x="92.23" y="24">e</tspan><tspan class="cls-21" x="98.98" y="24">c</tspan><tspan class="cls-46" x="105.08" y="24">t</tspan><tspan class="cls-47" x="109.21" y="24">o</tspan><tspan x="116.41" y="24">r</tspan><tspan class="cls-24" x="45.22" y="39">L</tspan><tspan class="cls-25" x="51.74" y="39">S</tspan><tspan class="cls-75" x="58.22" y="39">U</tspan><tspan class="cls-124" x="67.21" y="39">-</tspan><tspan class="cls-125" x="70.85" y="39">S</tspan><tspan class="cls-126" x="77.75" y="39">V</tspan><tspan x="85.04" y="39">M</tspan></tspan></text><circle class="cls-29" cx="499.4" cy="126.34" r="2.47"/><line class="cls-30" x1="444.26" y1="126.34" x2="490.47" y2="126.34"/><line class="cls-30" x1="508.34" y1="126.34" x2="554.54" y2="126.34"/></svg>