<svg id="Layer_1" data-name="Layer 1" xmlns="http://www.w3.org/2000/svg" viewBox="0 0 762.82 506.31"><defs><style>.cls-1{fill:#2c3d6c;}.cls-2{fill:#8ecb91;}.cls-3{fill:none;stroke:#8ecb91;stroke-linecap:round;stroke-miterlimit:10;stroke-width:3px;}</style></defs><title>mcbr-core-outlines</title><path class="cls-1" d="M329.31,49.75l2.08-4.12h2.28l-3.32,6.1v3.89h-2.11V51.81l-3.32-6.17h2.3Z"/><path class="cls-1" d="M340.89,51.8a4.11,4.11,0,0,1-1,2.92,3.57,3.57,0,0,1-2.74,1.05,3.83,3.83,0,0,1-1.94-.48,3.21,3.21,0,0,1-1.29-1.38,4.65,4.65,0,0,1-.45-2.11,4.08,4.08,0,0,1,1-2.91,3.59,3.59,0,0,1,2.75-1,3.86,3.86,0,0,1,1.94.48,3.19,3.19,0,0,1,1.29,1.37A4.61,4.61,0,0,1,340.89,51.8Zm-5.28,0a3.21,3.21,0,0,0,.37,1.72,1.33,1.33,0,0,0,1.21.58,1.31,1.31,0,0,0,1.2-.58,3.26,3.26,0,0,0,.37-1.72,3.16,3.16,0,0,0-.37-1.7,1.57,1.57,0,0,0-2.41,0A3.15,3.15,0,0,0,335.61,51.8Z"/><path class="cls-1" d="M349.61,55.63h-2.08V51.17a2.15,2.15,0,0,0-.29-1.24,1.07,1.07,0,0,0-.94-.41,1.41,1.41,0,0,0-1.26.58,3.62,3.62,0,0,0-.39,1.94v3.6h-2.08V48h1.59l.28,1h.12a2.2,2.2,0,0,1,1-.84,3.27,3.27,0,0,1,1.39-.28,2.67,2.67,0,0,1,2,.72,2.89,2.89,0,0,1,.69,2.08Z"/><path class="cls-1" d="M358.38,48v1.06l-1.2.31a2.09,2.09,0,0,1,.33,1.15,2.32,2.32,0,0,1-.86,1.92,3.72,3.72,0,0,1-2.38.69l-.38,0-.31,0a.69.69,0,0,0-.32.55q0,.45,1.15.45h1.3a3,3,0,0,1,1.92.54,1.93,1.93,0,0,1,.66,1.59,2.35,2.35,0,0,1-1.12,2.08A5.82,5.82,0,0,1,354,59a4.44,4.44,0,0,1-2.44-.56,1.77,1.77,0,0,1-.84-1.56,1.64,1.64,0,0,1,.43-1.16,2.44,2.44,0,0,1,1.26-.66,1.4,1.4,0,0,1-.56-.45,1.1,1.1,0,0,1,0-1.39,2.92,2.92,0,0,1,.73-.57,2.05,2.05,0,0,1-1-.83,2.54,2.54,0,0,1-.35-1.35,2.39,2.39,0,0,1,.81-1.93,3.52,3.52,0,0,1,2.32-.68,6,6,0,0,1,.76.06l.56.09Zm-5.9,8.72a.76.76,0,0,0,.41.68,2.28,2.28,0,0,0,1.16.25,4.1,4.1,0,0,0,1.76-.31.94.94,0,0,0,.64-.84.6.6,0,0,0-.38-.59,3.08,3.08,0,0,0-1.16-.16h-1.08a1.63,1.63,0,0,0-1,.27A.83.83,0,0,0,352.48,56.71Zm.76-6.22a1.56,1.56,0,0,0,.28,1,1,1,0,0,0,.86.36,1,1,0,0,0,.86-.36,1.6,1.6,0,0,0,.27-1q0-1.38-1.13-1.38T353.24,50.49Z"/><path class="cls-1" d="M359,52.74V51h3.67v1.71Z"/><path class="cls-1" d="M372.93,55.63h-2.11V51.32h-4v4.31h-2.12v-10h2.12v3.92h4V45.64h2.11Z"/><path class="cls-1" d="M381.58,55.63,381,53l-.79-3.38h0l-1.39,6h-2.24L374.34,48h2.08l.88,3.38q.21.91.43,2.51h0a14.27,14.27,0,0,1,.24-1.65l.11-.58.94-3.66h2.3l.9,3.66.09.44c0,.2.08.4.11.63s.07.44.1.65a5.09,5.09,0,0,1,.05.51h0q.06-.49.22-1.35t.23-1.16L384,48h2l-2.2,7.64Z"/><path class="cls-1" d="M392,55.63l-.4-1h-.05a3.08,3.08,0,0,1-1.08.92,3.5,3.5,0,0,1-1.45.26,2.35,2.35,0,0,1-1.73-.63,2.41,2.41,0,0,1-.63-1.79,2,2,0,0,1,.85-1.79,4.93,4.93,0,0,1,2.57-.64l1.33,0v-.33a1,1,0,0,0-1.19-1.16,5.42,5.42,0,0,0-2.15.55l-.69-1.41a6.21,6.21,0,0,1,2.93-.69,3.64,3.64,0,0,1,2.36.67,2.48,2.48,0,0,1,.82,2v5.09Zm-.62-3.54-.81,0a2.58,2.58,0,0,0-1.35.33,1,1,0,0,0-.44.92q0,.88,1,.88a1.6,1.6,0,0,0,1.16-.42,1.47,1.47,0,0,0,.43-1.11Z"/><path class="cls-1" d="M402.53,55.63h-2.08V51.17a2.14,2.14,0,0,0-.29-1.24,1.07,1.07,0,0,0-.94-.41,1.41,1.41,0,0,0-1.26.58,3.62,3.62,0,0,0-.39,1.94v3.6h-2.08V48h1.59l.28,1h.12a2.2,2.2,0,0,1,1-.84,3.27,3.27,0,0,1,1.39-.28,2.67,2.67,0,0,1,2,.72,2.89,2.89,0,0,1,.69,2.08Z"/><path class="cls-1" d="M408.47,55.63v-10h2.12v8.24h4.05v1.75Z"/><path class="cls-1" d="M419.68,55.77a4,4,0,0,1-2.88-1,3.86,3.86,0,0,1-1-2.88,4.24,4.24,0,0,1,1-3,3.42,3.42,0,0,1,2.66-1,3.37,3.37,0,0,1,2.52.92,3.49,3.49,0,0,1,.9,2.55v1h-4.93a2,2,0,0,0,.53,1.39,1.85,1.85,0,0,0,1.38.5,5.73,5.73,0,0,0,1.31-.14,6.54,6.54,0,0,0,1.29-.46v1.61a4.89,4.89,0,0,1-1.17.41A7.36,7.36,0,0,1,419.68,55.77Zm-.29-6.44a1.32,1.32,0,0,0-1,.42,2,2,0,0,0-.43,1.19h2.93a1.74,1.74,0,0,0-.4-1.19A1.37,1.37,0,0,0,419.38,49.33Z"/><path class="cls-1" d="M428,55.77a4,4,0,0,1-2.88-1,3.86,3.86,0,0,1-1-2.88,4.24,4.24,0,0,1,1-3,3.42,3.42,0,0,1,2.66-1,3.37,3.37,0,0,1,2.52.92,3.49,3.49,0,0,1,.9,2.55v1h-4.93a2,2,0,0,0,.53,1.39,1.85,1.85,0,0,0,1.38.5,5.73,5.73,0,0,0,1.31-.14,6.54,6.54,0,0,0,1.29-.46v1.61a4.89,4.89,0,0,1-1.17.41A7.36,7.36,0,0,1,428,55.77Zm-.29-6.44a1.32,1.32,0,0,0-1,.42,2,2,0,0,0-.43,1.19h2.93a1.74,1.74,0,0,0-.4-1.19A1.37,1.37,0,0,0,427.69,49.33Z"/><path class="cls-1" d="M327.69,79.63,324.78,72h0q.08.9.08,2.14v5.45h-.92V71.07h1.5l2.71,7.07h0l2.74-7.07h1.49v8.57h-1V74.11q0-.95.08-2.06h0l-2.93,7.58Z"/><path class="cls-1" d="M338.36,71.83a2.8,2.8,0,0,0-2.23.94,3.79,3.79,0,0,0-.82,2.58,3.87,3.87,0,0,0,.79,2.6,2.8,2.8,0,0,0,2.25.92,7.67,7.67,0,0,0,2-.32v.87a6.3,6.3,0,0,1-2.2.33,3.72,3.72,0,0,1-2.92-1.15,4.73,4.73,0,0,1-1-3.26,5.15,5.15,0,0,1,.5-2.32,3.55,3.55,0,0,1,1.43-1.54,4.33,4.33,0,0,1,2.2-.54,5.31,5.31,0,0,1,2.36.49l-.42.86A4.54,4.54,0,0,0,338.36,71.83Z"/><path class="cls-1" d="M342.23,71.07h2.42a4.57,4.57,0,0,1,2.47.51,1.8,1.8,0,0,1,.76,1.61,1.86,1.86,0,0,1-.42,1.26,2,2,0,0,1-1.24.64v.06q2,.33,2,2.05a2.2,2.2,0,0,1-.78,1.79,3.3,3.3,0,0,1-2.17.64h-3Zm1,3.67h1.64a2.67,2.67,0,0,0,1.52-.33,1.28,1.28,0,0,0,.46-1.12,1.13,1.13,0,0,0-.52-1,3.22,3.22,0,0,0-1.64-.32h-1.46Zm0,.84v3.21H345a2.55,2.55,0,0,0,1.56-.4,1.48,1.48,0,0,0,.52-1.26,1.33,1.33,0,0,0-.54-1.17,2.87,2.87,0,0,0-1.63-.37Z"/><path class="cls-1" d="M351,76.07v3.56h-1V71.07h2.35a3.7,3.7,0,0,1,2.33.6,2.19,2.19,0,0,1,.75,1.82,2.28,2.28,0,0,1-1.72,2.3l2.33,3.85h-1.18l-2.07-3.56Zm0-.86h1.37a2.36,2.36,0,0,0,1.55-.42,1.56,1.56,0,0,0,.49-1.26,1.43,1.43,0,0,0-.5-1.22,2.71,2.71,0,0,0-1.61-.37H351Z"/><path class="cls-1" d="M364.23,71.83a2.8,2.8,0,0,0-2.23.94,3.79,3.79,0,0,0-.82,2.58,3.87,3.87,0,0,0,.79,2.6,2.8,2.8,0,0,0,2.25.92,7.67,7.67,0,0,0,2-.32v.87a6.3,6.3,0,0,1-2.2.33,3.72,3.72,0,0,1-2.92-1.15,4.73,4.73,0,0,1-1-3.26,5.15,5.15,0,0,1,.5-2.32A3.55,3.55,0,0,1,362,71.48a4.33,4.33,0,0,1,2.2-.54,5.31,5.31,0,0,1,2.36.49l-.42.86A4.54,4.54,0,0,0,364.23,71.83Z"/><path class="cls-1" d="M373.34,76.42a3.54,3.54,0,0,1-.79,2.45,2.79,2.79,0,0,1-2.19.88,2.89,2.89,0,0,1-1.53-.4,2.67,2.67,0,0,1-1-1.16,4,4,0,0,1-.36-1.77,3.54,3.54,0,0,1,.79-2.45,2.78,2.78,0,0,1,2.18-.88,2.72,2.72,0,0,1,2.14.9A3.53,3.53,0,0,1,373.34,76.42Zm-4.89,0a3,3,0,0,0,.49,1.88,2,2,0,0,0,2.9,0,3,3,0,0,0,.5-1.88,3,3,0,0,0-.5-1.86,1.74,1.74,0,0,0-1.46-.64,1.71,1.71,0,0,0-1.44.63A3,3,0,0,0,368.45,76.42Z"/><path class="cls-1" d="M377.93,73.09a3.81,3.81,0,0,1,.77.07l-.13.9a3.31,3.31,0,0,0-.7-.09,1.71,1.71,0,0,0-1.33.63,2.31,2.31,0,0,0-.55,1.58v3.45h-1V73.21h.8l.11,1.19h0a2.82,2.82,0,0,1,.86-1A1.94,1.94,0,0,1,377.93,73.09Z"/><path class="cls-1" d="M382.51,79.75a3,3,0,0,1-2.25-.87,3.36,3.36,0,0,1-.82-2.41A3.72,3.72,0,0,1,380.2,74a2.54,2.54,0,0,1,2.05-.91,2.42,2.42,0,0,1,1.91.79,3,3,0,0,1,.7,2.09v.62h-4.42a2.55,2.55,0,0,0,.57,1.72,2,2,0,0,0,1.53.59,5.17,5.17,0,0,0,2.05-.43v.87a5.15,5.15,0,0,1-1,.32A5.48,5.48,0,0,1,382.51,79.75Zm-.26-5.84a1.59,1.59,0,0,0-1.23.5,2.32,2.32,0,0,0-.54,1.39h3.36a2.14,2.14,0,0,0-.41-1.41A1.44,1.44,0,0,0,382.24,73.91Z"/><path class="cls-1" d="M396.63,75.27a4.32,4.32,0,0,1-1.15,3.24,4.56,4.56,0,0,1-3.31,1.12h-2.37V71.07h2.63a3.85,3.85,0,0,1,4.21,4.2Zm-1.05,0a3.45,3.45,0,0,0-.84-2.53,3.37,3.37,0,0,0-2.5-.85h-1.45v6.84H392a3.69,3.69,0,0,0,2.68-.88A3.47,3.47,0,0,0,395.57,75.3Z"/><path class="cls-1" d="M398.29,71.47a.65.65,0,0,1,.16-.49.61.61,0,0,1,.81,0,.63.63,0,0,1,.17.49.64.64,0,0,1-.17.49.6.6,0,0,1-.81,0A.66.66,0,0,1,398.29,71.47Zm1.05,8.16h-1V73.21h1Z"/><path class="cls-1" d="M404.25,73.09a3.81,3.81,0,0,1,.77.07l-.13.9a3.31,3.31,0,0,0-.7-.09,1.71,1.71,0,0,0-1.33.63,2.31,2.31,0,0,0-.55,1.58v3.45h-1V73.21h.8l.11,1.19h0a2.82,2.82,0,0,1,.86-1A1.94,1.94,0,0,1,404.25,73.09Z"/><path class="cls-1" d="M408.83,79.75a3,3,0,0,1-2.25-.87,3.36,3.36,0,0,1-.82-2.41,3.72,3.72,0,0,1,.76-2.47,2.54,2.54,0,0,1,2.05-.91,2.42,2.42,0,0,1,1.91.79,3,3,0,0,1,.7,2.09v.62h-4.42a2.55,2.55,0,0,0,.57,1.72,2,2,0,0,0,1.53.59,5.17,5.17,0,0,0,2.05-.43v.87a5.15,5.15,0,0,1-1,.32A5.48,5.48,0,0,1,408.83,79.75Zm-.26-5.84a1.59,1.59,0,0,0-1.23.5,2.32,2.32,0,0,0-.54,1.39h3.36a2.14,2.14,0,0,0-.41-1.41A1.44,1.44,0,0,0,408.56,73.91Z"/><path class="cls-1" d="M415.44,79.75a2.74,2.74,0,0,1-2.16-.86,3.53,3.53,0,0,1-.76-2.43,3.64,3.64,0,0,1,.78-2.49,2.8,2.8,0,0,1,2.21-.88,4.39,4.39,0,0,1,.93.1,3,3,0,0,1,.73.23l-.3.83a4.57,4.57,0,0,0-.7-.21,3.14,3.14,0,0,0-.67-.08q-2,0-2,2.5a3,3,0,0,0,.48,1.82,1.66,1.66,0,0,0,1.42.63,4.33,4.33,0,0,0,1.65-.35v.86A3.51,3.51,0,0,1,415.44,79.75Z"/><path class="cls-1" d="M421,78.95a3.18,3.18,0,0,0,.5,0l.38-.08v.74a1.78,1.78,0,0,1-.47.13,3.5,3.5,0,0,1-.55,0q-1.86,0-1.86-2V74h-.92V73.5l.92-.4.41-1.37H420v1.49h1.86V74H420v3.78a1.3,1.3,0,0,0,.28.89A1,1,0,0,0,421,78.95Z"/><path class="cls-1" d="M428.64,76.42a3.54,3.54,0,0,1-.79,2.45,2.79,2.79,0,0,1-2.19.88,2.89,2.89,0,0,1-1.53-.4,2.67,2.67,0,0,1-1-1.16,4,4,0,0,1-.36-1.77,3.54,3.54,0,0,1,.79-2.45,2.78,2.78,0,0,1,2.18-.88,2.72,2.72,0,0,1,2.14.9A3.53,3.53,0,0,1,428.64,76.42Zm-4.89,0a3,3,0,0,0,.49,1.88,2,2,0,0,0,2.9,0,3,3,0,0,0,.5-1.88,3,3,0,0,0-.5-1.86,1.74,1.74,0,0,0-1.46-.64,1.71,1.71,0,0,0-1.44.63A3,3,0,0,0,423.74,76.42Z"/><path class="cls-1" d="M433.23,73.09a3.81,3.81,0,0,1,.77.07l-.13.9a3.31,3.31,0,0,0-.7-.09,1.71,1.71,0,0,0-1.33.63,2.31,2.31,0,0,0-.55,1.58v3.45h-1V73.21h.8l.11,1.19h0a2.82,2.82,0,0,1,.86-1A1.94,1.94,0,0,1,433.23,73.09Z"/><path class="cls-1" d="M341.36,94.63V86.07h1v7.66h3.78v.9Z"/><path class="cls-1" d="M352.72,92.35a2.1,2.1,0,0,1-.82,1.76,3.56,3.56,0,0,1-2.23.63,5.58,5.58,0,0,1-2.34-.39v-1a6.17,6.17,0,0,0,1.15.35,6,6,0,0,0,1.23.13,2.48,2.48,0,0,0,1.5-.38,1.24,1.24,0,0,0,.5-1.05,1.35,1.35,0,0,0-.18-.73,1.66,1.66,0,0,0-.6-.52,8.36,8.36,0,0,0-1.27-.54,4.07,4.07,0,0,1-1.71-1,2.24,2.24,0,0,1-.51-1.53,1.9,1.9,0,0,1,.74-1.58,3.09,3.09,0,0,1,2-.59,5.8,5.8,0,0,1,2.35.47l-.31.87a5.31,5.31,0,0,0-2.06-.45,2,2,0,0,0-1.24.34,1.12,1.12,0,0,0-.45.94,1.45,1.45,0,0,0,.16.73,1.54,1.54,0,0,0,.55.52,6.88,6.88,0,0,0,1.19.52,4.72,4.72,0,0,1,1.85,1A2,2,0,0,1,352.72,92.35Z"/><path class="cls-1" d="M360.84,86.07v5.54a3,3,0,0,1-.88,2.3,3.39,3.39,0,0,1-2.43.84,3.24,3.24,0,0,1-2.39-.84,3.13,3.13,0,0,1-.85-2.32V86.07h1v5.59a2.2,2.2,0,0,0,.59,1.65,2.36,2.36,0,0,0,1.72.57,2.28,2.28,0,0,0,1.67-.58,2.22,2.22,0,0,0,.59-1.66V86.07Z"/><path class="cls-1" d="M366.22,86.07h2.42a4.57,4.57,0,0,1,2.47.51,1.8,1.8,0,0,1,.76,1.61,1.86,1.86,0,0,1-.42,1.26,2,2,0,0,1-1.24.64v.06q2,.33,2,2.05a2.2,2.2,0,0,1-.78,1.79,3.3,3.3,0,0,1-2.17.64h-3Zm1,3.67h1.64a2.67,2.67,0,0,0,1.52-.33,1.28,1.28,0,0,0,.46-1.12,1.13,1.13,0,0,0-.52-1,3.22,3.22,0,0,0-1.64-.32h-1.46Zm0,.84v3.21H369a2.54,2.54,0,0,0,1.56-.4,1.48,1.48,0,0,0,.52-1.26,1.33,1.33,0,0,0-.54-1.17,2.86,2.86,0,0,0-1.63-.37Z"/><path class="cls-1" d="M373.77,86.47a.65.65,0,0,1,.16-.49.61.61,0,0,1,.81,0,.63.63,0,0,1,.17.49.64.64,0,0,1-.17.49.6.6,0,0,1-.81,0A.66.66,0,0,1,373.77,86.47Zm1.05,8.16h-1V88.21h1Z"/><path class="cls-1" d="M382.35,91.42a3.54,3.54,0,0,1-.79,2.45,2.79,2.79,0,0,1-2.19.88,2.89,2.89,0,0,1-1.53-.4,2.67,2.67,0,0,1-1-1.16,4,4,0,0,1-.36-1.77,3.54,3.54,0,0,1,.79-2.45,2.78,2.78,0,0,1,2.18-.88,2.72,2.72,0,0,1,2.14.9A3.53,3.53,0,0,1,382.35,91.42Zm-4.89,0a3,3,0,0,0,.49,1.88,2,2,0,0,0,2.9,0,3,3,0,0,0,.5-1.88,3,3,0,0,0-.5-1.86,1.74,1.74,0,0,0-1.46-.64,1.71,1.71,0,0,0-1.44.63A3,3,0,0,0,377.45,91.42Z"/><path class="cls-1" d="M394.15,90.27A4.32,4.32,0,0,1,393,93.51a4.56,4.56,0,0,1-3.31,1.12h-2.37V86.07h2.63a3.85,3.85,0,0,1,4.21,4.2Zm-1.05,0a3.45,3.45,0,0,0-.84-2.53,3.37,3.37,0,0,0-2.5-.85h-1.45v6.84h1.21a3.69,3.69,0,0,0,2.68-.88A3.47,3.47,0,0,0,393.1,90.3Z"/><path class="cls-1" d="M398.63,94.75a3,3,0,0,1-2.25-.87,3.36,3.36,0,0,1-.82-2.41,3.72,3.72,0,0,1,.76-2.47,2.54,2.54,0,0,1,2.05-.91,2.42,2.42,0,0,1,1.91.79A3,3,0,0,1,401,91v.62h-4.42a2.55,2.55,0,0,0,.57,1.72,2,2,0,0,0,1.53.59,5.17,5.17,0,0,0,2.05-.43v.87a5.15,5.15,0,0,1-1,.32A5.48,5.48,0,0,1,398.63,94.75Zm-.26-5.84a1.59,1.59,0,0,0-1.23.5,2.32,2.32,0,0,0-.54,1.39h3.36a2.14,2.14,0,0,0-.41-1.41A1.44,1.44,0,0,0,398.36,88.91Z"/><path class="cls-1" d="M405.6,94.75a2.78,2.78,0,0,1-1.15-.23,2.15,2.15,0,0,1-.87-.71h-.07a8.61,8.61,0,0,1,.07,1.07v2.64h-1v-9.3h.79l.13.88h0a2.26,2.26,0,0,1,.87-.76,2.65,2.65,0,0,1,1.14-.23,2.37,2.37,0,0,1,2,.87,4.65,4.65,0,0,1,0,4.91A2.38,2.38,0,0,1,405.6,94.75Zm-.14-5.83a1.72,1.72,0,0,0-1.42.54,2.8,2.8,0,0,0-.45,1.73v.22a3.21,3.21,0,0,0,.45,1.94,1.72,1.72,0,0,0,1.45.58,1.5,1.5,0,0,0,1.3-.67,3.2,3.2,0,0,0,.47-1.86,3.08,3.08,0,0,0-.47-1.84A1.55,1.55,0,0,0,405.46,88.92Z"/><path class="cls-1" d="M412,93.95a3.18,3.18,0,0,0,.5,0l.38-.08v.74a1.78,1.78,0,0,1-.47.13,3.5,3.5,0,0,1-.55,0q-1.86,0-1.86-2V89h-.92V88.5l.92-.4.41-1.37H411v1.49h1.86V89H411v3.78a1.3,1.3,0,0,0,.28.89A1,1,0,0,0,412,93.95Z"/><path class="cls-1" d="M414.15,94a.87.87,0,0,1,.18-.59.65.65,0,0,1,.51-.2.69.69,0,0,1,.53.2.84.84,0,0,1,.19.59.82.82,0,0,1-.19.59.77.77,0,0,1-1,0A.8.8,0,0,1,414.15,94Z"/><circle class="cls-2" cx="378.32" cy="63.97" r="2.47"/><line class="cls-3" x1="323.18" y1="63.97" x2="369.39" y2="63.97"/><line class="cls-3" x1="387.26" y1="63.97" x2="433.46" y2="63.97"/><circle class="cls-2" cx="518.32" cy="131.97" r="2.47"/><circle class="cls-2" cx="238.32" cy="131.97" r="2.47"/><circle class="cls-2" cx="378.32" cy="121.97" r="2.47"/><circle class="cls-2" cx="378.32" cy="111.97" r="2.47"/><circle class="cls-2" cx="378.32" cy="101.97" r="2.47"/><circle class="cls-2" cx="368.32" cy="121.97" r="2.47"/><circle class="cls-2" cx="388.32" cy="121.97" r="2.47"/><circle class="cls-2" cx="408.32" cy="121.97" r="2.47"/><circle class="cls-2" cx="398.32" cy="121.97" r="2.47"/><circle class="cls-2" cx="418.32" cy="121.97" r="2.47"/><circle class="cls-2" cx="438.32" cy="121.97" r="2.47"/><circle class="cls-2" cx="428.32" cy="121.97" r="2.47"/><circle class="cls-2" cx="448.32" cy="121.97" r="2.47"/><circle class="cls-2" cx="468.32" cy="121.97" r="2.47"/><circle class="cls-2" cx="458.32" cy="121.97" r="2.47"/><circle class="cls-2" cx="478.32" cy="121.97" r="2.47"/><circle class="cls-2" cx="498.32" cy="121.97" r="2.47"/><circle class="cls-2" cx="488.32" cy="121.97" r="2.47"/><circle class="cls-2" cx="508.32" cy="121.97" r="2.47"/><circle class="cls-2" cx="518.32" cy="121.97" r="2.47"/><circle class="cls-2" cx="248.32" cy="121.97" r="2.47"/><circle class="cls-2" cx="238.32" cy="121.97" r="2.47"/><circle class="cls-2" cx="258.32" cy="121.97" r="2.47"/><circle class="cls-2" cx="278.32" cy="121.97" r="2.47"/><circle class="cls-2" cx="268.32" cy="121.97" r="2.47"/><circle class="cls-2" cx="288.32" cy="121.97" r="2.47"/><circle class="cls-2" cx="308.32" cy="121.97" r="2.47"/><circle class="cls-2" cx="298.32" cy="121.97" r="2.47"/><circle class="cls-2" cx="318.32" cy="121.97" r="2.47"/><circle class="cls-2" cx="338.32" cy="121.97" r="2.47"/><circle class="cls-2" cx="328.32" cy="121.97" r="2.47"/><circle class="cls-2" cx="348.32" cy="121.97" r="2.47"/><circle class="cls-2" cx="368.32" cy="121.97" r="2.47"/><circle class="cls-2" cx="358.32" cy="121.97" r="2.47"/><circle class="cls-2" cx="408.32" cy="227.97" r="2.47"/><circle class="cls-2" cx="398.32" cy="227.97" r="2.47"/><circle class="cls-2" cx="418.32" cy="227.97" r="2.47"/><circle class="cls-2" cx="438.32" cy="227.97" r="2.47"/><circle class="cls-2" cx="428.32" cy="227.97" r="2.47"/><circle class="cls-2" cx="448.32" cy="227.97" r="2.47"/><circle class="cls-2" cx="468.32" cy="227.97" r="2.47"/><circle class="cls-2" cx="458.32" cy="227.97" r="2.47"/><circle class="cls-2" cx="478.32" cy="227.97" r="2.47"/><circle class="cls-2" cx="498.32" cy="227.97" r="2.47"/><circle class="cls-2" cx="488.32" cy="227.97" r="2.47"/><circle class="cls-2" cx="508.32" cy="227.97" r="2.47"/><circle class="cls-2" cx="248.32" cy="227.97" r="2.47"/><circle class="cls-2" cx="258.32" cy="227.97" r="2.47"/><circle class="cls-2" cx="278.32" cy="227.97" r="2.47"/><circle class="cls-2" cx="268.32" cy="227.97" r="2.47"/><circle class="cls-2" cx="288.32" cy="227.97" r="2.47"/><circle class="cls-2" cx="308.32" cy="227.97" r="2.47"/><circle class="cls-2" cx="298.32" cy="227.97" r="2.47"/><circle class="cls-2" cx="318.32" cy="227.97" r="2.47"/><circle class="cls-2" cx="338.32" cy="227.97" r="2.47"/><circle class="cls-2" cx="328.32" cy="227.97" r="2.47"/><circle class="cls-2" cx="348.32" cy="227.97" r="2.47"/><circle class="cls-2" cx="358.32" cy="227.97" r="2.47"/><circle class="cls-2" cx="518.32" cy="141.97" r="2.47"/><circle class="cls-2" cx="238.32" cy="141.97" r="2.47"/><circle class="cls-2" cx="518.32" cy="207.97" r="2.47"/><circle class="cls-2" cx="238.32" cy="207.97" r="2.47"/><circle class="cls-2" cx="518.32" cy="217.97" r="2.47"/><circle class="cls-2" cx="238.32" cy="217.97" r="2.47"/><circle class="cls-2" cx="378.32" cy="227.97" r="2.47"/><circle class="cls-2" cx="518.32" cy="227.97" r="2.47"/><circle class="cls-2" cx="238.32" cy="227.97" r="2.47"/><circle class="cls-2" cx="378.32" cy="237.97" r="2.47"/><circle class="cls-2" cx="378.32" cy="247.97" r="2.47"/><circle class="cls-2" cx="368.32" cy="227.97" r="2.47"/><circle class="cls-2" cx="368.32" cy="237.97" r="2.47"/><circle class="cls-2" cx="388.32" cy="227.97" r="2.47"/><circle class="cls-2" cx="388.32" cy="237.97" r="2.47"/><circle class="cls-2" cx="398.32" cy="237.97" r="2.47"/><circle class="cls-2" cx="358.32" cy="237.97" r="2.47"/><circle class="cls-2" cx="368.32" cy="247.97" r="2.47"/><circle class="cls-2" cx="388.32" cy="247.97" r="2.47"/><circle class="cls-2" cx="378.32" cy="257.97" r="2.47"/><circle class="cls-2" cx="378.32" cy="267.97" r="2.47"/><circle class="cls-2" cx="378.32" cy="277.97" r="2.47"/><circle class="cls-2" cx="398.32" cy="277.97" r="2.47"/><circle class="cls-2" cx="388.32" cy="277.97" r="2.47"/><circle class="cls-2" cx="408.32" cy="277.97" r="2.47"/><circle class="cls-2" cx="438.32" cy="277.97" r="2.47"/><circle class="cls-2" cx="418.32" cy="277.97" r="2.47"/><circle class="cls-2" cx="428.32" cy="277.97" r="2.47"/><circle class="cls-2" cx="448.32" cy="277.97" r="2.47"/><circle class="cls-2" cx="468.32" cy="277.97" r="2.47"/><circle class="cls-2" cx="458.32" cy="277.97" r="2.47"/><circle class="cls-2" cx="478.32" cy="277.97" r="2.47"/><circle class="cls-2" cx="498.32" cy="277.97" r="2.47"/><circle class="cls-2" cx="488.32" cy="277.97" r="2.47"/><circle class="cls-2" cx="508.32" cy="277.97" r="2.47"/><circle class="cls-2" cx="528.32" cy="277.97" r="2.47"/><circle class="cls-2" cx="538.32" cy="277.97" r="2.47"/><circle class="cls-2" cx="548.32" cy="277.97" r="2.47"/><circle class="cls-2" cx="518.32" cy="277.97" r="2.47"/><circle class="cls-2" cx="558.32" cy="277.97" r="2.47"/><circle class="cls-2" cx="578.32" cy="277.97" r="2.47"/><circle class="cls-2" cx="568.32" cy="277.97" r="2.47"/><circle class="cls-2" cx="588.32" cy="277.97" r="2.47"/><circle class="cls-2" cx="608.32" cy="277.97" r="2.47"/><circle class="cls-2" cx="598.32" cy="277.97" r="2.47"/><circle class="cls-2" cx="618.32" cy="277.97" r="2.47"/><circle class="cls-2" cx="138.32" cy="277.97" r="2.47"/><circle class="cls-2" cx="128.32" cy="277.97" r="2.47"/><circle class="cls-2" cx="118.32" cy="277.97" r="2.47"/><circle class="cls-2" cx="148.32" cy="277.97" r="2.47"/><circle class="cls-2" cx="168.32" cy="277.97" r="2.47"/><circle class="cls-2" cx="158.32" cy="277.97" r="2.47"/><circle class="cls-2" cx="178.32" cy="277.97" r="2.47"/><circle class="cls-2" cx="198.32" cy="277.97" r="2.47"/><circle class="cls-2" cx="188.32" cy="277.97" r="2.47"/><circle class="cls-2" cx="228.32" cy="277.97" r="2.47"/><circle class="cls-2" cx="218.32" cy="277.97" r="2.47"/><circle class="cls-2" cx="208.32" cy="277.97" r="2.47"/><circle class="cls-2" cx="248.32" cy="277.97" r="2.47"/><circle class="cls-2" cx="238.32" cy="277.97" r="2.47"/><circle class="cls-2" cx="258.32" cy="277.97" r="2.47"/><circle class="cls-2" cx="278.32" cy="277.97" r="2.47"/><circle class="cls-2" cx="268.32" cy="277.97" r="2.47"/><circle class="cls-2" cx="288.32" cy="277.97" r="2.47"/><circle class="cls-2" cx="308.32" cy="277.97" r="2.47"/><circle class="cls-2" cx="298.32" cy="277.97" r="2.47"/><circle class="cls-2" cx="318.32" cy="277.97" r="2.47"/><circle class="cls-2" cx="348.32" cy="277.97" r="2.47"/><circle class="cls-2" cx="338.32" cy="277.97" r="2.47"/><circle class="cls-2" cx="328.32" cy="277.97" r="2.47"/><circle class="cls-2" cx="358.32" cy="277.97" r="2.47"/><circle class="cls-2" cx="368.32" cy="277.97" r="2.47"/><circle class="cls-2" cx="618.32" cy="277.97" r="2.47"/><circle class="cls-2" cx="628.32" cy="277.97" r="2.47"/><circle class="cls-2" cx="628.32" cy="277.97" r="2.47"/><circle class="cls-2" cx="638.32" cy="277.97" r="2.47"/><circle class="cls-2" cx="638.32" cy="277.97" r="2.47"/><circle class="cls-2" cx="648.32" cy="277.97" r="2.47"/><circle class="cls-2" cx="648.32" cy="277.97" r="2.47"/><circle class="cls-2" cx="658.32" cy="277.97" r="2.47"/><circle class="cls-2" cx="668.32" cy="277.97" r="2.47"/><circle class="cls-2" cx="678.32" cy="277.97" r="2.47"/><circle class="cls-2" cx="678.32" cy="277.97" r="2.47"/><circle class="cls-2" cx="108.32" cy="277.97" r="2.47"/><circle class="cls-2" cx="108.32" cy="277.97" r="2.47"/><circle class="cls-2" cx="98.32" cy="277.97" r="2.47"/><circle class="cls-2" cx="88.32" cy="277.97" r="2.47"/><circle class="cls-2" cx="78.32" cy="277.97" r="2.47"/><circle class="cls-2" cx="178.32" cy="277.97" r="2.47"/><circle class="cls-2" cx="378.32" cy="297.97" r="2.47"/><circle class="cls-2" cx="378.32" cy="287.97" r="2.47"/><circle class="cls-2" cx="78.32" cy="297.97" r="2.47"/><circle class="cls-2" cx="78.32" cy="287.97" r="2.47"/><circle class="cls-2" cx="78.32" cy="317.97" r="2.47"/><circle class="cls-2" cx="78.32" cy="307.97" r="2.47"/><circle class="cls-2" cx="78.32" cy="337.97" r="2.47"/><circle class="cls-2" cx="78.32" cy="327.97" r="2.47"/><circle class="cls-2" cx="78.32" cy="357.97" r="2.47"/><circle class="cls-2" cx="78.32" cy="347.97" r="2.47"/><circle class="cls-2" cx="78.32" cy="367.97" r="2.47"/><circle class="cls-2" cx="478.32" cy="297.97" r="2.47"/><circle class="cls-2" cx="478.32" cy="287.97" r="2.47"/><circle class="cls-2" cx="478.32" cy="317.97" r="2.47"/><circle class="cls-2" cx="478.32" cy="307.97" r="2.47"/><circle class="cls-2" cx="478.32" cy="337.97" r="2.47"/><circle class="cls-2" cx="478.32" cy="327.97" r="2.47"/><circle class="cls-2" cx="478.32" cy="357.97" r="2.47"/><circle class="cls-2" cx="478.32" cy="347.97" r="2.47"/><circle class="cls-2" cx="478.32" cy="367.97" r="2.47"/><circle class="cls-2" cx="178.32" cy="297.97" r="2.47"/><circle class="cls-2" cx="178.32" cy="287.97" r="2.47"/><path class="cls-1" d="M209.53,156.54a4.92,4.92,0,0,1-1.4,3.78,5.73,5.73,0,0,1-4.06,1.31h-2.83v-10h3.14a5.28,5.28,0,0,1,3.8,1.29A4.75,4.75,0,0,1,209.53,156.54Zm-2.2.05q0-3.22-2.84-3.22h-1.13v6.51h.91Q207.33,159.88,207.33,156.6Z"/><path class="cls-1" d="M216.15,161.63l-.4-1h-.05a3.08,3.08,0,0,1-1.08.92,3.5,3.5,0,0,1-1.45.26,2.35,2.35,0,0,1-1.73-.63,2.42,2.42,0,0,1-.63-1.79,2,2,0,0,1,.85-1.79,4.93,4.93,0,0,1,2.57-.64l1.33,0v-.33a1,1,0,0,0-1.19-1.16,5.42,5.42,0,0,0-2.15.55l-.69-1.41a6.21,6.21,0,0,1,2.93-.69,3.64,3.64,0,0,1,2.36.67,2.48,2.48,0,0,1,.82,2v5.09Zm-.62-3.54-.81,0a2.58,2.58,0,0,0-1.35.33,1,1,0,0,0-.44.92q0,.88,1,.88a1.6,1.6,0,0,0,1.16-.42,1.46,1.46,0,0,0,.43-1.11Z"/><path class="cls-1" d="M221.35,161.63,218.44,154h2.18l1.48,4.35a7.77,7.77,0,0,1,.31,1.57h0a6.82,6.82,0,0,1,.31-1.57l1.47-4.35h2.18l-2.91,7.64Z"/><path class="cls-1" d="M227.47,152q0-1,1.13-1t1.13,1a1,1,0,0,1-.28.76,1.19,1.19,0,0,1-.85.27Q227.47,153,227.47,152Zm2.17,9.62h-2.08V154h2.08Z"/><path class="cls-1" d="M234.22,161.77a2.48,2.48,0,0,1-2.12-1,5.86,5.86,0,0,1,0-5.83,2.54,2.54,0,0,1,2.16-1,2.49,2.49,0,0,1,2.2,1.12h.07a8.51,8.51,0,0,1-.16-1.52V151h2.09v10.64h-1.6l-.4-1h-.09A2.39,2.39,0,0,1,234.22,161.77Zm.73-1.66a1.41,1.41,0,0,0,1.17-.46,2.7,2.7,0,0,0,.41-1.58v-.23a3.12,3.12,0,0,0-.38-1.76,1.41,1.41,0,0,0-1.23-.53,1.22,1.22,0,0,0-1.08.59,3.16,3.16,0,0,0-.39,1.72,3,3,0,0,0,.39,1.69A1.27,1.27,0,0,0,235,160.11Z"/><path class="cls-1" d="M244.46,151.64h3.11a6,6,0,0,1,3.09.6,2.11,2.11,0,0,1,1,1.92,2.42,2.42,0,0,1-.42,1.47,1.68,1.68,0,0,1-1.12.69v.07a2.2,2.2,0,0,1,1.37.79,2.58,2.58,0,0,1,.42,1.54,2.54,2.54,0,0,1-1,2.13,4.27,4.27,0,0,1-2.68.77h-3.74Zm2.12,4h1.23a2.25,2.25,0,0,0,1.25-.27,1,1,0,0,0,.39-.88.88.88,0,0,0-.42-.82,2.7,2.7,0,0,0-1.33-.25h-1.11Zm0,1.68v2.6H248a2,2,0,0,0,1.29-.33,1.24,1.24,0,0,0,.42-1q0-1.24-1.78-1.24Z"/><path class="cls-1" d="M259.12,161.63l-.28-1h-.11a2.2,2.2,0,0,1-1,.82,3.24,3.24,0,0,1-1.4.29,2.67,2.67,0,0,1-2-.72,2.9,2.9,0,0,1-.68-2.07v-5h2.08v4.46a2.15,2.15,0,0,0,.29,1.24,1.07,1.07,0,0,0,.94.41,1.41,1.41,0,0,0,1.26-.58,3.62,3.62,0,0,0,.39-1.94V154h2.08v7.64Z"/><path class="cls-1" d="M267.06,153.85a3.36,3.36,0,0,1,.7.06l-.16,2a2.39,2.39,0,0,0-.62-.07,2.21,2.21,0,0,0-1.56.51,1.85,1.85,0,0,0-.56,1.44v3.89h-2.08V154h1.58l.31,1.29h.1a2.87,2.87,0,0,1,1-1A2.37,2.37,0,0,1,267.06,153.85Z"/><path class="cls-1" d="M271.07,157.48l.91-1.16,2.14-2.32h2.35l-3,3.32,3.22,4.33h-2.41l-2.2-3.1-.9.72v2.38h-2.08V151h2.08v4.74l-.11,1.74Z"/><path class="cls-1" d="M194.12,185.63l-1.07-2.72h-3.43l-1.05,2.72h-1l3.39-8.6h.84l3.37,8.6ZM192.74,182l-1-2.65q-.19-.5-.4-1.24a11.1,11.1,0,0,1-.37,1.24L190,182Z"/><path class="cls-1" d="M200.69,183.88a1.61,1.61,0,0,1-.67,1.38,3.14,3.14,0,0,1-1.87.49,4.08,4.08,0,0,1-2-.4v-.9a4.82,4.82,0,0,0,1,.37,4.15,4.15,0,0,0,1,.13,2.32,2.32,0,0,0,1.17-.24.84.84,0,0,0,.08-1.38,5.12,5.12,0,0,0-1.27-.63,6.88,6.88,0,0,1-1.27-.58,1.74,1.74,0,0,1-.56-.57,1.47,1.47,0,0,1-.18-.76,1.44,1.44,0,0,1,.64-1.24,3,3,0,0,1,1.75-.45,5.13,5.13,0,0,1,2,.42l-.35.79a4.65,4.65,0,0,0-1.75-.4,2,2,0,0,0-1,.22.67.67,0,0,0-.35.6.73.73,0,0,0,.13.44,1.3,1.3,0,0,0,.42.35,9.49,9.49,0,0,0,1.13.47,4.2,4.2,0,0,1,1.54.84A1.48,1.48,0,0,1,200.69,183.88Z"/><path class="cls-1" d="M206.47,183.88a1.61,1.61,0,0,1-.67,1.38,3.14,3.14,0,0,1-1.87.49,4.08,4.08,0,0,1-2-.4v-.9a4.82,4.82,0,0,0,1,.37,4.15,4.15,0,0,0,1,.13,2.32,2.32,0,0,0,1.17-.24.84.84,0,0,0,.08-1.38,5.12,5.12,0,0,0-1.27-.63,6.88,6.88,0,0,1-1.27-.58,1.74,1.74,0,0,1-.56-.57,1.47,1.47,0,0,1-.18-.76,1.44,1.44,0,0,1,.64-1.24,3,3,0,0,1,1.75-.45,5.13,5.13,0,0,1,2,.42l-.35.79a4.65,4.65,0,0,0-1.75-.4,2,2,0,0,0-1,.22.67.67,0,0,0-.35.6.73.73,0,0,0,.13.44,1.3,1.3,0,0,0,.42.35,9.49,9.49,0,0,0,1.13.47,4.2,4.2,0,0,1,1.54.84A1.48,1.48,0,0,1,206.47,183.88Z"/><path class="cls-1" d="M213.6,182.42a3.54,3.54,0,0,1-.79,2.45,2.79,2.79,0,0,1-2.19.88,2.89,2.89,0,0,1-1.53-.4,2.67,2.67,0,0,1-1-1.16,4,4,0,0,1-.36-1.77,3.54,3.54,0,0,1,.79-2.45,2.78,2.78,0,0,1,2.18-.88,2.72,2.72,0,0,1,2.14.9A3.53,3.53,0,0,1,213.6,182.42Zm-4.89,0a3,3,0,0,0,.49,1.88,2,2,0,0,0,2.9,0,3,3,0,0,0,.5-1.88,3,3,0,0,0-.5-1.86,1.74,1.74,0,0,0-1.46-.64,1.71,1.71,0,0,0-1.44.63A3,3,0,0,0,208.71,182.42Z"/><path class="cls-1" d="M217.88,185.75a2.74,2.74,0,0,1-2.16-.86,3.53,3.53,0,0,1-.76-2.43,3.64,3.64,0,0,1,.78-2.49,2.8,2.8,0,0,1,2.21-.88,4.39,4.39,0,0,1,.93.1,3,3,0,0,1,.73.23l-.3.83a4.57,4.57,0,0,0-.7-.21,3.14,3.14,0,0,0-.67-.08q-2,0-2,2.5a3,3,0,0,0,.48,1.82,1.66,1.66,0,0,0,1.42.63,4.33,4.33,0,0,0,1.65-.35v.86A3.51,3.51,0,0,1,217.88,185.75Z"/><path class="cls-1" d="M220.9,177.47a.65.65,0,0,1,.16-.49.61.61,0,0,1,.81,0,.63.63,0,0,1,.17.49.64.64,0,0,1-.17.49.6.6,0,0,1-.81,0A.66.66,0,0,1,220.9,177.47Zm1.05,8.16h-1v-6.42h1Z"/><path class="cls-1" d="M227.86,185.63l-.19-.91h0a2.7,2.7,0,0,1-1,.82,2.92,2.92,0,0,1-1.19.21,2.14,2.14,0,0,1-1.5-.49,1.8,1.8,0,0,1-.54-1.4q0-1.95,3.11-2l1.09,0v-.4a1.63,1.63,0,0,0-.33-1.12,1.34,1.34,0,0,0-1-.36,4.24,4.24,0,0,0-1.82.49l-.3-.74a4.57,4.57,0,0,1,1-.4,4.5,4.5,0,0,1,1.13-.15,2.45,2.45,0,0,1,1.7.51,2.13,2.13,0,0,1,.55,1.63v4.38Zm-2.2-.69a2,2,0,0,0,1.43-.5,1.84,1.84,0,0,0,.52-1.39v-.58l-1,0a3.54,3.54,0,0,0-1.67.36,1.09,1.09,0,0,0-.51,1,1,1,0,0,0,.32.8A1.33,1.33,0,0,0,225.66,184.95Z"/><path class="cls-1" d="M232.65,184.95a3.18,3.18,0,0,0,.5,0l.38-.08v.74a1.78,1.78,0,0,1-.47.13,3.5,3.5,0,0,1-.55,0q-1.86,0-1.86-2V180h-.92v-.47l.92-.4.41-1.37h.56v1.49h1.86V180h-1.86v3.78a1.3,1.3,0,0,0,.28.89A1,1,0,0,0,232.65,184.95Z"/><path class="cls-1" d="M237.43,185.75a3,3,0,0,1-2.25-.87,3.36,3.36,0,0,1-.82-2.41,3.72,3.72,0,0,1,.76-2.47,2.54,2.54,0,0,1,2.05-.91,2.42,2.42,0,0,1,1.91.79,3,3,0,0,1,.7,2.09v.62h-4.42a2.55,2.55,0,0,0,.57,1.72,2,2,0,0,0,1.53.59,5.17,5.17,0,0,0,2.05-.43v.87a5.15,5.15,0,0,1-1,.32A5.48,5.48,0,0,1,237.43,185.75Zm-.26-5.84a1.59,1.59,0,0,0-1.23.5,2.32,2.32,0,0,0-.54,1.39h3.36a2.14,2.14,0,0,0-.41-1.41A1.44,1.44,0,0,0,237.16,179.91Z"/><path class="cls-1" d="M251.55,181.27a4.32,4.32,0,0,1-1.15,3.24,4.56,4.56,0,0,1-3.31,1.12h-2.37v-8.57h2.63a3.85,3.85,0,0,1,4.21,4.2Zm-1.05,0a3.45,3.45,0,0,0-.84-2.53,3.37,3.37,0,0,0-2.5-.85h-1.45v6.84h1.21a3.69,3.69,0,0,0,2.68-.88A3.47,3.47,0,0,0,250.49,181.3Z"/><path class="cls-1" d="M253.22,177.47a.65.65,0,0,1,.16-.49.61.61,0,0,1,.81,0,.63.63,0,0,1,.17.49.64.64,0,0,1-.17.49.6.6,0,0,1-.81,0A.66.66,0,0,1,253.22,177.47Zm1.05,8.16h-1v-6.42h1Z"/><path class="cls-1" d="M259.17,179.09a3.81,3.81,0,0,1,.77.07l-.13.9a3.31,3.31,0,0,0-.7-.09,1.71,1.71,0,0,0-1.33.63,2.31,2.31,0,0,0-.55,1.58v3.45h-1v-6.42h.8l.11,1.19h0a2.82,2.82,0,0,1,.86-1A1.94,1.94,0,0,1,259.17,179.09Z"/><path class="cls-1" d="M263.75,185.75a3,3,0,0,1-2.25-.87,3.36,3.36,0,0,1-.82-2.41,3.72,3.72,0,0,1,.76-2.47,2.54,2.54,0,0,1,2.05-.91,2.42,2.42,0,0,1,1.91.79,3,3,0,0,1,.7,2.09v.62h-4.42a2.55,2.55,0,0,0,.57,1.72,2,2,0,0,0,1.53.59,5.17,5.17,0,0,0,2.05-.43v.87a5.15,5.15,0,0,1-1,.32A5.48,5.48,0,0,1,263.75,185.75Zm-.26-5.84a1.59,1.59,0,0,0-1.23.5,2.32,2.32,0,0,0-.54,1.39h3.36a2.14,2.14,0,0,0-.41-1.41A1.44,1.44,0,0,0,263.49,179.91Z"/><path class="cls-1" d="M270.36,185.75a2.74,2.74,0,0,1-2.16-.86,3.53,3.53,0,0,1-.76-2.43,3.64,3.64,0,0,1,.78-2.49,2.8,2.8,0,0,1,2.21-.88,4.39,4.39,0,0,1,.93.1,3,3,0,0,1,.73.23l-.3.83a4.57,4.57,0,0,0-.7-.21,3.14,3.14,0,0,0-.67-.08q-2,0-2,2.5a3,3,0,0,0,.48,1.82,1.66,1.66,0,0,0,1.42.63,4.33,4.33,0,0,0,1.65-.35v.86A3.51,3.51,0,0,1,270.36,185.75Z"/><path class="cls-1" d="M276,184.95a3.18,3.18,0,0,0,.5,0l.38-.08v.74a1.78,1.78,0,0,1-.47.13,3.5,3.5,0,0,1-.55,0q-1.86,0-1.86-2V180H273v-.47l.92-.4.41-1.37h.56v1.49h1.86V180h-1.86v3.78a1.3,1.3,0,0,0,.28.89A1,1,0,0,0,276,184.95Z"/><path class="cls-1" d="M283.56,182.42a3.54,3.54,0,0,1-.79,2.45,2.79,2.79,0,0,1-2.19.88,2.89,2.89,0,0,1-1.53-.4,2.67,2.67,0,0,1-1-1.16,4,4,0,0,1-.36-1.77,3.54,3.54,0,0,1,.79-2.45,2.78,2.78,0,0,1,2.18-.88,2.72,2.72,0,0,1,2.14.9A3.53,3.53,0,0,1,283.56,182.42Zm-4.89,0a3,3,0,0,0,.49,1.88,2,2,0,0,0,2.9,0,3,3,0,0,0,.5-1.88,3,3,0,0,0-.5-1.86,1.74,1.74,0,0,0-1.46-.64,1.71,1.71,0,0,0-1.44.63A3,3,0,0,0,278.67,182.42Z"/><path class="cls-1" d="M288.15,179.09a3.81,3.81,0,0,1,.77.07l-.13.9a3.31,3.31,0,0,0-.7-.09,1.71,1.71,0,0,0-1.33.63,2.31,2.31,0,0,0-.55,1.58v3.45h-1v-6.42h.8l.11,1.19h0a2.82,2.82,0,0,1,.86-1A1.94,1.94,0,0,1,288.15,179.09Z"/><path class="cls-1" d="M179,200.63v-8.57h1v7.66h3.78v.9Z"/><path class="cls-1" d="M190.35,198.35a2.1,2.1,0,0,1-.82,1.76,3.56,3.56,0,0,1-2.23.63,5.58,5.58,0,0,1-2.34-.39v-1a6.17,6.17,0,0,0,1.15.35,6,6,0,0,0,1.23.13,2.48,2.48,0,0,0,1.5-.38,1.24,1.24,0,0,0,.5-1.05,1.35,1.35,0,0,0-.18-.73,1.66,1.66,0,0,0-.6-.52,8.36,8.36,0,0,0-1.27-.54,4.07,4.07,0,0,1-1.71-1,2.24,2.24,0,0,1-.51-1.53,1.9,1.9,0,0,1,.74-1.58,3.09,3.09,0,0,1,2-.59,5.8,5.8,0,0,1,2.35.47l-.31.87a5.31,5.31,0,0,0-2.06-.45,2,2,0,0,0-1.24.34,1.12,1.12,0,0,0-.45.94,1.45,1.45,0,0,0,.16.73,1.54,1.54,0,0,0,.55.52,6.88,6.88,0,0,0,1.19.52,4.72,4.72,0,0,1,1.85,1A2,2,0,0,1,190.35,198.35Z"/><path class="cls-1" d="M198.47,192.07v5.54a3,3,0,0,1-.88,2.3,3.39,3.39,0,0,1-2.43.84,3.24,3.24,0,0,1-2.39-.84,3.13,3.13,0,0,1-.85-2.32v-5.52h1v5.59a2.2,2.2,0,0,0,.59,1.65,2.36,2.36,0,0,0,1.72.57,2.28,2.28,0,0,0,1.67-.58,2.22,2.22,0,0,0,.59-1.66v-5.58Z"/><path class="cls-1" d="M203.85,192.07h2.42a4.57,4.57,0,0,1,2.47.51,1.8,1.8,0,0,1,.76,1.61,1.86,1.86,0,0,1-.42,1.26,2,2,0,0,1-1.24.64v.06q2,.33,2,2.05A2.2,2.2,0,0,1,209,200a3.3,3.3,0,0,1-2.17.64h-3Zm1,3.67h1.64a2.67,2.67,0,0,0,1.52-.33,1.28,1.28,0,0,0,.46-1.12,1.13,1.13,0,0,0-.52-1,3.22,3.22,0,0,0-1.64-.32h-1.46Zm0,.84v3.21h1.79a2.55,2.55,0,0,0,1.56-.4,1.48,1.48,0,0,0,.52-1.26,1.33,1.33,0,0,0-.54-1.17,2.87,2.87,0,0,0-1.63-.37Z"/><path class="cls-1" d="M211.4,192.47a.65.65,0,0,1,.16-.49.61.61,0,0,1,.81,0,.63.63,0,0,1,.17.49.64.64,0,0,1-.17.49.6.6,0,0,1-.81,0A.66.66,0,0,1,211.4,192.47Zm1.05,8.16h-1v-6.42h1Z"/><path class="cls-1" d="M220,197.42a3.54,3.54,0,0,1-.79,2.45,2.79,2.79,0,0,1-2.19.88,2.89,2.89,0,0,1-1.53-.4,2.67,2.67,0,0,1-1-1.16,4,4,0,0,1-.36-1.77,3.54,3.54,0,0,1,.79-2.45,2.78,2.78,0,0,1,2.18-.88,2.72,2.72,0,0,1,2.14.9A3.53,3.53,0,0,1,220,197.42Zm-4.89,0a3,3,0,0,0,.49,1.88,2,2,0,0,0,2.9,0,3,3,0,0,0,.5-1.88,3,3,0,0,0-.5-1.86,1.74,1.74,0,0,0-1.46-.64,1.71,1.71,0,0,0-1.44.63A3,3,0,0,0,215.08,197.42Z"/><path class="cls-1" d="M231.78,196.27a4.32,4.32,0,0,1-1.15,3.24,4.56,4.56,0,0,1-3.31,1.12h-2.37v-8.57h2.63a3.85,3.85,0,0,1,4.21,4.2Zm-1.05,0a3.45,3.45,0,0,0-.84-2.53,3.37,3.37,0,0,0-2.5-.85h-1.45v6.84h1.21a3.69,3.69,0,0,0,2.68-.88A3.47,3.47,0,0,0,230.73,196.3Z"/><path class="cls-1" d="M236.26,200.75a3,3,0,0,1-2.25-.87,3.36,3.36,0,0,1-.82-2.41A3.72,3.72,0,0,1,234,195a2.54,2.54,0,0,1,2.05-.91,2.42,2.42,0,0,1,1.91.79,3,3,0,0,1,.7,2.09v.62h-4.42a2.55,2.55,0,0,0,.57,1.72,2,2,0,0,0,1.53.59,5.17,5.17,0,0,0,2.05-.43v.87a5.15,5.15,0,0,1-1,.32A5.48,5.48,0,0,1,236.26,200.75Zm-.26-5.84a1.59,1.59,0,0,0-1.23.5,2.32,2.32,0,0,0-.54,1.39h3.36a2.14,2.14,0,0,0-.41-1.41A1.44,1.44,0,0,0,236,194.91Z"/><path class="cls-1" d="M243.23,200.75a2.78,2.78,0,0,1-1.15-.23,2.15,2.15,0,0,1-.87-.71h-.07a8.61,8.61,0,0,1,.07,1.07v2.64h-1v-9.3H241l.13.88h0a2.26,2.26,0,0,1,.87-.76,2.65,2.65,0,0,1,1.14-.23,2.37,2.37,0,0,1,2,.87,4.65,4.65,0,0,1,0,4.91A2.38,2.38,0,0,1,243.23,200.75Zm-.14-5.83a1.72,1.72,0,0,0-1.42.54,2.8,2.8,0,0,0-.45,1.73v.22a3.21,3.21,0,0,0,.45,1.94,1.72,1.72,0,0,0,1.45.58,1.5,1.5,0,0,0,1.3-.67,3.2,3.2,0,0,0,.47-1.86,3.08,3.08,0,0,0-.47-1.84A1.55,1.55,0,0,0,243.08,194.92Z"/><path class="cls-1" d="M249.63,199.95a3.18,3.18,0,0,0,.5,0l.38-.08v.74a1.78,1.78,0,0,1-.47.13,3.5,3.5,0,0,1-.55,0q-1.86,0-1.86-2V195h-.92v-.47l.92-.4.41-1.37h.56v1.49h1.86V195h-1.86v3.78a1.3,1.3,0,0,0,.28.89A1,1,0,0,0,249.63,199.95Z"/><path class="cls-1" d="M251.78,200a.87.87,0,0,1,.18-.59.65.65,0,0,1,.51-.2.69.69,0,0,1,.53.2.84.84,0,0,1,.19.59.82.82,0,0,1-.19.59.77.77,0,0,1-1,0A.8.8,0,0,1,251.78,200Z"/><path class="cls-1" d="M257.87,198.41a2.3,2.3,0,0,1,.41-1.35,4.41,4.41,0,0,1,1.46-1.18,7,7,0,0,1-.68-.84,2.88,2.88,0,0,1-.28-.6,2,2,0,0,1-.11-.64,1.71,1.71,0,0,1,.57-1.37,2.38,2.38,0,0,1,1.6-.49,2.16,2.16,0,0,1,1.49.49,1.74,1.74,0,0,1,.54,1.36,1.89,1.89,0,0,1-.4,1.16,4.52,4.52,0,0,1-1.32,1.08l2.38,2.29a2.83,2.83,0,0,0,.52-.85,7.32,7.32,0,0,0,.33-1.07h1a5.6,5.6,0,0,1-1.2,2.54l1.75,1.71H264.6l-1.08-1a4.16,4.16,0,0,1-3,1.16,2.83,2.83,0,0,1-2-.62A2.19,2.19,0,0,1,257.87,198.41Zm2.67,1.46a3.23,3.23,0,0,0,2.34-.9l-2.56-2.48a5.67,5.67,0,0,0-.92.66,1.74,1.74,0,0,0-.4.56,1.7,1.7,0,0,0-.13.68,1.38,1.38,0,0,0,.45,1.09A1.76,1.76,0,0,0,260.54,199.88Zm-.91-6.11a1.52,1.52,0,0,0,.21.77,4.67,4.67,0,0,0,.72.88,3.82,3.82,0,0,0,1.05-.81,1.34,1.34,0,0,0,.3-.86,1,1,0,0,0-.3-.74,1.13,1.13,0,0,0-.81-.28,1.25,1.25,0,0,0-.85.28A1,1,0,0,0,259.63,193.77Z"/><path class="cls-1" d="M275.69,194.56a2.4,2.4,0,0,1-.89,2,4,4,0,0,1-2.54.7h-1v3.37h-1v-8.57h2.22Q275.69,192.07,275.69,194.56Zm-4.44,1.85h.9a3.33,3.33,0,0,0,1.92-.43,1.58,1.58,0,0,0,.59-1.37,1.48,1.48,0,0,0-.56-1.27,2.91,2.91,0,0,0-1.73-.42h-1.11Z"/><path class="cls-1" d="M277.32,192.07h2.42a4.57,4.57,0,0,1,2.47.51,1.8,1.8,0,0,1,.76,1.61,1.86,1.86,0,0,1-.42,1.26,2,2,0,0,1-1.24.64v.06q2,.33,2,2.05a2.2,2.2,0,0,1-.78,1.79,3.3,3.3,0,0,1-2.17.64h-3Zm1,3.67H280a2.67,2.67,0,0,0,1.52-.33,1.28,1.28,0,0,0,.46-1.12,1.13,1.13,0,0,0-.52-1,3.22,3.22,0,0,0-1.64-.32h-1.46Zm0,.84v3.21h1.79a2.55,2.55,0,0,0,1.56-.4,1.48,1.48,0,0,0,.52-1.26,1.33,1.33,0,0,0-.54-1.17,2.87,2.87,0,0,0-1.63-.37Z"/><path class="cls-1" d="M286.11,197.07v3.56h-1v-8.57h2.35a3.7,3.7,0,0,1,2.33.6,2.19,2.19,0,0,1,.75,1.82,2.28,2.28,0,0,1-1.72,2.3l2.33,3.85H290l-2.07-3.56Zm0-.86h1.37a2.36,2.36,0,0,0,1.55-.42,1.56,1.56,0,0,0,.49-1.26,1.43,1.43,0,0,0-.5-1.22,2.71,2.71,0,0,0-1.61-.37h-1.29Z"/><path class="cls-1" d="M296.1,192.83a2.8,2.8,0,0,0-2.23.94,3.79,3.79,0,0,0-.82,2.58,3.87,3.87,0,0,0,.79,2.6,2.8,2.8,0,0,0,2.25.92,7.68,7.68,0,0,0,2-.32v.87a6.3,6.3,0,0,1-2.2.33A3.72,3.72,0,0,1,293,199.6a4.73,4.73,0,0,1-1-3.26,5.15,5.15,0,0,1,.5-2.32,3.55,3.55,0,0,1,1.43-1.54,4.33,4.33,0,0,1,2.2-.54,5.31,5.31,0,0,1,2.36.49l-.42.86A4.54,4.54,0,0,0,296.1,192.83Z"/><circle class="cls-2" cx="238.32" cy="169.97" r="2.47"/><line class="cls-3" x1="183.18" y1="169.97" x2="229.39" y2="169.97"/><line class="cls-3" x1="247.26" y1="169.97" x2="293.46" y2="169.97"/><path class="cls-1" d="M188.68,385.73v3.83h-2.12v-10h2.91a5,5,0,0,1,3,.74,3,3,0,0,1,.49,3.82,3.21,3.21,0,0,1-1.37,1.08q2.26,3.37,2.94,4.35h-2.35l-2.39-3.83Zm0-1.72h.68a2.61,2.61,0,0,0,1.48-.34,1.2,1.2,0,0,0,.48-1.05,1.09,1.09,0,0,0-.49-1,3,3,0,0,0-1.51-.3h-.64Z"/><path class="cls-1" d="M198.92,389.7a4,4,0,0,1-2.88-1,3.86,3.86,0,0,1-1-2.88,4.24,4.24,0,0,1,1-3,3.42,3.42,0,0,1,2.66-1,3.37,3.37,0,0,1,2.52.92,3.49,3.49,0,0,1,.9,2.55v1h-4.93a2,2,0,0,0,.53,1.39,1.85,1.85,0,0,0,1.38.5,5.73,5.73,0,0,0,1.31-.14,6.57,6.57,0,0,0,1.29-.46v1.61a4.93,4.93,0,0,1-1.17.41A7.37,7.37,0,0,1,198.92,389.7Zm-.29-6.44a1.32,1.32,0,0,0-1,.42,2,2,0,0,0-.43,1.19h2.93a1.74,1.74,0,0,0-.4-1.19A1.37,1.37,0,0,0,198.63,383.26Z"/><path class="cls-1" d="M208,381.78a2.47,2.47,0,0,1,2.12,1.06,4.85,4.85,0,0,1,.77,2.9,4.76,4.76,0,0,1-.79,2.93,2.76,2.76,0,0,1-4.26.06h-.14l-.35.84h-1.59V378.93h2.08v2.47q0,.47-.08,1.51h.08A2.41,2.41,0,0,1,208,381.78Zm-.67,1.67a1.32,1.32,0,0,0-1.13.47,2.73,2.73,0,0,0-.37,1.57v.23a3.22,3.22,0,0,0,.37,1.76,1.3,1.3,0,0,0,1.16.53,1.16,1.16,0,0,0,1-.59,3.2,3.2,0,0,0,.38-1.72,3,3,0,0,0-.38-1.69A1.2,1.2,0,0,0,207.33,383.45Z"/><path class="cls-1" d="M216.12,389.7a4,4,0,0,1-2.88-1,3.86,3.86,0,0,1-1-2.88,4.24,4.24,0,0,1,1-3,3.42,3.42,0,0,1,2.66-1,3.37,3.37,0,0,1,2.52.92,3.49,3.49,0,0,1,.9,2.55v1h-4.93a2,2,0,0,0,.53,1.39,1.85,1.85,0,0,0,1.38.5,5.73,5.73,0,0,0,1.31-.14,6.57,6.57,0,0,0,1.29-.46v1.61a4.93,4.93,0,0,1-1.17.41A7.37,7.37,0,0,1,216.12,389.7Zm-.29-6.44a1.32,1.32,0,0,0-1,.42,2,2,0,0,0-.43,1.19h2.93a1.74,1.74,0,0,0-.4-1.19A1.37,1.37,0,0,0,215.82,383.26Z"/><path class="cls-1" d="M224.09,389.7q-3.57,0-3.57-3.92a4.18,4.18,0,0,1,1-3,3.64,3.64,0,0,1,2.78-1,5.3,5.3,0,0,1,2.38.52l-.62,1.61c-.33-.13-.63-.24-.92-.33a2.93,2.93,0,0,0-.85-.13q-1.63,0-1.63,2.31t1.63,2.24a3.73,3.73,0,0,0,1.11-.16,4,4,0,0,0,1-.5v1.79a3.37,3.37,0,0,1-1,.44A5.75,5.75,0,0,1,224.09,389.7Z"/><path class="cls-1" d="M231.19,389.7q-3.57,0-3.57-3.92a4.18,4.18,0,0,1,1-3,3.64,3.64,0,0,1,2.78-1,5.3,5.3,0,0,1,2.38.52l-.62,1.61c-.33-.13-.63-.24-.92-.33a2.93,2.93,0,0,0-.85-.13q-1.63,0-1.63,2.31t1.63,2.24a3.73,3.73,0,0,0,1.11-.16,4,4,0,0,0,1-.5v1.79a3.37,3.37,0,0,1-1,.44A5.75,5.75,0,0,1,231.19,389.7Z"/><path class="cls-1" d="M240.13,389.57l-.4-1h-.05a3.08,3.08,0,0,1-1.08.92,3.5,3.5,0,0,1-1.45.26,2.35,2.35,0,0,1-1.73-.63,2.41,2.41,0,0,1-.63-1.79,2,2,0,0,1,.85-1.79,4.92,4.92,0,0,1,2.57-.64l1.33,0v-.33a1,1,0,0,0-1.19-1.16,5.42,5.42,0,0,0-2.15.55l-.69-1.41a6.22,6.22,0,0,1,2.93-.69,3.64,3.64,0,0,1,2.36.67,2.47,2.47,0,0,1,.82,2v5.09Zm-.62-3.54-.81,0a2.59,2.59,0,0,0-1.35.33,1,1,0,0,0-.44.92q0,.88,1,.88a1.6,1.6,0,0,0,1.16-.42,1.46,1.46,0,0,0,.43-1.11Z"/><path class="cls-1" d="M251.32,384h4v5.18a11.31,11.31,0,0,1-1.81.44,11.74,11.74,0,0,1-1.74.13,4.4,4.4,0,0,1-3.46-1.33,5.53,5.53,0,0,1-1.19-3.82,5,5,0,0,1,1.38-3.77,5.26,5.26,0,0,1,3.84-1.35,7.43,7.43,0,0,1,3,.62l-.7,1.7a5,5,0,0,0-2.28-.55,2.81,2.81,0,0,0-2.2.92,3.58,3.58,0,0,0-.83,2.48,4,4,0,0,0,.67,2.48,2.3,2.3,0,0,0,1.94.86,6.81,6.81,0,0,0,1.35-.14v-2.08h-1.89Z"/><path class="cls-1" d="M257.35,379.95q0-1,1.13-1t1.13,1a1,1,0,0,1-.28.75,1.19,1.19,0,0,1-.85.27Q257.35,381,257.35,379.95Zm2.17,9.62h-2.08v-7.64h2.08Z"/><path class="cls-1" d="M268.58,385.73a4.1,4.1,0,0,1-1,2.92,3.57,3.57,0,0,1-2.74,1.05,3.83,3.83,0,0,1-1.94-.48,3.21,3.21,0,0,1-1.29-1.38,4.65,4.65,0,0,1-.45-2.11,4.08,4.08,0,0,1,1-2.91,3.59,3.59,0,0,1,2.75-1,3.85,3.85,0,0,1,1.94.48,3.19,3.19,0,0,1,1.29,1.37A4.61,4.61,0,0,1,268.58,385.73Zm-5.28,0a3.2,3.2,0,0,0,.37,1.71,1.33,1.33,0,0,0,1.21.58,1.31,1.31,0,0,0,1.2-.58,3.25,3.25,0,0,0,.37-1.72,3.16,3.16,0,0,0-.37-1.7,1.57,1.57,0,0,0-2.41,0A3.15,3.15,0,0,0,263.29,385.73Z"/><path class="cls-1" d="M274.51,381.78a3.37,3.37,0,0,1,.7.06l-.16,2a2.42,2.42,0,0,0-.62-.07,2.21,2.21,0,0,0-1.56.51,1.85,1.85,0,0,0-.56,1.44v3.89h-2.08v-7.64h1.58l.31,1.29h.1a2.87,2.87,0,0,1,1-1A2.37,2.37,0,0,1,274.51,381.78Z"/><path class="cls-1" d="M283.58,389.57h-2.08V385.1a2.15,2.15,0,0,0-.29-1.24,1.07,1.07,0,0,0-.94-.41A1.41,1.41,0,0,0,279,384a3.62,3.62,0,0,0-.39,1.94v3.6h-2.08v-7.64h1.59l.28,1h.12a2.21,2.21,0,0,1,1-.84,3.27,3.27,0,0,1,1.39-.28,2.67,2.67,0,0,1,2,.72,2.89,2.89,0,0,1,.69,2.08Z"/><path class="cls-1" d="M292.61,385.73a4.1,4.1,0,0,1-1,2.92,3.57,3.57,0,0,1-2.74,1.05,3.83,3.83,0,0,1-1.94-.48,3.21,3.21,0,0,1-1.29-1.38,4.65,4.65,0,0,1-.45-2.11,4.08,4.08,0,0,1,1-2.91,3.59,3.59,0,0,1,2.75-1,3.85,3.85,0,0,1,1.94.48,3.19,3.19,0,0,1,1.29,1.37A4.61,4.61,0,0,1,292.61,385.73Zm-5.28,0a3.2,3.2,0,0,0,.37,1.71,1.33,1.33,0,0,0,1.21.58,1.31,1.31,0,0,0,1.2-.58,3.25,3.25,0,0,0,.37-1.72,3.16,3.16,0,0,0-.37-1.7,1.57,1.57,0,0,0-2.41,0A3.15,3.15,0,0,0,287.33,385.73Z"/><path class="cls-1" d="M294.18,386.67V385h3.67v1.71Z"/><path class="cls-1" d="M304.12,389.57l-2.41-7.84h-.06q.13,2.39.13,3.19v4.65h-1.89v-10h2.88l2.37,7.64h0l2.51-7.64h2.88v10h-2v-4.73c0-.22,0-.48,0-.77s0-1.07.09-2.32h-.06l-2.58,7.83Z"/><path class="cls-1" d="M316,389.7q-3.57,0-3.57-3.92a4.18,4.18,0,0,1,1-3,3.64,3.64,0,0,1,2.78-1,5.3,5.3,0,0,1,2.38.52l-.62,1.61c-.33-.13-.63-.24-.92-.33a2.93,2.93,0,0,0-.85-.13q-1.63,0-1.63,2.31t1.63,2.24a3.73,3.73,0,0,0,1.11-.16,4,4,0,0,0,1-.5v1.79a3.37,3.37,0,0,1-1,.44A5.75,5.75,0,0,1,316,389.7Z"/><path class="cls-1" d="M324.49,381.19a2.16,2.16,0,0,0-1.85.9,4.18,4.18,0,0,0-.66,2.51q0,3.34,2.51,3.34a7.94,7.94,0,0,0,2.55-.53v1.78a7.08,7.08,0,0,1-2.75.51,4.19,4.19,0,0,1-3.34-1.32,5.6,5.6,0,0,1-1.16-3.8,6.2,6.2,0,0,1,.57-2.73,4.1,4.1,0,0,1,1.63-1.8,4.82,4.82,0,0,1,2.49-.62,6.73,6.73,0,0,1,2.93.7l-.68,1.72a11.44,11.44,0,0,0-1.13-.46A3.37,3.37,0,0,0,324.49,381.19Z"/><path class="cls-1" d="M335.81,385.73a4.1,4.1,0,0,1-1,2.92,3.57,3.57,0,0,1-2.74,1.05,3.83,3.83,0,0,1-1.94-.48,3.21,3.21,0,0,1-1.29-1.38,4.65,4.65,0,0,1-.45-2.11,4.08,4.08,0,0,1,1-2.91,3.59,3.59,0,0,1,2.75-1,3.85,3.85,0,0,1,1.94.48,3.19,3.19,0,0,1,1.29,1.37A4.61,4.61,0,0,1,335.81,385.73Zm-5.28,0a3.2,3.2,0,0,0,.37,1.71,1.33,1.33,0,0,0,1.21.58,1.31,1.31,0,0,0,1.2-.58,3.25,3.25,0,0,0,.37-1.72,3.16,3.16,0,0,0-.37-1.7,1.57,1.57,0,0,0-2.41,0A3.15,3.15,0,0,0,330.53,385.73Z"/><path class="cls-1" d="M344.53,389.57h-2.08V385.1a2.14,2.14,0,0,0-.29-1.24,1.07,1.07,0,0,0-.94-.41A1.41,1.41,0,0,0,340,384a3.62,3.62,0,0,0-.39,1.94v3.6h-2.08v-7.64h1.59l.28,1h.12a2.21,2.21,0,0,1,1-.84,3.27,3.27,0,0,1,1.39-.28,2.67,2.67,0,0,1,2,.72,2.9,2.9,0,0,1,.69,2.08Z"/><path class="cls-1" d="M353.63,389.57h-2.08V385.1a2.14,2.14,0,0,0-.29-1.24,1.07,1.07,0,0,0-.94-.41,1.41,1.41,0,0,0-1.26.58,3.62,3.62,0,0,0-.39,1.94v3.6h-2.08v-7.64h1.59l.28,1h.12a2.21,2.21,0,0,1,1-.84,3.27,3.27,0,0,1,1.39-.28,2.67,2.67,0,0,1,2,.72,2.9,2.9,0,0,1,.69,2.08Z"/><path class="cls-1" d="M359.19,389.7a4,4,0,0,1-2.88-1,3.86,3.86,0,0,1-1-2.88,4.24,4.24,0,0,1,1-3,3.42,3.42,0,0,1,2.66-1,3.37,3.37,0,0,1,2.52.92,3.49,3.49,0,0,1,.9,2.55v1h-4.93a2,2,0,0,0,.53,1.39,1.85,1.85,0,0,0,1.38.5,5.73,5.73,0,0,0,1.31-.14,6.56,6.56,0,0,0,1.29-.46v1.61a4.91,4.91,0,0,1-1.17.41A7.38,7.38,0,0,1,359.19,389.7Zm-.29-6.44a1.32,1.32,0,0,0-1,.42,1.94,1.94,0,0,0-.43,1.19h2.93a1.74,1.74,0,0,0-.4-1.19A1.37,1.37,0,0,0,358.89,383.26Z"/><path class="cls-1" d="M366.09,389.57H364V378.93h2.08Z"/><path class="cls-1" d="M370.25,389.57h-2.08V378.93h2.08Z"/><path class="cls-1" d="M258,413.57V405h1v7.66h3.78v.9Z"/><path class="cls-1" d="M270.19,413.57l-1.07-2.72h-3.43l-1.05,2.72h-1L267,405h.84l3.37,8.6Zm-1.38-3.62-1-2.65q-.19-.5-.4-1.24a11.1,11.1,0,0,1-.37,1.24l-1,2.65Z"/><path class="cls-1" d="M278.15,413.57h-1v-7.68h-2.71V405h6.42v.88h-2.71Z"/><path class="cls-1" d="M283.79,413.68a3,3,0,0,1-2.25-.87,3.36,3.36,0,0,1-.82-2.41,3.72,3.72,0,0,1,.76-2.47,2.54,2.54,0,0,1,2.05-.91,2.42,2.42,0,0,1,1.91.79,3,3,0,0,1,.7,2.09v.62h-4.42a2.55,2.55,0,0,0,.57,1.72,2,2,0,0,0,1.53.59,5.17,5.17,0,0,0,2.05-.43v.87a5.15,5.15,0,0,1-1,.32A5.49,5.49,0,0,1,283.79,413.68Zm-.26-5.84a1.59,1.59,0,0,0-1.23.5,2.32,2.32,0,0,0-.54,1.39h3.36a2.14,2.14,0,0,0-.41-1.41A1.44,1.44,0,0,0,283.53,407.84Z"/><path class="cls-1" d="M290.4,413.68a2.74,2.74,0,0,1-2.16-.86,3.53,3.53,0,0,1-.76-2.43,3.64,3.64,0,0,1,.78-2.49,2.8,2.8,0,0,1,2.21-.88,4.39,4.39,0,0,1,.93.1,3,3,0,0,1,.73.23l-.3.83a4.57,4.57,0,0,0-.7-.21,3.15,3.15,0,0,0-.67-.09q-2,0-2,2.5a3,3,0,0,0,.48,1.82,1.66,1.66,0,0,0,1.42.63,4.33,4.33,0,0,0,1.65-.35v.86A3.51,3.51,0,0,1,290.4,413.68Z"/><path class="cls-1" d="M297.9,413.57v-4.15a1.68,1.68,0,0,0-.36-1.17,1.46,1.46,0,0,0-1.12-.39,1.83,1.83,0,0,0-1.48.55,2.79,2.79,0,0,0-.47,1.8v3.36h-1v-9.12h1v2.76a6,6,0,0,1,0,.83h.06a2,2,0,0,1,.82-.73,2.66,2.66,0,0,1,1.21-.27,2.48,2.48,0,0,1,1.77.56,2.35,2.35,0,0,1,.59,1.78v4.19Z"/><circle class="cls-2" cx="278.32" cy="397.91" r="2.47"/><line class="cls-3" x1="223.18" y1="397.91" x2="269.39" y2="397.91"/><line class="cls-3" x1="287.26" y1="397.91" x2="333.46" y2="397.91"/><path class="cls-1" d="M25.93,389.63H20.18v-10h5.76v1.74H22.3v2.19h3.38v1.74H22.3v2.58h3.64Z"/><path class="cls-1" d="M29.93,389.63H27.84V379h2.08Z"/><path class="cls-1" d="M36.89,389.63l-.4-1h-.05a3.08,3.08,0,0,1-1.08.92,3.5,3.5,0,0,1-1.45.26,2.35,2.35,0,0,1-1.73-.63,2.41,2.41,0,0,1-.63-1.79,2,2,0,0,1,.85-1.79,4.92,4.92,0,0,1,2.57-.64l1.33,0v-.33a1,1,0,0,0-1.19-1.16,5.42,5.42,0,0,0-2.15.55l-.69-1.41a6.22,6.22,0,0,1,2.93-.69,3.65,3.65,0,0,1,2.36.67,2.48,2.48,0,0,1,.82,2v5.09Zm-.62-3.54-.81,0a2.59,2.59,0,0,0-1.35.33,1,1,0,0,0-.44.92q0,.88,1,.88a1.6,1.6,0,0,0,1.16-.42,1.46,1.46,0,0,0,.43-1.11Z"/><path class="cls-1" d="M47.44,389.63H45.35v-4.46q0-1.65-1.23-1.65a1.4,1.4,0,0,0-1.26.59,3.63,3.63,0,0,0-.39,1.93v3.6H40.38V379h2.08v2.17q0,.25,0,1.19l0,.62h.11a2.42,2.42,0,0,1,2.21-1.12,2.71,2.71,0,0,1,2,.72,2.88,2.88,0,0,1,.7,2.08Z"/><path class="cls-1" d="M53,389.77a3.94,3.94,0,0,1-2.88-1,3.86,3.86,0,0,1-1-2.88,4.24,4.24,0,0,1,1-3,3.42,3.42,0,0,1,2.66-1,3.37,3.37,0,0,1,2.52.92,3.49,3.49,0,0,1,.9,2.55v1H51.18a2,2,0,0,0,.53,1.39,1.85,1.85,0,0,0,1.38.5,5.73,5.73,0,0,0,1.31-.14,6.52,6.52,0,0,0,1.29-.46v1.61a4.89,4.89,0,0,1-1.17.41A7.37,7.37,0,0,1,53,389.77Zm-.29-6.44a1.32,1.32,0,0,0-1,.42,2,2,0,0,0-.43,1.19h2.93a1.74,1.74,0,0,0-.4-1.19A1.37,1.37,0,0,0,52.69,383.33Z"/><path class="cls-1" d="M65.83,389.63l-2.41-7.84h-.06q.13,2.39.13,3.19v4.65H61.6v-10h2.88l2.37,7.64h0l2.51-7.64h2.88v10h-2V384.9q0-.33,0-.77t.09-2.32h-.06l-2.58,7.83Z"/><path class="cls-1" d="M79.42,389.63l-.4-1H79a3.08,3.08,0,0,1-1.08.92,3.5,3.5,0,0,1-1.45.26,2.35,2.35,0,0,1-1.73-.63,2.41,2.41,0,0,1-.63-1.79,2,2,0,0,1,.85-1.79,4.92,4.92,0,0,1,2.57-.64l1.33,0v-.33a1,1,0,0,0-1.19-1.16,5.42,5.42,0,0,0-2.15.55l-.69-1.41a6.22,6.22,0,0,1,2.93-.69,3.65,3.65,0,0,1,2.36.67,2.48,2.48,0,0,1,.82,2v5.09Zm-.62-3.54-.81,0a2.59,2.59,0,0,0-1.35.33,1,1,0,0,0-.44.92q0,.88,1,.88a1.6,1.6,0,0,0,1.16-.42,1.46,1.46,0,0,0,.43-1.11Z"/><path class="cls-1" d="M90,389.63H87.89v-4.46q0-1.65-1.23-1.65a1.4,1.4,0,0,0-1.26.59A3.63,3.63,0,0,0,85,386v3.6H82.92V379H85v2.17q0,.25,0,1.19l0,.62H85a2.42,2.42,0,0,1,2.21-1.12,2.71,2.71,0,0,1,2,.72,2.88,2.88,0,0,1,.7,2.08Z"/><path class="cls-1" d="M94.51,389.77a2.48,2.48,0,0,1-2.12-1,5.86,5.86,0,0,1,0-5.83,2.54,2.54,0,0,1,2.16-1,2.49,2.49,0,0,1,2.2,1.12h.07a8.5,8.5,0,0,1-.16-1.52V379h2.09v10.64h-1.6l-.4-1h-.09A2.39,2.39,0,0,1,94.51,389.77Zm.73-1.66a1.41,1.41,0,0,0,1.17-.46,2.7,2.7,0,0,0,.41-1.58v-.23a3.12,3.12,0,0,0-.38-1.76,1.41,1.41,0,0,0-1.23-.53,1.22,1.22,0,0,0-1.08.59,3.15,3.15,0,0,0-.39,1.72,3,3,0,0,0,.39,1.69A1.27,1.27,0,0,0,95.24,388.11Z"/><path class="cls-1" d="M105.7,389.63l-.4-1h-.05a3.08,3.08,0,0,1-1.08.92,3.5,3.5,0,0,1-1.45.26,2.35,2.35,0,0,1-1.73-.63,2.41,2.41,0,0,1-.63-1.79,2,2,0,0,1,.85-1.79,4.92,4.92,0,0,1,2.57-.64l1.33,0v-.33a1,1,0,0,0-1.19-1.16,5.42,5.42,0,0,0-2.15.55l-.69-1.41a6.22,6.22,0,0,1,2.93-.69,3.65,3.65,0,0,1,2.36.67,2.48,2.48,0,0,1,.82,2v5.09Zm-.62-3.54-.81,0a2.59,2.59,0,0,0-1.35.33,1,1,0,0,0-.44.92q0,.88,1,.88a1.6,1.6,0,0,0,1.16-.42,1.46,1.46,0,0,0,.43-1.11Z"/><path class="cls-1" d="M110.9,389.63,108,382h2.18l1.48,4.35a7.77,7.77,0,0,1,.31,1.57h0a6.83,6.83,0,0,1,.31-1.57l1.47-4.35H116L113,389.63Z"/><path class="cls-1" d="M117,380q0-1,1.13-1t1.13,1a1,1,0,0,1-.28.76,1.19,1.19,0,0,1-.85.27Q117,381,117,380Zm2.17,9.62h-2.08V382h2.08Z"/><path class="cls-1" d="M126.12,389.63l-.4-1h-.05a3.08,3.08,0,0,1-1.08.92,3.5,3.5,0,0,1-1.45.26,2.35,2.35,0,0,1-1.73-.63,2.41,2.41,0,0,1-.63-1.79,2,2,0,0,1,.85-1.79,4.92,4.92,0,0,1,2.57-.64l1.33,0v-.33a1,1,0,0,0-1.19-1.16,5.42,5.42,0,0,0-2.15.55l-.69-1.41a6.22,6.22,0,0,1,2.93-.69,3.65,3.65,0,0,1,2.36.67,2.48,2.48,0,0,1,.82,2v5.09Zm-.62-3.54-.81,0a2.59,2.59,0,0,0-1.35.33,1,1,0,0,0-.44.92q0,.88,1,.88a1.6,1.6,0,0,0,1.16-.42,1.46,1.46,0,0,0,.43-1.11Z"/><path class="cls-1" d="M136.67,389.63h-2.08v-4.46a2.14,2.14,0,0,0-.29-1.24,1.07,1.07,0,0,0-.94-.41,1.41,1.41,0,0,0-1.26.58,3.62,3.62,0,0,0-.39,1.94v3.6h-2.08V382h1.59l.28,1h.12a2.2,2.2,0,0,1,1-.84,3.27,3.27,0,0,1,1.39-.28,2.67,2.67,0,0,1,2,.72,2.89,2.89,0,0,1,.69,2.08Z"/><path class="cls-1" d="M62.69,413.63v-8.57h1v7.66h3.78v.9Z"/><path class="cls-1" d="M74,411.35a2.1,2.1,0,0,1-.82,1.76,3.56,3.56,0,0,1-2.23.63,5.58,5.58,0,0,1-2.34-.39v-1a6.17,6.17,0,0,0,1.15.35,6,6,0,0,0,1.23.13,2.48,2.48,0,0,0,1.5-.38,1.24,1.24,0,0,0,.5-1.05,1.35,1.35,0,0,0-.18-.73,1.66,1.66,0,0,0-.6-.52,8.36,8.36,0,0,0-1.27-.54,4.07,4.07,0,0,1-1.71-1,2.24,2.24,0,0,1-.51-1.53,1.9,1.9,0,0,1,.74-1.58,3.09,3.09,0,0,1,2-.59,5.8,5.8,0,0,1,2.35.47l-.31.87a5.31,5.31,0,0,0-2.06-.45,2,2,0,0,0-1.24.34,1.12,1.12,0,0,0-.45.94,1.45,1.45,0,0,0,.16.73,1.54,1.54,0,0,0,.55.52,6.88,6.88,0,0,0,1.19.52,4.72,4.72,0,0,1,1.85,1A2,2,0,0,1,74,411.35Z"/><path class="cls-1" d="M82.17,405.07v5.54a3,3,0,0,1-.88,2.3,3.39,3.39,0,0,1-2.43.84,3.24,3.24,0,0,1-2.39-.84,3.13,3.13,0,0,1-.85-2.32v-5.52h1v5.59a2.2,2.2,0,0,0,.59,1.65,2.36,2.36,0,0,0,1.72.57,2.28,2.28,0,0,0,1.67-.58,2.22,2.22,0,0,0,.59-1.66v-5.58Z"/><path class="cls-1" d="M84,410.86V410h2.88v.89Z"/><path class="cls-1" d="M94.1,413.63,93,410.91H89.6l-1.05,2.72h-1l3.39-8.6h.84l3.37,8.6ZM92.72,410l-1-2.65q-.19-.5-.4-1.24a11.1,11.1,0,0,1-.37,1.24l-1,2.65Z"/><circle class="cls-2" cx="78.32" cy="397.97" r="2.47"/><line class="cls-3" x1="23.18" y1="397.97" x2="69.39" y2="397.97"/><line class="cls-3" x1="87.26" y1="397.97" x2="133.46" y2="397.97"/><circle class="cls-2" cx="278.32" cy="297.97" r="2.47"/><circle class="cls-2" cx="278.32" cy="287.97" r="2.47"/><circle class="cls-2" cx="678.32" cy="297.97" r="2.47"/><circle class="cls-2" cx="678.32" cy="287.97" r="2.47"/><circle class="cls-2" cx="578.32" cy="297.97" r="2.47"/><circle class="cls-2" cx="578.32" cy="287.97" r="2.47"/><circle class="cls-2" cx="278.32" cy="317.97" r="2.47"/><circle class="cls-2" cx="278.32" cy="307.97" r="2.47"/><circle class="cls-2" cx="278.32" cy="337.97" r="2.47"/><circle class="cls-2" cx="278.32" cy="327.97" r="2.47"/><circle class="cls-2" cx="278.32" cy="357.97" r="2.47"/><circle class="cls-2" cx="278.32" cy="347.97" r="2.47"/><circle class="cls-2" cx="278.32" cy="367.97" r="2.47"/><path class="cls-1" d="M339.2,311.26a2.16,2.16,0,0,0-1.85.9,4.18,4.18,0,0,0-.66,2.5q0,3.34,2.51,3.34a7.91,7.91,0,0,0,2.55-.53v1.78a7.08,7.08,0,0,1-2.75.51,4.19,4.19,0,0,1-3.34-1.32,5.6,5.6,0,0,1-1.16-3.8,6.2,6.2,0,0,1,.57-2.73,4.1,4.1,0,0,1,1.63-1.8,4.82,4.82,0,0,1,2.49-.63,6.73,6.73,0,0,1,2.93.7l-.68,1.72a11.44,11.44,0,0,0-1.13-.46A3.37,3.37,0,0,0,339.2,311.26Z"/><path class="cls-1" d="M350.69,319.63H348.6v-4.46q0-1.65-1.23-1.65a1.4,1.4,0,0,0-1.26.59,3.63,3.63,0,0,0-.39,1.93v3.6h-2.08V309h2.08v2.17q0,.25,0,1.19l0,.62h.11a2.42,2.42,0,0,1,2.21-1.12,2.71,2.71,0,0,1,2,.72,2.88,2.88,0,0,1,.7,2.08Z"/><path class="cls-1" d="M357,311.85a3.36,3.36,0,0,1,.7.06l-.16,2a2.42,2.42,0,0,0-.62-.07,2.21,2.21,0,0,0-1.56.51,1.85,1.85,0,0,0-.56,1.44v3.89h-2.08V312h1.58l.31,1.29h.1a2.87,2.87,0,0,1,1-1A2.36,2.36,0,0,1,357,311.85Z"/><path class="cls-1" d="M358.92,310q0-1,1.13-1t1.13,1a1,1,0,0,1-.28.76,1.19,1.19,0,0,1-.85.27Q358.92,311,358.92,310Zm2.17,9.62H359V312h2.08Z"/><path class="cls-1" d="M368.63,317.36a2.1,2.1,0,0,1-.82,1.79,4,4,0,0,1-2.44.62,7.68,7.68,0,0,1-1.42-.11,5.34,5.34,0,0,1-1.1-.33V317.6a7.24,7.24,0,0,0,1.31.46,5.3,5.3,0,0,0,1.28.18q1.13,0,1.13-.66a.55.55,0,0,0-.15-.4,2.18,2.18,0,0,0-.52-.35q-.37-.19-1-.46a6.17,6.17,0,0,1-1.3-.68,1.92,1.92,0,0,1-.6-.72,2.38,2.38,0,0,1-.19-1,1.81,1.81,0,0,1,.79-1.58,3.84,3.84,0,0,1,2.24-.56,6.37,6.37,0,0,1,2.69.6l-.63,1.5q-.57-.25-1.07-.4a3.38,3.38,0,0,0-1-.16q-.92,0-.92.5a.59.59,0,0,0,.3.49,8.06,8.06,0,0,0,1.3.61,6.1,6.1,0,0,1,1.31.68,2,2,0,0,1,.62.72A2.23,2.23,0,0,1,368.63,317.36Z"/><path class="cls-1" d="M374.06,309.64h3.11a6,6,0,0,1,3.09.61,2.11,2.11,0,0,1,1,1.92,2.42,2.42,0,0,1-.42,1.47,1.68,1.68,0,0,1-1.12.69v.07a2.21,2.21,0,0,1,1.37.79,2.58,2.58,0,0,1,.42,1.54,2.54,2.54,0,0,1-1,2.13,4.27,4.27,0,0,1-2.68.77h-3.74Zm2.12,4h1.23a2.25,2.25,0,0,0,1.25-.27,1,1,0,0,0,.39-.88.88.88,0,0,0-.42-.82,2.7,2.7,0,0,0-1.33-.25h-1.11Zm0,1.68v2.6h1.38a2,2,0,0,0,1.29-.33,1.23,1.23,0,0,0,.42-1q0-1.24-1.78-1.24Z"/><path class="cls-1" d="M386.78,319.77a3.94,3.94,0,0,1-2.88-1,3.85,3.85,0,0,1-1-2.88,4.24,4.24,0,0,1,1-3,3.42,3.42,0,0,1,2.66-1,3.37,3.37,0,0,1,2.52.92,3.49,3.49,0,0,1,.9,2.55v1H385a2,2,0,0,0,.53,1.39,1.85,1.85,0,0,0,1.38.5,5.73,5.73,0,0,0,1.31-.14,6.53,6.53,0,0,0,1.29-.46v1.61a4.9,4.9,0,0,1-1.17.41A7.38,7.38,0,0,1,386.78,319.77Zm-.29-6.44a1.32,1.32,0,0,0-1,.42,1.94,1.94,0,0,0-.43,1.19h2.93a1.74,1.74,0,0,0-.4-1.19A1.37,1.37,0,0,0,386.48,313.33Z"/><path class="cls-1" d="M396.41,319.63l-.4-1h-.05a3.08,3.08,0,0,1-1.08.92,3.5,3.5,0,0,1-1.45.26,2.35,2.35,0,0,1-1.73-.63,2.42,2.42,0,0,1-.63-1.79,2,2,0,0,1,.85-1.79,4.93,4.93,0,0,1,2.57-.64l1.33,0v-.33a1,1,0,0,0-1.19-1.16,5.42,5.42,0,0,0-2.15.55l-.69-1.41a6.21,6.21,0,0,1,2.93-.69,3.65,3.65,0,0,1,2.36.67,2.48,2.48,0,0,1,.82,2v5.09Zm-.62-3.54-.81,0a2.59,2.59,0,0,0-1.35.33,1,1,0,0,0-.44.92q0,.88,1,.88a1.6,1.6,0,0,0,1.16-.42,1.46,1.46,0,0,0,.43-1.11Z"/><path class="cls-1" d="M403.08,319.77q-3.57,0-3.57-3.92a4.17,4.17,0,0,1,1-3,3.64,3.64,0,0,1,2.78-1,5.31,5.31,0,0,1,2.38.52L405,314q-.49-.2-.92-.32a2.93,2.93,0,0,0-.85-.13q-1.63,0-1.63,2.31t1.63,2.24a3.73,3.73,0,0,0,1.11-.16,4,4,0,0,0,1-.5v1.78a3.35,3.35,0,0,1-1,.44A5.74,5.74,0,0,1,403.08,319.77Z"/><path class="cls-1" d="M414.16,319.63h-2.08v-4.46q0-1.65-1.23-1.65a1.4,1.4,0,0,0-1.26.59,3.63,3.63,0,0,0-.39,1.93v3.6h-2.08V309h2.08v2.17q0,.25,0,1.19l0,.62h.11a2.42,2.42,0,0,1,2.21-1.12,2.71,2.71,0,0,1,2,.72,2.88,2.88,0,0,1,.7,2.08Z"/><path class="cls-1" d="M415,312h2.28l1.44,4.3a6,6,0,0,1,.25,1.33h0a5.82,5.82,0,0,1,.29-1.33l1.42-4.3h2.24l-3.23,8.62a3.73,3.73,0,0,1-1.27,1.79,3.2,3.2,0,0,1-1.92.59,4.79,4.79,0,0,1-1.06-.12v-1.65a3.54,3.54,0,0,0,.82.09,1.48,1.48,0,0,0,1-.34,2.19,2.19,0,0,0,.65-1l.12-.38Z"/><path class="cls-1" d="M370.46,341.35a2.1,2.1,0,0,1-.82,1.76,3.56,3.56,0,0,1-2.23.63,5.58,5.58,0,0,1-2.34-.39v-1a6.17,6.17,0,0,0,1.15.35,6,6,0,0,0,1.23.13,2.48,2.48,0,0,0,1.5-.38,1.24,1.24,0,0,0,.5-1.05,1.35,1.35,0,0,0-.18-.73,1.66,1.66,0,0,0-.6-.52,8.36,8.36,0,0,0-1.27-.54,4.07,4.07,0,0,1-1.71-1,2.24,2.24,0,0,1-.51-1.53,1.9,1.9,0,0,1,.74-1.58,3.09,3.09,0,0,1,2-.59,5.8,5.8,0,0,1,2.35.47l-.31.87a5.31,5.31,0,0,0-2.06-.45,2,2,0,0,0-1.24.34,1.12,1.12,0,0,0-.45.94,1.45,1.45,0,0,0,.16.73,1.54,1.54,0,0,0,.55.52,6.88,6.88,0,0,0,1.19.52,4.72,4.72,0,0,1,1.85,1A2,2,0,0,1,370.46,341.35Z"/><path class="cls-1" d="M376.88,343.63H372.1v-8.57h4.78V336H373.1v2.76h3.55v.88H373.1v3.15h3.78Z"/><path class="cls-1" d="M378.62,343.63v-8.57h1v7.66h3.78v.9Z"/><path class="cls-1" d="M391.1,335.07v5.54a3,3,0,0,1-.88,2.3,3.39,3.39,0,0,1-2.43.84,3.24,3.24,0,0,1-2.39-.84,3.13,3.13,0,0,1-.85-2.32v-5.52h1v5.59a2.2,2.2,0,0,0,.59,1.65,2.36,2.36,0,0,0,1.72.57,2.28,2.28,0,0,0,1.67-.58,2.22,2.22,0,0,0,.59-1.66v-5.58Z"/><circle class="cls-2" cx="378.32" cy="327.97" r="2.47"/><line class="cls-3" x1="323.18" y1="327.97" x2="369.39" y2="327.97"/><line class="cls-3" x1="387.26" y1="327.97" x2="433.46" y2="327.97"/><circle class="cls-2" cx="678.32" cy="297.97" r="2.47"/><circle class="cls-2" cx="678.32" cy="287.97" r="2.47"/><circle class="cls-2" cx="678.32" cy="317.97" r="2.47"/><circle class="cls-2" cx="678.32" cy="307.97" r="2.47"/><circle class="cls-2" cx="678.32" cy="337.97" r="2.47"/><circle class="cls-2" cx="678.32" cy="327.97" r="2.47"/><circle class="cls-2" cx="678.32" cy="357.97" r="2.47"/><circle class="cls-2" cx="678.32" cy="347.97" r="2.47"/><circle class="cls-2" cx="678.32" cy="367.97" r="2.47"/><path class="cls-1" d="M641.62,386.86a2.58,2.58,0,0,1-1,2.13,4.23,4.23,0,0,1-2.71.78,6.36,6.36,0,0,1-2.83-.6v-2a11.65,11.65,0,0,0,1.71.64,5.07,5.07,0,0,0,1.28.18,1.83,1.83,0,0,0,1.07-.27.91.91,0,0,0,.37-.79.87.87,0,0,0-.16-.52,1.83,1.83,0,0,0-.48-.44,12.61,12.61,0,0,0-1.3-.68,6.14,6.14,0,0,1-1.37-.83,3.1,3.1,0,0,1-.73-.92,2.64,2.64,0,0,1-.27-1.23,2.58,2.58,0,0,1,.9-2.08,3.73,3.73,0,0,1,2.48-.76,5.87,5.87,0,0,1,1.49.18,10.28,10.28,0,0,1,1.48.52l-.68,1.65a10,10,0,0,0-1.32-.46,4.29,4.29,0,0,0-1-.13,1.37,1.37,0,0,0-.92.28.93.93,0,0,0-.32.73.91.91,0,0,0,.13.49,1.43,1.43,0,0,0,.41.4,12.69,12.69,0,0,0,1.34.7,5.34,5.34,0,0,1,1.92,1.34A2.62,2.62,0,0,1,641.62,386.86Z"/><path class="cls-1" d="M648.26,389.63l-.4-1h-.05a3.08,3.08,0,0,1-1.08.92,3.5,3.5,0,0,1-1.45.26,2.34,2.34,0,0,1-1.73-.63,2.41,2.41,0,0,1-.63-1.79,2,2,0,0,1,.85-1.79,4.92,4.92,0,0,1,2.57-.64l1.33,0v-.33a1,1,0,0,0-1.19-1.16,5.42,5.42,0,0,0-2.15.55l-.69-1.41a6.22,6.22,0,0,1,2.93-.69,3.65,3.65,0,0,1,2.36.67,2.48,2.48,0,0,1,.82,2v5.09Zm-.62-3.54-.81,0a2.59,2.59,0,0,0-1.35.33,1,1,0,0,0-.44.92q0,.88,1,.88a1.6,1.6,0,0,0,1.16-.42,1.46,1.46,0,0,0,.43-1.11Z"/><path class="cls-1" d="M658.81,389.63h-2.08v-4.46a2.14,2.14,0,0,0-.29-1.24,1.07,1.07,0,0,0-.94-.41,1.41,1.41,0,0,0-1.26.58,3.62,3.62,0,0,0-.39,1.94v3.6h-2.08V382h1.59l.28,1h.12a2.2,2.2,0,0,1,1-.84,3.26,3.26,0,0,1,1.39-.28,2.67,2.67,0,0,1,2,.72,2.89,2.89,0,0,1,.69,2.08Z"/><path class="cls-1" d="M660.23,393a4.84,4.84,0,0,1-1.37-.17v-1.64a3.71,3.71,0,0,0,1,.13.94.94,0,0,0,.77-.29,1.34,1.34,0,0,0,.24-.87V382h2.08v8.47a2.45,2.45,0,0,1-.7,1.88A2.81,2.81,0,0,1,660.23,393Zm.53-13q0-1,1.13-1t1.13,1a1,1,0,0,1-.28.76,1.19,1.19,0,0,1-.85.27Q660.76,381,660.76,380Z"/><path class="cls-1" d="M669.86,389.63l-.4-1h-.05a3.08,3.08,0,0,1-1.08.92,3.5,3.5,0,0,1-1.45.26,2.34,2.34,0,0,1-1.73-.63,2.41,2.41,0,0,1-.63-1.79,2,2,0,0,1,.85-1.79,4.92,4.92,0,0,1,2.57-.64l1.33,0v-.33a1,1,0,0,0-1.19-1.16,5.42,5.42,0,0,0-2.15.55l-.69-1.41a6.22,6.22,0,0,1,2.93-.69,3.65,3.65,0,0,1,2.36.67,2.48,2.48,0,0,1,.82,2v5.09Zm-.62-3.54-.81,0a2.59,2.59,0,0,0-1.35.33,1,1,0,0,0-.44.92q0,.88,1,.88a1.6,1.6,0,0,0,1.16-.42,1.46,1.46,0,0,0,.43-1.11Z"/><path class="cls-1" d="M672.13,382h2.28l1.44,4.3a6,6,0,0,1,.25,1.33h0a5.82,5.82,0,0,1,.29-1.33l1.42-4.3h2.24l-3.23,8.62a3.73,3.73,0,0,1-1.27,1.79,3.2,3.2,0,0,1-1.92.59,4.79,4.79,0,0,1-1.06-.12v-1.65a3.54,3.54,0,0,0,.82.09,1.48,1.48,0,0,0,1-.34,2.19,2.19,0,0,0,.65-1l.12-.38Z"/><path class="cls-1" d="M685,379.64h3.11a6,6,0,0,1,3.09.61,2.11,2.11,0,0,1,1,1.92,2.42,2.42,0,0,1-.42,1.47,1.68,1.68,0,0,1-1.12.69v.07a2.21,2.21,0,0,1,1.37.79,2.58,2.58,0,0,1,.42,1.54,2.54,2.54,0,0,1-1,2.13,4.27,4.27,0,0,1-2.68.77H685Zm2.12,4h1.23a2.25,2.25,0,0,0,1.25-.27,1,1,0,0,0,.39-.88.88.88,0,0,0-.42-.82,2.69,2.69,0,0,0-1.33-.25h-1.11Zm0,1.68v2.6h1.38a2,2,0,0,0,1.29-.33,1.24,1.24,0,0,0,.42-1q0-1.24-1.78-1.24Z"/><path class="cls-1" d="M699.13,389.63l-.4-1h-.05a3.08,3.08,0,0,1-1.08.92,3.5,3.5,0,0,1-1.45.26,2.34,2.34,0,0,1-1.73-.63,2.41,2.41,0,0,1-.63-1.79,2,2,0,0,1,.85-1.79,4.92,4.92,0,0,1,2.57-.64l1.33,0v-.33a1,1,0,0,0-1.19-1.16,5.42,5.42,0,0,0-2.15.55l-.69-1.41a6.22,6.22,0,0,1,2.93-.69,3.65,3.65,0,0,1,2.36.67,2.48,2.48,0,0,1,.82,2v5.09Zm-.62-3.54-.81,0a2.59,2.59,0,0,0-1.35.33,1,1,0,0,0-.44.92q0,.88,1,.88a1.6,1.6,0,0,0,1.16-.42,1.46,1.46,0,0,0,.43-1.11Z"/><path class="cls-1" d="M705.85,388.11a4.5,4.5,0,0,0,1.31-.24v1.55a4.68,4.68,0,0,1-1.91.35,2.35,2.35,0,0,1-1.82-.63,2.76,2.76,0,0,1-.57-1.9v-3.68h-1v-.88L703,382l.6-1.61h1.33V382h2.14v1.57h-2.14v3.68a.81.81,0,0,0,.25.66A1,1,0,0,0,705.85,388.11Z"/><path class="cls-1" d="M712.93,381.85a3.36,3.36,0,0,1,.7.06l-.16,2a2.41,2.41,0,0,0-.62-.07,2.21,2.21,0,0,0-1.55.51,1.85,1.85,0,0,0-.56,1.44v3.89h-2.08V382h1.58l.31,1.29h.1a2.88,2.88,0,0,1,1-1A2.36,2.36,0,0,1,712.93,381.85Z"/><path class="cls-1" d="M719.67,389.63l-.4-1h-.05a3.08,3.08,0,0,1-1.08.92,3.5,3.5,0,0,1-1.45.26,2.35,2.35,0,0,1-1.73-.63,2.42,2.42,0,0,1-.63-1.79,2,2,0,0,1,.85-1.79,4.93,4.93,0,0,1,2.57-.64l1.33,0v-.33a1,1,0,0,0-1.19-1.16,5.42,5.42,0,0,0-2.15.55l-.69-1.41a6.21,6.21,0,0,1,2.93-.69,3.65,3.65,0,0,1,2.36.67,2.48,2.48,0,0,1,.82,2v5.09Zm-.62-3.54-.81,0a2.59,2.59,0,0,0-1.35.33,1,1,0,0,0-.44.92q0,.88,1,.88a1.6,1.6,0,0,0,1.16-.42,1.46,1.46,0,0,0,.43-1.11Z"/><path class="cls-1" d="M669.14,411.35a2.1,2.1,0,0,1-.82,1.76,3.56,3.56,0,0,1-2.23.63,5.58,5.58,0,0,1-2.34-.39v-1a6.17,6.17,0,0,0,1.15.35,6,6,0,0,0,1.23.13,2.48,2.48,0,0,0,1.5-.38,1.24,1.24,0,0,0,.5-1.05,1.35,1.35,0,0,0-.18-.73,1.66,1.66,0,0,0-.6-.52,8.36,8.36,0,0,0-1.27-.54,4.07,4.07,0,0,1-1.71-1,2.24,2.24,0,0,1-.51-1.53,1.9,1.9,0,0,1,.74-1.58,3.09,3.09,0,0,1,2-.59,5.8,5.8,0,0,1,2.35.47l-.31.87a5.31,5.31,0,0,0-2.06-.45,2,2,0,0,0-1.24.34,1.12,1.12,0,0,0-.45.94,1.45,1.45,0,0,0,.16.73,1.54,1.54,0,0,0,.55.52,6.88,6.88,0,0,0,1.19.52,4.72,4.72,0,0,1,1.85,1A2,2,0,0,1,669.14,411.35Z"/><path class="cls-1" d="M677.26,405.07v5.54a3,3,0,0,1-.88,2.3,3.39,3.39,0,0,1-2.43.84,3.24,3.24,0,0,1-2.39-.84,3.13,3.13,0,0,1-.85-2.32v-5.52h1v5.59a2.2,2.2,0,0,0,.59,1.65,2.36,2.36,0,0,0,1.72.57,2.28,2.28,0,0,0,1.67-.58,2.22,2.22,0,0,0,.59-1.66v-5.58Z"/><path class="cls-1" d="M679.48,405.07h2.42a4.57,4.57,0,0,1,2.47.51,1.8,1.8,0,0,1,.76,1.61,1.86,1.86,0,0,1-.42,1.26,2,2,0,0,1-1.24.64v.06q2,.33,2,2.05a2.2,2.2,0,0,1-.78,1.79,3.3,3.3,0,0,1-2.17.64h-3Zm1,3.67h1.64a2.67,2.67,0,0,0,1.52-.33,1.28,1.28,0,0,0,.46-1.12,1.13,1.13,0,0,0-.52-1,3.22,3.22,0,0,0-1.64-.32h-1.46Zm0,.84v3.21h1.79a2.55,2.55,0,0,0,1.56-.4,1.48,1.48,0,0,0,.52-1.26,1.33,1.33,0,0,0-.54-1.17,2.87,2.87,0,0,0-1.63-.37Z"/><path class="cls-1" d="M688.27,410.07v3.56h-1v-8.57h2.35a3.7,3.7,0,0,1,2.33.6,2.19,2.19,0,0,1,.75,1.82,2.28,2.28,0,0,1-1.72,2.3l2.33,3.85h-1.18l-2.07-3.56Zm0-.86h1.37a2.36,2.36,0,0,0,1.55-.42,1.56,1.56,0,0,0,.49-1.26,1.43,1.43,0,0,0-.5-1.22,2.71,2.71,0,0,0-1.61-.37h-1.29Z"/><circle class="cls-2" cx="678.32" cy="397.97" r="2.47"/><line class="cls-3" x1="623.18" y1="397.97" x2="669.39" y2="397.97"/><line class="cls-3" x1="687.26" y1="397.97" x2="733.46" y2="397.97"/><path class="cls-1" d="M533.47,319.63h-2.11v-4.31h-4v4.31h-2.12v-10h2.12v3.92h4v-3.92h2.11Z"/><path class="cls-1" d="M540.6,319.63l-.4-1h-.05a3.08,3.08,0,0,1-1.08.92,3.5,3.5,0,0,1-1.45.26,2.34,2.34,0,0,1-1.73-.63,2.41,2.41,0,0,1-.63-1.79,2,2,0,0,1,.85-1.79,4.92,4.92,0,0,1,2.57-.64l1.33,0v-.33a1,1,0,0,0-1.19-1.16,5.42,5.42,0,0,0-2.15.55l-.69-1.41a6.22,6.22,0,0,1,2.93-.69,3.65,3.65,0,0,1,2.36.67,2.48,2.48,0,0,1,.82,2v5.09Zm-.62-3.54-.81,0a2.59,2.59,0,0,0-1.35.33,1,1,0,0,0-.44.92q0,.88,1,.88a1.6,1.6,0,0,0,1.16-.42,1.46,1.46,0,0,0,.43-1.11Z"/><path class="cls-1" d="M548.36,311.85a3.36,3.36,0,0,1,.7.06l-.16,2a2.41,2.41,0,0,0-.62-.07,2.21,2.21,0,0,0-1.55.51,1.85,1.85,0,0,0-.56,1.44v3.89h-2.08V312h1.58l.31,1.29h.1a2.88,2.88,0,0,1,1-1A2.36,2.36,0,0,1,548.36,311.85Z"/><path class="cls-1" d="M554.64,311.85a3.36,3.36,0,0,1,.7.06l-.16,2a2.41,2.41,0,0,0-.62-.07,2.21,2.21,0,0,0-1.55.51,1.85,1.85,0,0,0-.56,1.44v3.89h-2.08V312h1.58l.31,1.29h.1a2.88,2.88,0,0,1,1-1A2.36,2.36,0,0,1,554.64,311.85Z"/><path class="cls-1" d="M556.56,310q0-1,1.13-1t1.13,1a1,1,0,0,1-.28.76,1.19,1.19,0,0,1-.85.27Q556.56,311,556.56,310Zm2.17,9.62h-2.08V312h2.08Z"/><path class="cls-1" d="M566.27,317.36a2.11,2.11,0,0,1-.82,1.79,4,4,0,0,1-2.44.62,7.69,7.69,0,0,1-1.42-.11,5.34,5.34,0,0,1-1.1-.33V317.6a7.26,7.26,0,0,0,1.31.46,5.3,5.3,0,0,0,1.28.18q1.14,0,1.13-.66a.55.55,0,0,0-.15-.4,2.17,2.17,0,0,0-.52-.35q-.37-.19-1-.46a6.15,6.15,0,0,1-1.29-.68,1.91,1.91,0,0,1-.6-.72,2.37,2.37,0,0,1-.19-1,1.82,1.82,0,0,1,.79-1.58,3.84,3.84,0,0,1,2.24-.56,6.36,6.36,0,0,1,2.69.6l-.63,1.5q-.57-.25-1.07-.4a3.38,3.38,0,0,0-1-.16q-.92,0-.92.5a.59.59,0,0,0,.3.49,8,8,0,0,0,1.3.61,6.08,6.08,0,0,1,1.31.68,2,2,0,0,1,.62.72A2.22,2.22,0,0,1,566.27,317.36Z"/><path class="cls-1" d="M575.93,319.63l-2.41-7.84h-.06q.13,2.39.13,3.19v4.65H571.7v-10h2.88l2.37,7.64h0l2.51-7.64h2.88v10h-2V314.9q0-.33,0-.77t.09-2.32h-.06l-2.58,7.83Z"/><path class="cls-1" d="M587.84,319.77q-3.57,0-3.57-3.92a4.18,4.18,0,0,1,1-3,3.64,3.64,0,0,1,2.78-1,5.31,5.31,0,0,1,2.38.52l-.62,1.61q-.49-.2-.92-.32a2.92,2.92,0,0,0-.85-.13q-1.63,0-1.63,2.31t1.63,2.24a3.73,3.73,0,0,0,1.11-.16,4,4,0,0,0,1-.5v1.78a3.34,3.34,0,0,1-1,.44A5.75,5.75,0,0,1,587.84,319.77Z"/><path class="cls-1" d="M594.15,319.63h-2.08v-10h5.73v1.74h-3.64V314h3.39v1.73h-3.39Z"/><path class="cls-1" d="M603,319.77a3.94,3.94,0,0,1-2.88-1,3.86,3.86,0,0,1-1-2.88,4.24,4.24,0,0,1,1-3,3.42,3.42,0,0,1,2.66-1,3.37,3.37,0,0,1,2.52.92,3.49,3.49,0,0,1,.9,2.55v1h-4.93a2,2,0,0,0,.53,1.39,1.85,1.85,0,0,0,1.38.5,5.73,5.73,0,0,0,1.31-.14,6.5,6.5,0,0,0,1.29-.46v1.61a4.87,4.87,0,0,1-1.17.41A7.36,7.36,0,0,1,603,319.77Zm-.29-6.44a1.32,1.32,0,0,0-1,.42,2,2,0,0,0-.43,1.19h2.93a1.74,1.74,0,0,0-.4-1.19A1.37,1.37,0,0,0,602.67,313.33Z"/><path class="cls-1" d="M612.06,311.85a3.37,3.37,0,0,1,.7.06l-.16,2a2.42,2.42,0,0,0-.62-.07,2.21,2.21,0,0,0-1.56.51,1.85,1.85,0,0,0-.56,1.44v3.89h-2.08V312h1.58l.31,1.29h.1a2.87,2.87,0,0,1,1-1A2.36,2.36,0,0,1,612.06,311.85Z"/><path class="cls-1" d="M618.33,311.85a3.37,3.37,0,0,1,.7.06l-.16,2a2.42,2.42,0,0,0-.62-.07,2.21,2.21,0,0,0-1.56.51,1.85,1.85,0,0,0-.56,1.44v3.89h-2.08V312h1.58l.31,1.29h.1a2.87,2.87,0,0,1,1-1A2.36,2.36,0,0,1,618.33,311.85Z"/><path class="cls-1" d="M620.26,310q0-1,1.13-1t1.13,1a1,1,0,0,1-.28.76,1.19,1.19,0,0,1-.85.27Q620.26,311,620.26,310Zm2.17,9.62h-2.08V312h2.08Z"/><path class="cls-1" d="M631.57,319.63h-2.08v-4.46a2.15,2.15,0,0,0-.29-1.24,1.07,1.07,0,0,0-.94-.41,1.41,1.41,0,0,0-1.26.58,3.62,3.62,0,0,0-.39,1.94v3.6h-2.08V312h1.59l.28,1h.12a2.2,2.2,0,0,1,1-.84,3.27,3.27,0,0,1,1.39-.28,2.67,2.67,0,0,1,2,.72,2.89,2.89,0,0,1,.69,2.08Z"/><path class="cls-1" d="M568,343.63h-1.13l-2.3-3.77-2.34,3.77h-1.05l2.85-4.48-2.65-4.09h1.1l2.13,3.39,2.14-3.39h1.06l-2.65,4.05Z"/><path class="cls-1" d="M573.15,343.63l-.19-.91h0a2.7,2.7,0,0,1-1,.82,2.92,2.92,0,0,1-1.19.21,2.14,2.14,0,0,1-1.5-.49,1.8,1.8,0,0,1-.54-1.4q0-1.95,3.11-2l1.09,0v-.4a1.63,1.63,0,0,0-.33-1.12,1.34,1.34,0,0,0-1-.36,4.24,4.24,0,0,0-1.82.49l-.3-.74a4.57,4.57,0,0,1,1-.4,4.5,4.5,0,0,1,1.13-.15,2.45,2.45,0,0,1,1.7.51,2.13,2.13,0,0,1,.55,1.63v4.38Zm-2.2-.69a2,2,0,0,0,1.43-.5,1.84,1.84,0,0,0,.52-1.39v-.58l-1,0a3.54,3.54,0,0,0-1.67.36,1.09,1.09,0,0,0-.51,1,1,1,0,0,0,.32.8A1.33,1.33,0,0,0,571,342.95Z"/><path class="cls-1" d="M577.25,343.63l-2.44-6.42h1l1.38,3.81a18,18,0,0,1,.55,1.73h0a13.1,13.1,0,0,1,.41-1.29q.34-1,1.54-4.26h1l-2.44,6.42Z"/><path class="cls-1" d="M581.93,335.47a.65.65,0,0,1,.16-.49.61.61,0,0,1,.81,0,.63.63,0,0,1,.17.49.64.64,0,0,1-.17.49.6.6,0,0,1-.81,0A.66.66,0,0,1,581.93,335.47Zm1.05,8.16h-1v-6.42h1Z"/><path class="cls-1" d="M587.68,343.75a3,3,0,0,1-2.25-.87,3.36,3.36,0,0,1-.82-2.41,3.72,3.72,0,0,1,.76-2.47,2.54,2.54,0,0,1,2.05-.91,2.42,2.42,0,0,1,1.91.79A3,3,0,0,1,590,340v.62h-4.42a2.55,2.55,0,0,0,.57,1.72,2,2,0,0,0,1.53.59,5.17,5.17,0,0,0,2.05-.43v.87a5.15,5.15,0,0,1-1,.32A5.48,5.48,0,0,1,587.68,343.75Zm-.26-5.84a1.59,1.59,0,0,0-1.23.5,2.32,2.32,0,0,0-.54,1.39H589a2.14,2.14,0,0,0-.41-1.41A1.44,1.44,0,0,0,587.42,337.91Z"/><path class="cls-1" d="M594.59,337.09a3.81,3.81,0,0,1,.77.07l-.13.9a3.31,3.31,0,0,0-.7-.09,1.71,1.71,0,0,0-1.33.63,2.31,2.31,0,0,0-.55,1.58v3.45h-1v-6.42h.8l.11,1.19h0a2.82,2.82,0,0,1,.86-1A1.94,1.94,0,0,1,594.59,337.09Z"/><circle class="cls-2" cx="578.32" cy="327.97" r="2.47"/><line class="cls-3" x1="523.18" y1="327.97" x2="569.39" y2="327.97"/><line class="cls-3" x1="587.26" y1="327.97" x2="633.46" y2="327.97"/><path class="cls-1" d="M123.88,316.86a2.58,2.58,0,0,1-1,2.13,4.23,4.23,0,0,1-2.71.78,6.36,6.36,0,0,1-2.83-.6v-2a11.65,11.65,0,0,0,1.71.64,5.07,5.07,0,0,0,1.28.18,1.82,1.82,0,0,0,1.07-.27.91.91,0,0,0,.37-.79.87.87,0,0,0-.16-.52,1.83,1.83,0,0,0-.48-.44,12.64,12.64,0,0,0-1.3-.68,6.12,6.12,0,0,1-1.37-.83,3.09,3.09,0,0,1-.73-.92,2.63,2.63,0,0,1-.27-1.23,2.58,2.58,0,0,1,.9-2.08,3.74,3.74,0,0,1,2.48-.76,5.87,5.87,0,0,1,1.49.18,10.31,10.31,0,0,1,1.48.52l-.68,1.65a10,10,0,0,0-1.32-.46,4.29,4.29,0,0,0-1-.13,1.36,1.36,0,0,0-.92.28.92.92,0,0,0-.32.73.91.91,0,0,0,.13.49,1.43,1.43,0,0,0,.41.4,12.72,12.72,0,0,0,1.34.7,5.35,5.35,0,0,1,1.92,1.34A2.62,2.62,0,0,1,123.88,316.86Z"/><path class="cls-1" d="M129.78,311.85a3.36,3.36,0,0,1,.7.06l-.16,2a2.42,2.42,0,0,0-.62-.07,2.21,2.21,0,0,0-1.56.51,1.85,1.85,0,0,0-.56,1.44v3.89h-2.08V312h1.58l.31,1.29h.1a2.87,2.87,0,0,1,1-1A2.36,2.36,0,0,1,129.78,311.85Z"/><path class="cls-1" d="M131.71,310q0-1,1.13-1t1.13,1a1,1,0,0,1-.28.76,1.19,1.19,0,0,1-.85.27Q131.71,311,131.71,310Zm2.17,9.62H131.8V312h2.08Z"/><path class="cls-1" d="M143,319.63h-2.08v-4.46a2.14,2.14,0,0,0-.29-1.24,1.07,1.07,0,0,0-.94-.41,1.41,1.41,0,0,0-1.26.58,3.62,3.62,0,0,0-.39,1.94v3.6H136V312h1.59l.28,1H138a2.2,2.2,0,0,1,1-.84,3.27,3.27,0,0,1,1.39-.28,2.67,2.67,0,0,1,2,.72,2.89,2.89,0,0,1,.69,2.08Z"/><path class="cls-1" d="M145,310q0-1,1.13-1t1.13,1a1,1,0,0,1-.28.76,1.19,1.19,0,0,1-.85.27Q145,311,145,310Zm2.17,9.62H145V312h2.08Z"/><path class="cls-1" d="M151.2,319.63,148.29,312h2.18l1.48,4.35a7.77,7.77,0,0,1,.31,1.57h0a6.83,6.83,0,0,1,.31-1.57l1.47-4.35h2.18l-2.91,7.64Z"/><path class="cls-1" d="M162.1,319.63l-.4-1h-.05a3.08,3.08,0,0,1-1.08.92,3.5,3.5,0,0,1-1.45.26,2.35,2.35,0,0,1-1.73-.63,2.41,2.41,0,0,1-.63-1.79,2,2,0,0,1,.85-1.79,4.92,4.92,0,0,1,2.57-.64l1.33,0v-.33a1,1,0,0,0-1.19-1.16,5.42,5.42,0,0,0-2.15.55l-.69-1.41a6.22,6.22,0,0,1,2.93-.69,3.65,3.65,0,0,1,2.36.67,2.48,2.48,0,0,1,.82,2v5.09Zm-.62-3.54-.81,0a2.59,2.59,0,0,0-1.35.33,1,1,0,0,0-.44.92q0,.88,1,.88a1.6,1.6,0,0,0,1.16-.42,1.46,1.46,0,0,0,.43-1.11Z"/><path class="cls-1" d="M171.06,317.36a2.1,2.1,0,0,1-.82,1.79,4,4,0,0,1-2.44.62,7.68,7.68,0,0,1-1.42-.11,5.34,5.34,0,0,1-1.1-.33V317.6a7.24,7.24,0,0,0,1.31.46,5.3,5.3,0,0,0,1.28.18q1.13,0,1.13-.66a.55.55,0,0,0-.15-.4,2.18,2.18,0,0,0-.52-.35q-.37-.19-1-.46a6.17,6.17,0,0,1-1.3-.68,1.92,1.92,0,0,1-.6-.72,2.38,2.38,0,0,1-.19-1,1.81,1.81,0,0,1,.79-1.58,3.84,3.84,0,0,1,2.24-.56,6.37,6.37,0,0,1,2.69.6l-.63,1.5q-.57-.25-1.07-.4a3.38,3.38,0,0,0-1-.16q-.92,0-.92.5a.59.59,0,0,0,.3.49,8.06,8.06,0,0,0,1.3.61,6.1,6.1,0,0,1,1.31.68,2,2,0,0,1,.62.72A2.23,2.23,0,0,1,171.06,317.36Z"/><path class="cls-1" d="M180.28,314h4v5.18a11.22,11.22,0,0,1-1.81.44,11.87,11.87,0,0,1-1.74.13,4.4,4.4,0,0,1-3.46-1.33,5.53,5.53,0,0,1-1.19-3.82,5,5,0,0,1,1.38-3.77,5.26,5.26,0,0,1,3.84-1.35,7.43,7.43,0,0,1,3,.62l-.7,1.7a5,5,0,0,0-2.28-.55,2.81,2.81,0,0,0-2.2.92,3.58,3.58,0,0,0-.83,2.48,4,4,0,0,0,.67,2.49,2.31,2.31,0,0,0,1.94.86,6.81,6.81,0,0,0,1.35-.14v-2.08h-1.89Z"/><path class="cls-1" d="M191.25,319.63l-.4-1h-.05a3.08,3.08,0,0,1-1.08.92,3.5,3.5,0,0,1-1.45.26,2.35,2.35,0,0,1-1.73-.63,2.41,2.41,0,0,1-.63-1.79,2,2,0,0,1,.85-1.79,4.92,4.92,0,0,1,2.57-.64l1.33,0v-.33a1,1,0,0,0-1.19-1.16,5.42,5.42,0,0,0-2.15.55l-.69-1.41a6.22,6.22,0,0,1,2.93-.69,3.65,3.65,0,0,1,2.36.67,2.48,2.48,0,0,1,.82,2v5.09Zm-.62-3.54-.81,0a2.59,2.59,0,0,0-1.35.33,1,1,0,0,0-.44.92q0,.88,1,.88a1.6,1.6,0,0,0,1.16-.42,1.46,1.46,0,0,0,.43-1.11Z"/><path class="cls-1" d="M199,311.85a3.36,3.36,0,0,1,.7.06l-.16,2a2.42,2.42,0,0,0-.62-.07,2.21,2.21,0,0,0-1.56.51,1.85,1.85,0,0,0-.56,1.44v3.89h-2.08V312h1.58l.31,1.29h.1a2.87,2.87,0,0,1,1-1A2.36,2.36,0,0,1,199,311.85Z"/><path class="cls-1" d="M203.11,319.63H201V309h2.08Z"/><path class="cls-1" d="M210.07,319.63l-.4-1h-.05a3.08,3.08,0,0,1-1.08.92,3.5,3.5,0,0,1-1.45.26,2.35,2.35,0,0,1-1.73-.63,2.41,2.41,0,0,1-.63-1.79,2,2,0,0,1,.85-1.79,4.92,4.92,0,0,1,2.57-.64l1.33,0v-.33a1,1,0,0,0-1.19-1.16,5.42,5.42,0,0,0-2.15.55l-.69-1.41a6.22,6.22,0,0,1,2.93-.69,3.65,3.65,0,0,1,2.36.67,2.48,2.48,0,0,1,.82,2v5.09Zm-.62-3.54-.81,0a2.59,2.59,0,0,0-1.35.33,1,1,0,0,0-.44.92q0,.88,1,.88a1.6,1.6,0,0,0,1.16-.42,1.46,1.46,0,0,0,.43-1.11Z"/><path class="cls-1" d="M217.77,319.77a2.53,2.53,0,0,1-2.11-1h-.11q.11,1,.11,1.11V323h-2.08V312h1.7l.29,1h.1a2.41,2.41,0,0,1,2.17-1.13,2.48,2.48,0,0,1,2.12,1,4.84,4.84,0,0,1,.77,2.91,5.73,5.73,0,0,1-.36,2.13,3,3,0,0,1-1,1.37A2.62,2.62,0,0,1,217.77,319.77Zm-.62-6.25A1.31,1.31,0,0,0,216,314a2.73,2.73,0,0,0-.37,1.57v.23a3.22,3.22,0,0,0,.37,1.76,1.3,1.3,0,0,0,1.16.53q1.4,0,1.4-2.31a3.3,3.3,0,0,0-.35-1.69A1.18,1.18,0,0,0,217.15,313.51Z"/><path class="cls-1" d="M227.25,319.63l-.4-1h-.05a3.08,3.08,0,0,1-1.08.92,3.5,3.5,0,0,1-1.45.26,2.35,2.35,0,0,1-1.73-.63,2.41,2.41,0,0,1-.63-1.79,2,2,0,0,1,.85-1.79,4.92,4.92,0,0,1,2.57-.64l1.33,0v-.33a1,1,0,0,0-1.19-1.16,5.42,5.42,0,0,0-2.15.55l-.69-1.41a6.22,6.22,0,0,1,2.93-.69,3.65,3.65,0,0,1,2.36.67,2.48,2.48,0,0,1,.82,2v5.09Zm-.62-3.54-.81,0a2.59,2.59,0,0,0-1.35.33,1,1,0,0,0-.44.92q0,.88,1,.88a1.6,1.6,0,0,0,1.16-.42,1.46,1.46,0,0,0,.43-1.11Z"/><path class="cls-1" d="M234,318.11a4.5,4.5,0,0,0,1.31-.24v1.55a4.68,4.68,0,0,1-1.91.35,2.34,2.34,0,0,1-1.82-.63,2.75,2.75,0,0,1-.57-1.9v-3.68h-1v-.88l1.15-.7.6-1.61h1.33V312h2.14v1.57h-2.14v3.68a.81.81,0,0,0,.25.66A1,1,0,0,0,234,318.11Z"/><path class="cls-1" d="M236.65,310q0-1,1.14-1t1.13,1a1,1,0,0,1-.29.76,1.19,1.19,0,0,1-.85.27Q236.65,311,236.65,310Zm2.17,9.62h-2.09V312h2.09Z"/><path class="cls-1" d="M173.08,335.07v5.54a3,3,0,0,1-.88,2.3,3.39,3.39,0,0,1-2.43.84,3.24,3.24,0,0,1-2.39-.84,3.13,3.13,0,0,1-.85-2.32v-5.52h1v5.59a2.2,2.2,0,0,0,.59,1.65,2.36,2.36,0,0,0,1.72.57,2.28,2.28,0,0,0,1.67-.58,2.22,2.22,0,0,0,.59-1.66v-5.58Z"/><path class="cls-1" d="M175.31,343.63v-8.57h1v7.66h3.78v.9Z"/><path class="cls-1" d="M185.34,343.63,182.43,336h0q.08.9.08,2.14v5.45h-.92v-8.57H183l2.71,7.07h0l2.74-7.07H190v8.57h-1v-5.52q0-.95.08-2.06h0l-2.93,7.58Z"/><circle class="cls-2" cx="178.32" cy="327.97" r="2.47"/><line class="cls-3" x1="123.18" y1="327.97" x2="169.39" y2="327.97"/><line class="cls-3" x1="187.26" y1="327.97" x2="233.46" y2="327.97"/><path class="cls-1" d="M430.87,389.63h-2.41l-1.35-5.25q-.07-.28-.26-1.16t-.21-1.18q0,.37-.21,1.19t-.25,1.17l-1.35,5.24h-2.41l-2.55-10H422l1.28,5.46q.34,1.51.49,2.62,0-.39.19-1.21t.28-1.27l1.46-5.6h2l1.46,5.6q.1.38.24,1.15t.22,1.33q.07-.53.22-1.33t.27-1.29l1.27-5.46h2.08Z"/><path class="cls-1" d="M439.1,389.63l-.4-1h-.05a3.08,3.08,0,0,1-1.08.92,3.5,3.5,0,0,1-1.45.26,2.34,2.34,0,0,1-1.73-.63,2.41,2.41,0,0,1-.63-1.79,2,2,0,0,1,.85-1.79,4.92,4.92,0,0,1,2.57-.64l1.33,0v-.33a1,1,0,0,0-1.19-1.16,5.42,5.42,0,0,0-2.15.55l-.69-1.41a6.22,6.22,0,0,1,2.93-.69,3.65,3.65,0,0,1,2.36.67,2.48,2.48,0,0,1,.82,2v5.09Zm-.62-3.54-.81,0a2.59,2.59,0,0,0-1.35.33,1,1,0,0,0-.44.92q0,.88,1,.88a1.6,1.6,0,0,0,1.16-.42,1.46,1.46,0,0,0,.43-1.11Z"/><path class="cls-1" d="M449.65,389.63h-2.08v-4.46a2.14,2.14,0,0,0-.29-1.24,1.07,1.07,0,0,0-.94-.41,1.41,1.41,0,0,0-1.26.58,3.62,3.62,0,0,0-.39,1.94v3.6H442.6V382h1.59l.28,1h.12a2.2,2.2,0,0,1,1-.84,3.26,3.26,0,0,1,1.39-.28,2.67,2.67,0,0,1,2,.72,2.89,2.89,0,0,1,.69,2.08Z"/><path class="cls-1" d="M455.2,389.77a3.94,3.94,0,0,1-2.88-1,3.85,3.85,0,0,1-1-2.88,4.24,4.24,0,0,1,1-3,3.42,3.42,0,0,1,2.66-1,3.37,3.37,0,0,1,2.52.92,3.49,3.49,0,0,1,.9,2.55v1h-4.93a2,2,0,0,0,.53,1.39,1.85,1.85,0,0,0,1.38.5,5.73,5.73,0,0,0,1.31-.14,6.53,6.53,0,0,0,1.29-.46v1.61a4.9,4.9,0,0,1-1.17.41A7.38,7.38,0,0,1,455.2,389.77Zm-.29-6.44a1.32,1.32,0,0,0-1,.42,1.94,1.94,0,0,0-.43,1.19h2.93a1.74,1.74,0,0,0-.4-1.19A1.37,1.37,0,0,0,454.91,383.33Z"/><path class="cls-1" d="M463.51,389.77a3.94,3.94,0,0,1-2.88-1,3.85,3.85,0,0,1-1-2.88,4.24,4.24,0,0,1,1-3,3.42,3.42,0,0,1,2.66-1,3.37,3.37,0,0,1,2.52.92,3.49,3.49,0,0,1,.9,2.55v1h-4.93a2,2,0,0,0,.53,1.39,1.85,1.85,0,0,0,1.38.5,5.73,5.73,0,0,0,1.31-.14,6.53,6.53,0,0,0,1.29-.46v1.61a4.9,4.9,0,0,1-1.17.41A7.38,7.38,0,0,1,463.51,389.77Zm-.29-6.44a1.32,1.32,0,0,0-1,.42,1.94,1.94,0,0,0-.43,1.19h2.93a1.74,1.74,0,0,0-.4-1.19A1.37,1.37,0,0,0,463.21,383.33Z"/><path class="cls-1" d="M475.39,389.63H473.3v-4.46a2.14,2.14,0,0,0-.29-1.24,1.07,1.07,0,0,0-.94-.41,1.41,1.41,0,0,0-1.26.58,3.62,3.62,0,0,0-.39,1.94v3.6h-2.08V382h1.59l.28,1h.12a2.2,2.2,0,0,1,1-.84,3.26,3.26,0,0,1,1.39-.28,2.67,2.67,0,0,1,2,.72,2.89,2.89,0,0,1,.69,2.08Z"/><path class="cls-1" d="M480.94,389.77a3.94,3.94,0,0,1-2.88-1,3.85,3.85,0,0,1-1-2.88,4.24,4.24,0,0,1,1-3,3.42,3.42,0,0,1,2.66-1,3.37,3.37,0,0,1,2.52.92,3.49,3.49,0,0,1,.9,2.55v1h-4.93a2,2,0,0,0,.53,1.39,1.85,1.85,0,0,0,1.38.5,5.73,5.73,0,0,0,1.31-.14,6.53,6.53,0,0,0,1.29-.46v1.61a4.9,4.9,0,0,1-1.17.41A7.38,7.38,0,0,1,480.94,389.77Zm-.29-6.44a1.32,1.32,0,0,0-1,.42,1.94,1.94,0,0,0-.43,1.19h2.93a1.74,1.74,0,0,0-.4-1.19A1.37,1.37,0,0,0,480.65,383.33Z"/><path class="cls-1" d="M497.85,384.54a4.92,4.92,0,0,1-1.41,3.78,5.73,5.73,0,0,1-4.06,1.31h-2.83v-10h3.14a5.28,5.28,0,0,1,3.8,1.29A4.75,4.75,0,0,1,497.85,384.54Zm-2.2.05q0-3.22-2.84-3.22h-1.13v6.51h.91Q495.64,387.88,495.64,384.59Z"/><path class="cls-1" d="M506.67,385.8a4.11,4.11,0,0,1-1,2.92,3.57,3.57,0,0,1-2.74,1.05,3.84,3.84,0,0,1-1.94-.48,3.21,3.21,0,0,1-1.29-1.38,4.65,4.65,0,0,1-.45-2.11,4.09,4.09,0,0,1,1-2.91,3.59,3.59,0,0,1,2.75-1,3.86,3.86,0,0,1,1.94.48,3.2,3.2,0,0,1,1.29,1.37A4.61,4.61,0,0,1,506.67,385.8Zm-5.28,0a3.2,3.2,0,0,0,.37,1.72,1.33,1.33,0,0,0,1.21.58,1.31,1.31,0,0,0,1.2-.58,3.26,3.26,0,0,0,.37-1.72,3.16,3.16,0,0,0-.37-1.7,1.57,1.57,0,0,0-2.41,0A3.15,3.15,0,0,0,501.39,385.8Z"/><path class="cls-1" d="M512.6,381.85a3.36,3.36,0,0,1,.7.06l-.16,2a2.41,2.41,0,0,0-.62-.07,2.21,2.21,0,0,0-1.55.51,1.85,1.85,0,0,0-.56,1.44v3.89h-2.08V382h1.58l.31,1.29h.1a2.88,2.88,0,0,1,1-1A2.36,2.36,0,0,1,512.6,381.85Z"/><path class="cls-1" d="M520.12,387.36a2.1,2.1,0,0,1-.82,1.79,4,4,0,0,1-2.44.62,7.67,7.67,0,0,1-1.42-.11,5.33,5.33,0,0,1-1.1-.33V387.6a7.22,7.22,0,0,0,1.31.46,5.3,5.3,0,0,0,1.28.18q1.13,0,1.13-.66a.55.55,0,0,0-.15-.4,2.19,2.19,0,0,0-.52-.35q-.37-.19-1-.46a6.19,6.19,0,0,1-1.3-.68,1.93,1.93,0,0,1-.6-.72,2.39,2.39,0,0,1-.19-1,1.81,1.81,0,0,1,.79-1.58,3.84,3.84,0,0,1,2.24-.56,6.37,6.37,0,0,1,2.69.6l-.63,1.5q-.57-.25-1.07-.4a3.39,3.39,0,0,0-1-.16q-.92,0-.92.5a.59.59,0,0,0,.3.49,8.07,8.07,0,0,0,1.3.61,6.12,6.12,0,0,1,1.31.68,2,2,0,0,1,.62.72A2.23,2.23,0,0,1,520.12,387.36Z"/><path class="cls-1" d="M525.2,389.77a3.94,3.94,0,0,1-2.88-1,3.85,3.85,0,0,1-1-2.88,4.24,4.24,0,0,1,1-3,3.42,3.42,0,0,1,2.66-1,3.37,3.37,0,0,1,2.52.92,3.49,3.49,0,0,1,.9,2.55v1h-4.93a2,2,0,0,0,.53,1.39,1.85,1.85,0,0,0,1.38.5,5.73,5.73,0,0,0,1.31-.14,6.53,6.53,0,0,0,1.29-.46v1.61a4.9,4.9,0,0,1-1.17.41A7.38,7.38,0,0,1,525.2,389.77Zm-.29-6.44a1.32,1.32,0,0,0-1,.42,1.94,1.94,0,0,0-.43,1.19h2.93a1.74,1.74,0,0,0-.4-1.19A1.37,1.37,0,0,0,524.91,383.33Z"/><path class="cls-1" d="M528.8,382h2.28l1.44,4.3a5.94,5.94,0,0,1,.25,1.33h0a5.93,5.93,0,0,1,.29-1.33l1.42-4.3h2.24l-3.23,8.62a3.73,3.73,0,0,1-1.27,1.79,3.2,3.2,0,0,1-1.92.59,4.81,4.81,0,0,1-1.06-.12v-1.65a3.55,3.55,0,0,0,.82.09,1.48,1.48,0,0,0,1-.34,2.19,2.19,0,0,0,.65-1l.12-.38Z"/><path class="cls-1" d="M454.06,409.14H457v4.17a9.36,9.36,0,0,1-1.38.33,10.53,10.53,0,0,1-1.63.11,4,4,0,0,1-3-1.16,4.56,4.56,0,0,1-1.08-3.24,4.9,4.9,0,0,1,.54-2.34,3.63,3.63,0,0,1,1.54-1.54,5,5,0,0,1,2.36-.53,6.45,6.45,0,0,1,2.55.5l-.39.88a5.71,5.71,0,0,0-2.23-.49,3.2,3.2,0,0,0-2.44.93,3.62,3.62,0,0,0-.88,2.58,3.7,3.7,0,0,0,.85,2.63,3.26,3.26,0,0,0,2.49.9,7.39,7.39,0,0,0,1.74-.21V410h-1.92Z"/><path class="cls-1" d="M461.85,407.09a3.81,3.81,0,0,1,.77.07l-.13.9a3.31,3.31,0,0,0-.7-.09,1.71,1.71,0,0,0-1.33.63,2.31,2.31,0,0,0-.55,1.58v3.45h-1v-6.42h.8l.11,1.19h0a2.82,2.82,0,0,1,.86-1A1.94,1.94,0,0,1,461.85,407.09Z"/><path class="cls-1" d="M467.7,413.63l-.19-.91h0a2.7,2.7,0,0,1-1,.82,2.92,2.92,0,0,1-1.19.21,2.14,2.14,0,0,1-1.5-.49,1.8,1.8,0,0,1-.54-1.4q0-1.95,3.11-2l1.09,0v-.4a1.63,1.63,0,0,0-.33-1.12,1.34,1.34,0,0,0-1-.36,4.24,4.24,0,0,0-1.82.49l-.3-.74a4.57,4.57,0,0,1,1-.4,4.5,4.5,0,0,1,1.13-.15,2.45,2.45,0,0,1,1.7.51,2.13,2.13,0,0,1,.55,1.63v4.38Zm-2.2-.69a2,2,0,0,0,1.43-.5,1.84,1.84,0,0,0,.52-1.39v-.58l-1,0a3.54,3.54,0,0,0-1.67.36,1.09,1.09,0,0,0-.51,1,1,1,0,0,0,.32.8A1.33,1.33,0,0,0,465.5,412.95Z"/><path class="cls-1" d="M478.55,413.63v-4.18a1.73,1.73,0,0,0-.33-1.15,1.27,1.27,0,0,0-1-.38,1.65,1.65,0,0,0-1.34.52,2.48,2.48,0,0,0-.43,1.61v3.59h-1v-4.18a1.73,1.73,0,0,0-.33-1.15,1.28,1.28,0,0,0-1-.38,1.59,1.59,0,0,0-1.34.55,3,3,0,0,0-.42,1.8v3.37h-1v-6.42h.79l.16.88h0a1.91,1.91,0,0,1,.78-.73,2.37,2.37,0,0,1,1.12-.26,1.91,1.91,0,0,1,2,1.09h0a2,2,0,0,1,.83-.8,2.58,2.58,0,0,1,1.24-.29,2.17,2.17,0,0,1,1.63.56,2.5,2.5,0,0,1,.54,1.79v4.19Z"/><path class="cls-1" d="M484.45,407.11a2.39,2.39,0,0,1,2,.86,4.63,4.63,0,0,1,0,4.9,2.38,2.38,0,0,1-2,.88,2.78,2.78,0,0,1-1.15-.23,2.15,2.15,0,0,1-.87-.71h-.07l-.21.83h-.7v-9.12h1v2.21q0,.74,0,1.34h0A2.31,2.31,0,0,1,484.45,407.11Zm-.14.81a1.7,1.7,0,0,0-1.44.57,4.41,4.41,0,0,0,0,3.86,1.72,1.72,0,0,0,1.45.58,1.5,1.5,0,0,0,1.34-.65,3.36,3.36,0,0,0,.44-1.88,3.23,3.23,0,0,0-.44-1.87A1.56,1.56,0,0,0,484.31,407.92Z"/><path class="cls-1" d="M489.77,413.63h-1v-9.12h1Z"/><path class="cls-1" d="M491.66,405.47a.65.65,0,0,1,.16-.49.61.61,0,0,1,.81,0,.63.63,0,0,1,.17.49.64.64,0,0,1-.17.49.6.6,0,0,1-.81,0A.66.66,0,0,1,491.66,405.47Zm1.05,8.16h-1v-6.42h1Z"/><path class="cls-1" d="M499.08,413.63v-4.15a1.68,1.68,0,0,0-.36-1.17,1.46,1.46,0,0,0-1.12-.39,1.85,1.85,0,0,0-1.48.54,2.75,2.75,0,0,0-.47,1.8v3.37h-1v-6.42h.79l.16.88h0a2,2,0,0,1,.84-.74,2.72,2.72,0,0,1,1.2-.26,2.44,2.44,0,0,1,1.75.56,2.38,2.38,0,0,1,.59,1.79v4.19Z"/><path class="cls-1" d="M507.25,407.21v.62l-1.19.14a2.09,2.09,0,0,1,.42,1.28,1.9,1.9,0,0,1-.64,1.51,2.6,2.6,0,0,1-1.77.56,3,3,0,0,1-.54,0,1,1,0,0,0-.62.83.42.42,0,0,0,.22.39,1.58,1.58,0,0,0,.74.13H505a2.55,2.55,0,0,1,1.6.44,1.53,1.53,0,0,1,.56,1.28,1.82,1.82,0,0,1-.86,1.63,4.58,4.58,0,0,1-2.5.56,3.41,3.41,0,0,1-1.94-.47,1.51,1.51,0,0,1-.68-1.32,1.49,1.49,0,0,1,.38-1,1.91,1.91,0,0,1,1.05-.58,1,1,0,0,1-.41-.35.91.91,0,0,1-.17-.54,1,1,0,0,1,.19-.62,2,2,0,0,1,.59-.51,1.73,1.73,0,0,1-.81-.7,2,2,0,0,1-.31-1.12,2.08,2.08,0,0,1,.63-1.63,2.58,2.58,0,0,1,1.79-.57,3.26,3.26,0,0,1,.91.12Zm-5.12,7.5a.87.87,0,0,0,.44.79,2.43,2.43,0,0,0,1.26.27,3.52,3.52,0,0,0,1.81-.37,1.12,1.12,0,0,0,.59-1,.79.79,0,0,0-.32-.72,2.5,2.5,0,0,0-1.21-.2h-1.17a1.54,1.54,0,0,0-1,.32A1.13,1.13,0,0,0,502.12,414.71Zm.53-5.44a1.31,1.31,0,0,0,.38,1,1.52,1.52,0,0,0,1.06.35,1.24,1.24,0,0,0,1.42-1.38,1.28,1.28,0,0,0-1.44-1.45,1.43,1.43,0,0,0-1.05.37A1.49,1.49,0,0,0,502.65,409.27Z"/><circle class="cls-2" cx="478.32" cy="397.97" r="2.47"/><line class="cls-3" x1="423.18" y1="397.97" x2="469.39" y2="397.97"/><line class="cls-3" x1="487.26" y1="397.97" x2="533.46" y2="397.97"/><path class="cls-1" d="M454.74,151.64h2.14l-3.4,10h-2.31l-3.39-10h2.14l1.88,5.95c.11.35.21.76.33,1.23s.18.79.21,1a17.75,17.75,0,0,1,.51-2.2Z"/><path class="cls-1" d="M460.21,161.63h-2.08V151h2.08Z"/><path class="cls-1" d="M467.17,161.63l-.4-1h-.05a3.08,3.08,0,0,1-1.08.92,3.5,3.5,0,0,1-1.45.26,2.35,2.35,0,0,1-1.73-.63,2.42,2.42,0,0,1-.63-1.79,2,2,0,0,1,.85-1.79,4.93,4.93,0,0,1,2.57-.64l1.33,0v-.33a1,1,0,0,0-1.19-1.16,5.42,5.42,0,0,0-2.15.55l-.69-1.41a6.21,6.21,0,0,1,2.93-.69,3.64,3.64,0,0,1,2.36.67,2.48,2.48,0,0,1,.82,2v5.09Zm-.62-3.54-.81,0a2.58,2.58,0,0,0-1.35.33,1,1,0,0,0-.44.92q0,.88,1,.88a1.6,1.6,0,0,0,1.16-.42,1.46,1.46,0,0,0,.43-1.11Z"/><path class="cls-1" d="M473.16,161.77a2.48,2.48,0,0,1-2.12-1,5.86,5.86,0,0,1,0-5.83,2.54,2.54,0,0,1,2.16-1,2.49,2.49,0,0,1,2.2,1.12h.07a8.46,8.46,0,0,1-.16-1.52V151h2.09v10.64h-1.6l-.4-1h-.09A2.39,2.39,0,0,1,473.16,161.77Zm.73-1.66a1.41,1.41,0,0,0,1.17-.46,2.7,2.7,0,0,0,.41-1.58v-.23a3.12,3.12,0,0,0-.38-1.76,1.41,1.41,0,0,0-1.23-.53,1.23,1.23,0,0,0-1.08.59,3.16,3.16,0,0,0-.39,1.72,3,3,0,0,0,.39,1.69A1.27,1.27,0,0,0,473.89,160.11Z"/><path class="cls-1" d="M479.41,152q0-1,1.13-1t1.13,1a1,1,0,0,1-.28.76,1.19,1.19,0,0,1-.85.27Q479.41,153,479.41,152Zm2.17,9.62H479.5V154h2.08Z"/><path class="cls-1" d="M490.51,161.63h-2.08v-4.46a2.25,2.25,0,0,0-.28-1.24,1,1,0,0,0-.87-.41,1.26,1.26,0,0,0-1.16.59,3.85,3.85,0,0,0-.36,1.93v3.6h-2.08V154h1.59l.28,1h.12a2.12,2.12,0,0,1,.89-.82,2.88,2.88,0,0,1,1.33-.3A2.4,2.4,0,0,1,490.2,155h.18a2.06,2.06,0,0,1,.91-.83,3,3,0,0,1,1.35-.29,2.66,2.66,0,0,1,2,.67,2.93,2.93,0,0,1,.67,2.14v5h-2.09v-4.46a2.25,2.25,0,0,0-.28-1.24,1,1,0,0,0-.87-.41,1.3,1.3,0,0,0-1.15.55,3.1,3.1,0,0,0-.38,1.74Z"/><path class="cls-1" d="M497.22,152q0-1,1.13-1t1.13,1a1,1,0,0,1-.28.76,1.19,1.19,0,0,1-.85.27Q497.22,153,497.22,152Zm2.17,9.62h-2.08V154h2.08Z"/><path class="cls-1" d="M505.74,153.85a3.37,3.37,0,0,1,.7.06l-.16,2a2.4,2.4,0,0,0-.62-.07,2.21,2.21,0,0,0-1.56.51,1.85,1.85,0,0,0-.56,1.44v3.89h-2.08V154h1.58l.31,1.29h.1a2.87,2.87,0,0,1,1-1A2.37,2.37,0,0,1,505.74,153.85Z"/><path class="cls-1" d="M515.88,153.26a2.16,2.16,0,0,0-1.85.9,4.18,4.18,0,0,0-.66,2.51q0,3.34,2.51,3.34a7.93,7.93,0,0,0,2.55-.53v1.78a7.08,7.08,0,0,1-2.75.51,4.19,4.19,0,0,1-3.34-1.32,5.6,5.6,0,0,1-1.16-3.8,6.19,6.19,0,0,1,.57-2.73,4.1,4.1,0,0,1,1.63-1.8,4.82,4.82,0,0,1,2.49-.63,6.73,6.73,0,0,1,2.93.7l-.68,1.72a11.42,11.42,0,0,0-1.13-.46A3.37,3.37,0,0,0,515.88,153.26Z"/><path class="cls-1" d="M527.36,161.63h-2.08v-4.46q0-1.65-1.23-1.65a1.4,1.4,0,0,0-1.26.59,3.63,3.63,0,0,0-.39,1.93v3.6h-2.08V151h2.08v2.17q0,.25,0,1.19l0,.62h.11a2.41,2.41,0,0,1,2.21-1.12,2.71,2.71,0,0,1,2,.72,2.88,2.88,0,0,1,.7,2.08Z"/><path class="cls-1" d="M536.4,157.8a4.11,4.11,0,0,1-1,2.92,3.57,3.57,0,0,1-2.74,1.05,3.83,3.83,0,0,1-1.94-.48,3.21,3.21,0,0,1-1.29-1.38,4.65,4.65,0,0,1-.45-2.11,4.08,4.08,0,0,1,1-2.91,3.59,3.59,0,0,1,2.75-1,3.86,3.86,0,0,1,1.94.48A3.19,3.19,0,0,1,536,155.7,4.61,4.61,0,0,1,536.4,157.8Zm-5.28,0a3.21,3.21,0,0,0,.37,1.72,1.33,1.33,0,0,0,1.21.58,1.31,1.31,0,0,0,1.2-.58,3.25,3.25,0,0,0,.37-1.72,3.16,3.16,0,0,0-.37-1.7,1.57,1.57,0,0,0-2.41,0A3.15,3.15,0,0,0,531.12,157.8Z"/><path class="cls-1" d="M543.48,161.63l-.28-1h-.11a2.2,2.2,0,0,1-1,.82,3.24,3.24,0,0,1-1.4.29,2.67,2.67,0,0,1-2-.72A2.9,2.9,0,0,1,538,159v-5h2.08v4.46a2.14,2.14,0,0,0,.29,1.24,1.07,1.07,0,0,0,.94.41,1.41,1.41,0,0,0,1.26-.58,3.62,3.62,0,0,0,.39-1.94V154h2.08v7.64Z"/><path class="cls-1" d="M549.24,161.63h-2.08V151h2.08Z"/><path class="cls-1" d="M550.73,165a4.86,4.86,0,0,1-1.37-.17v-1.64a3.72,3.72,0,0,0,1,.13.94.94,0,0,0,.77-.29,1.33,1.33,0,0,0,.24-.87V154h2.08v8.47a2.45,2.45,0,0,1-.7,1.88A2.81,2.81,0,0,1,550.73,165Zm.53-13q0-1,1.13-1t1.13,1a1,1,0,0,1-.28.76,1.19,1.19,0,0,1-.85.27Q551.25,153,551.26,152Z"/><path class="cls-1" d="M559,161.77a4,4,0,0,1-2.88-1,3.86,3.86,0,0,1-1-2.88,4.24,4.24,0,0,1,1-3,3.42,3.42,0,0,1,2.66-1,3.37,3.37,0,0,1,2.52.92,3.49,3.49,0,0,1,.9,2.55v1h-4.93a2,2,0,0,0,.53,1.39,1.85,1.85,0,0,0,1.38.5,5.73,5.73,0,0,0,1.31-.14,6.54,6.54,0,0,0,1.29-.46v1.61a4.89,4.89,0,0,1-1.17.41A7.36,7.36,0,0,1,559,161.77Zm-.29-6.44a1.32,1.32,0,0,0-1,.42,2,2,0,0,0-.43,1.19h2.93a1.74,1.74,0,0,0-.4-1.19A1.37,1.37,0,0,0,558.73,155.33Z"/><path class="cls-1" d="M570.9,161.63h-2.08v-4.46a2.14,2.14,0,0,0-.29-1.24,1.07,1.07,0,0,0-.94-.41,1.41,1.41,0,0,0-1.26.58,3.62,3.62,0,0,0-.39,1.94v3.6h-2.08V154h1.59l.28,1h.12a2.2,2.2,0,0,1,1-.84,3.27,3.27,0,0,1,1.39-.28,2.67,2.67,0,0,1,2,.72,2.89,2.89,0,0,1,.69,2.08Z"/><path class="cls-1" d="M575,157.48l.91-1.16L578,154h2.35l-3,3.32,3.22,4.33h-2.41l-2.2-3.1-.9.72v2.38h-2.08V151H575v4.74l-.11,1.74Z"/><path class="cls-1" d="M588.24,157.8a4.11,4.11,0,0,1-1,2.92,3.57,3.57,0,0,1-2.74,1.05,3.84,3.84,0,0,1-1.94-.48,3.21,3.21,0,0,1-1.29-1.38,4.65,4.65,0,0,1-.45-2.11,4.09,4.09,0,0,1,1-2.91,3.59,3.59,0,0,1,2.75-1,3.86,3.86,0,0,1,1.94.48,3.19,3.19,0,0,1,1.29,1.37A4.61,4.61,0,0,1,588.24,157.8Zm-5.28,0a3.21,3.21,0,0,0,.37,1.72,1.33,1.33,0,0,0,1.21.58,1.31,1.31,0,0,0,1.2-.58,3.26,3.26,0,0,0,.37-1.72,3.16,3.16,0,0,0-.37-1.7,1.57,1.57,0,0,0-2.41,0A3.15,3.15,0,0,0,583,157.8Z"/><path class="cls-1" d="M474.12,185.63l-1.07-2.72h-3.43l-1.05,2.72h-1l3.39-8.6h.84l3.37,8.6ZM472.74,182l-1-2.65q-.19-.5-.4-1.24a11.1,11.1,0,0,1-.37,1.24L470,182Z"/><path class="cls-1" d="M480.69,183.88a1.61,1.61,0,0,1-.67,1.38,3.14,3.14,0,0,1-1.87.49,4.08,4.08,0,0,1-2-.4v-.9a4.82,4.82,0,0,0,1,.37,4.15,4.15,0,0,0,1,.13,2.32,2.32,0,0,0,1.17-.24.84.84,0,0,0,.08-1.38,5.12,5.12,0,0,0-1.27-.63,6.88,6.88,0,0,1-1.27-.58,1.74,1.74,0,0,1-.56-.57,1.47,1.47,0,0,1-.18-.76,1.44,1.44,0,0,1,.64-1.24,3,3,0,0,1,1.75-.45,5.13,5.13,0,0,1,2,.42l-.35.79a4.65,4.65,0,0,0-1.75-.4,2,2,0,0,0-1,.22.67.67,0,0,0-.35.6.73.73,0,0,0,.13.44,1.3,1.3,0,0,0,.42.35,9.49,9.49,0,0,0,1.13.47,4.2,4.2,0,0,1,1.54.84A1.48,1.48,0,0,1,480.69,183.88Z"/><path class="cls-1" d="M486.47,183.88a1.61,1.61,0,0,1-.67,1.38,3.14,3.14,0,0,1-1.87.49,4.08,4.08,0,0,1-2-.4v-.9a4.82,4.82,0,0,0,1,.37,4.15,4.15,0,0,0,1,.13,2.32,2.32,0,0,0,1.17-.24.84.84,0,0,0,.08-1.38,5.12,5.12,0,0,0-1.27-.63,6.88,6.88,0,0,1-1.27-.58,1.74,1.74,0,0,1-.56-.57,1.47,1.47,0,0,1-.18-.76,1.44,1.44,0,0,1,.64-1.24,3,3,0,0,1,1.75-.45,5.13,5.13,0,0,1,2,.42l-.35.79a4.65,4.65,0,0,0-1.75-.4,2,2,0,0,0-1,.22.67.67,0,0,0-.35.6.73.73,0,0,0,.13.44,1.3,1.3,0,0,0,.42.35,9.49,9.49,0,0,0,1.13.47,4.2,4.2,0,0,1,1.54.84A1.48,1.48,0,0,1,486.47,183.88Z"/><path class="cls-1" d="M493.6,182.42a3.54,3.54,0,0,1-.79,2.45,2.79,2.79,0,0,1-2.19.88,2.89,2.89,0,0,1-1.53-.4,2.67,2.67,0,0,1-1-1.16,4,4,0,0,1-.36-1.77,3.54,3.54,0,0,1,.79-2.45,2.78,2.78,0,0,1,2.18-.88,2.72,2.72,0,0,1,2.14.9A3.53,3.53,0,0,1,493.6,182.42Zm-4.89,0a3,3,0,0,0,.49,1.88,2,2,0,0,0,2.9,0,3,3,0,0,0,.5-1.88,3,3,0,0,0-.5-1.86,1.74,1.74,0,0,0-1.46-.64,1.71,1.71,0,0,0-1.44.63A3,3,0,0,0,488.71,182.42Z"/><path class="cls-1" d="M497.88,185.75a2.74,2.74,0,0,1-2.16-.86,3.53,3.53,0,0,1-.76-2.43,3.64,3.64,0,0,1,.78-2.49,2.8,2.8,0,0,1,2.21-.88,4.39,4.39,0,0,1,.93.1,3,3,0,0,1,.73.23l-.3.83a4.57,4.57,0,0,0-.7-.21,3.14,3.14,0,0,0-.67-.08q-2,0-2,2.5a3,3,0,0,0,.48,1.82,1.66,1.66,0,0,0,1.42.63,4.33,4.33,0,0,0,1.65-.35v.86A3.51,3.51,0,0,1,497.88,185.75Z"/><path class="cls-1" d="M500.9,177.47a.65.65,0,0,1,.16-.49.61.61,0,0,1,.81,0,.63.63,0,0,1,.17.49.64.64,0,0,1-.17.49.6.6,0,0,1-.81,0A.66.66,0,0,1,500.9,177.47Zm1.05,8.16h-1v-6.42h1Z"/><path class="cls-1" d="M507.86,185.63l-.19-.91h0a2.7,2.7,0,0,1-1,.82,2.92,2.92,0,0,1-1.19.21,2.14,2.14,0,0,1-1.5-.49,1.8,1.8,0,0,1-.54-1.4q0-1.95,3.11-2l1.09,0v-.4a1.63,1.63,0,0,0-.33-1.12,1.34,1.34,0,0,0-1-.36,4.24,4.24,0,0,0-1.82.49l-.3-.74a4.57,4.57,0,0,1,1-.4,4.5,4.5,0,0,1,1.13-.15,2.45,2.45,0,0,1,1.7.51,2.13,2.13,0,0,1,.55,1.63v4.38Zm-2.2-.69a2,2,0,0,0,1.43-.5,1.84,1.84,0,0,0,.52-1.39v-.58l-1,0a3.54,3.54,0,0,0-1.67.36,1.09,1.09,0,0,0-.51,1,1,1,0,0,0,.32.8A1.33,1.33,0,0,0,505.66,184.95Z"/><path class="cls-1" d="M512.65,184.95a3.18,3.18,0,0,0,.5,0l.38-.08v.74a1.78,1.78,0,0,1-.47.13,3.5,3.5,0,0,1-.55,0q-1.86,0-1.86-2V180h-.92v-.47l.92-.4.41-1.37h.56v1.49h1.86V180h-1.86v3.78a1.3,1.3,0,0,0,.28.89A1,1,0,0,0,512.65,184.95Z"/><path class="cls-1" d="M517.43,185.75a3,3,0,0,1-2.25-.87,3.36,3.36,0,0,1-.82-2.41,3.72,3.72,0,0,1,.76-2.47,2.54,2.54,0,0,1,2.05-.91,2.42,2.42,0,0,1,1.91.79,3,3,0,0,1,.7,2.09v.62h-4.42a2.55,2.55,0,0,0,.57,1.72,2,2,0,0,0,1.53.59,5.17,5.17,0,0,0,2.05-.43v.87a5.15,5.15,0,0,1-1,.32A5.48,5.48,0,0,1,517.43,185.75Zm-.26-5.84a1.59,1.59,0,0,0-1.23.5,2.32,2.32,0,0,0-.54,1.39h3.36a2.14,2.14,0,0,0-.41-1.41A1.44,1.44,0,0,0,517.16,179.91Z"/><path class="cls-1" d="M531.55,181.27a4.32,4.32,0,0,1-1.15,3.24,4.56,4.56,0,0,1-3.31,1.12h-2.37v-8.57h2.63a3.85,3.85,0,0,1,4.21,4.2Zm-1.05,0a3.45,3.45,0,0,0-.84-2.53,3.37,3.37,0,0,0-2.5-.85h-1.45v6.84h1.21a3.69,3.69,0,0,0,2.68-.88A3.47,3.47,0,0,0,530.49,181.3Z"/><path class="cls-1" d="M533.22,177.47a.65.65,0,0,1,.16-.49.61.61,0,0,1,.81,0,.63.63,0,0,1,.17.49.64.64,0,0,1-.17.49.6.6,0,0,1-.81,0A.66.66,0,0,1,533.22,177.47Zm1.05,8.16h-1v-6.42h1Z"/><path class="cls-1" d="M539.17,179.09a3.81,3.81,0,0,1,.77.07l-.13.9a3.31,3.31,0,0,0-.7-.09,1.71,1.71,0,0,0-1.33.63,2.31,2.31,0,0,0-.55,1.58v3.45h-1v-6.42h.8l.11,1.19h0a2.82,2.82,0,0,1,.86-1A1.94,1.94,0,0,1,539.17,179.09Z"/><path class="cls-1" d="M543.75,185.75a3,3,0,0,1-2.25-.87,3.36,3.36,0,0,1-.82-2.41,3.72,3.72,0,0,1,.76-2.47,2.54,2.54,0,0,1,2.05-.91,2.42,2.42,0,0,1,1.91.79,3,3,0,0,1,.7,2.09v.62h-4.42a2.55,2.55,0,0,0,.57,1.72,2,2,0,0,0,1.53.59,5.17,5.17,0,0,0,2.05-.43v.87a5.15,5.15,0,0,1-1,.32A5.48,5.48,0,0,1,543.75,185.75Zm-.26-5.84a1.59,1.59,0,0,0-1.23.5,2.32,2.32,0,0,0-.54,1.39h3.36a2.14,2.14,0,0,0-.41-1.41A1.44,1.44,0,0,0,543.49,179.91Z"/><path class="cls-1" d="M550.36,185.75a2.74,2.74,0,0,1-2.16-.86,3.53,3.53,0,0,1-.76-2.43,3.64,3.64,0,0,1,.78-2.49,2.8,2.8,0,0,1,2.21-.88,4.39,4.39,0,0,1,.93.1,3,3,0,0,1,.73.23l-.3.83a4.57,4.57,0,0,0-.7-.21,3.14,3.14,0,0,0-.67-.08q-2,0-2,2.5a3,3,0,0,0,.48,1.82,1.66,1.66,0,0,0,1.42.63,4.33,4.33,0,0,0,1.65-.35v.86A3.51,3.51,0,0,1,550.36,185.75Z"/><path class="cls-1" d="M556,184.95a3.18,3.18,0,0,0,.5,0l.38-.08v.74a1.78,1.78,0,0,1-.47.13,3.5,3.5,0,0,1-.55,0q-1.86,0-1.86-2V180H553v-.47l.92-.4.41-1.37h.56v1.49h1.86V180h-1.86v3.78a1.3,1.3,0,0,0,.28.89A1,1,0,0,0,556,184.95Z"/><path class="cls-1" d="M563.56,182.42a3.54,3.54,0,0,1-.79,2.45,2.79,2.79,0,0,1-2.19.88,2.89,2.89,0,0,1-1.53-.4,2.67,2.67,0,0,1-1-1.16,4,4,0,0,1-.36-1.77,3.54,3.54,0,0,1,.79-2.45,2.78,2.78,0,0,1,2.18-.88,2.72,2.72,0,0,1,2.14.9A3.53,3.53,0,0,1,563.56,182.42Zm-4.89,0a3,3,0,0,0,.49,1.88,2,2,0,0,0,2.9,0,3,3,0,0,0,.5-1.88,3,3,0,0,0-.5-1.86,1.74,1.74,0,0,0-1.46-.64,1.71,1.71,0,0,0-1.44.63A3,3,0,0,0,558.67,182.42Z"/><path class="cls-1" d="M568.15,179.09a3.81,3.81,0,0,1,.77.07l-.13.9a3.31,3.31,0,0,0-.7-.09,1.71,1.71,0,0,0-1.33.63,2.31,2.31,0,0,0-.55,1.58v3.45h-1v-6.42h.8l.11,1.19h0a2.82,2.82,0,0,1,.86-1A1.94,1.94,0,0,1,568.15,179.09Z"/><path class="cls-1" d="M494.17,200.63v-8.57h1v7.66h3.78v.9Z"/><path class="cls-1" d="M505.53,198.35a2.1,2.1,0,0,1-.82,1.76,3.56,3.56,0,0,1-2.23.63,5.58,5.58,0,0,1-2.34-.39v-1a6.17,6.17,0,0,0,1.15.35,6,6,0,0,0,1.23.13,2.48,2.48,0,0,0,1.5-.38,1.24,1.24,0,0,0,.5-1.05,1.35,1.35,0,0,0-.18-.73,1.66,1.66,0,0,0-.6-.52,8.36,8.36,0,0,0-1.27-.54,4.07,4.07,0,0,1-1.71-1,2.24,2.24,0,0,1-.51-1.53,1.9,1.9,0,0,1,.74-1.58,3.09,3.09,0,0,1,2-.59,5.8,5.8,0,0,1,2.35.47l-.31.87a5.31,5.31,0,0,0-2.06-.45,2,2,0,0,0-1.24.34,1.12,1.12,0,0,0-.45.94,1.45,1.45,0,0,0,.16.73,1.54,1.54,0,0,0,.55.52,6.88,6.88,0,0,0,1.19.52,4.72,4.72,0,0,1,1.85,1A2,2,0,0,1,505.53,198.35Z"/><path class="cls-1" d="M513.65,192.07v5.54a3,3,0,0,1-.88,2.3,3.39,3.39,0,0,1-2.43.84,3.24,3.24,0,0,1-2.39-.84,3.13,3.13,0,0,1-.85-2.32v-5.52h1v5.59a2.2,2.2,0,0,0,.59,1.65,2.36,2.36,0,0,0,1.72.57,2.28,2.28,0,0,0,1.67-.58,2.22,2.22,0,0,0,.59-1.66v-5.58Z"/><path class="cls-1" d="M515.48,197.86V197h2.88v.89Z"/><path class="cls-1" d="M524.64,198.35a2.1,2.1,0,0,1-.82,1.76,3.56,3.56,0,0,1-2.23.63,5.58,5.58,0,0,1-2.34-.39v-1a6.17,6.17,0,0,0,1.15.35,6,6,0,0,0,1.23.13,2.48,2.48,0,0,0,1.5-.38,1.24,1.24,0,0,0,.5-1.05,1.35,1.35,0,0,0-.18-.73,1.66,1.66,0,0,0-.6-.52,8.36,8.36,0,0,0-1.27-.54,4.07,4.07,0,0,1-1.71-1,2.24,2.24,0,0,1-.51-1.53,1.9,1.9,0,0,1,.74-1.58,3.09,3.09,0,0,1,2-.59,5.8,5.8,0,0,1,2.35.47l-.31.87a5.31,5.31,0,0,0-2.06-.45,2,2,0,0,0-1.24.34,1.12,1.12,0,0,0-.45.94,1.45,1.45,0,0,0,.16.73,1.54,1.54,0,0,0,.55.52,6.88,6.88,0,0,0,1.19.52,4.72,4.72,0,0,1,1.85,1A2,2,0,0,1,524.64,198.35Z"/><path class="cls-1" d="M531.59,192.07h1.07l-3.09,8.57h-1l-3.07-8.57h1.05l2,5.54a15.55,15.55,0,0,1,.54,1.86,15.5,15.5,0,0,1,.55-1.89Z"/><path class="cls-1" d="M537.78,200.63,534.88,193h0q.08.9.08,2.14v5.45H534v-8.57h1.5l2.71,7.07h0l2.74-7.07h1.49v8.57h-1v-5.52q0-.95.08-2.06h0l-2.93,7.58Z"/><circle class="cls-2" cx="518.32" cy="169.97" r="2.47"/><line class="cls-3" x1="463.18" y1="169.97" x2="509.39" y2="169.97"/><line class="cls-3" x1="527.26" y1="169.97" x2="573.46" y2="169.97"/></svg>