<svg id="Layer_1" data-name="Layer 1" xmlns="http://www.w3.org/2000/svg" viewBox="0 0 473.07 333.56"><defs><style>.cls-1{fill:#c2e3c4;}.cls-2{fill:#8ecb91;}</style></defs><title>summerResearchIcons</title><path class="cls-1" d="M375,304.56H179.32l8.73-90.44C188.05,171,222.7,136,265.44,136h23.4c42.74,0,77.39,35,77.39,78.07Z"/><ellipse class="cls-1" cx="277.14" cy="73.93" rx="43.65" ry="52.83"/><path class="cls-2" d="M293.57,304.28H89.76l9.09-61.39a80.62,80.62,0,0,1,80.62-80.62h24.38a80.62,80.62,0,0,1,80.62,80.62Z"/><ellipse class="cls-2" cx="191.66" cy="98.12" rx="45.47" ry="54.55"/><path class="cls-1" d="M257.44,163.83h0a5.17,5.17,0,0,0-5.3,5l0,1.59a5.16,5.16,0,0,0-4.54-3h0a5.16,5.16,0,0,0-4.68,2.73,5.17,5.17,0,0,0-5-5.22h0a5.16,5.16,0,0,0-4.68,2.72l.05-2.15a5.17,5.17,0,0,0-5-5.3h0a5.17,5.17,0,0,0-5.3,5l-.51,20.29a5.17,5.17,0,0,0,5,5.3h0a5.16,5.16,0,0,0,4.68-2.72l-.05,2.15a5.17,5.17,0,0,0,5,5.3h0a5.16,5.16,0,0,0,4.68-2.73,5.17,5.17,0,0,0,5,5.22h0a5.17,5.17,0,0,0,5.3-5l0-1.59a5.16,5.16,0,0,0,4.54,3h0a5.17,5.17,0,0,0,5.3-5l.51-20.29A5.17,5.17,0,0,0,257.44,163.83Z"/></svg>