<?xml version="1.0" encoding="utf-8"?>
<!-- Generator: Adobe Illustrator 21.1.0, SVG Export Plug-In . SVG Version: 6.00 Build 0)  -->
<svg version="1.1" id="Layer_1" xmlns="http://www.w3.org/2000/svg" xmlns:xlink="http://www.w3.org/1999/xlink" x="0px" y="0px"
	 viewBox="0 0 609.1 675.9" style="enable-background:new 0 0 609.1 675.9;" xml:space="preserve">
<style type="text/css">
	.st0{fill:#8ECB91;stroke:#8ECB91;stroke-width:3;stroke-miterlimit:10;}
	.st1{fill:#FFFFFF;}
	.st2{fill:#FFFFFF;stroke:#8ECB91;stroke-width:3;stroke-miterlimit:10;}
</style>
<polygon class="st0" points="497.5,613.6 101.5,613.6 101.5,169.3 199.3,71.6 497.5,71.6 "/>
<g>
	<path class="st1" d="M305.7,243.7c0,15.3,0,30.2,0.5,38c-1.7,2.8-8.3,5.4-13.9,5.4c-0.2,0-8-12-19.1-25.7l-54.5-67.5
		c-13.7-16.8-21.5-26.7-25.7-30.2c-1.2,2.4-1.2,6.4-1.2,15.1v45.8c0,19.1,0.9,36.8,3.5,43.2c2.1,5,7.6,6.6,13.7,7.6l6.6,0.9
		c1.9,1.9,1.4,6.8,0,8.3c-12.7-0.5-22.2-0.7-31.6-0.7c-8.7,0-17.5,0.2-26.4,0.7c-1.4-1.4-1.9-6.4,0-8.3l4-0.7
		c6.4-1.2,11.1-2.8,13-7.8c2.6-6.4,3.3-24.1,3.3-43.2v-60c0-13-0.2-16.8-1.7-20.1c-1.9-4-5.2-6.8-13.5-8l-6.6-0.9
		c-1.7-1.9-1.4-7.6,0.9-8.3c11.1,0.5,22.9,0.7,32.6,0.7c8,0,14.9-0.2,19.8-0.7c2.4,10.6,17.7,28.6,39,53.8l19.8,23.4
		c10.4,12.3,17.2,20.5,22.7,26c0.9-2.4,0.9-6.4,0.9-10.6v-32.6c0-19.1-0.9-36.8-3.5-43.2c-2.1-5-7.3-6.6-13.7-7.6l-6.4-0.9
		c-1.9-1.9-1.4-6.8,0-8.3c12.7,0.5,22,0.7,31.6,0.7c8.7,0,17.2-0.2,26.4-0.7c1.4,1.4,1.9,6.4,0,8.3l-4.2,0.7
		c-6.1,0.9-10.6,2.8-12.7,7.8c-2.6,6.4-3.5,24.1-3.5,43.2L305.7,243.7L305.7,243.7z"/>
</g>
<rect x="340" y="126.1" class="st1" width="136" height="17"/>
<rect x="340" y="162.9" class="st1" width="136" height="17"/>
<rect x="340" y="199.6" class="st1" width="136" height="17"/>
<rect x="340" y="236.3" class="st1" width="136" height="17"/>
<rect x="340" y="273.1" class="st1" width="136" height="17"/>
<polygon class="st2" points="200.5,170.6 102.5,170.6 200.5,72.6 "/>
<rect x="140" y="309.9" class="st1" width="336" height="17"/>
<rect x="140" y="346.6" class="st1" width="336" height="17"/>
<rect x="140" y="383.3" class="st1" width="336" height="17"/>
<rect x="140" y="420.1" class="st1" width="336" height="17"/>
<rect x="140" y="456.9" class="st1" width="336" height="17"/>
<rect x="140" y="493.6" class="st1" width="336" height="17"/>
<rect x="140" y="530.3" class="st1" width="336" height="17"/>
<rect x="140" y="567.1" class="st1" width="336" height="17"/>
</svg>
