<svg id="Layer_1" data-name="Layer 1" xmlns="http://www.w3.org/2000/svg" viewBox="0 0 423.34 329.76"><defs><style>.cls-1{fill:#8ecb91;}.cls-2{fill:#f8fcff;}</style></defs><title>res</title><path class="cls-1" d="M311.94,103.3c-19.38,0-35.93,13.56-46.92,46.19h93.84C347.87,116.86,331.32,103.3,311.94,103.3Z"/><path class="cls-1" d="M242.43,158v21.87H258l20.55,137.3a14.78,14.78,0,0,0,14.62,12.59h42.09a14.78,14.78,0,0,0,14.62-12.59L368.71,191l1.66-11.12H381V158Z"/><circle class="cls-1" cx="311.94" cy="74.54" r="25.52"/><path class="cls-1" d="M0,14.78V263.13a14.78,14.78,0,0,0,14.78,14.78H264.43L251,188H234.33V149.9h22.3c8.8-23.65,20.93-40.43,34.79-48.74a33.62,33.62,0,1,1,41,0c13.85,8.32,26,25.1,34.79,48.74h21.9V188H377.36L363.9,277.91h44.67a14.78,14.78,0,0,0,14.78-14.78V14.78A14.78,14.78,0,0,0,408.56,0H14.78A14.78,14.78,0,0,0,0,14.78Z"/><rect class="cls-2" x="35.93" y="33.5" width="195.43" height="35.41"/><rect class="cls-2" x="60.88" y="86.97" width="127.5" height="10.94"/><rect class="cls-2" x="38.87" y="108.09" width="153.31" height="10.94"/><rect class="cls-2" x="38.87" y="129.22" width="149.51" height="10.94"/><rect class="cls-2" x="38.87" y="150.53" width="144.2" height="10.94"/><rect class="cls-2" x="38.87" y="171.84" width="153.31" height="10.94"/><rect class="cls-2" x="38.87" y="192.96" width="58.82" height="10.94"/></svg>