<svg id="Layer_1" data-name="Layer 1" xmlns="http://www.w3.org/2000/svg" viewBox="0 0 418 314"><defs><style>.cls-1{fill:#8ecb91;}.cls-2{fill:#fff;}</style></defs><title>res</title><path class="cls-1" d="M377.27,158,286.1,0H12A12,12,0,0,0,0,12V302a12,12,0,0,0,12,12H287.15Z"/><path class="cls-1" d="M333.43,12.68A25.65,25.65,0,0,0,311.3,0h-5.58l91.16,158-90.1,156h4.52a25.65,25.65,0,0,0,22.13-12.68L418,157Z"/><path class="cls-2" d="M152,196.16l20.17-20.1a6.22,6.22,0,0,0,1.32-6.86,11.24,11.24,0,0,1-1.79-1.46l-11.44-11.47a11.25,11.25,0,0,1,0-15.89l39.4-39.27a11.25,11.25,0,0,1,15.89,0L227,112.61a11.25,11.25,0,0,1,0,15.89l-16.27,16.22a50.89,50.89,0,0,1,4.88,43.77L251.3,152.9a45.73,45.73,0,0,0,.1-64.6L240,76.82a45.73,45.73,0,0,0-64.6-.1L136,116a45.73,45.73,0,0,0-.1,64.6l11.44,11.47A45.83,45.83,0,0,0,152,196.16Z"/><path class="cls-2" d="M200.13,139.41l-11.44-11.47a45.83,45.83,0,0,0-4.7-4.1l-20.17,20.1a6.22,6.22,0,0,0-1.31,6.86,11.24,11.24,0,0,1,1.78,1.45l11.44,11.47a11.25,11.25,0,0,1,0,15.89l-39.4,39.27a11.25,11.25,0,0,1-15.89,0L109,207.39a11.25,11.25,0,0,1,0-15.89l16.27-16.22a50.89,50.89,0,0,1-4.88-43.77L84.7,167.1a45.73,45.73,0,0,0-.1,64.6L96,243.18a45.73,45.73,0,0,0,64.6.1L200,204A45.73,45.73,0,0,0,200.13,139.41Z"/></svg>