<svg id="Layer_1" data-name="Layer 1" xmlns="http://www.w3.org/2000/svg" viewBox="0 0 418 314"><defs><style>.cls-1{fill:#8ecb91;}.cls-2{fill:#fff;}</style></defs><title>res</title><path class="cls-1" d="M377.27,158,286.1,0H12A12,12,0,0,0,0,12V302a12,12,0,0,0,12,12H287.15Z"/><path class="cls-1" d="M333.43,12.68A25.65,25.65,0,0,0,311.3,0h-5.58l91.16,158-90.1,156h4.52a25.65,25.65,0,0,0,22.13-12.68L418,157Z"/><path class="cls-2" d="M48.27,154.83c0-28.82,23.24-46.79,49-52.68,5.27.62,6.51,7.44,3.1,9.61C89.18,115.78,74,126,74,140.57c0,13,9.61,17.35,17,19.21,5.27,1.55,9.3,6.51,9.3,13.63,0,10.54-9.61,19.21-21.38,19.21C66.25,192.63,48.27,181.78,48.27,154.83Zm58.43,0c0-28.82,23.24-46.79,49-52.68,5.27.62,6.51,7.44,3.1,9.61-11.15,4-26.34,14.25-26.34,28.82,0,13,9.61,17.35,17,19.21,5.27,1.55,9.3,6.51,9.3,13.63,0,10.54-9.61,19.21-21.38,19.21C124.68,192.63,106.71,181.78,106.71,154.83Z"/><path class="cls-2" d="M247.29,161.84c0,28.82-23.24,46.79-49,52.68-5.27-.62-6.51-7.44-3.1-9.61,11.16-4,26.34-14.25,26.34-28.82,0-13-9.61-17.35-17-19.21-5.27-1.55-9.3-6.51-9.3-13.63,0-10.54,9.61-19.21,21.38-19.21C229.32,124,247.29,134.88,247.29,161.84Zm58.43,0c0,28.82-23.24,46.79-49,52.68-5.27-.62-6.51-7.44-3.1-9.61,11.16-4,26.34-14.25,26.34-28.82,0-13-9.61-17.35-17-19.21-5.27-1.55-9.3-6.51-9.3-13.63,0-10.54,9.61-19.21,21.38-19.21C287.75,124,305.73,134.88,305.73,161.84Z"/></svg>