<svg xmlns="http://www.w3.org/2000/svg" viewBox="0 0 1221.48 984.33"><defs><style>.cls-1,.cls-17,.cls-18,.cls-19,.cls-2,.cls-20,.cls-21,.cls-3,.cls-4,.cls-5,.cls-6{fill:none;}.cls-1,.cls-16,.cls-17,.cls-2,.cls-3,.cls-4,.cls-5,.cls-6{stroke:#2c3d6c;}.cls-1,.cls-16,.cls-17,.cls-18,.cls-19,.cls-2,.cls-20,.cls-21,.cls-3,.cls-4,.cls-5,.cls-6{stroke-miterlimit:10;}.cls-1{stroke-width:12px;}.cls-2{stroke-width:5px;}.cls-3{stroke-width:20px;}.cls-4{stroke-width:8.48px;}.cls-5{stroke-width:5.2px;}.cls-6{stroke-width:7.71px;}.cls-7{fill:#2c3d6c;}.cls-12,.cls-8{font-size:42.87px;font-family:OpenSans-Bold, Open Sans;font-weight:700;}.cls-12,.cls-15,.cls-16,.cls-8{fill:#fff;}.cls-8{letter-spacing:-0.06em;}.cls-9{letter-spacing:-0.07em;}.cls-10,.cls-12{letter-spacing:-0.06em;}.cls-11{letter-spacing:-0.05em;}.cls-13{letter-spacing:-0.06em;}.cls-14{letter-spacing:-0.05em;}.cls-16,.cls-17{stroke-width:1.12px;}.cls-18,.cls-19,.cls-20,.cls-21{stroke:#fff;}.cls-18{stroke-width:1.74px;}.cls-19{stroke-width:1.33px;}.cls-20{stroke-width:1.74px;}.cls-21{stroke-width:1.51px;}</style></defs><title>ri</title><g id="Layer_1" data-name="Layer 1"><circle class="cls-1" cx="332" cy="266" r="75.42"/><path class="cls-2" d="M481.44,266a149.44,149.44,0,1,0-249,111.41"/><path class="cls-3" d="M455.47,305.34a129.67,129.67,0,0,0-95.94-166"/><path class="cls-3" d="M224.73,193.33A129.56,129.56,0,0,0,423.61,357.61"/><path class="cls-4" d="M320,378.36a114.25,114.25,0,0,0,12,.63A113,113,0,0,0,445,266"/><path class="cls-4" d="M436.9,224A113,113,0,0,0,219,266q0,2.85.14,5.66"/><path class="cls-5" d="M351.67,174.42a93.66,93.66,0,1,0,74,92.69"/><path class="cls-6" d="M321.63,368.26q5.12.51,10.37.52a102.78,102.78,0,0,0,63.74-183.41"/><path class="cls-6" d="M308.7,165.87A102.79,102.79,0,0,0,258,337.3"/><circle class="cls-7" cx="332" cy="266" r="66.22"/></g><g id="Layer_2" data-name="Layer 2"><circle class="cls-1" cx="836.34" cy="266" r="75.42"/><path class="cls-2" d="M985.78,266a149.44,149.44,0,1,0-249,111.41"/><path class="cls-3" d="M959.81,305.34a129.67,129.67,0,0,0-95.94-166"/><path class="cls-3" d="M729.07,193.33A129.56,129.56,0,0,0,927.95,357.61"/><path class="cls-4" d="M824.39,378.36a114.25,114.25,0,0,0,12,.63,113,113,0,0,0,113-113"/><path class="cls-4" d="M941.24,224a113,113,0,0,0-217.9,42q0,2.85.14,5.66"/><path class="cls-5" d="M856,174.42a93.66,93.66,0,1,0,74,92.69"/><path class="cls-6" d="M826,368.26q5.12.51,10.37.52a102.78,102.78,0,0,0,63.74-183.41"/><path class="cls-6" d="M813,165.87A102.79,102.79,0,0,0,762.32,337.3"/><circle class="cls-7" cx="836.34" cy="266" r="66.22"/><text class="cls-8" transform="translate(777.65 281.39)">M<tspan class="cls-9" x="37.69" y="0">C</tspan><tspan class="cls-10" x="62.16" y="0">B</tspan><tspan class="cls-11" x="88.36" y="0">R</tspan></text><text class="cls-12" transform="translate(291.28 281.39)">B<tspan class="cls-13" x="26.2" y="0">B</tspan><tspan class="cls-14" x="52.26" y="0">C</tspan></text></g><g id="Layer_3" data-name="Layer 3"><rect class="cls-7" x="175.45" y="572.93" width="315.98" height="255.69" rx="29.67" ry="29.67"/><path class="cls-15" d="M334.66,668c-25.51,0-27.31,8.54-39.41,15.33-10,5.6-31.5,13.53-43.48,20.65-4.4,2.62-7.27,7.16-7.49,10.89l-16.65,109h214L425,714.91c-.22-3.73-3.08-8.27-7.49-10.89-12-7.12-33.5-15-43.48-20.65C362,676.59,359.14,668,334.66,668"/><path class="cls-7" d="M357.12,708.9c2.48-.76,5-1.55,7.57-2.28,2.89-.83,5.82-1.58,8.69-2.27l-1,.88,6.56-21.17.74,3.25h0a52.34,52.34,0,0,0-4.66-3.93,55.82,55.82,0,0,0-5.13-3.46,43.55,43.55,0,0,0-5.44-2.77,21.47,21.47,0,0,0-2.74-.93,10.53,10.53,0,0,0-1.29-.25l-.56,0h-.27s0,0,0,0l.13,0h0l1.53-1.82L336.79,825.17h0l-.43-.1,29.49-102.46h0l.18,1.1c-1.5-2.48-2.93-4.94-4.3-7.28s-2.71-4.58-4.08-6.71Zm1.1,1.52c1.59,2,3.18,4,4.76,5.84l5.12,6,.38.45-.2.65h0L336.78,825.2l-.43-.1h0l20.4-151.72.19-1.39,1.34-.44h0l.33-.09.2,0,.34-.05c.22,0,.4,0,.6,0a10.46,10.46,0,0,1,1.06,0,15,15,0,0,1,1.91.26,26.1,26.1,0,0,1,3.46,1,48.43,48.43,0,0,1,6.27,2.77,61.24,61.24,0,0,1,5.82,3.48,57.33,57.33,0,0,1,5.48,4.15h0l1.53,1.57-.79,1.68-9.41,20.07-.33.71-.67.17c-2.48.63-4.92,1.21-7.39,1.7s-5,.94-7.58,1.4Z"/><path class="cls-7" d="M309.79,710.41l-.88-.16c-2.59-.47-5.12-.91-7.59-1.4s-4.91-1.06-7.39-1.69l-.67-.17-.33-.71-9.41-20.07-.79-1.68,1.53-1.57h0a57.33,57.33,0,0,1,5.48-4.15,61.24,61.24,0,0,1,5.82-3.48,48.43,48.43,0,0,1,6.27-2.77,26.1,26.1,0,0,1,3.46-1,15,15,0,0,1,1.91-.26,10.46,10.46,0,0,1,1.06,0c.2,0,.38,0,.6,0l.34.05.2,0,.33.09h0l1.34.44.19,1.38,21,151.73h0l-.43.1L299.72,723.34h0l-.21-.66.39-.45,5.12-6C306.6,714.41,308.2,712.44,309.79,710.41Zm1.1-1.53-.53.83c-1.37,2.13-2.7,4.36-4.08,6.71s-2.8,4.81-4.3,7.28l.18-1.11h0l30,102.47-.43.1h0l-25-151.11,1.53,1.82h0l.13,0s0,0,0,0h-.27l-.56,0a10.53,10.53,0,0,0-1.29.25,21.48,21.48,0,0,0-2.74.93,43.56,43.56,0,0,0-5.44,2.77,55.82,55.82,0,0,0-5.13,3.46,52.35,52.35,0,0,0-4.66,3.93l.74-3.25,6.56,21.17-1-.88c2.88.69,5.81,1.44,8.7,2.26C305.89,707.34,308.42,708.12,310.9,708.89Z"/><path class="cls-15" d="M373.54,644.82c-3.7,28.46-28.63,48.54-39.13,48.54s-35-20.7-39.13-48.54c-4.17-28.14,3.68-59.16,39.13-59.16C372.17,585.66,377.21,616.61,373.54,644.82Z"/><path class="cls-7" d="M373.54,644.82a59.61,59.61,0,0,1-5.21,17.79,69.65,69.65,0,0,1-10,15.7,59.25,59.25,0,0,1-14,12.44,23.71,23.71,0,0,1-9,3.56,12.42,12.42,0,0,1-5-.55,26.83,26.83,0,0,1-4.5-1.83,57.79,57.79,0,0,1-15-11.67,72.13,72.13,0,0,1-11-15.48,63,63,0,0,1-6.25-18.06,90.92,90.92,0,0,1-1.15-19A61.46,61.46,0,0,1,296.18,609a37.93,37.93,0,0,1,10.91-15.79,36.4,36.4,0,0,1,17.38-7.82,51.84,51.84,0,0,1,9.45-.74,59.44,59.44,0,0,1,9.4.79,37.25,37.25,0,0,1,17.24,7.27A34.39,34.39,0,0,1,371.19,608a61,61,0,0,1,3.32,18.27A107.23,107.23,0,0,1,373.54,644.82Zm0,0a107.17,107.17,0,0,0,.84-18.55,57.54,57.54,0,0,0-3.6-18.12,36.57,36.57,0,0,0-4.37-8.11,30.43,30.43,0,0,0-6.44-6.5,36,36,0,0,0-16.9-6.45,57.68,57.68,0,0,0-9.14-.46,49.77,49.77,0,0,0-9,1,33.83,33.83,0,0,0-15.91,7.8,36,36,0,0,0-9.56,14.81,59.36,59.36,0,0,0-3.17,17.69,86.74,86.74,0,0,0,1.23,18.1,61.1,61.1,0,0,0,5.75,17,71.47,71.47,0,0,0,10.11,15A55,55,0,0,0,327,689.78a24.53,24.53,0,0,0,4,1.86,10.31,10.31,0,0,0,4.14.67,22.08,22.08,0,0,0,8.34-2.93,58.11,58.11,0,0,0,14.23-11.55,66.15,66.15,0,0,0,10.39-15.29A59.14,59.14,0,0,0,373.54,644.82Z"/><path class="cls-7" d="M263.09,823.75q2-15,3.86-30.1.92-7.53,1.76-15.07.42-3.77.77-7.54c.1-1.26.24-2.52.32-3.78l.13-1.89,0-1.9.09,1.9v1.9c0,1.27,0,2.53-.07,3.8q-.11,3.8-.28,7.59c-.22,5.06-.48,10.12-.76,15.17q-.85,15.17-1.87,30.32Z"/><path class="cls-7" d="M269.23,790.12q-2.49,6.31-5.08,12.56c-.87,2.08-1.75,4.16-2.66,6.23a48.3,48.3,0,0,1-3,6.09l-.2-.15a48.51,48.51,0,0,0,2.59-6.2c.78-2.11,1.52-4.24,2.25-6.37q2.19-6.39,4.25-12.83Z"/><path class="cls-7" d="M400.3,824.15q-1-15.16-1.87-30.32c-.28-5.05-.55-10.11-.76-15.17q-.17-3.79-.28-7.59c0-1.27-.08-2.53-.07-3.8v-1.9l.09-1.9,0,1.9.13,1.89c.07,1.26.21,2.52.32,3.78q.36,3.78.77,7.54.82,7.54,1.76,15.07,1.84,15.06,3.86,30.1Z"/><path class="cls-7" d="M384.31,742.82a2,2,0,0,1-2-2v-7a2,2,0,0,1,4,0v7A2,2,0,0,1,384.31,742.82Z"/><path class="cls-7" d="M400,789.45q2.07,6.43,4.25,12.83c.73,2.13,1.47,4.26,2.25,6.37a48.51,48.51,0,0,0,2.59,6.2l-.2.15a48.3,48.3,0,0,1-3-6.09c-.91-2.07-1.8-4.15-2.66-6.23q-2.61-6.26-5.08-12.56Z"/><path class="cls-16" d="M365.55,740.82h25a0,0,0,0,1,0,0V768.3a2.41,2.41,0,0,1-2.41,2.41H368a2.41,2.41,0,0,1-2.41-2.41V740.82A0,0,0,0,1,365.55,740.82Z"/><line class="cls-17" x1="365.55" y1="747.76" x2="390.57" y2="747.76"/></g><g id="Layer_4" data-name="Layer 4"><rect class="cls-7" x="723.35" y="585.66" width="225.98" height="205.56"/><path class="cls-7" d="M942.41,583.84l62.37-34.42a6.36,6.36,0,0,1,9.43,5.57V798.5a6.36,6.36,0,0,1-7.61,6.24l-62.37-12.5a6.36,6.36,0,0,1-5.11-6.24V589.41A6.36,6.36,0,0,1,942.41,583.84Z"/><path class="cls-7" d="M665.82,548.34,731,585a4.94,4.94,0,0,1,2.52,4.31V787.17a4.94,4.94,0,0,1-4,4.84l-65.22,13.07a4.94,4.94,0,0,1-5.91-4.84V552.65A4.94,4.94,0,0,1,665.82,548.34Z"/><polygon class="cls-18" points="812.16 650.07 795.33 666.89 801.49 689.87 824.47 696.03 841.3 679.21 835.14 656.23 812.16 650.07"/><line class="cls-19" x1="835.91" y1="677.76" x2="831.19" y2="660.17"/><line class="cls-19" x1="805.43" y1="685.93" x2="823.03" y2="690.64"/><line class="cls-19" x1="813.6" y1="655.45" x2="800.72" y2="668.33"/><line class="cls-20" x1="845.55" y1="616.59" x2="851.71" y2="639.57"/><polyline class="cls-20" points="891.2 629.31 874.97 645.53 851.75 639.61 834.92 656.44"/><line class="cls-20" x1="801.79" y1="690.02" x2="784.97" y2="706.84"/><line class="cls-20" x1="830.93" y1="719.16" x2="824.77" y2="696.18"/><rect class="cls-21" x="760.97" y="604.6" width="143.15" height="131.1" rx="6.06" ry="6.06"/><rect class="cls-15" x="760.97" y="744.14" width="143.15" height="8.1" rx="0.98" ry="0.98"/><rect class="cls-15" x="760.97" y="758.08" width="133.43" height="8.1" rx="0.98" ry="0.98"/><path class="cls-15" d="M960.46,614.58V723a2.52,2.52,0,0,0,2.11,2.49l31.18,5.09a2.52,2.52,0,0,0,2.93-2.48l.27-129.33a2.52,2.52,0,0,0-3.65-2.26l-31.45,15.79A2.52,2.52,0,0,0,960.46,614.58Z"/><path class="cls-15" d="M682.33,657.66,714.8,666a4.19,4.19,0,0,0,5.23-4.06V624.58a4.19,4.19,0,0,0-2.59-3.87L685,607.25a4.19,4.19,0,0,0-5.8,3.87V653.6A4.19,4.19,0,0,0,682.33,657.66Z"/><path class="cls-15" d="M683.18,726.37l32.47,1.44a4.19,4.19,0,0,0,4.38-4.19V685.91a4.19,4.19,0,0,0-3.36-4.11l-32.47-6.59a4.19,4.19,0,0,0-5,4.11v42.86A4.19,4.19,0,0,0,683.18,726.37Z"/></g></svg>