<svg xmlns="http://www.w3.org/2000/svg" xmlns:xlink="http://www.w3.org/1999/xlink" viewBox="0 0 300 300"><defs><style>.cls-1{fill:none;}.cls-2,.cls-3{fill:#8ecc92;}.cls-3{stroke:#fff;stroke-miterlimit:10;stroke-width:6.66px;}.cls-4{clip-path:url(#clip-path);}.cls-5{fill:#fff;}</style><clipPath id="clip-path"><path class="cls-1" d="M28.44,149.88c0-21.86.07-43.73-.09-65.59,0-3.24.92-5,3.78-6.63Q89.16,45,146,12c2.74-1.59,4.7-2,7.65-.24q56.82,33,113.83,65.68c2.9,1.66,4.19,3.32,4.18,6.93q-.26,65.58,0,131.16c0,3.27-.94,5.1-3.75,6.71q-57.22,32.85-114.32,65.93c-2.69,1.56-4.62,1.44-7.25-.08q-56.85-33-113.83-65.67c-3-1.69-4.19-3.42-4.16-7C28.54,193.6,28.44,171.74,28.44,149.88Z"/></clipPath></defs><g id="mcbr_copy" data-name="mcbr copy"><path class="cls-2" d="M25.84,149.87c0-22.32.08-44.65-.08-67,0-3.31.94-5.1,3.85-6.77q58.26-33.36,116.32-67c2.79-1.62,4.8-2,7.81-.25q58,33.72,116.26,67.08c3,1.7,4.28,3.4,4.26,7.08q-.25,67,0,134c0,3.34-1,5.2-3.84,6.85Q212,257.38,153.65,291.16c-2.75,1.59-4.73,1.47-7.41-.08Q88.19,257.4,30,224c-3-1.72-4.28-3.49-4.24-7.15C26,194.53,25.84,172.2,25.84,149.87Z"/><path class="cls-3" d="M78.21,154.93c0-12.91.05-25.82,0-38.73a3.84,3.84,0,0,1,2.22-3.92Q114.08,93,147.64,73.53c1.62-.94,2.78-1.15,4.52-.14q33.56,19.49,67.22,38.78a4.08,4.08,0,0,1,2.47,4.1q-.15,38.73,0,77.45a3.91,3.91,0,0,1-2.22,4q-33.78,19.4-67.5,38.94a3.7,3.7,0,0,1-4.28-.05q-33.57-19.47-67.22-38.78a4.1,4.1,0,0,1-2.46-4.14C78.28,180.75,78.21,167.84,78.21,154.93Z"/><g class="cls-4"><path class="cls-5" d="M102.33,255c-14.39,0-28.15-5.93-38.75-16.7-9.8-10-16-23.16-16.95-36.2-1.35-18.23-1.12-36.22-.77-49.85.71-27.87,12.16-48.44,34-61.14,7.52-4.37,16.17-6,23.12-7.37l.32-.06a9.47,9.47,0,0,1,1.92-.26,3.11,3.11,0,0,1,3,1.78c1,1.94-.2,3.43-1,4.53-.17.22-.34.43-.5.65-5.3,7.54-5.37,15-.21,22.77,1.65,2.49,2.44,4.1,1.88,5.49s-2.27,2-5.06,2.63c-10.27,2.31-17,8.84-20.62,20-1.37,4.24-1.58,9.11-1.67,13.34-.15,7.65-.17,15.44-.18,23,0,5.41,0,11-.09,16.52-.12,10.52,3.13,19.43,9.4,25.77,6,6,14.24,9.22,23.94,9.22h1.22c8.08-.22,16.72-.32,27.17-.32,7.3,0,14.71.05,21.89.09q9.47.08,18.94.1c16.94,0,25,7.45,27.1,24.83l.11,1h-7.88c-10,0-20.15-.09-30-.16s-20-.17-30-.17c-14.86,0-27.1.19-38.51.58Z"/><path class="cls-2" d="M105.24,84.26a2.28,2.28,0,0,1,2.24,1.3c.88,1.76-.56,3-1.48,4.29-5.53,7.86-5.54,15.75-.23,23.75,3,4.56,2.68,5.61-2.65,6.8C91.8,122.94,85.25,130.52,81.87,141c-1.39,4.27-1.61,9-1.71,13.58-.26,13.17-.12,26.33-.27,39.5-.25,21.05,13.11,35.87,34.2,35.87l1.24,0c9-.25,18.1-.32,27.15-.32,13.61,0,27.22.17,40.83.19,16.46,0,24.23,7.05,26.24,24.07h-6.91c-20,0-40-.32-59.93-.32-12.86,0-25.72.13-38.56.58l-1.82,0c-30.48,0-52.94-26.48-54.84-52.11-1.23-16.62-1.2-33.2-.77-49.76.66-25.68,10.38-46.92,33.59-60.41,7.1-4.13,15-5.76,22.85-7.27a11.33,11.33,0,0,1,2.08-.3m0-1.73a10.41,10.41,0,0,0-2.09.27l-.32.06c-7,1.35-15.74,3-23.38,7.48C57.31,103.2,45.72,124,45,152.2c-.35,13.65-.58,31.67.78,49.93,1,13.24,7.25,26.63,17.2,36.74,10.75,10.94,24.73,17,39.36,17l1.88,0c11.41-.39,23.64-.58,38.5-.58,10,0,20.13.09,29.95.17s20,.16,30,.16h8.85l-.23-1.93c-2.12-17.91-10.48-25.56-27.95-25.59-6.32,0-12.75-.06-19-.1-7.17-.05-14.58-.1-21.87-.1-10.46,0-19.11.11-27.19.33h-1.2c-9.47,0-17.54-3.1-23.33-9-6.11-6.18-9.27-14.88-9.15-25.16.06-5.51.08-11.11.09-16.53,0-7.52,0-15.31.19-23,.08-4.17.28-9,1.62-13.09,3.5-10.82,10-17.16,20-19.4,2.55-.57,4.91-1.24,5.67-3.15s-.43-4-2-6.29c-4.94-7.45-4.88-14.58.2-21.79.14-.21.3-.41.47-.62.88-1.13,2.36-3,1.14-5.44a4,4,0,0,0-3.78-2.26Z"/><path class="cls-5" d="M154.43,128.35c-5.57-.11-11.23-.16-16.7-.21q-6.19-.06-12.39-.14c-.63,0-1-.51-1.26-1-.12-.19-.25-.4-.42-.62l-.46-.6.53-.53a10.23,10.23,0,0,1,5.26-2.47c.56-.14,1.12-.28,1.67-.45,9.35-2.94,15.06-11,14.91-21.17-.14-9.52-6.86-18-15.62-19.76-5.72-1.15-6.76-4-6.67-8.77.27-14.79.26-28.15,0-40.85-.05-2.56.38-4.16,1.39-5.2s2.36-1.41,4.56-1.41l.85,0c3.25.14,6.7.21,10.55.21,4.24,0,8.41-.09,12.29-.17h.44a5.63,5.63,0,0,1,4.13,1.24c.87.87,1.27,2.2,1.26,4.19-.1,23.64-.09,47.67-.07,70.91v21.69c0,1.49,0,3-1,4.08a4.07,4.07,0,0,1-3,1Z"/><path class="cls-2" d="M129.21,26l.81,0c3.53.15,7,.21,10.58.21,4.11,0,8.21-.08,12.31-.17h.43c3.1,0,4.55.88,4.53,4.57-.13,30.72-.07,61.45-.07,92.18,0,2.32.24,4.66-3.21,4.66h-.14c-9.7-.18-19.4-.21-29.1-.35-.26,0-.5-.62-1-1.28,1.81-1.83,4.31-2,6.58-2.71,9.72-3.06,15.67-11.54,15.51-22-.14-9.59-6.78-18.7-16.31-20.6-5.19-1-6.06-3.31-6-7.9.25-13.63.29-27.27,0-40.89C124,27.39,125.39,26,129.21,26m0-1.72h0c-1.65,0-3.73.19-5.17,1.66-1.2,1.23-1.7,3-1.64,5.83.28,12.69.29,26,0,40.82-.1,5.14,1.08,8.37,7.36,9.62,8.37,1.67,14.79,9.81,14.93,18.93.15,9.72-5.34,17.51-14.31,20.33-.51.17-1.05.3-1.61.44a11.1,11.1,0,0,0-5.67,2.7l-1.05,1.07.9,1.19c.14.18.26.38.38.56a2.39,2.39,0,0,0,2,1.4q6.21.09,12.42.14c5.47.05,11.12.11,16.67.21h.18a4.87,4.87,0,0,0,3.66-1.27c1.3-1.3,1.29-3.1,1.28-4.69V101.54c0-23.23,0-47.26.07-70.88,0-2.24-.47-3.76-1.5-4.81a6.52,6.52,0,0,0-4.75-1.49h-.46c-3.87.08-8,.16-12.28.16-3.83,0-7.27-.06-10.5-.2l-.89,0Z"/><path class="cls-5" d="M124.45,118.46a17.08,17.08,0,0,1-12-5.23,16.09,16.09,0,0,1-4.4-11.6c.29-9.44,6.69-15.54,16.31-15.54,5,0,9,1.56,11.9,4.45A15.66,15.66,0,0,1,140.44,102c-.06,9.26-6.9,16.51-15.57,16.51Z"/><path class="cls-2" d="M124.31,87h.09c9.32,0,15.23,5.88,15.17,15,0,8.56-6.42,15.65-14.7,15.65h-.39c-9.42-.26-15.87-7.63-15.62-15.95.28-8.92,6.19-14.7,15.45-14.7m0-1.72h0c-10.13,0-16.87,6.42-17.17,16.37a16.94,16.94,0,0,0,4.64,12.22,17.86,17.86,0,0,0,12.65,5.5h.44c9.15,0,16.37-7.63,16.43-17.37a16.49,16.49,0,0,0-4.47-12c-3-3.06-7.32-4.68-12.42-4.7Z"/><path class="cls-5" d="M147.08,224.29c-1.6,0-3.59-.17-4.82-1.48-.95-1-1.33-2.55-1.18-4.81.2-2.9.15-5.88.11-8.77,0-2.34-.07-4.75,0-7.13a4.57,4.57,0,0,0-.82-3.37c-.62-.64-1.68-.94-3.32-.94h-.34c-2.79.07-5.75.1-9.31.1l-8.25,0-4.75,0h-.82c-1.38,0-4.26,0-4.29-3.78a3.75,3.75,0,0,1,.92-2.82,3.86,3.86,0,0,1,2.88-.91l.72,0h.66c5.51,0,11,0,16.47,0H164.1q7.47,0,14.94.05h0c.36,0,.7,0,1-.05s.82-.06,1.21-.06a3.48,3.48,0,0,1,2.6.89,3.91,3.91,0,0,1,.89,3c-.08,2.52-1.28,3.74-3.65,3.74-.39,0-.8,0-1.19-.06s-.69,0-1,0c-4.16.07-7.84.12-11.62.12-3.42,0-6.46,0-9.31-.14h-.41a3.72,3.72,0,0,0-2.72.76c-.54.55-.75,1.56-.69,3.17.1,2.46.06,5,0,7.37,0,3-.1,6.17.13,9.22.16,2.09-.18,3.52-1.05,4.49-1.27,1.4-3.4,1.45-5.66,1.51Z"/><path class="cls-2" d="M181.29,191.12c1.46,0,2.71.43,2.63,3s-1.35,2.9-2.79,2.9c-.73,0-1.51-.11-2.2-.11h-.1c-3.84.06-7.69.12-11.53.12-3.09,0-6.18,0-9.27-.14h-.44c-3.35,0-4.41,1.41-4.27,4.82.22,5.54-.26,11.11.15,16.62.37,4.89-2.2,5-5.87,5.07h-.52c-3.69,0-5.42-1.08-5.14-5.37.36-5.29-.07-10.63.13-15.93.15-3.84-1.43-5.2-5-5.2h-.36c-3.09.08-6.18.1-9.28.1-4.3,0-8.61,0-12.91-.06h-.92c-1.75,0-3.4-.19-3.42-2.93,0-2.56,1.38-2.85,2.93-2.85l1.38,0h0q8.28,0,16.58,0h33q7.45,0,14.92,0h.05c.69,0,1.48-.11,2.21-.11m0-1.73c-.44,0-.86,0-1.27.07s-.67,0-.94,0c-4.39,0-9-.06-15-.06h-33q-8.3,0-16.59,0h-.67l-.74,0a4.72,4.72,0,0,0-3.5,1.16,4.61,4.61,0,0,0-1.16,3.44c0,4.63,3.88,4.63,5.15,4.63h.91l4.67,0c2.75,0,5.5,0,8.25,0,3.56,0,6.53,0,9.33-.1h.31a3.82,3.82,0,0,1,2.69.68,3.87,3.87,0,0,1,.59,2.73c-.09,2.41-.06,4.84,0,7.19,0,2.86.08,5.83-.11,8.69-.17,2.52.28,4.25,1.41,5.46,1.46,1.56,3.68,1.75,5.45,1.75h.56c2.45-.06,4.76-.12,6.28-1.79,1-1.16,1.45-2.79,1.27-5.14-.23-3-.18-6.12-.13-9.13,0-2.43.08-4.94,0-7.43a3.81,3.81,0,0,1,.45-2.53,3.3,3.3,0,0,1,2.1-.49H158c2.85.1,5.9.15,9.33.15,3.77,0,7.47-.06,11.56-.13h.07c.28,0,.6,0,.94.05s.83.06,1.26.06c3.6,0,4.44-2.48,4.51-4.57a4.74,4.74,0,0,0-1.13-3.65,4.37,4.37,0,0,0-3.22-1.16Z"/><path class="cls-5" d="M128.64,20.37a5.34,5.34,0,0,1-4.27-1.55c-1.06-1.21-1.39-3.05-1-5.76a29.08,29.08,0,0,0,0-5.28,4.59,4.59,0,0,1,.94-3.58,4.36,4.36,0,0,1,3.33-1.13h.11c4.76,0,9.12.07,13.31.07,4.53,0,8.74,0,12.88-.09h.15c4,0,4.48,2.55,4.64,4.94l0,.28c.38,5.73.58,8.6-1,10.26s-4.52,1.67-10.42,1.67h-6.22c-1.14,0-2.29,0-3.43-.06s-2.27-.07-3.4-.07a37.71,37.71,0,0,0-4.1.2A14.71,14.71,0,0,1,128.64,20.37Z"/><path class="cls-2" d="M154.09,3.92c3,0,3.59,1.39,3.77,4.14.76,11.29.85,11.29-10.52,11.29h-6.21c-2.27,0-4.56-.13-6.83-.13a39.24,39.24,0,0,0-4.2.2,12.82,12.82,0,0,1-1.46.09c-3.9,0-5-2.2-4.45-6.34a29.82,29.82,0,0,0,0-5.51c-.14-2.51.74-3.72,3.41-3.72h.1q6.66.08,13.32.08,6.45,0,12.89-.1h.15m0-1.72h-.17c-4.14.06-8.35.09-12.87.09-4.19,0-8.54,0-13.3-.08h-.12a5.14,5.14,0,0,0-3.95,1.4,5.29,5.29,0,0,0-1.18,4.15v.06a27.33,27.33,0,0,1,0,5.12c-.39,3,0,5,1.24,6.45a6.22,6.22,0,0,0,4.92,1.85,16.36,16.36,0,0,0,1.65-.1,36,36,0,0,1,4-.2c1.12,0,2.26,0,3.37.07s2.3.06,3.46.06h6.21c6.15,0,9.24,0,11.06-1.94s1.6-4.93,1.2-10.91l0-.28c-.19-2.84-1-5.74-5.49-5.74Z"/></g><path class="cls-2" d="M121.85,141.7v30.7H118V146.7l-8.9,25.7h-3.7l-8.9-26.1v26.1l-3.9.1h0V141.8h6.1l7.3,21.7,1.5,4.5c.3-1.1.9-2.8,1.6-4.9l7.3-21.4h5.5m0-2h-5.5a2,2,0,0,0-1.89,1.35l-7,20.59-6.88-20.48a2,2,0,0,0-1.9-1.36h-6.1a2,2,0,0,0-2,2v30.7a2,2,0,0,0,.6,1.43,2,2,0,0,0,1.4.57h0l3.9-.1a2,2,0,0,0,2-2v-14l5,14.68a2,2,0,0,0,1.89,1.36h3.7a2,2,0,0,0,1.89-1.35l5-14.46V172.4a2,2,0,0,0,2,2h3.9a2,2,0,0,0,2-2V141.7a2,2,0,0,0-2-2Z"/><path class="cls-2" d="M139.59,141.09a12.6,12.6,0,0,1,7.26,2.31,12.31,12.31,0,0,1,4.4,6.6l-4,.9a9.27,9.27,0,0,0-3.1-4.9,8.55,8.55,0,0,0-4.84-1.51h-.58a10,10,0,0,0-5.58,1.71,8.19,8.19,0,0,0-3.3,4.6,19.73,19.73,0,0,0,.1,12.7,9.09,9.09,0,0,0,3.5,4.4,9.44,9.44,0,0,0,5,1.4h.42a9.13,9.13,0,0,0,8.92-7.6l4.1,1a13.9,13.9,0,0,1-4.6,7.6,12.9,12.9,0,0,1-7.77,2.6h-.88a15.16,15.16,0,0,1-7.55-2,12.19,12.19,0,0,1-4.7-5.9,20.63,20.63,0,0,1-1.6-8.2,18.48,18.48,0,0,1,1.8-8.4,12.33,12.33,0,0,1,5.2-5.4,15.55,15.55,0,0,1,7.4-1.9h.44m0-2h-.48a17.71,17.71,0,0,0-8.31,2.14,14.24,14.24,0,0,0-6,6.27,20.58,20.58,0,0,0-2,9.3,22.63,22.63,0,0,0,1.74,8.93,14.12,14.12,0,0,0,5.46,6.83l.11.06a17.17,17.17,0,0,0,8.54,2.28h.88a15,15,0,0,0,9-3l.08-.06a16,16,0,0,0,5.26-8.7,2,2,0,0,0-1.48-2.37l-4.1-1a1.84,1.84,0,0,0-.47-.06,2,2,0,0,0-2,1.67,7,7,0,0,1-2.57,4.36,6.94,6.94,0,0,1-4.38,1.57h-.42a7.39,7.39,0,0,1-3.88-1.09,7.06,7.06,0,0,1-2.71-3.41,17.77,17.77,0,0,1-.07-11.37l0-.09a6.22,6.22,0,0,1,2.5-3.49,8,8,0,0,1,4.45-1.36h.58A6.55,6.55,0,0,1,143,147.6a7.35,7.35,0,0,1,2.36,3.79,2,2,0,0,0,1.94,1.51,2.28,2.28,0,0,0,.44-.05l4-.9A2,2,0,0,0,153,151a2,2,0,0,0,.22-1.56,14.44,14.44,0,0,0-5.11-7.67l-.07,0a14.48,14.48,0,0,0-8.41-2.68Z"/><path class="cls-2" d="M166.18,141.79a14.61,14.61,0,0,1,5.07.91,7.16,7.16,0,0,1,3.3,2.9,7.47,7.47,0,0,1,1.2,4,7.14,7.14,0,0,1-1.1,3.7,7.36,7.36,0,0,1-3.2,2.8,7.72,7.72,0,0,1,4.3,2.8,7.46,7.46,0,0,1,1.5,4.6,9.1,9.1,0,0,1-.9,4,8.53,8.53,0,0,1-2.3,2.9,8.2,8.2,0,0,1-3.4,1.5,23.59,23.59,0,0,1-4.81.5H154.15V141.8h12m-7.93,12.91h6.6l.7,0a12.39,12.39,0,0,0,3.2-.42,4.25,4.25,0,0,0,2.3-1.5,4.49,4.49,0,0,0,.8-2.7,5,5,0,0,0-.7-2.7,3.74,3.74,0,0,0-2.1-1.6,17.47,17.47,0,0,0-3.82-.42c-.29,0-.59,0-.88,0h-6.1v9.3m0,14.2h8.28c.71,0,1.42,0,2.12-.11a6.92,6.92,0,0,0,2.3-.8,5.1,5.1,0,0,0,1.5-1.7,5.66,5.66,0,0,0-.3-5.6,5.48,5.48,0,0,0-2.4-1.8,13.17,13.17,0,0,0-3.69-.53q-.41,0-.81,0h-7.1l.1,10.5h0m-4.1,3.5v0m12-32.61h-12a2,2,0,0,0-2,2v30.7a2,2,0,0,0,2,2,2.19,2.19,0,0,0,.63-.1h11.06a25.41,25.41,0,0,0,5.22-.54,10.2,10.2,0,0,0,4.19-1.86l.06-.05a10.54,10.54,0,0,0,2.84-3.58,11.14,11.14,0,0,0,1.1-4.89,9.45,9.45,0,0,0-1.9-5.78,9.81,9.81,0,0,0-2-2,10,10,0,0,0,1-1.36,9.29,9.29,0,0,0,1.4-4.72v-.06a9.4,9.4,0,0,0-1.5-5,9.14,9.14,0,0,0-4.21-3.68l-.09,0a16.67,16.67,0,0,0-5.77-1Zm-5.93,7.61h4.2c.26,0,.52,0,.78,0a15.87,15.87,0,0,1,3.3.35,1.81,1.81,0,0,1,.93.73,3,3,0,0,1,.39,1.58v.11a2.58,2.58,0,0,1-.41,1.46,2.25,2.25,0,0,1-1.18.75,10.52,10.52,0,0,1-2.71.36l-.59,0h-4.71v-5.3Zm-.08,13h5.2q.34,0,.69,0a11.63,11.63,0,0,1,3.05.42,3.48,3.48,0,0,1,1.4,1.06,3.69,3.69,0,0,1,.17,3.53,3,3,0,0,1-.81.93,4.81,4.81,0,0,1-1.48.51q-.93.09-1.86.09h-6.3l-.06-6.5Z"/><path class="cls-2" d="M194.7,141.79a19.31,19.31,0,0,1,5.55.81,6.84,6.84,0,0,1,3.4,2.9,8.23,8.23,0,0,1,1.3,4.6,7.68,7.68,0,0,1-2.1,5.5c-1.4,1.5-3.6,2.4-6.5,2.8a8.43,8.43,0,0,1,2.4,1.5,20.27,20.27,0,0,1,3.4,4.1l5.3,8.4h-5.1l-4.1-6.4c-1.2-1.8-2.2-3.3-2.9-4.2a10,10,0,0,0-2.1-2.1,4.52,4.52,0,0,0-1.9-.8,12.71,12.71,0,0,0-1.74-.11h-5.26v13.6l-3.9.1h0V141.8H194.7M184.55,155.3h9.18a13,13,0,0,0,3.92-.61,5.56,5.56,0,0,0,2.4-1.8,5.32,5.32,0,0,0,.8-2.8,4.49,4.49,0,0,0-1.6-3.6c-1.1-1-2.7-1.4-5-1.4h-9.7v10.2h0m10.15-15.51H180.45a2,2,0,0,0-2,2v30.7a2,2,0,0,0,.6,1.43,2,2,0,0,0,1.4.57h.05l3.9-.1a2,2,0,0,0,1.95-2V160.8h3.26a11.6,11.6,0,0,1,1.44.09,2.62,2.62,0,0,1,1,.44,8.26,8.26,0,0,1,1.67,1.67c.68.88,1.68,2.38,2.84,4.12l4.08,6.37a2,2,0,0,0,1.68.92h5.1a2,2,0,0,0,1.69-3.07l-5.3-8.4a22.74,22.74,0,0,0-2.89-3.68,9.49,9.49,0,0,0,3.36-2.29,9.61,9.61,0,0,0,2.64-6.87,10.16,10.16,0,0,0-1.6-5.64,8.86,8.86,0,0,0-4.37-3.71l-.16-.06a21.42,21.42,0,0,0-6.12-.89Zm-8.15,7.31h7.7c2.41,0,3.24.5,3.65.88l.06.05a2.49,2.49,0,0,1,.89,2v.06a3.41,3.41,0,0,1-.45,1.68,3.53,3.53,0,0,1-1.41,1,11,11,0,0,1-3.26.5h-7.18v-6.2Z"/><path class="cls-5" d="M92.55,172.75a.26.26,0,0,1-.17-.07.25.25,0,0,1-.08-.18V141.8a.24.24,0,0,1,.25-.25h6.1a.26.26,0,0,1,.24.17l7.3,21.7,1.25,3.74c.21-.7.5-1.54.84-2.54l.53-1.6,7.3-21.4a.26.26,0,0,1,.24-.17h5.5a.25.25,0,0,1,.25.25v30.7a.25.25,0,0,1-.25.25H118a.25.25,0,0,1-.25-.25V148.18l-8.41,24.3a.26.26,0,0,1-.24.17h-3.7a.26.26,0,0,1-.24-.17L96.7,147.81V172.4a.26.26,0,0,1-.24.25Z"/><path class="cls-5" d="M121.85,141.7v30.7H118V146.7l-8.9,25.7h-3.7l-8.9-26.1v26.1l-3.9.1h0V141.8h6.1l7.3,21.7,1.5,4.5c.3-1.1.9-2.8,1.6-4.9l7.3-21.4h5.5m0-.5h-5.5a.49.49,0,0,0-.47.34l-7.3,21.4-.54,1.58c-.23.68-.43,1.29-.61,1.84l-1-3-7.3-21.7a.5.5,0,0,0-.47-.34h-6.1a.5.5,0,0,0-.5.5v30.7a.51.51,0,0,0,.15.36.5.5,0,0,0,.35.14h0l3.9-.1a.51.51,0,0,0,.49-.5V149.31l7.93,23.25a.51.51,0,0,0,.47.34h3.7a.51.51,0,0,0,.47-.34l7.93-22.89V172.4a.5.5,0,0,0,.5.5h3.9a.5.5,0,0,0,.5-.5V141.7a.5.5,0,0,0-.5-.5Z"/><path class="cls-5" d="M138.6,173.16a15.5,15.5,0,0,1-7.67-2,12.3,12.3,0,0,1-4.81-6,20.7,20.7,0,0,1-1.62-8.29,19,19,0,0,1,1.82-8.51,12.57,12.57,0,0,1,5.31-5.51,15.93,15.93,0,0,1,7.52-1.93h.44a12,12,0,0,1,11.9,9.09.24.24,0,0,1,0,.2.21.21,0,0,1-.16.11l-4,.9h-.05A.26.26,0,0,1,147,151a9.11,9.11,0,0,0-3-4.77,8.24,8.24,0,0,0-4.68-1.44h-.58a9.69,9.69,0,0,0-5.44,1.67,8,8,0,0,0-3.2,4.46,19.54,19.54,0,0,0,.1,12.55,8.76,8.76,0,0,0,3.4,4.27,9.17,9.17,0,0,0,4.82,1.36h.42a8.87,8.87,0,0,0,8.67-7.39.25.25,0,0,1,.11-.17.23.23,0,0,1,.14,0h.06l4.1,1a.24.24,0,0,1,.18.29,14.15,14.15,0,0,1-4.68,7.74,13.2,13.2,0,0,1-7.92,2.66h-.89Z"/><path class="cls-5" d="M139.59,141.09a12.6,12.6,0,0,1,7.26,2.31,12.31,12.31,0,0,1,4.4,6.6l-4,.9a9.27,9.27,0,0,0-3.1-4.9,8.55,8.55,0,0,0-4.84-1.51h-.58a10,10,0,0,0-5.58,1.71,8.19,8.19,0,0,0-3.3,4.6,19.73,19.73,0,0,0,.1,12.7,9.09,9.09,0,0,0,3.5,4.4,9.44,9.44,0,0,0,5,1.4h.42a9.13,9.13,0,0,0,8.92-7.6l4.1,1a13.9,13.9,0,0,1-4.6,7.6,12.9,12.9,0,0,1-7.77,2.6h-.88a15.16,15.16,0,0,1-7.55-2,12.19,12.19,0,0,1-4.7-5.9,20.63,20.63,0,0,1-1.6-8.2,18.48,18.48,0,0,1,1.8-8.4,12.33,12.33,0,0,1,5.2-5.4,15.55,15.55,0,0,1,7.4-1.9h.44m0-.5h-.46a16.18,16.18,0,0,0-7.62,2,12.83,12.83,0,0,0-5.41,5.62,19.06,19.06,0,0,0-1.85,8.63,21,21,0,0,0,1.64,8.38,12.64,12.64,0,0,0,4.88,6.13,15.8,15.8,0,0,0,7.83,2.09h.88a13.48,13.48,0,0,0,8.07-2.7,14.5,14.5,0,0,0,4.79-7.89.51.51,0,0,0-.37-.6l-4.1-1h-.12a.57.57,0,0,0-.28.08.51.51,0,0,0-.21.34,8.51,8.51,0,0,1-3.12,5.29,8.43,8.43,0,0,1-5.31,1.89h-.42a9,9,0,0,1-4.7-1.33,8.49,8.49,0,0,1-3.29-4.15,19.3,19.3,0,0,1-.1-12.36,7.78,7.78,0,0,1,3.11-4.35,9.45,9.45,0,0,1,5.3-1.62h.58a8,8,0,0,1,4.56,1.42,8.87,8.87,0,0,1,2.9,4.61.49.49,0,0,0,.48.38h.11l4-.9a.54.54,0,0,0,.32-.23.49.49,0,0,0,0-.39,12.85,12.85,0,0,0-4.58-6.87,13,13,0,0,0-7.56-2.41Z"/><path class="cls-5" d="M154.15,172.75a.25.25,0,0,1-.25-.25V141.8a.25.25,0,0,1,.25-.25h12a14.89,14.89,0,0,1,5.16.92,7.42,7.42,0,0,1,3.42,3A7.66,7.66,0,0,1,176,149.6a7.52,7.52,0,0,1-1.14,3.83,7.67,7.67,0,0,1-2.73,2.61,8,8,0,0,1,3.82,2.71,7.68,7.68,0,0,1,1.55,4.75,9.32,9.32,0,0,1-.93,4.11,8.67,8.67,0,0,1-2.36,3,8.4,8.4,0,0,1-3.51,1.55,23.39,23.39,0,0,1-4.86.51H154.35A.25.25,0,0,1,154.15,172.75Zm11.7-4.1h.68a20.74,20.74,0,0,0,2.09-.11,6.54,6.54,0,0,0,2.21-.77,4.72,4.72,0,0,0,1.4-1.6,5.44,5.44,0,0,0-.29-5.35,5.22,5.22,0,0,0-2.28-1.7,13.16,13.16,0,0,0-3.6-.51c-.27,0-.53,0-.79,0H158.4l.1,10Zm-1-14.2.69,0a12.38,12.38,0,0,0,3.15-.41,4,4,0,0,0,2.16-1.41,4.26,4.26,0,0,0,.75-2.54,4.71,4.71,0,0,0-.66-2.58,3.48,3.48,0,0,0-2-1.49,17.37,17.37,0,0,0-3.75-.41c-.29,0-.58,0-.87,0H158.5v8.8Z"/><path class="cls-5" d="M166.18,141.79a14.61,14.61,0,0,1,5.07.91,7.16,7.16,0,0,1,3.3,2.9,7.47,7.47,0,0,1,1.2,4,7.14,7.14,0,0,1-1.1,3.7,7.36,7.36,0,0,1-3.2,2.8,7.72,7.72,0,0,1,4.3,2.8,7.46,7.46,0,0,1,1.5,4.6,9.1,9.1,0,0,1-.9,4,8.53,8.53,0,0,1-2.3,2.9,8.2,8.2,0,0,1-3.4,1.5,23.59,23.59,0,0,1-4.81.5H154.15V141.8h12m-7.93,12.91h6.6l.7,0a12.39,12.39,0,0,0,3.2-.42,4.25,4.25,0,0,0,2.3-1.5,4.49,4.49,0,0,0,.8-2.7,5,5,0,0,0-.7-2.7,3.74,3.74,0,0,0-2.1-1.6,17.47,17.47,0,0,0-3.82-.42c-.29,0-.59,0-.88,0h-6.1v9.3m0,14.2h8.28c.71,0,1.42,0,2.12-.11a6.92,6.92,0,0,0,2.3-.8,5.1,5.1,0,0,0,1.5-1.7,5.66,5.66,0,0,0-.3-5.6,5.48,5.48,0,0,0-2.4-1.8,13.17,13.17,0,0,0-3.69-.53q-.41,0-.81,0h-7.1l.1,10.5h0m-4.1,3.5v0m12-31.11h-12a.5.5,0,0,0-.5.5v30.7a.5.5,0,0,0,.5.5.51.51,0,0,0,.3-.1h11.39a23.86,23.86,0,0,0,4.91-.51,8.91,8.91,0,0,0,3.6-1.59,9,9,0,0,0,2.45-3.08,9.65,9.65,0,0,0,.95-4.23,7.94,7.94,0,0,0-1.6-4.89A8.31,8.31,0,0,0,172.7,156a7.83,7.83,0,0,0,3.55-6.37,7.9,7.9,0,0,0-1.28-4.28,7.56,7.56,0,0,0-3.52-3.09,15.15,15.15,0,0,0-5.27-1Zm-7.43,4.61h5.6c.31,0,.6,0,.88,0a16.48,16.48,0,0,1,3.71.41,3.24,3.24,0,0,1,1.79,1.37,4.47,4.47,0,0,1,.62,2.42,4.09,4.09,0,0,1-.71,2.44,3.75,3.75,0,0,1-2,1.29,12,12,0,0,1-3.08.41l-.67,0h-6.13v-8.3Zm-.1,13h6.6l.81,0a12.54,12.54,0,0,1,3.55.51,4.92,4.92,0,0,1,2.14,1.62,5.15,5.15,0,0,1,.25,5.07,4.44,4.44,0,0,1-1.32,1.51,6.36,6.36,0,0,1-2.11.72,19.47,19.47,0,0,1-2,.11h-7.78l-.1-9.5Z"/><path class="cls-5" d="M180.45,172.75a.24.24,0,0,1-.17-.07.25.25,0,0,1-.08-.18V141.8a.25.25,0,0,1,.25-.25H194.7a19.4,19.4,0,0,1,5.62.82,7.17,7.17,0,0,1,3.55,3,8.49,8.49,0,0,1,1.33,4.73,7.87,7.87,0,0,1-2.17,5.67,10.07,10.07,0,0,1-5.83,2.75,8.39,8.39,0,0,1,1.72,1.19,20.82,20.82,0,0,1,3.44,4.16l5.3,8.39a.27.27,0,0,1,0,.26.25.25,0,0,1-.22.13h-5.1a.22.22,0,0,1-.21-.12l-4.1-6.4c-1.18-1.77-2.2-3.29-2.89-4.18a10,10,0,0,0-2.05-2,4.52,4.52,0,0,0-1.79-.76,13.57,13.57,0,0,0-1.69-.1h-5V172.4a.26.26,0,0,1-.24.25Zm12.8-17.7h.48a12.48,12.48,0,0,0,3.84-.6,5.21,5.21,0,0,0,2.28-1.71,5.12,5.12,0,0,0,.75-2.65,4.28,4.28,0,0,0-1.51-3.41c-1-.93-2.51-1.34-4.84-1.34H184.8v9.7Z"/><path class="cls-5" d="M194.7,141.79a19.31,19.31,0,0,1,5.55.81,6.84,6.84,0,0,1,3.4,2.9,8.23,8.23,0,0,1,1.3,4.6,7.68,7.68,0,0,1-2.1,5.5c-1.4,1.5-3.6,2.4-6.5,2.8a8.43,8.43,0,0,1,2.4,1.5,20.27,20.27,0,0,1,3.4,4.1l5.3,8.4h-5.1l-4.1-6.4c-1.2-1.8-2.2-3.3-2.9-4.2a10,10,0,0,0-2.1-2.1,4.52,4.52,0,0,0-1.9-.8,12.71,12.71,0,0,0-1.74-.11h-5.26v13.6l-3.9.1h0V141.8H194.7M184.55,155.3h9.18a13,13,0,0,0,3.92-.61,5.56,5.56,0,0,0,2.4-1.8,5.32,5.32,0,0,0,.8-2.8,4.49,4.49,0,0,0-1.6-3.6c-1.1-1-2.7-1.4-5-1.4h-9.7v10.2h0m10.15-14H180.45a.5.5,0,0,0-.5.5v30.7a.51.51,0,0,0,.15.36.5.5,0,0,0,.35.14h0l3.9-.1a.51.51,0,0,0,.49-.5V159.3h4.76a13.52,13.52,0,0,1,1.68.1,4.25,4.25,0,0,1,1.67.71,10.19,10.19,0,0,1,2,2c.69.89,1.71,2.41,2.88,4.18l4.1,6.39a.5.5,0,0,0,.42.23h5.1a.51.51,0,0,0,.44-.26.49.49,0,0,0,0-.51l-5.3-8.4a21.19,21.19,0,0,0-3.48-4.2,9.53,9.53,0,0,0-1.19-.9,9.81,9.81,0,0,0,5.32-2.69,8.19,8.19,0,0,0,2.23-5.85,8.68,8.68,0,0,0-1.38-4.86,7.42,7.42,0,0,0-3.64-3.1,20,20,0,0,0-5.73-.84Zm-9.65,4.31h9.2c2.26,0,3.7.39,4.66,1.27a4,4,0,0,1,1.44,3.21,4.14,4.14,0,0,1-2.88,4.15,12.34,12.34,0,0,1-3.74.58h-8.68v-9.2Z"/></g></svg>