<svg id="bbc" xmlns="http://www.w3.org/2000/svg" xmlns:xlink="http://www.w3.org/1999/xlink" viewBox="0 0 300 300"><defs><style>.cls-1,.cls-4,.cls-5,.cls-6,.cls-7,.cls-8,.cls-9{fill:none;}.cls-2{fill:#8ecc92;}.cls-3{clip-path:url(#clip-path);}.cls-4,.cls-5,.cls-6,.cls-7,.cls-8,.cls-9{stroke:#fff;stroke-miterlimit:10;}.cls-4{stroke-width:8.88px;}.cls-5{stroke-width:3.7px;}.cls-6{stroke-width:14.8px;}.cls-7{stroke-width:6.28px;}.cls-8{stroke-width:3.85px;}.cls-9{stroke-width:5.71px;}.cls-10{fill:#fff;}.cls-11{isolation:isolate;}</style><clipPath id="clip-path"><path class="cls-1" d="M29.57,149.88c0-21.66.07-43.32-.08-65,0-3.22.91-5,3.74-6.57Q89.72,46,146.05,13.32c2.71-1.57,4.66-1.93,7.58-.23q56.28,32.7,112.77,65.06c2.87,1.65,4.15,3.3,4.14,6.87q-.26,65,0,129.94c0,3.24-.94,5-3.72,6.65q-56.7,32.53-113.25,65.32c-2.67,1.54-4.59,1.42-7.19-.08Q90,254.19,33.58,221.78c-2.91-1.67-4.15-3.38-4.12-6.93C29.67,193.19,29.57,171.53,29.57,149.88Z"/></clipPath></defs><title>ri-cores</title><path class="cls-2" d="M25.84,149.87c0-22.32.08-44.65-.08-67,0-3.31.94-5.1,3.85-6.77q58.26-33.36,116.32-67c2.79-1.62,4.8-2,7.81-.25q58,33.72,116.26,67.08c3,1.7,4.28,3.4,4.26,7.08q-.25,67,0,134c0,3.34-1,5.2-3.84,6.85Q212,257.38,153.65,291.16c-2.75,1.59-4.73,1.47-7.41-.08Q88.19,257.4,30,224c-3-1.72-4.28-3.49-4.24-7.15C26,194.53,25.84,172.2,25.84,149.87Z"/><g class="cls-3"><g id="Layer_1" data-name="Layer 1"><circle class="cls-4" cx="150.04" cy="157.39" r="55.8"/><path class="cls-5" d="M260.59,157.39A110.59,110.59,0,1,0,76.33,239.83"/><path class="cls-6" d="M241.43,186.47A96,96,0,0,0,179,65.93a81.36,81.36,0,0,0-8.65-2.3"/><path class="cls-6" d="M70.63,103.59A95.86,95.86,0,0,0,217.82,225.1"/><path class="cls-7" d="M141.16,240.57q4.44.44,8.88.44a83.63,83.63,0,0,0,83.62-83.62"/><path class="cls-7" d="M227.66,126.31A83.61,83.61,0,0,0,66.42,157.39c0,1.41,0,2.81.07,4.22"/><path class="cls-8" d="M164.61,89.61a69.29,69.29,0,1,0,53.21,82.28,71,71,0,0,0,1.55-13.69"/><path class="cls-9" d="M142.34,233.09c2.52.22,5.11.37,7.7.37A76.06,76.06,0,0,0,197.25,97.75"/><path class="cls-9" d="M132.79,83.32A76,76,0,0,0,95.28,210.15"/><circle class="cls-10" cx="150.04" cy="157.39" r="48.99"/></g></g><g id="Layer_2" data-name="Layer 2"><g class="cls-11"><path class="cls-2" d="M110.3,172.5V141.8h11.5a14.57,14.57,0,0,1,5.6.9,7.15,7.15,0,0,1,3.3,2.9,7.46,7.46,0,0,1,1.2,4,7.23,7.23,0,0,1-1.1,3.7,7.35,7.35,0,0,1-3.2,2.8,7.76,7.76,0,0,1,4.3,2.8,7.46,7.46,0,0,1,1.5,4.6,9,9,0,0,1-.9,4,9.63,9.63,0,0,1-2.2,2.9,8.19,8.19,0,0,1-3.4,1.5,22.71,22.71,0,0,1-5,.5H110.3Zm4.1-17.8H121a12.44,12.44,0,0,0,3.9-.4,4.23,4.23,0,0,0,2.3-1.5,4.55,4.55,0,0,0,.8-2.7,5,5,0,0,0-.7-2.7,3.75,3.75,0,0,0-2.1-1.6,17.47,17.47,0,0,0-4.7-.4h-6.1Zm0,14.2H122a20.24,20.24,0,0,0,2.8-.1,6.9,6.9,0,0,0,2.3-.8,5,5,0,0,0,1.5-1.7,5.66,5.66,0,0,0-.3-5.6,5.46,5.46,0,0,0-2.4-1.8,16.38,16.38,0,0,0-4.5-.5h-7.1v10.5Z"/><path class="cls-2" d="M136.9,172.5V141.8h11.5a14.57,14.57,0,0,1,5.6.9,7.15,7.15,0,0,1,3.3,2.9,7.46,7.46,0,0,1,1.2,4,7.23,7.23,0,0,1-1.1,3.7,7.35,7.35,0,0,1-3.2,2.8,7.76,7.76,0,0,1,4.3,2.8,7.46,7.46,0,0,1,1.5,4.6,9,9,0,0,1-.9,4,9.63,9.63,0,0,1-2.2,2.9,8.19,8.19,0,0,1-3.4,1.5,22.71,22.71,0,0,1-5,.5H136.9Zm4.1-17.8h6.6a12.44,12.44,0,0,0,3.9-.4,4.23,4.23,0,0,0,2.3-1.5,4.55,4.55,0,0,0,.8-2.7,5,5,0,0,0-.7-2.7,3.75,3.75,0,0,0-2.1-1.6,17.47,17.47,0,0,0-4.7-.4H141Zm0,14.2h7.6a20.24,20.24,0,0,0,2.8-.1,6.9,6.9,0,0,0,2.3-.8,5,5,0,0,0,1.5-1.7,5.66,5.66,0,0,0-.3-5.6,5.46,5.46,0,0,0-2.4-1.8,16.38,16.38,0,0,0-4.5-.5h-7.1v10.5Z"/><path class="cls-2" d="M185.6,161.7l4.1,1a13.88,13.88,0,0,1-4.6,7.6,12.88,12.88,0,0,1-8.1,2.6,15.18,15.18,0,0,1-8.1-2,12.19,12.19,0,0,1-4.7-5.9,20.67,20.67,0,0,1-1.6-8.2,18.56,18.56,0,0,1,1.8-8.4,12.35,12.35,0,0,1,5.2-5.4,15.66,15.66,0,0,1,7.4-1.9,12.58,12.58,0,0,1,7.7,2.3,12.32,12.32,0,0,1,4.4,6.6l-4,.9A9.26,9.26,0,0,0,182,146a8.54,8.54,0,0,0-5.1-1.5,10,10,0,0,0-5.9,1.7,8.24,8.24,0,0,0-3.3,4.6,19.7,19.7,0,0,0,.1,12.7,9.1,9.1,0,0,0,3.5,4.4,9.46,9.46,0,0,0,5.2,1.4,8.88,8.88,0,0,0,5.8-2A9,9,0,0,0,185.6,161.7Z"/></g></g></svg>