<svg id="Layer_7_copy_4" data-name="Layer 7 copy 4" xmlns="http://www.w3.org/2000/svg" xmlns:xlink="http://www.w3.org/1999/xlink" viewBox="0 0 300 300"><defs><style>.cls-1{fill:#fff;}.cls-2,.cls-6{fill:none;}.cls-3{fill:#8ecc92;}.cls-4{mask:url(#mask);}.cls-5{opacity:0.9;}.cls-6{stroke:#8ecc92;stroke-miterlimit:10;stroke-width:3px;}.cls-7{opacity:0.5;}.cls-8{clip-path:url(#clip-path);}.cls-9{opacity:0.1;}.cls-10{fill:#63a571;}</style><mask id="mask" x="22.76" y="4.34" width="254.42" height="289.57" maskUnits="userSpaceOnUse"><path class="cls-1" d="M25.84,150c0-22.33.08-44.65-.08-67,0-3.31.94-5.1,3.85-6.77q58.26-33.36,116.32-67c2.79-1.63,4.8-2,7.81-.25Q211.78,42.68,270,76c3,1.69,4.28,3.4,4.26,7.08q-.25,67,0,134c0,3.34-1,5.2-3.84,6.85Q212,257.47,153.65,291.27c-2.75,1.59-4.73,1.47-7.41-.08Q88.19,257.52,30,224.11c-3-1.72-4.28-3.49-4.24-7.15C26,194.64,25.84,172.31,25.84,150Z"/></mask><clipPath id="clip-path"><path class="cls-2" d="M25.84,150c0-22.33.08-44.65-.08-67,0-3.31.94-5.1,3.85-6.77q58.26-33.36,116.32-67c2.79-1.63,4.8-2,7.81-.25Q211.78,42.68,270,76c3,1.69,4.28,3.4,4.26,7.08q-.25,67,0,134c0,3.34-1,5.2-3.84,6.85Q212,257.47,153.65,291.27c-2.75,1.59-4.73,1.47-7.41-.08Q88.19,257.52,30,224.11c-3-1.72-4.28-3.49-4.24-7.15C26,194.64,25.84,172.31,25.84,150Z"/></clipPath></defs><path class="cls-3" d="M25.84,150c0-22.33.08-44.65-.08-67,0-3.31.94-5.1,3.85-6.77q58.26-33.36,116.32-67c2.79-1.63,4.8-2,7.81-.25Q211.78,42.68,270,76c3,1.69,4.28,3.4,4.26,7.08q-.25,67,0,134c0,3.34-1,5.2-3.84,6.85Q212,257.47,153.65,291.27c-2.75,1.59-4.73,1.47-7.41-.08Q88.19,257.52,30,224.11c-3-1.72-4.28-3.49-4.24-7.15C26,194.64,25.84,172.31,25.84,150Z"/><g class="cls-4"><g class="cls-5"><path class="cls-6" d="M230,181.68,76.74,166.81a14.74,14.74,0,0,1-1,2.47l122.9,92.59a30,30,0,0,1,22.4-10l.73,0,2.68-1.54L236,189.69A10.64,10.64,0,0,1,230,181.68Z"/><path class="cls-6" d="M141.36,104.9a37.88,37.88,0,0,1-22-7L73.93,153.52a14.3,14.3,0,0,1,3.33,8.12L230.44,176.5a10.46,10.46,0,0,1,1.27-2.52L164.4,97.13A37.89,37.89,0,0,1,141.36,104.9Z"/><path class="cls-6" d="M179.43,66.83a37.93,37.93,0,0,1-11.11,26.88l67.29,76.84a10.54,10.54,0,0,1,4.88-1.19A10.65,10.65,0,0,1,251,178.5l23.13,2.24q-.06-48.81.1-97.63c0-3.68-1.3-5.38-4.26-7.08Q242,60,214.1,43.88l-36,12.78A37.89,37.89,0,0,1,179.43,66.83Z"/><path class="cls-6" d="M72.62,173.42a14.36,14.36,0,0,1-21.17-1.93L25.87,184.24q0,16.37-.13,32.72c0,3.65,1.24,5.42,4.24,7.14q58.22,33.41,116.26,67.08c2.68,1.55,4.66,1.67,7.41.08q20.49-11.88,41-23.72c.28-.51.57-1,.87-1.51Z"/><path class="cls-6" d="M250.5,183.67a10.65,10.65,0,0,1-9.36,7l-10.72,56.29q20-11.52,40-23c2.87-1.64,3.85-3.51,3.84-6.85q0-15.56-.07-31.11Z"/><path class="cls-6" d="M62.92,148.39a14.28,14.28,0,0,1,7,1.82l45.44-55.59a38,38,0,0,1-7.84-45.23L92.33,40.18Q61,58.24,29.61,76.22c-.22.13-.41.26-.61.39l30.74,72.14A14.41,14.41,0,0,1,62.92,148.39Z"/><path class="cls-6" d="M48.51,162.79a14.4,14.4,0,0,1,6.45-12L25.78,82.32c0,.22,0,.44,0,.67.16,22.33.08,44.66.08,67q0,14.22,0,28.46L49.1,166.86A14.41,14.41,0,0,1,48.51,162.79Z"/><path class="cls-6" d="M176.33,51.76l31.86-11.29q-26-15-52-30.09l-4.28,19.87A38.18,38.18,0,0,1,176.33,51.76Z"/><path class="cls-6" d="M141.36,28.76a38.14,38.14,0,0,1,5.49.4L151.41,8c-1.86-.45-3.47,0-5.48,1.22q-24.23,14-48.47,28L110.21,45A38,38,0,0,1,141.36,28.76Z"/><g class="cls-7"><path class="cls-1" d="M193.57,266.42,72.67,175.33a15.84,15.84,0,0,1-21.62-2l-26.68,13.3v-9.16l23-11.46a16.33,16.33,0,0,1-.34-3.26,15.88,15.88,0,0,1,6.1-12.52L24.27,82.6v-.34a7.83,7.83,0,0,1,3.9-6.91l1.5-1,31,72.68a14.55,14.55,0,0,1,2.27-.17,15.85,15.85,0,0,1,6.6,1.44l43.81-53.59a39.72,39.72,0,0,1-11.54-27.91A39.06,39.06,0,0,1,105.57,50L89.38,40.15l8.1-4.68L109.81,43a39.63,39.63,0,0,1,31.55-15.7,41.78,41.78,0,0,1,4.31.23l4.6-21.33,1.49.36a10.18,10.18,0,0,1,2.74,1.14l3.4,2-4.22,19.59a39.43,39.43,0,0,1,23.45,20.66l31.21-11.06,9.33,5.39-37.83,13.4a39.56,39.56,0,0,1-9.49,36.15l65.65,75a12.07,12.07,0,0,1,4.49-.86,12.21,12.21,0,0,1,11.8,9.25l23.37,2.27v8.24l-24.22-2.35a12.14,12.14,0,0,1-9,6.74l-10.65,55.87-9.37,5.4h0l-26.16,15.1-5.44,3.14S193.5,266.56,193.57,266.42Zm4.92-6.56a31.66,31.66,0,0,1,22.58-9.5h.53l1.34,0,11.41-59.91a12.13,12.13,0,0,1-5.62-7.44L77.78,168.42l-.15.39Zm31-85c.12-.26.25-.51.38-.76l-65.67-75a39.52,39.52,0,0,1-44.5.77L75.85,153.54a15.83,15.83,0,0,1,2.76,6.73Z"/><path class="cls-3" d="M151.41,8a8.71,8.71,0,0,1,2.33,1l2.47,1.43-4.28,19.87a38.18,38.18,0,0,1,24.4,21.51l31.86-11.29,5.91,3.41-36,12.78a38.1,38.1,0,0,1-9.73,37.05l67.29,76.84a10.54,10.54,0,0,1,4.88-1.19A10.65,10.65,0,0,1,251,178.5l23.13,2.24c0,1.74,0,3.48,0,5.22l-23.67-2.29a10.65,10.65,0,0,1-9.36,7l-10.72,56.29-5.94,3.41L236,189.69a10.64,10.64,0,0,1-6.05-8L76.74,166.81a14.74,14.74,0,0,1-1,2.47l122.9,92.59a30,30,0,0,1,22.4-10l.73,0-27.13,15.66c.28-.51.57-1,.87-1.51L72.62,173.42a14.36,14.36,0,0,1-21.17-1.93L25.87,184.24v-5.8L49.1,166.86A14.38,14.38,0,0,1,55,150.79L25.78,82.32A6.35,6.35,0,0,1,29,76.61l30.74,72.14a14.33,14.33,0,0,1,10.18,1.46l45.44-55.59a38,38,0,0,1-7.84-45.23L92.33,40.18l5.13-3L110.21,45a38,38,0,0,1,36.64-15.79L151.41,8m-10,96.92a37.88,37.88,0,0,1-22-7L73.93,153.52a14.3,14.3,0,0,1,3.33,8.12L230.44,176.5a10.46,10.46,0,0,1,1.27-2.52L164.4,97.13a37.89,37.89,0,0,1-23,7.77M149.13,4.34l-.65,3-4,18.53c-1.05-.08-2.1-.12-3.13-.12A41.17,41.17,0,0,0,109.45,41L99,34.65l-1.52-.92L96,34.61,93.49,36l-2.66,1.54-4.4,2.53,4.34,2.63,12.88,7.82a40.58,40.58,0,0,0-3.36,16.27,41.24,41.24,0,0,0,11,28L69.07,146.51a17.44,17.44,0,0,0-6.15-1.12c-.44,0-.88,0-1.33.05l-29.83-70-1.4-3.28-3,1.93a9.27,9.27,0,0,0-4.58,8.11l0,.68.26.62L51.3,149.84a17.36,17.36,0,0,0-5.79,12.95,17.79,17.79,0,0,0,.17,2.42L24.53,175.75l-1.66.83v12.51l4.34-2.16L50.73,175.2a17.34,17.34,0,0,0,21.93,2l119,89.64-4.73,8.66,9.27-5.36,2.08-1.2,22.05-12.73h0l5.67-3.27,3.22-1.85,2.72-1.56,1.19-.69.26-1.35,10.33-54.2a13.68,13.68,0,0,0,8.62-6.43L273.88,189l3.3.32V178l-2.71-.26-21-2a13.73,13.73,0,0,0-13-9.36,13.35,13.35,0,0,0-4,.61l-64.1-73.19a40.76,40.76,0,0,0,10.07-26.95,41.6,41.6,0,0,0-.83-8.25l33.5-11.87,6.14-2.18-5.64-3.25-3.24-1.87-2.67-1.54-1.2-.69-1.31.46L177.88,48a40.89,40.89,0,0,0-22.45-19.78L159.14,11l.46-2.13-1.89-1.09-1.22-.71-1.24-.72a12,12,0,0,0-3.13-1.3l-3-.72ZM141.36,107.9a40.65,40.65,0,0,0,22.57-6.76l63.06,72L79.87,158.88a17.23,17.23,0,0,0-2.16-5.25L120,101.9a40.79,40.79,0,0,0,21.36,6Zm57,150L82.18,170.35l145.4,14.11a13.64,13.64,0,0,0,5.11,6.76l-11,57.66h-.63a33.14,33.14,0,0,0-22.71,9Z"/></g></g></g><g class="cls-8"><g class="cls-9"><path class="cls-1" d="M193.57,266.42,72.67,175.33a15.84,15.84,0,0,1-21.62-2l-26.68,13.3v-9.16l23-11.46a16.33,16.33,0,0,1-.34-3.26,15.88,15.88,0,0,1,6.1-12.52L24.27,82.6v-.34a7.83,7.83,0,0,1,3.9-6.91l1.5-1,31,72.68a14.55,14.55,0,0,1,2.27-.17,15.85,15.85,0,0,1,6.6,1.44l43.81-53.59a39.72,39.72,0,0,1-11.54-27.91A39.06,39.06,0,0,1,105.57,50L89.38,40.15l8.1-4.68L109.81,43a39.63,39.63,0,0,1,31.55-15.7,41.78,41.78,0,0,1,4.31.23l4.6-21.33,1.49.36a10.18,10.18,0,0,1,2.74,1.14l3.4,2-4.22,19.59a39.43,39.43,0,0,1,23.45,20.66l31.21-11.06,9.33,5.39-37.83,13.4a39.56,39.56,0,0,1-9.49,36.15l65.65,75a12.07,12.07,0,0,1,4.49-.86,12.21,12.21,0,0,1,11.8,9.25l23.37,2.27v8.24l-24.22-2.35a12.14,12.14,0,0,1-9,6.74l-10.65,55.87-9.37,5.4h0l-26.16,15.1-5.44,3.14S193.5,266.56,193.57,266.42Zm4.92-6.56a31.66,31.66,0,0,1,22.58-9.5h.53l1.34,0,11.41-59.91a12.13,12.13,0,0,1-5.62-7.44L77.78,168.42l-.15.39Zm31-85c.12-.26.25-.51.38-.76l-65.67-75a39.52,39.52,0,0,1-44.5.77L75.85,153.54a15.83,15.83,0,0,1,2.76,6.73Z"/><path class="cls-10" d="M151.41,8a8.71,8.71,0,0,1,2.33,1l2.47,1.43-4.28,19.87a38.18,38.18,0,0,1,24.4,21.51l31.86-11.29,5.91,3.41-36,12.78a38.1,38.1,0,0,1-9.73,37.05l67.29,76.84a10.54,10.54,0,0,1,4.88-1.19A10.65,10.65,0,0,1,251,178.5l23.13,2.24c0,1.74,0,3.48,0,5.22l-23.67-2.29a10.65,10.65,0,0,1-9.36,7l-10.72,56.29-5.94,3.41L236,189.69a10.64,10.64,0,0,1-6.05-8L76.74,166.81a14.74,14.74,0,0,1-1,2.47l122.9,92.59a30,30,0,0,1,22.4-10l.73,0-27.13,15.66c.28-.51.57-1,.87-1.51L72.62,173.42a14.36,14.36,0,0,1-21.17-1.93L25.87,184.24v-5.8L49.1,166.86A14.38,14.38,0,0,1,55,150.79L25.78,82.32A6.35,6.35,0,0,1,29,76.61l30.74,72.14a14.33,14.33,0,0,1,10.18,1.46l45.44-55.59a38,38,0,0,1-7.84-45.23L92.33,40.18l5.13-3L110.21,45a38,38,0,0,1,36.64-15.79L151.41,8m-10,96.92a37.88,37.88,0,0,1-22-7L73.93,153.52a14.3,14.3,0,0,1,3.33,8.12L230.44,176.5a10.46,10.46,0,0,1,1.27-2.52L164.4,97.13a37.89,37.89,0,0,1-23,7.77M149.13,4.34l-.65,3-4,18.53c-1.05-.08-2.1-.12-3.13-.12A41.17,41.17,0,0,0,109.45,41L99,34.65l-1.52-.92L96,34.61,93.49,36l-2.66,1.54-4.4,2.53,4.34,2.63,12.88,7.82a40.58,40.58,0,0,0-3.36,16.27,41.24,41.24,0,0,0,11,28L69.07,146.51a17.44,17.44,0,0,0-6.15-1.12c-.44,0-.88,0-1.33.05l-29.83-70-1.4-3.28-3,1.93a9.27,9.27,0,0,0-4.58,8.11l0,.68.26.62L51.3,149.84a17.36,17.36,0,0,0-5.79,12.95,17.79,17.79,0,0,0,.17,2.42L24.53,175.75l-1.66.83v12.51l4.34-2.16L50.73,175.2a17.34,17.34,0,0,0,21.93,2l119,89.64-4.73,8.66,9.27-5.36,2.08-1.2,22.05-12.73h0l5.67-3.27,3.22-1.85,2.72-1.56,1.19-.69.26-1.35,10.33-54.2a13.68,13.68,0,0,0,8.62-6.43L273.88,189l3.3.32V178l-2.71-.26-21-2a13.73,13.73,0,0,0-13-9.36,13.35,13.35,0,0,0-4,.61l-64.1-73.19a40.76,40.76,0,0,0,10.07-26.95,41.6,41.6,0,0,0-.83-8.25l33.5-11.87,6.14-2.18-5.64-3.25-3.24-1.87-2.67-1.54-1.2-.69-1.31.46L177.88,48a40.89,40.89,0,0,0-22.45-19.78L159.14,11l.46-2.13-1.89-1.09-1.22-.71-1.24-.72a12,12,0,0,0-3.13-1.3l-3-.72ZM141.36,107.9a40.65,40.65,0,0,0,22.57-6.76l63.06,72L79.87,158.88a17.23,17.23,0,0,0-2.16-5.25L120,101.9a40.79,40.79,0,0,0,21.36,6Zm57,150L82.18,170.35l145.4,14.11a13.64,13.64,0,0,0,5.11,6.76l-11,57.66h-.63a33.14,33.14,0,0,0-22.71,9Z"/></g></g><path class="cls-1" d="M59.05,187.11a2,2,0,0,1-2-2v-70a2,2,0,0,1,2-2H80.82c10.41,0,17.82,1.48,22.68,4.54,5.08,3.2,7.66,8.3,7.66,15.16a19,19,0,0,1-3.33,11.47,14.12,14.12,0,0,1-4.11,3.81,14.92,14.92,0,0,1,5.88,4.7c2.21,3,3.32,7.08,3.32,12,0,7-2.58,12.56-7.68,16.51-4.95,3.84-11.68,5.78-20,5.78Zm24.5-16.25c3.6,0,6.22-.64,7.79-1.9s2.18-3,2.18-5.62c0-1.84,0-6.71-10.45-6.71H75.89v14.23Zm-1-30c4.47,0,6.6-.83,7.6-1.52,1.23-.85,1.84-2.33,1.84-4.52,0-2.59-1.12-3.55-2-4-1.12-.67-3.48-1.47-8.28-1.47h-5.8v11.56Z"/><path class="cls-10" d="M80.82,115.15q14.9,0,21.61,4.23t6.73,13.47a17,17,0,0,1-3,10.29A11.79,11.79,0,0,1,98.39,148v.48Q105,149.93,108,154t3,10.81q0,9.57-6.92,14.93t-18.78,5.36H59.05v-70H80.82m-6.93,27.71H82.5c4,0,6.93-.63,8.73-1.87s2.71-3.3,2.71-6.17c0-2.68-1-4.61-3-5.77s-5.06-1.75-9.3-1.75h-7.8v15.56m0,30h9.66c4.09,0,7.1-.78,9-2.34s2.92-4,2.92-7.18q0-8.72-12.45-8.71H73.89v18.23m6.93-61.71H59.05a4,4,0,0,0-4,4v70a4,4,0,0,0,4,4H85.23c8.78,0,15.92-2.08,21.23-6.2,5.62-4.35,8.47-10.44,8.47-18.09,0-5.34-1.25-9.76-3.71-13.16a15.87,15.87,0,0,0-3.89-3.77,17.32,17.32,0,0,0,2.11-2.38,20.93,20.93,0,0,0,3.72-12.66c0-7.48-3-13.31-8.6-16.85-5.18-3.27-13-4.85-23.74-4.85ZM77.89,131.3h3.8c4.58,0,6.52.75,7.26,1.19.37.22,1,.58,1,2.33,0,2.2-.74,2.71-1,2.88-.5.35-2.14,1.16-6.46,1.16H77.89V131.3Zm0,27.33h5.18c8.45,0,8.45,3.06,8.45,4.71,0,2.91-1.08,3.78-1.43,4.06-.83.67-2.64,1.46-6.54,1.46H77.89V158.63Z"/><path class="cls-1" d="M124.9,187.11a2,2,0,0,1-2-2v-70a2,2,0,0,1,2-2h21.77c10.4,0,17.82,1.48,22.68,4.54,5.08,3.2,7.65,8.3,7.65,15.16a19,19,0,0,1-3.33,11.47,14,14,0,0,1-4.1,3.81,14.92,14.92,0,0,1,5.88,4.7c2.21,3,3.32,7.08,3.32,12,0,7-2.58,12.56-7.68,16.51s-11.68,5.78-20,5.78Zm24.5-16.25c3.6,0,6.22-.64,7.79-1.9s2.18-3,2.18-5.62c0-1.84,0-6.71-10.45-6.71h-7.18v14.23Zm-1.05-30c4.47,0,6.6-.83,7.6-1.52,1.23-.85,1.84-2.33,1.84-4.52,0-2.59-1.12-3.55-2-4-1.12-.67-3.48-1.47-8.28-1.47h-5.8v11.56Z"/><path class="cls-10" d="M146.67,115.15q14.9,0,21.61,4.23T175,132.85a17,17,0,0,1-2.94,10.29,11.79,11.79,0,0,1-7.82,4.84v.48q6.64,1.47,9.59,5.55t2.94,10.81q0,9.57-6.91,14.93t-18.78,5.36H124.9v-70h21.77m-6.94,27.71h8.62c4,0,6.93-.63,8.73-1.87s2.71-3.3,2.71-6.17c0-2.68-1-4.61-2.95-5.77s-5.06-1.75-9.3-1.75h-7.81v15.56m0,30h9.67q6.12,0,9-2.34t2.91-7.18q0-8.72-12.44-8.71h-9.19v18.23m6.94-61.71H124.9a4,4,0,0,0-4,4v70a4,4,0,0,0,4,4h26.18c8.78,0,15.92-2.08,21.23-6.2,5.62-4.35,8.46-10.44,8.46-18.09,0-5.34-1.24-9.76-3.7-13.16a15.87,15.87,0,0,0-3.89-3.77,17.32,17.32,0,0,0,2.11-2.38A21,21,0,0,0,179,132.85c0-7.48-3-13.31-8.59-16.85-5.18-3.27-12.95-4.85-23.74-4.85Zm-2.94,20.15h3.81c4.58,0,6.51.75,7.26,1.19.37.22,1,.58,1,2.33,0,2.2-.74,2.71-1,2.88-.5.35-2.14,1.16-6.46,1.16h-4.62V131.3Zm0,27.33h5.19c8.44,0,8.44,3.06,8.44,4.71,0,2.91-1.07,3.78-1.42,4.06-.83.67-2.64,1.46-6.54,1.46h-5.67V158.63Z"/><path class="cls-1" d="M219.08,188.07c-10.73,0-19.1-3.35-24.86-9.95s-8.58-15.9-8.58-27.89a45.51,45.51,0,0,1,4.17-20A30.82,30.82,0,0,1,202,116.8a35.88,35.88,0,0,1,18.46-4.66,49.29,49.29,0,0,1,21.34,5.13,2,2,0,0,1,1,2.54L238,131.87A2,2,0,0,1,236.9,133a2.1,2.1,0,0,1-.73.14,2,2,0,0,1-.86-.19,77.69,77.69,0,0,0-7.7-3.18,21.89,21.89,0,0,0-7.14-1.27c-4.95,0-8.67,1.79-11.35,5.47s-4.22,9.33-4.22,16.36c0,14.4,5.1,21.4,15.57,21.4,4.67,0,10.45-1.2,17.18-3.57a2,2,0,0,1,1.82.26,2,2,0,0,1,.85,1.63v12.44a2,2,0,0,1-1.23,1.85A51.84,51.84,0,0,1,219.08,188.07Z"/><path class="cls-10" d="M220.47,114.14A47.18,47.18,0,0,1,241,119.07l-4.78,12.06a79.19,79.19,0,0,0-7.9-3.25,23.45,23.45,0,0,0-7.8-1.39q-8.39,0-13,6.29t-4.6,17.54q0,23.4,17.57,23.4,7.36,0,17.85-3.68v12.44a49.63,49.63,0,0,1-19.24,3.59q-15.27,0-23.35-9.26t-8.09-26.58a43.37,43.37,0,0,1,4-19.12A28.74,28.74,0,0,1,203,118.52a33.8,33.8,0,0,1,17.45-4.38m0-4A37.86,37.86,0,0,0,201,115.07a32.83,32.83,0,0,0-13,14.29,47.59,47.59,0,0,0-4.37,20.87c0,12.49,3.05,22.32,9.07,29.21,6.16,7.05,15,10.63,26.37,10.63a53.72,53.72,0,0,0,20.78-3.9,4,4,0,0,0,2.46-3.69V170a4,4,0,0,0-5.33-3.78c-6.52,2.3-12.08,3.46-16.52,3.46-6.32,0-13.57-2.2-13.57-19.4,0-6.59,1.29-11.7,3.83-15.18,2.32-3.17,5.41-4.65,9.74-4.65a19.73,19.73,0,0,1,6.48,1.16,77.45,77.45,0,0,1,7.5,3.09,4,4,0,0,0,1.72.39,3.91,3.91,0,0,0,1.46-.28,4,4,0,0,0,2.25-2.24l4.79-12.06a4,4,0,0,0-2-5.09,51.29,51.29,0,0,0-22.21-5.32Z"/></svg>