<svg xmlns="http://www.w3.org/2000/svg" xmlns:xlink="http://www.w3.org/1999/xlink" viewBox="0 0 300 300"><defs><style>.cls-1{fill:none;}.cls-2{fill:#8ecc92;}.cls-3{clip-path:url(#clip-path);}.cls-4,.cls-5,.cls-6{fill:#fff;}.cls-4,.cls-5{stroke:#8ecc92;stroke-miterlimit:10;stroke-width:3.38px;}.cls-4{fill-rule:evenodd;}</style><clipPath id="clip-path"><path class="cls-1" d="M29.73,153.09c0-21.86.08-43.72-.08-65.58,0-3.24.92-5,3.78-6.63q57-32.65,113.88-65.62c2.74-1.59,4.7-2,7.65-.24q56.82,33,113.83,65.67c2.9,1.67,4.19,3.33,4.18,6.94q-.25,65.58,0,131.16c0,3.27-.95,5.1-3.76,6.71Q212,258.33,154.87,291.43c-2.69,1.56-4.63,1.44-7.25-.08q-56.85-33-113.83-65.68c-2.95-1.68-4.2-3.41-4.16-7C29.84,196.82,29.73,175,29.73,153.09Z"/></clipPath></defs><g id="mcbr"><path class="cls-2" d="M27.14,153.09c0-22.33.08-44.65-.08-67,0-3.31.94-5.1,3.85-6.77Q89.16,46,147.22,12.32c2.8-1.63,4.81-2,7.82-.25q58,33.72,116.26,67.08c3,1.69,4.28,3.4,4.26,7.08q-.26,67,0,134c0,3.34-1,5.2-3.84,6.85Q213.25,260.58,155,294.38c-2.75,1.59-4.73,1.47-7.41-.08q-58-33.68-116.26-67.08c-3-1.72-4.28-3.49-4.25-7.15C27.25,197.75,27.14,175.42,27.14,153.09Z"/><g class="cls-3"><path class="cls-4" d="M115-30.9S95.43-16.82,87.36-9.56A113.44,113.44,0,0,0,60.07,27.71C56.34,35.17,50.43,49.1,49.51,64c-.15,2.45-.19,5.13-.1,8-.09,2.84,0,5.51.1,8,.92,14.91,6.83,28.85,10.56,36.31a113.44,113.44,0,0,0,27.29,37.27A281,281,0,0,0,115,174.87h70a281,281,0,0,0,27.62-21.34,113.44,113.44,0,0,0,27.29-37.27c3.73-7.46,9.64-21.4,10.56-36.31.15-2.46.19-5.13.1-8,.09-2.83,0-5.51-.1-8-.92-14.92-6.83-28.85-10.56-36.31A113.44,113.44,0,0,0,212.64-9.56C204.57-16.82,185-30.9,185-30.9Zm35,183c-30.79-19.35-59.89-37.94-74.17-64.3a104.79,104.79,0,0,1-7-15.8,104.69,104.69,0,0,1,7-15.79C90.11,29.83,119.21,11.24,150-8.12c30.79,19.36,59.89,37.95,74.17,64.31a104.69,104.69,0,0,1,7,15.79,104.79,104.79,0,0,1-7,15.8C209.89,114.14,180.79,132.73,150,152.08Z"/><rect class="cls-5" x="140.31" y="58.67" width="95.61" height="14.06" rx="6.52"/><rect class="cls-5" x="65.77" y="58.67" width="74.54" height="14.06" rx="6.35"/><rect class="cls-5" x="150.85" y="12.97" width="68.42" height="13.69" rx="6.82"/><rect class="cls-5" x="86.07" y="12.97" width="64.78" height="13.69" rx="6.64"/><rect class="cls-5" x="72.88" y="105.38" width="62.06" height="13.73" rx="6.87"/><rect class="cls-5" x="134.94" y="105.38" width="84.91" height="13.73" rx="6.87"/><path class="cls-4" d="M115,174.87h70l-35-22.79c-30.79-19.35-59.89-37.94-74.17-64.3a104.79,104.79,0,0,1-7-15.8h-.07c-4.28-13.05-7.18-25.28-5.69-50.57l-3,6.3C56.34,35.17,50.43,49.1,49.51,64c-.15,2.45-.19,5.13-.1,8-.09,2.84,0,5.51.1,8,.92,14.91,6.83,28.85,10.56,36.31a113.44,113.44,0,0,0,27.29,37.27A281,281,0,0,0,115,174.87h0"/><path class="cls-4" d="M185-30.9H115L150-8.12c30.79,19.36,59.89,37.95,74.17,64.31a104.69,104.69,0,0,1,7,15.79h.07c4.28,13.06,7.18,25.29,5.69,50.58l3.05-6.3c3.73-7.46,9.64-21.4,10.56-36.31.15-2.46.19-5.13.1-8,.09-2.83,0-5.51-.1-8-.92-14.92-6.83-28.85-10.56-36.31A113.44,113.44,0,0,0,212.64-9.56,279.48,279.48,0,0,0,185-30.9h0"/><path class="cls-4" d="M115,174.87S95.43,189,87.36,196.21a113.44,113.44,0,0,0-27.29,37.27c-3.73,7.46-9.64,21.4-10.56,36.31-.15,2.46-.19,5.13-.1,8-.09,2.83,0,5.51.1,8,.92,14.92,6.83,28.85,10.56,36.31A113.44,113.44,0,0,0,87.36,359.3,279.48,279.48,0,0,0,115,380.64h70a279.48,279.48,0,0,0,27.62-21.34A113.44,113.44,0,0,0,239.93,322c3.73-7.46,9.64-21.39,10.56-36.31.15-2.45.19-5.13.1-8,.09-2.84,0-5.51-.1-8-.92-14.91-6.83-28.85-10.56-36.31a113.44,113.44,0,0,0-27.29-37.27C204.57,189,185,174.87,185,174.87Zm35,183c-30.79-19.36-59.89-37.95-74.17-64.31a104.69,104.69,0,0,1-7-15.79,104.79,104.79,0,0,1,7-15.8C90.11,235.6,119.21,217,150,197.66,180.79,217,209.89,235.6,224.17,262a104.79,104.79,0,0,1,7,15.8,104.69,104.69,0,0,1-7,15.79C209.89,319.91,180.79,338.5,150,357.86Z"/><rect class="cls-5" x="140.31" y="264.44" width="95.61" height="14.06" rx="6.52"/><rect class="cls-5" x="65.77" y="264.44" width="74.54" height="14.06" rx="6.35"/><rect class="cls-5" x="150.85" y="218.75" width="68.42" height="13.69" rx="6.82"/><rect class="cls-5" x="86.07" y="218.75" width="64.78" height="13.69" rx="6.64"/><path class="cls-4" d="M115,380.64h70l-35-22.78c-30.79-19.36-59.89-37.95-74.17-64.31a104.69,104.69,0,0,1-7-15.79h-.07c-4.28-13.05-7.18-25.29-5.69-50.58l-3,6.3c-3.73,7.46-9.64,21.4-10.56,36.31-.15,2.46-.19,5.13-.1,8-.09,2.83,0,5.51.1,8,.92,14.92,6.83,28.85,10.56,36.31A113.44,113.44,0,0,0,87.36,359.3,279.48,279.48,0,0,0,115,380.64h0"/><path class="cls-4" d="M185,174.87H115l35,22.79C180.79,217,209.89,235.6,224.17,262a104.79,104.79,0,0,1,7,15.8h.07c4.28,13.05,7.18,25.28,5.69,50.57l3.05-6.3c3.73-7.46,9.64-21.39,10.56-36.31.15-2.45.19-5.13.1-8,.09-2.84,0-5.51-.1-8-.92-14.91-6.83-28.85-10.56-36.31a113.44,113.44,0,0,0-27.29-37.27A281,281,0,0,0,185,174.87h0"/></g><path class="cls-6" d="M151.31,226.09a2.69,2.69,0,0,1-1.34-.47c-20.86-12.09-41.24-23.85-60.57-34.94a2.47,2.47,0,0,1-1.58-2.63c.08-8.74.07-17.62.06-26.21v-17.2c0-8.65,0-17.59,0-26.39a2.25,2.25,0,0,1,1.38-2.43c19.27-11,39.65-22.78,60.59-34.92a3.21,3.21,0,0,1,1.54-.55,2.46,2.46,0,0,1,1.28.43c18.11,10.52,37.92,22,60.56,34.94a2.48,2.48,0,0,1,1.6,2.6c-.09,21.52-.09,44.35,0,69.79a2.31,2.31,0,0,1-1.37,2.48c-21.38,12.27-41.28,23.74-60.82,35.08A2.55,2.55,0,0,1,151.31,226.09Z"/><path class="cls-2" d="M151.34,81.59a1.48,1.48,0,0,1,.65.27c18.19,10.57,38,22,60.57,34.94.92.53,1,.67,1,1.51-.09,21.45-.09,44.28,0,69.8,0,.94-.1,1-.74,1.39-21.05,12.08-41.52,23.89-60.83,35.08a1.46,1.46,0,0,1-.63.26,1.75,1.75,0,0,1-.72-.3C129.78,212.47,109.4,200.71,90,189.6c-.92-.53-1-.67-1-1.53.08-8.74.07-17.61.06-26.19V144.62c0-8.64,0-17.58,0-26.38,0-.85,0-.93.75-1.34,19.34-11.07,39.73-22.82,60.6-34.91a2.42,2.42,0,0,1,.91-.4m0-2.5a4.37,4.37,0,0,0-2.17.73q-30.24,17.54-60.58,34.92a3.45,3.45,0,0,0-2,3.52c.09,11.63,0,23.26,0,34.89s.05,23.26-.06,34.89a3.69,3.69,0,0,0,2.21,3.73q30.32,17.39,60.56,34.93a3.9,3.9,0,0,0,2,.64,3.73,3.73,0,0,0,1.89-.59q30.36-17.61,60.81-35.08a3.52,3.52,0,0,0,2-3.57q-.09-34.89,0-69.78a3.69,3.69,0,0,0-2.23-3.69Q183.49,97.25,153.25,79.7a3.75,3.75,0,0,0-1.91-.61Z"/><path class="cls-2" d="M93.85,168.72V138H100l7.3,21.7q1,3,1.5,4.5c.3-1.1.9-2.8,1.6-4.9l7.3-21.4h5.5v30.7h-3.9v-25.7l-8.9,25.7h-3.7l-8.9-26.1v26.1l-3.9.1Z"/><path class="cls-2" d="M149.05,157.92l4.1,1a13.9,13.9,0,0,1-4.6,7.6,12.93,12.93,0,0,1-8.1,2.6,15.19,15.19,0,0,1-8.1-2,12.19,12.19,0,0,1-4.7-5.9,20.63,20.63,0,0,1-1.6-8.2,18.46,18.46,0,0,1,1.8-8.4,12.28,12.28,0,0,1,5.2-5.4,15.55,15.55,0,0,1,7.4-1.9,12.54,12.54,0,0,1,7.7,2.3,12.31,12.31,0,0,1,4.4,6.6l-4,.9a9.23,9.23,0,0,0-3.1-4.9,8.53,8.53,0,0,0-5.1-1.5,10,10,0,0,0-5.9,1.7,8.19,8.19,0,0,0-3.3,4.6,19.66,19.66,0,0,0,.1,12.7,9.09,9.09,0,0,0,3.5,4.4,9.53,9.53,0,0,0,5.2,1.4,8.93,8.93,0,0,0,5.8-2A9,9,0,0,0,149.05,157.92Z"/><path class="cls-2" d="M155.45,168.72V138H167a14.44,14.44,0,0,1,5.6.9,7.15,7.15,0,0,1,3.3,2.9,7.47,7.47,0,0,1,1.2,4,7.3,7.3,0,0,1-4.3,6.5,7.75,7.75,0,0,1,4.3,2.8,7.52,7.52,0,0,1,1.5,4.6,9.1,9.1,0,0,1-.9,4,8.65,8.65,0,0,1-2.3,2.9,8.39,8.39,0,0,1-3.4,1.5,24,24,0,0,1-5,.5h-11.5Zm4.1-17.8h6.6a12.51,12.51,0,0,0,3.9-.4,4.25,4.25,0,0,0,2.3-1.5,4.65,4.65,0,0,0,.8-2.7,5.09,5.09,0,0,0-.7-2.7,3.77,3.77,0,0,0-2.1-1.6,17.26,17.26,0,0,0-4.7-.4h-6.1Zm0,14.2h7.6a21.84,21.84,0,0,0,2.8-.1,7,7,0,0,0,2.3-.8,5.21,5.21,0,0,0,1.5-1.7,5.68,5.68,0,0,0-.3-5.6,5.41,5.41,0,0,0-2.4-1.8,12.91,12.91,0,0,0-4.5-.5h-7.1l.1,10.5Z"/><path class="cls-2" d="M181.75,168.72V138h13.6a19.43,19.43,0,0,1,6.2.8,6.89,6.89,0,0,1,3.4,2.9,8.23,8.23,0,0,1,1.3,4.6,7.74,7.74,0,0,1-2.1,5.5c-1.4,1.5-3.6,2.4-6.5,2.8a8.21,8.21,0,0,1,2.4,1.5,20.6,20.6,0,0,1,3.4,4.1l5.3,8.4h-5.1l-4.1-6.4c-1.2-1.8-2.2-3.3-2.9-4.2a10.2,10.2,0,0,0-2.1-2.1,4.5,4.5,0,0,0-1.9-.8,12.66,12.66,0,0,0-2.3-.1h-4.7v13.6l-3.9.1Zm4.1-17.2h8.7a13.11,13.11,0,0,0,4.4-.6,5.56,5.56,0,0,0,2.4-1.8,5.44,5.44,0,0,0,.8-2.8,4.55,4.55,0,0,0-1.6-3.6c-1.1-1-2.7-1.4-5-1.4h-9.7v10.2Z"/></g></svg>