<svg xmlns="http://www.w3.org/2000/svg" xmlns:xlink="http://www.w3.org/1999/xlink" viewBox="0 0 300 300"><defs><style>.cls-1{fill:url(#linear-gradient);}.cls-2{fill:#fff;}.cls-3{fill:#8ecc92;}.cls-4{mask:url(#mask);}.cls-5{isolation:isolate;}.cls-6{mask:url(#mask-2);}.cls-7{fill:none;stroke:#fff;stroke-linecap:round;stroke-miterlimit:10;stroke-width:5.2px;}</style><linearGradient id="linear-gradient" x1="33.73" y1="150" x2="282.26" y2="150" gradientUnits="userSpaceOnUse"><stop offset="0"/><stop offset="1" stop-color="#6e6b6c"/></linearGradient><mask id="mask" x="2.57" y="0.01" width="301.71" height="305.35" maskUnits="userSpaceOnUse"><path class="cls-1" d="M33.84,149.87c0-22.32.08-44.65-.08-67,0-3.31.94-5.1,3.85-6.77q58.24-33.36,116.31-67c2.8-1.62,4.81-2,7.82-.25q58,33.72,116.26,67.08c3,1.7,4.28,3.4,4.26,7.08q-.25,67,0,134c0,3.34-1,5.2-3.84,6.85q-58.45,33.56-116.75,67.34c-2.75,1.59-4.73,1.47-7.41-.08Q96.19,257.4,38,224c-3-1.72-4.28-3.49-4.24-7.15C34,194.53,33.84,172.2,33.84,149.87Z"/></mask><mask id="mask-2" x="-195.9" y="-104.64" width="486.78" height="414.99" maskUnits="userSpaceOnUse"><path class="cls-2" d="M29.27,149.87c0-22.32.08-44.65-.08-67,0-3.31.94-5.1,3.85-6.77q58.25-33.36,116.31-67c2.8-1.62,4.81-2,7.82-.25q58,33.72,116.26,67.08c3,1.7,4.28,3.4,4.26,7.08q-.26,67,0,134c0,3.34-1,5.2-3.84,6.85q-58.45,33.56-116.75,67.34c-2.75,1.59-4.73,1.47-7.41-.08Q91.62,257.4,33.41,224c-3-1.72-4.28-3.49-4.25-7.15C29.38,194.53,29.27,172.2,29.27,149.87Z"/></mask></defs><g id="Layer_7" data-name="Layer 7"><path class="cls-3" d="M29.27,149.87c0-22.32.08-44.65-.08-67,0-3.31.94-5.1,3.85-6.77q58.25-33.36,116.31-67c2.8-1.62,4.81-2,7.82-.25q58,33.72,116.26,67.08c3,1.7,4.28,3.4,4.26,7.08q-.26,67,0,134c0,3.34-1,5.2-3.84,6.85q-58.45,33.56-116.75,67.34c-2.75,1.59-4.73,1.47-7.41-.08Q91.62,257.4,33.41,224c-3-1.72-4.28-3.49-4.25-7.15C29.38,194.53,29.27,172.2,29.27,149.87Z"/><g class="cls-4"><path class="cls-2" d="M2.63,11.72a13,13,0,0,1,1-6.7A14.1,14.1,0,0,1,5.48,2.14a5.42,5.42,0,0,1,4.37-2c4,0,6.51,1.65,7.73,5.42a19.84,19.84,0,0,1,0,12.87c-1,3-3,5.27-6.44,5.58a6.48,6.48,0,0,1-6.73-3.56,12.55,12.55,0,0,1-1.75-5.92C2.62,13.71,2.63,12.87,2.63,11.72Zm10,.44h0c0-1.35.07-2.72,0-4.07a6.37,6.37,0,0,0-.64-2,1.55,1.55,0,0,0-1.52-.91A1.72,1.72,0,0,0,8.79,6.32a8.71,8.71,0,0,0-.55,2.44c-.08,2.08-.11,4.18,0,6.26A8.78,8.78,0,0,0,9,18a1.56,1.56,0,0,0,2.78.21,4.57,4.57,0,0,0,.89-2.63C12.65,14.46,12.67,13.31,12.67,12.16Z"/><path class="cls-2" d="M57.73,11.54a12.23,12.23,0,0,1,1.1-6.6,15.1,15.1,0,0,1,1.61-2.65A5.56,5.56,0,0,1,65.06.15c4.08,0,6.58,1.9,7.74,5.82a19,19,0,0,1,0,12A14.15,14.15,0,0,1,71,21.5a6.87,6.87,0,0,1-11.19-.59,12.33,12.33,0,0,1-2-6.47Zm10,.49h0c0-1.36,0-2.72,0-4.07a4.75,4.75,0,0,0-.51-1.76,1.75,1.75,0,0,0-1.77-1,1.72,1.72,0,0,0-1.57,1.32,8,8,0,0,0-.48,1.81c-.06,2.39-.08,4.79,0,7.18a5.73,5.73,0,0,0,.65,2.4,2.61,2.61,0,0,0,1.4,1.1A1.31,1.31,0,0,0,67,18.11a7.58,7.58,0,0,0,.76-2.33A36.06,36.06,0,0,0,67.77,12Z"/><path class="cls-2" d="M55.37,12a19.2,19.2,0,0,1-1.69,7.9,6.91,6.91,0,0,1-6.43,4.19A6.73,6.73,0,0,1,41.1,20.5a14.74,14.74,0,0,1-1.78-6.24,17.28,17.28,0,0,1,1.6-10.32,8.11,8.11,0,0,1,2.19-2.58,7,7,0,0,1,9.31,1,9.69,9.69,0,0,1,2.25,4.4C55,8.44,55.14,10.21,55.37,12Zm-5.45.32-.23,0a15.78,15.78,0,0,0,0-2.48,18.5,18.5,0,0,0-.89-3.61,1.63,1.63,0,0,0-3-.2,4.93,4.93,0,0,0-.62,1.41,19.34,19.34,0,0,0,.11,9.53,5.19,5.19,0,0,0,.87,1.62,1.32,1.32,0,0,0,2.14,0A3.66,3.66,0,0,0,49,17.14C49.37,15.53,49.63,13.9,49.92,12.28Z"/><path class="cls-2" d="M232.64,11a16.61,16.61,0,0,1,1.45-6.56,10.49,10.49,0,0,1,1.77-2.55c2.46-2.63,8.37-2.48,10.44,1a13.69,13.69,0,0,1,1.44,2.76,18.94,18.94,0,0,1-.82,14.55,6.62,6.62,0,0,1-5.68,3.86,6.69,6.69,0,0,1-6.9-3.87C233.23,18.14,232.62,15.11,232.64,11Zm10.71.88-.18,0a9.06,9.06,0,0,0,0-1.88,34.68,34.68,0,0,0-1-3.88,1.4,1.4,0,0,0-1.49-.92,1.66,1.66,0,0,0-1.48,1,6,6,0,0,0-.42,1.17,18.6,18.6,0,0,0-.17,8.65,8.38,8.38,0,0,0,.56,1.78c.3.68.77,1.41,1.59,1.24a2.8,2.8,0,0,0,1.38-1.08,3.32,3.32,0,0,0,.58-1.44C242.92,14.93,243.12,13.39,243.35,11.86Z"/><path class="cls-2" d="M175.05,12.51a13.32,13.32,0,0,1-.84,5.94A17.85,17.85,0,0,1,173,21a7,7,0,0,1-11.62.05,10.54,10.54,0,0,1-1.24-2.52A20.44,20.44,0,0,1,160,5.91a11.11,11.11,0,0,1,1.32-2.81,6.1,6.1,0,0,1,5.49-3c3.72.09,6.06,1.59,7.31,5.11a12.11,12.11,0,0,1,.93,5.19C175,11,175.05,11.48,175.05,12.51Zm-5.5-.54h-.11c0-.84.05-1.67,0-2.5A18.58,18.58,0,0,0,169,6.67a1.88,1.88,0,0,0-3.66-.14A4.17,4.17,0,0,0,165,8c0,2.61-.06,5.21,0,7.82a4.34,4.34,0,0,0,.62,2A2.48,2.48,0,0,0,167.08,19c.77.13,1.35-.5,1.69-1.17a4.24,4.24,0,0,0,.41-1.49C169.34,14.87,169.43,13.42,169.55,12Z"/><path class="cls-2" d="M304.28,11.87c-.16,3-.44,5.85-2,8.47A7,7,0,0,1,294.67,24a6.21,6.21,0,0,1-4.45-3.14,11.78,11.78,0,0,1-1.91-6.19c0-1.67.05-3.34,0-5a11.19,11.19,0,0,1,1.63-5.95A6.14,6.14,0,0,1,295.68.14c4,.08,6.62,1.88,7.66,5.92C303.83,8,304,9.93,304.28,11.87Zm-5.93.14h0c0-1.25,0-2.5,0-3.75a2.91,2.91,0,0,0-.8-2.29A3,3,0,0,0,296,5.21a1.55,1.55,0,0,0-1.56,1.28A7.47,7.47,0,0,0,294,8.3c0,2.4-.06,4.79,0,7.18a5.85,5.85,0,0,0,.62,2.4A2.55,2.55,0,0,0,296,19c.67.21,1.15-.33,1.5-.88a4.46,4.46,0,0,0,.85-2.62C298.32,14.31,298.35,13.16,298.35,12Z"/><path class="cls-2" d="M177.42,12.06a21.23,21.23,0,0,1,1.81-8.25c2.22-4.73,9.68-5,12.15-.65a14,14,0,0,1,1.79,4.6,23.09,23.09,0,0,1,0,8.37A14.43,14.43,0,0,1,191.92,20a6.84,6.84,0,0,1-6.48,4.12c-3.09,0-5.06-1.56-6.37-4.23C177.85,17.34,177.66,14.66,177.42,12.06Zm5.69-.25h0c0,.82-.06,1.66,0,2.48a7.49,7.49,0,0,0,1.49,4.31,1.24,1.24,0,0,0,1.9,0,5.75,5.75,0,0,0,.88-1.61,16.73,16.73,0,0,0,.32-8.85A8.49,8.49,0,0,0,187,6.09a1.59,1.59,0,0,0-2.94,0A10.35,10.35,0,0,0,183.14,9,17.28,17.28,0,0,0,183.11,11.81Z"/><path class="cls-2" d="M147.6,12.06c-.28,1.85-.48,3.81-.9,5.73a9.59,9.59,0,0,1-2.19,4.09c-2.4,2.84-8.08,3.25-10.63-.56a12.52,12.52,0,0,1-1.72-3.64,22,22,0,0,1-.08-11.11,13.71,13.71,0,0,1,1.68-3.65c2.29-3.8,9-3.74,11.24-.15a10.6,10.6,0,0,1,1.93,4.54C147.11,8.85,147.36,10.38,147.6,12.06Zm-5.57.09-.19,0c0-.83,0-1.66,0-2.49a2.6,2.6,0,0,0-.05-.62,17.34,17.34,0,0,0-.85-3,1.67,1.67,0,0,0-3,0,4,4,0,0,0-.49,1.13,21.11,21.11,0,0,0,.1,9.84c.34,1.32,1.3,2.21,2,2a2.37,2.37,0,0,0,1.72-2C141.63,15.42,141.79,13.78,142,12.15Z"/><path class="cls-2" d="M91.89,12.53a12.7,12.7,0,0,1-1,6.36c-.3.66-.67,1.29-1,1.93-2.19,4-9.3,4.82-12.08-.48A19.81,19.81,0,0,1,76,14.06a18.64,18.64,0,0,1,1.1-8.9,12.21,12.21,0,0,1,1.76-2.92c2.16-3,8.52-2.9,10.68.45a13.21,13.21,0,0,1,2.36,6.67C91.93,10.3,91.89,11.24,91.89,12.53Zm-10.06-.48h0a38.84,38.84,0,0,0,0,4,5.4,5.4,0,0,0,.88,2.24,1.43,1.43,0,0,0,2.38.08,2.92,2.92,0,0,0,.63-1.05,20.87,20.87,0,0,0,0-10.73A1.85,1.85,0,0,0,84,5.14a2.06,2.06,0,0,0-1.89,1.37A5.21,5.21,0,0,0,81.84,8C81.8,9.36,81.83,10.71,81.83,12.05Z"/><path class="cls-2" d="M110.5,11.61c-.28,3.27-.47,6.18-2,8.78a6.78,6.78,0,0,1-5.79,3.66,6.67,6.67,0,0,1-6.47-3.54,14.11,14.11,0,0,1-1.78-6.24c-.33-3.45-.21-6.88,1.45-10a11,11,0,0,1,1.82-2.51C100-.67,105.86-.58,107.94,2.8a10.73,10.73,0,0,1,2,4.86C110,9.1,110.32,10.52,110.5,11.61Zm-5.72.43.16,0c-.18-1.53-.25-3.09-.57-4.6-.35-1.69-1.1-2.39-2.1-2.29-1.28.13-1.62,1.14-1.92,2.16a17.92,17.92,0,0,0-.17,8.58,9.3,9.3,0,0,0,.55,1.77A1.85,1.85,0,0,0,102.26,19a1.58,1.58,0,0,0,1.61-1.21,19,19,0,0,0,.89-3.28A15.9,15.9,0,0,0,104.78,12Z"/><path class="cls-2" d="M267.21,12.84a12.62,12.62,0,0,1-1.68,7.53,6.85,6.85,0,0,1-6.09,3.7c-3.93.13-6.16-2.44-7.21-5.78a20,20,0,0,1,0-12.31,12.07,12.07,0,0,1,2.1-3.77A5.28,5.28,0,0,1,258.62.15c4.14,0,6.22,1.42,7.79,5.31C267.31,7.69,267.16,10,267.21,12.84Zm-10-.87c0,1.25-.07,2.51,0,3.75a6,6,0,0,0,.59,2.06c.3.66.78,1.29,1.64,1.2a2,2,0,0,0,1.6-1.34,6,6,0,0,0,.31-1.21,22.47,22.47,0,0,0-.05-9.31c0-.2-.07-.41-.14-.61a1.84,1.84,0,0,0-1.57-1.33,1.64,1.64,0,0,0-1.79,1,5.68,5.68,0,0,0-.59,2.05C257.09,9.46,257.16,10.72,257.16,12Z"/><path class="cls-2" d="M26.59.35a15.39,15.39,0,0,1,4.89.12c.66,2.46.26,5,.32,7.42s0,5.2,0,7.81,0,5-.06,7.37c-2.25.84-2.77.86-5.26.23C26.1,20.65,26.13,3.05,26.59.35Z"/><path class="cls-2" d="M123.67,23.5a12.09,12.09,0,0,1-4.71.06,3.65,3.65,0,0,1-.34-.39.59.59,0,0,1-.1-.29q-.06-10.3-.09-20.61c0-.51.07-1,.11-1.51,1.89-.65,1.89-.65,5-.32a5.16,5.16,0,0,1,.37,1.36c0,6.77,0,13.54,0,20.31A7.69,7.69,0,0,1,123.67,23.5Z"/><path class="cls-2" d="M201.44.41a12.67,12.67,0,0,1,4.95,0,3.31,3.31,0,0,1,.36,1q0,10.34,0,20.67a6.6,6.6,0,0,1-.25,1.27,9.52,9.52,0,0,1-5,.18,5.12,5.12,0,0,1-.32-1.2q0-10.48,0-21A4.8,4.8,0,0,1,201.44.41Z"/><path class="cls-2" d="M224.93,23.3c-2.31.59-2.4.59-5.09.05-.5-1.43-.2-3-.25-4.53s0-3.13,0-4.69V9.75c0-1.56,0-3.13,0-4.69A19.51,19.51,0,0,1,219.8.47c1.74-.48,3.28-.14,4.93-.27a7.56,7.56,0,0,1,.38,1.6q0,10.17,0,20.34A7,7,0,0,1,224.93,23.3Z"/><path class="cls-2" d="M275.5.3c1.18,0,2.2-.09,3.23-.08a12.82,12.82,0,0,1,1.58.23,15.88,15.88,0,0,1,.28,1.9c.27,8.15.11,18.34-.33,21a8,8,0,0,1-4.68.15C275.17,21.07,275.09,4.05,275.5.3Z"/><path class="cls-2" d="M2.63,51.9a13,13,0,0,1,1-6.7,14.1,14.1,0,0,1,1.81-2.88,5.42,5.42,0,0,1,4.37-2c4,0,6.51,1.64,7.73,5.42a19.84,19.84,0,0,1,0,12.87c-1,3-3,5.27-6.44,5.58a6.48,6.48,0,0,1-6.73-3.56,12.59,12.59,0,0,1-1.75-5.92C2.62,53.88,2.63,53.05,2.63,51.9Zm10,.44h0c0-1.36.07-2.72,0-4.07a6.37,6.37,0,0,0-.64-2,1.55,1.55,0,0,0-1.52-.91A1.72,1.72,0,0,0,8.79,46.5a8.71,8.71,0,0,0-.55,2.44c-.08,2.08-.11,4.18,0,6.26a8.78,8.78,0,0,0,.76,3,1.55,1.55,0,0,0,2.78.2,4.54,4.54,0,0,0,.89-2.62C12.65,54.64,12.67,53.49,12.67,52.34Z"/><path class="cls-2" d="M57.73,51.71a12.2,12.2,0,0,1,1.1-6.59,15.1,15.1,0,0,1,1.61-2.65,5.6,5.6,0,0,1,4.62-2.15c4.08,0,6.58,1.91,7.74,5.83a19,19,0,0,1,0,12A14.15,14.15,0,0,1,71,61.68a6.87,6.87,0,0,1-11.19-.59,12.36,12.36,0,0,1-2-6.47Zm10,.5h0c0-1.36,0-2.72,0-4.07a4.75,4.75,0,0,0-.51-1.76,1.77,1.77,0,0,0-3.34.27,8,8,0,0,0-.48,1.81c-.06,2.39-.08,4.79,0,7.18a5.77,5.77,0,0,0,.65,2.4,2.66,2.66,0,0,0,1.4,1.1A1.31,1.31,0,0,0,67,58.28,7.52,7.52,0,0,0,67.73,56,36.06,36.06,0,0,0,67.77,52.21Z"/><path class="cls-2" d="M55.37,52.14A19.12,19.12,0,0,1,53.68,60a6.9,6.9,0,0,1-6.43,4.2,6.73,6.73,0,0,1-6.15-3.55,14.78,14.78,0,0,1-1.78-6.25,17.24,17.24,0,0,1,1.6-10.31,8.11,8.11,0,0,1,2.19-2.58,7,7,0,0,1,9.31,1,9.69,9.69,0,0,1,2.25,4.4C55,48.62,55.14,50.39,55.37,52.14Zm-5.45.32-.23,0a15.77,15.77,0,0,0,0-2.48,18.5,18.5,0,0,0-.89-3.61,1.63,1.63,0,0,0-3-.2,4.93,4.93,0,0,0-.62,1.41,19.3,19.3,0,0,0,.11,9.52,5.13,5.13,0,0,0,.87,1.63,1.32,1.32,0,0,0,2.14,0A3.74,3.74,0,0,0,49,57.32C49.37,55.71,49.63,54.08,49.92,52.46Z"/><path class="cls-2" d="M232.64,51.16a16.61,16.61,0,0,1,1.45-6.56A10.74,10.74,0,0,1,235.86,42c2.46-2.62,8.37-2.47,10.44,1a14.25,14.25,0,0,1,1.44,2.76,18.94,18.94,0,0,1-.82,14.55,7,7,0,0,1-12.58,0C233.23,58.32,232.62,55.29,232.64,51.16Zm10.71.88-.18,0a9.06,9.06,0,0,0,0-1.88,34.68,34.68,0,0,0-1-3.88,1.42,1.42,0,0,0-1.49-.93,1.69,1.69,0,0,0-1.48,1,6,6,0,0,0-.42,1.17,18.6,18.6,0,0,0-.17,8.65,8.56,8.56,0,0,0,.56,1.78c.3.68.77,1.41,1.59,1.24a2.8,2.8,0,0,0,1.38-1.08,3.32,3.32,0,0,0,.58-1.44C242.92,55.11,243.12,53.57,243.35,52Z"/><path class="cls-2" d="M175.05,52.69a13.32,13.32,0,0,1-.84,5.94A17.22,17.22,0,0,1,173,61.14a7,7,0,0,1-11.62.06,10.54,10.54,0,0,1-1.24-2.52,20.44,20.44,0,0,1-.1-12.59,11.11,11.11,0,0,1,1.32-2.81,6.1,6.1,0,0,1,5.49-3c3.72.09,6.06,1.58,7.31,5.11a12.11,12.11,0,0,1,.93,5.19C175,51.13,175.05,51.66,175.05,52.69Zm-5.5-.54h-.11c0-.84.05-1.68,0-2.51a18.64,18.64,0,0,0-.41-2.78,1.88,1.88,0,0,0-3.66-.14,4.13,4.13,0,0,0-.32,1.51c0,2.6-.06,5.21,0,7.82a4.34,4.34,0,0,0,.62,2,2.43,2.43,0,0,0,1.42,1.07c.77.14,1.35-.49,1.69-1.16a4.24,4.24,0,0,0,.41-1.49C169.34,55.05,169.43,53.6,169.55,52.15Z"/><path class="cls-2" d="M304.28,52.05c-.16,3-.44,5.85-2,8.47a7,7,0,0,1-7.62,3.65A6.21,6.21,0,0,1,290.22,61a11.81,11.81,0,0,1-1.91-6.19c0-1.67.05-3.34,0-5a11.19,11.19,0,0,1,1.63-6,6.14,6.14,0,0,1,5.76-3.57c4,.08,6.62,1.88,7.66,5.91C303.83,48.13,304,50.11,304.28,52.05Zm-5.93.14h0c0-1.25,0-2.5,0-3.75a2.73,2.73,0,0,0-2.39-3,1.55,1.55,0,0,0-1.56,1.28,7.36,7.36,0,0,0-.44,1.81c0,2.4-.06,4.79,0,7.18a5.89,5.89,0,0,0,.62,2.4A2.55,2.55,0,0,0,296,59.13c.67.21,1.15-.34,1.5-.88a4.46,4.46,0,0,0,.85-2.62C298.32,54.48,298.35,53.34,298.35,52.19Z"/><path class="cls-2" d="M177.42,52.24A21.23,21.23,0,0,1,179.23,44c2.22-4.73,9.68-5,12.15-.65a14,14,0,0,1,1.79,4.6,23,23,0,0,1,0,8.36,14.49,14.49,0,0,1-1.27,3.83,6.82,6.82,0,0,1-6.48,4.11c-3.09,0-5.06-1.55-6.37-4.22C177.85,57.52,177.66,54.84,177.42,52.24Zm5.69-.26h0c0,.83-.06,1.66,0,2.49a7.49,7.49,0,0,0,1.49,4.31,1.24,1.24,0,0,0,1.9,0,5.75,5.75,0,0,0,.88-1.61,16.73,16.73,0,0,0,.32-8.85,8.49,8.49,0,0,0-.67-2,1.59,1.59,0,0,0-2.94,0,10.35,10.35,0,0,0-.94,2.93A17.17,17.17,0,0,0,183.11,52Z"/><path class="cls-2" d="M147.6,52.23c-.28,1.86-.48,3.82-.9,5.74a9.65,9.65,0,0,1-2.19,4.09c-2.4,2.84-8.08,3.25-10.63-.56a12.52,12.52,0,0,1-1.72-3.64,22,22,0,0,1-.08-11.11,13.71,13.71,0,0,1,1.68-3.65c2.29-3.8,9-3.74,11.24-.15a10.56,10.56,0,0,1,1.93,4.53C147.11,49,147.36,50.56,147.6,52.23Zm-5.57.09-.19,0c0-.83,0-1.66,0-2.49a2.56,2.56,0,0,0-.05-.62,17.34,17.34,0,0,0-.85-3,1.68,1.68,0,0,0-3,0,4.1,4.1,0,0,0-.49,1.14,21.11,21.11,0,0,0,.1,9.84c.34,1.31,1.3,2.21,2,2a2.37,2.37,0,0,0,1.72-2C141.63,55.6,141.79,54,142,52.32Z"/><path class="cls-2" d="M91.89,52.71a12.7,12.7,0,0,1-1,6.36c-.3.66-.67,1.29-1,1.93-2.19,4-9.3,4.82-12.08-.48A19.81,19.81,0,0,1,76,54.24a18.64,18.64,0,0,1,1.1-8.9,12,12,0,0,1,1.76-2.92c2.16-3,8.52-2.9,10.68.45a13.21,13.21,0,0,1,2.36,6.67C91.93,50.47,91.89,51.41,91.89,52.71Zm-10.06-.48h0a38.65,38.65,0,0,0,0,4,5.38,5.38,0,0,0,.88,2.25,1.43,1.43,0,0,0,2.38.07,2.8,2.8,0,0,0,.63-1,20.87,20.87,0,0,0,0-10.73A1.85,1.85,0,0,0,84,45.32a2,2,0,0,0-1.89,1.37,5.21,5.21,0,0,0-.31,1.51C81.8,49.54,81.83,50.89,81.83,52.23Z"/><path class="cls-2" d="M110.5,51.79c-.28,3.27-.47,6.18-2,8.78a6.78,6.78,0,0,1-5.79,3.66,6.68,6.68,0,0,1-6.47-3.54,14.11,14.11,0,0,1-1.78-6.24c-.33-3.45-.21-6.88,1.45-10.05a11.11,11.11,0,0,1,1.82-2.5c2.29-2.39,8.13-2.3,10.21,1.08a10.64,10.64,0,0,1,2,4.86C110,49.27,110.32,50.7,110.5,51.79Zm-5.72.43.16,0c-.18-1.53-.25-3.09-.57-4.6-.35-1.69-1.1-2.39-2.1-2.29-1.28.13-1.62,1.13-1.92,2.16a17.92,17.92,0,0,0-.17,8.58,9.3,9.3,0,0,0,.55,1.77,1.85,1.85,0,0,0,1.53,1.38A1.59,1.59,0,0,0,103.87,58a18.82,18.82,0,0,0,.89-3.29A15.77,15.77,0,0,0,104.78,52.22Z"/><path class="cls-2" d="M267.21,53a12.62,12.62,0,0,1-1.68,7.53,6.85,6.85,0,0,1-6.09,3.7c-3.93.13-6.16-2.44-7.21-5.78a20,20,0,0,1,0-12.31,12.07,12.07,0,0,1,2.1-3.77,5.28,5.28,0,0,1,4.34-2.06c4.14,0,6.22,1.42,7.79,5.31C267.31,47.86,267.16,50.13,267.21,53Zm-10-.87c0,1.25-.07,2.51,0,3.75a6,6,0,0,0,.59,2.06c.3.65.78,1.29,1.64,1.2a2,2,0,0,0,1.6-1.34,6,6,0,0,0,.31-1.21,22.47,22.47,0,0,0-.05-9.31c0-.2-.07-.41-.14-.61a1.84,1.84,0,0,0-1.57-1.33,1.64,1.64,0,0,0-1.79,1,5.69,5.69,0,0,0-.59,2C257.09,49.64,257.16,50.9,257.16,52.15Z"/><path class="cls-2" d="M26.59,40.53a15.69,15.69,0,0,1,4.89.11c.66,2.47.26,5,.32,7.43s0,5.2,0,7.81,0,5-.06,7.37c-2.25.84-2.77.86-5.26.23C26.1,60.83,26.13,43.22,26.59,40.53Z"/><path class="cls-2" d="M123.67,63.68a12.29,12.29,0,0,1-4.71.06,3.65,3.65,0,0,1-.34-.39.63.63,0,0,1-.1-.29q-.06-10.31-.09-20.61c0-.51.07-1,.11-1.51,1.89-.65,1.89-.65,5-.32a5.16,5.16,0,0,1,.37,1.36c0,6.77,0,13.54,0,20.31A7.86,7.86,0,0,1,123.67,63.68Z"/><path class="cls-2" d="M201.44,40.59a12.67,12.67,0,0,1,4.95,0,3.31,3.31,0,0,1,.36,1q0,10.34,0,20.67a6.6,6.6,0,0,1-.25,1.27,9.63,9.63,0,0,1-5,.18,5.12,5.12,0,0,1-.32-1.2q0-10.49,0-21A4.6,4.6,0,0,1,201.44,40.59Z"/><path class="cls-2" d="M224.93,63.48c-2.31.59-2.4.59-5.09.05-.5-1.43-.2-3-.25-4.53s0-3.13,0-4.69V49.93c0-1.56,0-3.13,0-4.69a19.51,19.51,0,0,1,.21-4.59c1.74-.48,3.28-.15,4.93-.27a7.56,7.56,0,0,1,.38,1.6q0,10.17,0,20.34A7,7,0,0,1,224.93,63.48Z"/><path class="cls-2" d="M275.5,40.47c1.18,0,2.2-.08,3.23-.07a12.82,12.82,0,0,1,1.58.23,15.88,15.88,0,0,1,.28,1.9c.27,8.15.11,18.34-.33,21a8.11,8.11,0,0,1-4.68.15C275.17,61.25,275.09,44.22,275.5,40.47Z"/><path class="cls-2" d="M2.63,92.08a13,13,0,0,1,1-6.71A14.3,14.3,0,0,1,5.48,82.5a5.39,5.39,0,0,1,4.37-2c4,0,6.51,1.64,7.73,5.42a19.84,19.84,0,0,1,0,12.87c-1,3-3,5.27-6.44,5.58a6.48,6.48,0,0,1-6.73-3.56A12.62,12.62,0,0,1,2.63,94.9C2.62,94.06,2.63,93.23,2.63,92.08Zm10,.44h0c0-1.36.07-2.72,0-4.07a6.37,6.37,0,0,0-.64-2,1.55,1.55,0,0,0-1.52-.91,1.72,1.72,0,0,0-1.68,1.18,8.71,8.71,0,0,0-.55,2.44c-.08,2.08-.11,4.18,0,6.26a8.79,8.79,0,0,0,.76,3,1.55,1.55,0,0,0,2.78.21A4.54,4.54,0,0,0,12.68,96C12.65,94.82,12.67,93.67,12.67,92.52Z"/><path class="cls-2" d="M57.73,91.89a12.25,12.25,0,0,1,1.1-6.6,15.39,15.39,0,0,1,1.61-2.64,5.6,5.6,0,0,1,4.62-2.15c4.08,0,6.58,1.91,7.74,5.83a19,19,0,0,1,0,12A14,14,0,0,1,71,101.86a6.87,6.87,0,0,1-11.19-.59,12.36,12.36,0,0,1-2-6.47Zm10,.5h0c0-1.36,0-2.72,0-4.07a4.75,4.75,0,0,0-.51-1.76,1.77,1.77,0,0,0-3.34.27,8,8,0,0,0-.48,1.8c-.06,2.4-.08,4.8,0,7.19a5.69,5.69,0,0,0,.65,2.39,2.63,2.63,0,0,0,1.4,1.11A1.33,1.33,0,0,0,67,98.46a7.52,7.52,0,0,0,.76-2.32A36.06,36.06,0,0,0,67.77,92.39Z"/><path class="cls-2" d="M55.37,92.32a19.15,19.15,0,0,1-1.69,7.89,6.9,6.9,0,0,1-6.43,4.2,6.73,6.73,0,0,1-6.15-3.55,14.78,14.78,0,0,1-1.78-6.25,17.24,17.24,0,0,1,1.6-10.31,8.11,8.11,0,0,1,2.19-2.58,7,7,0,0,1,9.31,1,9.69,9.69,0,0,1,2.25,4.4C55,88.8,55.14,90.57,55.37,92.32Zm-5.45.32-.23,0a15.9,15.9,0,0,0,0-2.49,18.4,18.4,0,0,0-.89-3.6,1.63,1.63,0,0,0-3-.2,4.93,4.93,0,0,0-.62,1.41,19.3,19.3,0,0,0,.11,9.52,5.24,5.24,0,0,0,.87,1.63,1.32,1.32,0,0,0,2.14,0A3.74,3.74,0,0,0,49,97.5C49.37,95.89,49.63,94.26,49.92,92.64Z"/><path class="cls-2" d="M232.64,91.34a16.61,16.61,0,0,1,1.45-6.56,10.74,10.74,0,0,1,1.77-2.56c2.46-2.62,8.37-2.47,10.44,1A14.25,14.25,0,0,1,247.74,86a18.94,18.94,0,0,1-.82,14.55,7,7,0,0,1-12.58,0C233.23,98.5,232.62,95.47,232.64,91.34Zm10.71.88-.18,0a9.06,9.06,0,0,0,0-1.88,34.68,34.68,0,0,0-1-3.88,1.42,1.42,0,0,0-1.49-.93,1.69,1.69,0,0,0-1.48,1,6,6,0,0,0-.42,1.17,18.6,18.6,0,0,0-.17,8.65,8.56,8.56,0,0,0,.56,1.78c.3.68.77,1.41,1.59,1.24a2.8,2.8,0,0,0,1.38-1.08,3.37,3.37,0,0,0,.58-1.44C242.92,95.29,243.12,93.75,243.35,92.22Z"/><path class="cls-2" d="M175.05,92.87a13.34,13.34,0,0,1-.84,5.94,17.22,17.22,0,0,1-1.24,2.51,7,7,0,0,1-11.62.05,10.3,10.3,0,0,1-1.24-2.51,20.44,20.44,0,0,1-.1-12.59,11.11,11.11,0,0,1,1.32-2.81,6.08,6.08,0,0,1,5.49-3c3.72.09,6.06,1.58,7.31,5.11a12.11,12.11,0,0,1,.93,5.19C175,91.31,175.05,91.84,175.05,92.87Zm-5.5-.55h-.11c0-.84.05-1.68,0-2.51A18.64,18.64,0,0,0,169,87a1.88,1.88,0,0,0-3.66-.14A4.13,4.13,0,0,0,165,88.4c0,2.6-.06,5.21,0,7.82a4.34,4.34,0,0,0,.62,2,2.43,2.43,0,0,0,1.42,1.07c.77.14,1.35-.5,1.69-1.16a4.24,4.24,0,0,0,.41-1.49C169.34,95.23,169.43,93.78,169.55,92.32Z"/><path class="cls-2" d="M304.28,92.23c-.16,3-.44,5.85-2,8.46a7,7,0,0,1-7.62,3.66,6.21,6.21,0,0,1-4.45-3.14A11.81,11.81,0,0,1,288.31,95c0-1.67.05-3.34,0-5a11.24,11.24,0,0,1,1.63-6,6.14,6.14,0,0,1,5.76-3.56c4,.08,6.62,1.88,7.66,5.91C303.83,88.31,304,90.29,304.28,92.23Zm-5.93.14h0c0-1.25,0-2.5,0-3.75A2.73,2.73,0,0,0,296,85.57a1.54,1.54,0,0,0-1.56,1.28,7.25,7.25,0,0,0-.44,1.81c0,2.39-.06,4.79,0,7.18a5.89,5.89,0,0,0,.62,2.4A2.54,2.54,0,0,0,296,99.3c.67.21,1.15-.33,1.5-.87a4.46,4.46,0,0,0,.85-2.62C298.32,94.66,298.35,93.52,298.35,92.37Z"/><path class="cls-2" d="M177.42,92.41a21.23,21.23,0,0,1,1.81-8.24c2.22-4.73,9.68-5,12.15-.65a14,14,0,0,1,1.79,4.6,23,23,0,0,1,0,8.36,14.49,14.49,0,0,1-1.27,3.83,6.83,6.83,0,0,1-6.48,4.11c-3.09,0-5.06-1.55-6.37-4.22C177.85,97.7,177.66,95,177.42,92.41Zm5.69-.25h0c0,.83-.06,1.66,0,2.49A7.49,7.49,0,0,0,184.59,99a1.25,1.25,0,0,0,1.9,0,5.67,5.67,0,0,0,.88-1.62,16.69,16.69,0,0,0,.32-8.84,8.49,8.49,0,0,0-.67-2,1.59,1.59,0,0,0-2.94,0,10.39,10.39,0,0,0-.94,2.92A17.3,17.3,0,0,0,183.11,92.16Z"/><path class="cls-2" d="M147.6,92.41c-.28,1.85-.48,3.82-.9,5.74a9.65,9.65,0,0,1-2.19,4.09c-2.4,2.84-8.08,3.25-10.63-.56A12.52,12.52,0,0,1,132.16,98a22,22,0,0,1-.08-11.11,13.92,13.92,0,0,1,1.68-3.66c2.29-3.8,9-3.73,11.24-.14a10.56,10.56,0,0,1,1.93,4.53C147.11,89.2,147.36,90.74,147.6,92.41ZM142,92.5l-.19,0c0-.83,0-1.66,0-2.49a2.56,2.56,0,0,0-.05-.62,17.34,17.34,0,0,0-.85-3,1.67,1.67,0,0,0-3,0,4.1,4.1,0,0,0-.49,1.14,21.11,21.11,0,0,0,.1,9.84c.34,1.31,1.3,2.21,2,2a2.37,2.37,0,0,0,1.72-2C141.63,95.78,141.79,94.13,142,92.5Z"/><path class="cls-2" d="M91.89,92.89a12.7,12.7,0,0,1-1,6.36c-.3.66-.67,1.29-1,1.93-2.19,4-9.3,4.82-12.08-.49A19.68,19.68,0,0,1,76,94.42a18.64,18.64,0,0,1,1.1-8.9,11.83,11.83,0,0,1,1.76-2.92c2.16-3,8.52-2.9,10.68.45a13.21,13.21,0,0,1,2.36,6.67C91.93,90.65,91.89,91.59,91.89,92.89Zm-10.06-.48h0a38.65,38.65,0,0,0,0,4,5.38,5.38,0,0,0,.88,2.25,1.43,1.43,0,0,0,2.38.07,2.8,2.8,0,0,0,.63-1,20.87,20.87,0,0,0,0-10.73A1.85,1.85,0,0,0,84,85.5a2,2,0,0,0-1.89,1.37,5.21,5.21,0,0,0-.31,1.5C81.8,89.72,81.83,91.06,81.83,92.41Z"/><path class="cls-2" d="M110.5,92c-.28,3.27-.47,6.18-2,8.78a6.78,6.78,0,0,1-5.79,3.66,6.68,6.68,0,0,1-6.47-3.54,14.11,14.11,0,0,1-1.78-6.24c-.33-3.45-.21-6.88,1.45-10a11.11,11.11,0,0,1,1.82-2.5c2.29-2.39,8.13-2.3,10.21,1.07a10.72,10.72,0,0,1,2,4.87C110,89.45,110.32,90.88,110.5,92Zm-5.72.43.16,0c-.18-1.53-.25-3.09-.57-4.6-.35-1.69-1.1-2.39-2.1-2.29-1.28.13-1.62,1.13-1.92,2.16a17.92,17.92,0,0,0-.17,8.58,9.3,9.3,0,0,0,.55,1.77,1.85,1.85,0,0,0,1.53,1.38,1.59,1.59,0,0,0,1.61-1.22,18.48,18.48,0,0,0,.89-3.28A15.77,15.77,0,0,0,104.78,92.4Z"/><path class="cls-2" d="M267.21,93.2a12.62,12.62,0,0,1-1.68,7.53,6.85,6.85,0,0,1-6.09,3.7c-3.93.13-6.16-2.44-7.21-5.78a20,20,0,0,1,0-12.31,12.23,12.23,0,0,1,2.1-3.78,5.34,5.34,0,0,1,4.34-2.06c4.14,0,6.22,1.43,7.79,5.32C267.31,88,267.16,90.31,267.21,93.2Zm-10-.87c0,1.25-.07,2.5,0,3.75a6.07,6.07,0,0,0,.59,2.06,1.67,1.67,0,0,0,1.64,1.2A2,2,0,0,0,261,98a6.14,6.14,0,0,0,.31-1.21,22.47,22.47,0,0,0-.05-9.31c0-.2-.07-.41-.14-.61a1.84,1.84,0,0,0-1.57-1.33,1.64,1.64,0,0,0-1.79,1,5.8,5.8,0,0,0-.59,2C257.09,89.82,257.16,91.07,257.16,92.33Z"/><path class="cls-2" d="M26.59,80.71a15.69,15.69,0,0,1,4.89.11c.66,2.47.26,5,.32,7.43s0,5.2,0,7.81,0,5-.06,7.37c-2.25.84-2.77.86-5.26.23C26.1,101,26.13,83.4,26.59,80.71Z"/><path class="cls-2" d="M123.67,103.86a12.29,12.29,0,0,1-4.71.06,3.65,3.65,0,0,1-.34-.39.63.63,0,0,1-.1-.29q-.06-10.3-.09-20.61c0-.51.07-1,.11-1.51,1.89-.65,1.89-.65,5-.32a5.16,5.16,0,0,1,.37,1.36c0,6.77,0,13.54,0,20.31A7.86,7.86,0,0,1,123.67,103.86Z"/><path class="cls-2" d="M201.44,80.77a12.67,12.67,0,0,1,4.95,0,3.22,3.22,0,0,1,.36,1q0,10.34,0,20.67a6.37,6.37,0,0,1-.25,1.26,9.52,9.52,0,0,1-5,.19,5.12,5.12,0,0,1-.32-1.2q0-10.49,0-21A4.6,4.6,0,0,1,201.44,80.77Z"/><path class="cls-2" d="M224.93,103.66c-2.31.59-2.4.59-5.09,0-.5-1.44-.2-3-.25-4.53s0-3.13,0-4.69V90.11c0-1.57,0-3.13,0-4.69a19.51,19.51,0,0,1,.21-4.59c1.74-.48,3.28-.15,4.93-.27a7.56,7.56,0,0,1,.38,1.6q0,10.17,0,20.33A7.32,7.32,0,0,1,224.93,103.66Z"/><path class="cls-2" d="M275.5,80.65c1.18,0,2.2-.08,3.23-.07a14.88,14.88,0,0,1,1.58.22,16.49,16.49,0,0,1,.28,1.9c.27,8.16.11,18.35-.33,21a8.11,8.11,0,0,1-4.68.15C275.17,101.43,275.09,84.4,275.5,80.65Z"/><path class="cls-2" d="M2.63,132.26a13,13,0,0,1,1-6.71,14,14,0,0,1,1.81-2.87,5.39,5.39,0,0,1,4.37-2c4,0,6.51,1.64,7.73,5.42a19.84,19.84,0,0,1,0,12.87c-1,3-3,5.26-6.44,5.58A6.47,6.47,0,0,1,4.38,141a12.55,12.55,0,0,1-1.75-5.92C2.62,134.24,2.63,133.41,2.63,132.26Zm10,.44h0c0-1.36.07-2.72,0-4.07a6.37,6.37,0,0,0-.64-2,1.55,1.55,0,0,0-1.52-.91,1.72,1.72,0,0,0-1.68,1.18,8.72,8.72,0,0,0-.55,2.43c-.08,2.09-.11,4.18,0,6.27a8.79,8.79,0,0,0,.76,3,1.56,1.56,0,0,0,2.78.21,4.54,4.54,0,0,0,.89-2.62C12.65,135,12.67,133.85,12.67,132.7Z"/><path class="cls-2" d="M57.73,132.07a12.25,12.25,0,0,1,1.1-6.6,15.39,15.39,0,0,1,1.61-2.64,5.6,5.6,0,0,1,4.62-2.15c4.08,0,6.58,1.91,7.74,5.83a19,19,0,0,1,0,12A14,14,0,0,1,71,142a6.87,6.87,0,0,1-11.19-.59,12.36,12.36,0,0,1-2-6.47Zm10,.49h0c0-1.35,0-2.71,0-4.06a4.7,4.7,0,0,0-.51-1.76,1.77,1.77,0,0,0-3.34.27,8,8,0,0,0-.48,1.8c-.06,2.4-.08,4.8,0,7.19a5.73,5.73,0,0,0,.65,2.39,2.57,2.57,0,0,0,1.4,1.1,1.31,1.31,0,0,0,1.51-.85,7.52,7.52,0,0,0,.76-2.32A36.22,36.22,0,0,0,67.77,132.56Z"/><path class="cls-2" d="M55.37,132.5a19.18,19.18,0,0,1-1.69,7.89,6.9,6.9,0,0,1-6.43,4.2A6.75,6.75,0,0,1,41.1,141a14.78,14.78,0,0,1-1.78-6.25,17.24,17.24,0,0,1,1.6-10.31,8.14,8.14,0,0,1,2.19-2.59,7,7,0,0,1,9.31,1,9.69,9.69,0,0,1,2.25,4.4C55,129,55.14,130.75,55.37,132.5Zm-5.45.32-.23,0a15.9,15.9,0,0,0,0-2.49,18.22,18.22,0,0,0-.89-3.6,1.63,1.63,0,0,0-3-.2,4.93,4.93,0,0,0-.62,1.41,19.3,19.3,0,0,0,.11,9.52,5.24,5.24,0,0,0,.87,1.63,1.32,1.32,0,0,0,2.14,0,3.74,3.74,0,0,0,.71-1.35C49.37,136.07,49.63,134.44,49.92,132.82Z"/><path class="cls-2" d="M232.64,131.52a16.61,16.61,0,0,1,1.45-6.56,10.74,10.74,0,0,1,1.77-2.56c2.46-2.62,8.37-2.47,10.44,1a14.25,14.25,0,0,1,1.44,2.76,18.94,18.94,0,0,1-.82,14.55,7,7,0,0,1-12.58,0C233.23,138.68,232.62,135.65,232.64,131.52Zm10.71.87-.18,0a9.06,9.06,0,0,0,0-1.88,35.43,35.43,0,0,0-1-3.89,1.42,1.42,0,0,0-1.49-.92,1.68,1.68,0,0,0-1.48,1,6.14,6.14,0,0,0-.42,1.18,18.55,18.55,0,0,0-.17,8.64,8.65,8.65,0,0,0,.56,1.79c.3.68.77,1.41,1.59,1.24a2.77,2.77,0,0,0,1.38-1.09,3.28,3.28,0,0,0,.58-1.43C242.92,135.47,243.12,133.93,243.35,132.39Z"/><path class="cls-2" d="M175.05,133.05a13.34,13.34,0,0,1-.84,5.94A17.22,17.22,0,0,1,173,141.5a7,7,0,0,1-11.62.05,10.48,10.48,0,0,1-1.24-2.51,20.44,20.44,0,0,1-.1-12.59,11.11,11.11,0,0,1,1.32-2.81,6.08,6.08,0,0,1,5.49-3c3.72.09,6.06,1.58,7.31,5.11a12.11,12.11,0,0,1,.93,5.19C175,131.49,175.05,132,175.05,133.05Zm-5.5-.55h-.11c0-.84.05-1.68,0-2.51a18.64,18.64,0,0,0-.41-2.78,1.88,1.88,0,0,0-3.66-.14,4.12,4.12,0,0,0-.32,1.5c0,2.61-.06,5.22,0,7.83a4.34,4.34,0,0,0,.62,2,2.43,2.43,0,0,0,1.42,1.07c.77.14,1.35-.5,1.69-1.16a4.24,4.24,0,0,0,.41-1.49C169.34,135.41,169.43,134,169.55,132.5Z"/><path class="cls-2" d="M304.28,132.41c-.16,3-.44,5.85-2,8.46a7,7,0,0,1-7.62,3.66,6.21,6.21,0,0,1-4.45-3.14,11.81,11.81,0,0,1-1.91-6.19c0-1.67.05-3.34,0-5a11.24,11.24,0,0,1,1.63-6,6.14,6.14,0,0,1,5.76-3.56c4,.08,6.62,1.88,7.66,5.91C303.83,128.49,304,130.47,304.28,132.41Zm-5.93.14h0c0-1.25,0-2.5,0-3.75a2.88,2.88,0,0,0-.8-2.29,2.82,2.82,0,0,0-1.59-.76A1.53,1.53,0,0,0,294.4,127a7.43,7.43,0,0,0-.44,1.82c0,2.39-.06,4.79,0,7.18a5.89,5.89,0,0,0,.62,2.4,2.54,2.54,0,0,0,1.41,1.06c.67.21,1.15-.33,1.5-.87a4.46,4.46,0,0,0,.85-2.62C298.32,134.84,298.35,133.69,298.35,132.55Z"/><path class="cls-2" d="M177.42,132.59a21.23,21.23,0,0,1,1.81-8.24c2.22-4.73,9.68-5,12.15-.66a14.14,14.14,0,0,1,1.79,4.61,23,23,0,0,1,0,8.36,14.49,14.49,0,0,1-1.27,3.83,6.83,6.83,0,0,1-6.48,4.11c-3.09,0-5.06-1.55-6.37-4.22C177.85,137.88,177.66,135.19,177.42,132.59Zm5.69-.25h0c0,.83-.06,1.66,0,2.48a7.49,7.49,0,0,0,1.49,4.32,1.24,1.24,0,0,0,1.9,0,5.62,5.62,0,0,0,.88-1.61,16.72,16.72,0,0,0,.32-8.85,8.42,8.42,0,0,0-.67-2,1.59,1.59,0,0,0-2.94,0,10.39,10.39,0,0,0-.94,2.92A17.3,17.3,0,0,0,183.11,132.34Z"/><path class="cls-2" d="M147.6,132.59c-.28,1.85-.48,3.82-.9,5.74a9.65,9.65,0,0,1-2.19,4.09c-2.4,2.83-8.08,3.25-10.63-.56a12.52,12.52,0,0,1-1.72-3.64,22,22,0,0,1-.08-11.11,13.92,13.92,0,0,1,1.68-3.66c2.29-3.8,9-3.73,11.24-.14a10.56,10.56,0,0,1,1.93,4.53C147.11,129.38,147.36,130.92,147.6,132.59Zm-5.57.09-.19,0c0-.83,0-1.66,0-2.49a2.56,2.56,0,0,0-.05-.62,17.34,17.34,0,0,0-.85-3,1.67,1.67,0,0,0-3,0,4.1,4.1,0,0,0-.49,1.14,21.11,21.11,0,0,0,.1,9.84c.34,1.31,1.3,2.2,2,2a2.35,2.35,0,0,0,1.72-2C141.63,136,141.79,134.31,142,132.68Z"/><path class="cls-2" d="M91.89,133.07a12.7,12.7,0,0,1-1,6.36c-.3.66-.67,1.29-1,1.93-2.19,4-9.3,4.82-12.08-.49A19.68,19.68,0,0,1,76,134.6a18.64,18.64,0,0,1,1.1-8.9,11.83,11.83,0,0,1,1.76-2.92c2.16-3,8.52-2.9,10.68.45a13.21,13.21,0,0,1,2.36,6.67C91.93,130.83,91.89,131.77,91.89,133.07Zm-10.06-.48h0a38.65,38.65,0,0,0,0,4,5.29,5.29,0,0,0,.88,2.24,1.42,1.42,0,0,0,2.38.08,2.8,2.8,0,0,0,.63-1,20.87,20.87,0,0,0,0-10.73,1.86,1.86,0,0,0-1.75-1.5,2.07,2.07,0,0,0-1.89,1.38,5.14,5.14,0,0,0-.31,1.5C81.8,129.9,81.83,131.24,81.83,132.59Z"/><path class="cls-2" d="M110.5,132.15c-.28,3.27-.47,6.18-2,8.77a6.79,6.79,0,0,1-5.79,3.67,6.7,6.7,0,0,1-6.47-3.54,14.11,14.11,0,0,1-1.78-6.24c-.33-3.45-.21-6.88,1.45-10a11.17,11.17,0,0,1,1.82-2.51c2.29-2.39,8.13-2.29,10.21,1.08a10.73,10.73,0,0,1,2,4.86C110,129.63,110.32,131.05,110.5,132.15Zm-5.72.43.16,0c-.18-1.54-.25-3.1-.57-4.6-.35-1.69-1.1-2.39-2.1-2.29-1.28.13-1.62,1.13-1.92,2.15a18,18,0,0,0-.17,8.59,9.52,9.52,0,0,0,.55,1.77,1.85,1.85,0,0,0,1.53,1.38,1.6,1.6,0,0,0,1.61-1.22,18.48,18.48,0,0,0,.89-3.28A15.77,15.77,0,0,0,104.78,132.58Z"/><path class="cls-2" d="M267.21,133.38a12.64,12.64,0,0,1-1.68,7.53,6.85,6.85,0,0,1-6.09,3.7c-3.93.13-6.16-2.44-7.21-5.78a20,20,0,0,1,0-12.31,12.23,12.23,0,0,1,2.1-3.78,5.34,5.34,0,0,1,4.34-2.06c4.14,0,6.22,1.43,7.79,5.32C267.31,128.22,267.16,130.49,267.21,133.38Zm-10-.87c0,1.25-.07,2.5,0,3.75a6,6,0,0,0,.59,2.05,1.67,1.67,0,0,0,1.64,1.21,2,2,0,0,0,1.6-1.34,6.14,6.14,0,0,0,.31-1.21,22.47,22.47,0,0,0-.05-9.31,6,6,0,0,0-.14-.61,1.84,1.84,0,0,0-1.57-1.33,1.64,1.64,0,0,0-1.79,1,5.74,5.74,0,0,0-.59,2C257.09,130,257.16,131.25,257.16,132.51Z"/><path class="cls-2" d="M26.59,120.89a15.69,15.69,0,0,1,4.89.11c.66,2.47.26,5,.32,7.42.07,2.61,0,5.21,0,7.81s0,5-.06,7.38c-2.25.84-2.77.85-5.26.23C26.1,141.19,26.13,123.58,26.59,120.89Z"/><path class="cls-2" d="M123.67,144a12.29,12.29,0,0,1-4.71.06,3.65,3.65,0,0,1-.34-.39.63.63,0,0,1-.1-.29q-.06-10.3-.09-20.61c0-.51.07-1,.11-1.51,1.89-.66,1.89-.66,5-.32a5.06,5.06,0,0,1,.37,1.36c0,6.77,0,13.54,0,20.3A7.77,7.77,0,0,1,123.67,144Z"/><path class="cls-2" d="M201.44,120.94a13.06,13.06,0,0,1,4.95,0,3.41,3.41,0,0,1,.36,1q0,10.35,0,20.68a6.51,6.51,0,0,1-.25,1.26,9.52,9.52,0,0,1-5,.19,5.12,5.12,0,0,1-.32-1.2q0-10.5,0-21A4.8,4.8,0,0,1,201.44,120.94Z"/><path class="cls-2" d="M224.93,143.83c-2.31.6-2.4.6-5.09.06-.5-1.44-.2-3-.25-4.53s0-3.13,0-4.69v-4.38c0-1.57,0-3.13,0-4.7a19.45,19.45,0,0,1,.21-4.58c1.74-.49,3.28-.15,4.93-.28a7.77,7.77,0,0,1,.38,1.61q0,10.17,0,20.33A7,7,0,0,1,224.93,143.83Z"/><path class="cls-2" d="M275.5,120.83c1.18,0,2.2-.08,3.23-.07a14.88,14.88,0,0,1,1.58.22,16.49,16.49,0,0,1,.28,1.9c.27,8.16.11,18.35-.33,21.05a8.19,8.19,0,0,1-4.68.15C275.17,141.61,275.09,124.58,275.5,120.83Z"/><path class="cls-2" d="M2.63,172.44a13,13,0,0,1,1-6.71,14,14,0,0,1,1.81-2.87,5.43,5.43,0,0,1,4.37-2c4,0,6.51,1.65,7.73,5.43a19.84,19.84,0,0,1,0,12.87c-1,3-3,5.26-6.44,5.58a6.48,6.48,0,0,1-6.73-3.57,12.55,12.55,0,0,1-1.75-5.92C2.62,174.42,2.63,173.59,2.63,172.44Zm10,.44h0c0-1.36.07-2.72,0-4.07a6.29,6.29,0,0,0-.64-2,1.56,1.56,0,0,0-1.52-.92A1.71,1.71,0,0,0,8.79,167a8.64,8.64,0,0,0-.55,2.43c-.08,2.09-.11,4.18,0,6.27a8.79,8.79,0,0,0,.76,3,1.56,1.56,0,0,0,2.78.21,4.55,4.55,0,0,0,.89-2.63C12.65,175.18,12.67,174,12.67,172.88Z"/><path class="cls-2" d="M57.73,172.25a12.25,12.25,0,0,1,1.1-6.6A15.39,15.39,0,0,1,60.44,163a5.57,5.57,0,0,1,4.62-2.15c4.08,0,6.58,1.91,7.74,5.83a19,19,0,0,1,0,11.95A14,14,0,0,1,71,182.22a6.87,6.87,0,0,1-11.19-.59,12.36,12.36,0,0,1-2-6.47Zm10,.49h0c0-1.35,0-2.71,0-4.06a4.7,4.7,0,0,0-.51-1.76,1.74,1.74,0,0,0-1.77-1.06,1.72,1.72,0,0,0-1.57,1.32,8.23,8.23,0,0,0-.48,1.81c-.06,2.4-.08,4.8,0,7.19a5.73,5.73,0,0,0,.65,2.39,2.57,2.57,0,0,0,1.4,1.1,1.31,1.31,0,0,0,1.51-.85,7.61,7.61,0,0,0,.76-2.32A36.25,36.25,0,0,0,67.77,172.74Z"/><path class="cls-2" d="M55.37,172.67a19.2,19.2,0,0,1-1.69,7.9,6.88,6.88,0,0,1-6.43,4.19,6.72,6.72,0,0,1-6.15-3.54A14.78,14.78,0,0,1,39.32,175a17.24,17.24,0,0,1,1.6-10.31,8.14,8.14,0,0,1,2.19-2.59,7,7,0,0,1,9.31,1,9.69,9.69,0,0,1,2.25,4.4C55,169.16,55.14,170.93,55.37,172.67Zm-5.45.33-.23,0a15.9,15.9,0,0,0,0-2.49,18.22,18.22,0,0,0-.89-3.6,1.63,1.63,0,0,0-3-.2,4.81,4.81,0,0,0-.62,1.41,19.3,19.3,0,0,0,.11,9.52,5.35,5.35,0,0,0,.87,1.63,1.32,1.32,0,0,0,2.14,0,3.7,3.7,0,0,0,.71-1.36C49.37,176.25,49.63,174.62,49.92,173Z"/><path class="cls-2" d="M232.64,171.69a16.6,16.6,0,0,1,1.45-6.55,10.74,10.74,0,0,1,1.77-2.56c2.46-2.62,8.37-2.47,10.44,1a14,14,0,0,1,1.44,2.76,18.94,18.94,0,0,1-.82,14.55,7,7,0,0,1-12.58,0C233.23,178.86,232.62,175.83,232.64,171.69Zm10.71.88-.18,0a9.06,9.06,0,0,0,0-1.88,34.84,34.84,0,0,0-1-3.89,1.42,1.42,0,0,0-1.49-.92,1.66,1.66,0,0,0-1.48,1,6.14,6.14,0,0,0-.42,1.18,18.55,18.55,0,0,0-.17,8.64,8.65,8.65,0,0,0,.56,1.79c.3.68.77,1.4,1.59,1.24a2.77,2.77,0,0,0,1.38-1.09,3.28,3.28,0,0,0,.58-1.43C242.92,175.65,243.12,174.11,243.35,172.57Z"/><path class="cls-2" d="M175.05,173.22a13.36,13.36,0,0,1-.84,5.95,17.22,17.22,0,0,1-1.24,2.51,7,7,0,0,1-11.62,0,10.48,10.48,0,0,1-1.24-2.51,20.47,20.47,0,0,1-.1-12.6,11.21,11.21,0,0,1,1.32-2.8,6.08,6.08,0,0,1,5.49-3c3.72.09,6.06,1.58,7.31,5.11a12,12,0,0,1,.93,5.18C175,171.67,175.05,172.2,175.05,173.22Zm-5.5-.54h-.11c0-.83.05-1.67,0-2.5a18.64,18.64,0,0,0-.41-2.78,1.88,1.88,0,0,0-3.66-.14,4.12,4.12,0,0,0-.32,1.5c0,2.61-.06,5.22,0,7.83a4.34,4.34,0,0,0,.62,2,2.43,2.43,0,0,0,1.42,1.07c.77.14,1.35-.5,1.69-1.16a4.24,4.24,0,0,0,.41-1.49C169.34,175.59,169.43,174.13,169.55,172.68Z"/><path class="cls-2" d="M304.28,172.59c-.16,3-.44,5.84-2,8.46a7,7,0,0,1-7.62,3.66,6.19,6.19,0,0,1-4.45-3.15,11.75,11.75,0,0,1-1.91-6.19c0-1.66.05-3.33,0-5a11.22,11.22,0,0,1,1.63-6,6.13,6.13,0,0,1,5.76-3.56c4,.08,6.62,1.88,7.66,5.91C303.83,168.67,304,170.65,304.28,172.59Zm-5.93.14h0c0-1.25,0-2.5,0-3.75a2.88,2.88,0,0,0-.8-2.29,2.82,2.82,0,0,0-1.59-.76,1.53,1.53,0,0,0-1.56,1.27A7.43,7.43,0,0,0,294,169c0,2.39-.06,4.79,0,7.18a5.89,5.89,0,0,0,.62,2.4,2.54,2.54,0,0,0,1.41,1.06c.67.21,1.15-.33,1.5-.87a4.46,4.46,0,0,0,.85-2.63C298.32,175,298.35,173.87,298.35,172.73Z"/><path class="cls-2" d="M177.42,172.77a21.23,21.23,0,0,1,1.81-8.24c2.22-4.73,9.68-5,12.15-.66a14.14,14.14,0,0,1,1.79,4.61,23,23,0,0,1,0,8.36,14.49,14.49,0,0,1-1.27,3.83,6.83,6.83,0,0,1-6.48,4.11c-3.09,0-5.06-1.55-6.37-4.23C177.85,178.06,177.66,175.37,177.42,172.77Zm5.69-.25h0c0,.83-.06,1.66,0,2.48a7.49,7.49,0,0,0,1.49,4.32,1.25,1.25,0,0,0,1.9,0,5.62,5.62,0,0,0,.88-1.61,16.73,16.73,0,0,0,.32-8.85,8.64,8.64,0,0,0-.67-2,1.6,1.6,0,0,0-2.94,0,10.45,10.45,0,0,0-.94,2.93A17.3,17.3,0,0,0,183.11,172.52Z"/><path class="cls-2" d="M147.6,172.77c-.28,1.85-.48,3.82-.9,5.74a9.65,9.65,0,0,1-2.19,4.09c-2.4,2.83-8.08,3.25-10.63-.56a12.52,12.52,0,0,1-1.72-3.64,22.05,22.05,0,0,1-.08-11.12,13.86,13.86,0,0,1,1.68-3.65c2.29-3.8,9-3.73,11.24-.14a10.51,10.51,0,0,1,1.93,4.53C147.11,169.56,147.36,171.09,147.6,172.77Zm-5.57.09-.19,0c0-.82,0-1.65,0-2.48a2.56,2.56,0,0,0-.05-.62,17.45,17.45,0,0,0-.85-3,1.68,1.68,0,0,0-3,0,4.1,4.1,0,0,0-.49,1.14,21.12,21.12,0,0,0,.1,9.84c.34,1.31,1.3,2.2,2,2a2.36,2.36,0,0,0,1.72-2C141.63,176.13,141.79,174.49,142,172.86Z"/><path class="cls-2" d="M91.89,173.25a12.7,12.7,0,0,1-1,6.36c-.3.66-.67,1.29-1,1.92a7,7,0,0,1-12.08-.48A19.75,19.75,0,0,1,76,174.78a18.69,18.69,0,0,1,1.1-8.91A12,12,0,0,1,78.84,163c2.16-3,8.52-2.9,10.68.45a13.21,13.21,0,0,1,2.36,6.67C91.93,171,91.89,172,91.89,173.25Zm-10.06-.48h0a38.67,38.67,0,0,0,0,4,5.29,5.29,0,0,0,.88,2.24,1.42,1.42,0,0,0,2.38.08,2.8,2.8,0,0,0,.63-1,20.87,20.87,0,0,0,0-10.73,1.86,1.86,0,0,0-1.75-1.5,2.05,2.05,0,0,0-1.89,1.38,5.14,5.14,0,0,0-.31,1.5C81.8,170.08,81.83,171.42,81.83,172.77Z"/><path class="cls-2" d="M110.5,172.33c-.28,3.26-.47,6.18-2,8.77a6.79,6.79,0,0,1-5.79,3.67,6.7,6.7,0,0,1-6.47-3.54A14.11,14.11,0,0,1,94.46,175c-.33-3.45-.21-6.89,1.45-10.05a11,11,0,0,1,1.82-2.51c2.29-2.39,8.13-2.29,10.21,1.08a10.73,10.73,0,0,1,2,4.86C110,169.81,110.32,171.23,110.5,172.33Zm-5.72.43.16,0c-.18-1.54-.25-3.1-.57-4.61-.35-1.68-1.1-2.38-2.1-2.28-1.28.13-1.62,1.13-1.92,2.15a18,18,0,0,0-.17,8.59,9.52,9.52,0,0,0,.55,1.77,1.85,1.85,0,0,0,1.53,1.38,1.6,1.6,0,0,0,1.61-1.22,18.72,18.72,0,0,0,.89-3.28A15.78,15.78,0,0,0,104.78,172.76Z"/><path class="cls-2" d="M267.21,173.56a12.64,12.64,0,0,1-1.68,7.53,6.85,6.85,0,0,1-6.09,3.7c-3.93.13-6.16-2.44-7.21-5.78a20,20,0,0,1,0-12.31,12.23,12.23,0,0,1,2.1-3.78,5.34,5.34,0,0,1,4.34-2.06c4.14,0,6.22,1.43,7.79,5.31C267.31,168.4,267.16,170.66,267.21,173.56Zm-10-.88c0,1.26-.07,2.51,0,3.76a6,6,0,0,0,.59,2.05,1.67,1.67,0,0,0,1.64,1.21,2,2,0,0,0,1.6-1.35,5.87,5.87,0,0,0,.31-1.2,22.47,22.47,0,0,0-.05-9.31,5.45,5.45,0,0,0-.14-.61,1.85,1.85,0,0,0-1.57-1.34,1.66,1.66,0,0,0-1.79,1,5.74,5.74,0,0,0-.59,2.05C257.09,170.18,257.16,171.43,257.16,172.68Z"/><path class="cls-2" d="M26.59,161.06a15.39,15.39,0,0,1,4.89.12c.66,2.47.26,5,.32,7.42s0,5.21,0,7.81,0,5-.06,7.38c-2.25.84-2.77.85-5.26.23C26.1,181.36,26.13,163.76,26.59,161.06Z"/><path class="cls-2" d="M123.67,184.22a12.29,12.29,0,0,1-4.71.06,5.16,5.16,0,0,1-.34-.39.67.67,0,0,1-.1-.29q-.06-10.31-.09-20.61c0-.51.07-1,.11-1.51,1.89-.66,1.89-.66,5-.32a5.06,5.06,0,0,1,.37,1.36c0,6.77,0,13.53,0,20.3A7.77,7.77,0,0,1,123.67,184.22Z"/><path class="cls-2" d="M201.44,161.12a13.06,13.06,0,0,1,4.95,0,3.41,3.41,0,0,1,.36,1q0,10.35,0,20.68a6.51,6.51,0,0,1-.25,1.26,9.52,9.52,0,0,1-5,.19,5.12,5.12,0,0,1-.32-1.2q0-10.5,0-21A4.8,4.8,0,0,1,201.44,161.12Z"/><path class="cls-2" d="M224.93,184c-2.31.59-2.4.6-5.09.05-.5-1.43-.2-3-.25-4.52s0-3.13,0-4.69v-4.38c0-1.57,0-3.13,0-4.7a19.45,19.45,0,0,1,.21-4.58c1.74-.49,3.28-.15,4.93-.28a7.77,7.77,0,0,1,.38,1.61q0,10.17,0,20.33A7,7,0,0,1,224.93,184Z"/><path class="cls-2" d="M275.5,161c1.18,0,2.2-.08,3.23-.07a11,11,0,0,1,1.58.22,16.49,16.49,0,0,1,.28,1.9c.27,8.16.11,18.35-.33,21.05a8.19,8.19,0,0,1-4.68.15C275.17,181.79,275.09,164.76,275.5,161Z"/><path class="cls-2" d="M2.63,212.62a13,13,0,0,1,1-6.71A14,14,0,0,1,5.48,203a5.43,5.43,0,0,1,4.37-2c4,0,6.51,1.65,7.73,5.42a19.84,19.84,0,0,1,0,12.87c-1,3-3,5.27-6.44,5.59a6.48,6.48,0,0,1-6.73-3.57,12.55,12.55,0,0,1-1.75-5.92C2.62,214.6,2.63,213.77,2.63,212.62Zm10,.44h0c0-1.36.07-2.72,0-4.07a6.29,6.29,0,0,0-.64-2,1.56,1.56,0,0,0-1.52-.92,1.71,1.71,0,0,0-1.68,1.19,8.56,8.56,0,0,0-.55,2.43c-.08,2.09-.11,4.18,0,6.26a8.78,8.78,0,0,0,.76,3,1.56,1.56,0,0,0,2.78.21,4.55,4.55,0,0,0,.89-2.63C12.65,215.36,12.67,214.21,12.67,213.06Z"/><path class="cls-2" d="M57.73,212.43a12.23,12.23,0,0,1,1.1-6.6,15.1,15.1,0,0,1,1.61-2.65A5.59,5.59,0,0,1,65.06,201c4.08,0,6.58,1.91,7.74,5.83a19,19,0,0,1,0,11.95A14.15,14.15,0,0,1,71,222.39a6.87,6.87,0,0,1-11.19-.58,12.36,12.36,0,0,1-2-6.47Zm10,.49h0c0-1.35,0-2.71,0-4.07a4.71,4.71,0,0,0-.51-1.75A1.74,1.74,0,0,0,65.46,206a1.72,1.72,0,0,0-1.57,1.32,8.09,8.09,0,0,0-.48,1.81c-.06,2.4-.08,4.79,0,7.19a5.73,5.73,0,0,0,.65,2.39,2.57,2.57,0,0,0,1.4,1.1A1.31,1.31,0,0,0,67,219a7.58,7.58,0,0,0,.76-2.33A36.06,36.06,0,0,0,67.77,212.92Z"/><path class="cls-2" d="M55.37,212.85a19.2,19.2,0,0,1-1.69,7.9,6.88,6.88,0,0,1-6.43,4.19,6.72,6.72,0,0,1-6.15-3.54,14.78,14.78,0,0,1-1.78-6.25,17.24,17.24,0,0,1,1.6-10.31,8.14,8.14,0,0,1,2.19-2.59,7,7,0,0,1,9.31,1,9.79,9.79,0,0,1,2.25,4.4C55,209.34,55.14,211.11,55.37,212.85Zm-5.45.33-.23,0a15.9,15.9,0,0,0,0-2.49,18.22,18.22,0,0,0-.89-3.6,1.63,1.63,0,0,0-3-.2,4.81,4.81,0,0,0-.62,1.41,19.3,19.3,0,0,0,.11,9.52,5.35,5.35,0,0,0,.87,1.63,1.32,1.32,0,0,0,2.14,0A3.7,3.7,0,0,0,49,218C49.37,216.43,49.63,214.8,49.92,213.18Z"/><path class="cls-2" d="M232.64,211.87a16.53,16.53,0,0,1,1.45-6.55,10.74,10.74,0,0,1,1.77-2.56c2.46-2.62,8.37-2.47,10.44,1a13.69,13.69,0,0,1,1.44,2.76,18.94,18.94,0,0,1-.82,14.55,7,7,0,0,1-12.58,0C233.23,219,232.62,216,232.64,211.87Zm10.71.88-.18,0a9,9,0,0,0,0-1.87,34.84,34.84,0,0,0-1-3.89,1.4,1.4,0,0,0-1.49-.92,1.66,1.66,0,0,0-1.48,1,6.14,6.14,0,0,0-.42,1.18,18.55,18.55,0,0,0-.17,8.64,8.65,8.65,0,0,0,.56,1.79c.3.68.77,1.4,1.59,1.24a2.77,2.77,0,0,0,1.38-1.09,3.28,3.28,0,0,0,.58-1.43C242.92,215.83,243.12,214.29,243.35,212.75Z"/><path class="cls-2" d="M175.05,213.4a13.36,13.36,0,0,1-.84,5.95,17.22,17.22,0,0,1-1.24,2.51,7,7,0,0,1-11.62,0,10.48,10.48,0,0,1-1.24-2.51,20.47,20.47,0,0,1-.1-12.6,11,11,0,0,1,1.32-2.8,6.08,6.08,0,0,1,5.49-3c3.72.09,6.06,1.58,7.31,5.11a12,12,0,0,1,.93,5.18C175,211.85,175.05,212.38,175.05,213.4Zm-5.5-.54h-.11c0-.83.05-1.67,0-2.5a18.64,18.64,0,0,0-.41-2.78,1.88,1.88,0,0,0-3.66-.15,4.21,4.21,0,0,0-.32,1.51c0,2.61-.06,5.22,0,7.82a4.35,4.35,0,0,0,.62,2.05,2.43,2.43,0,0,0,1.42,1.07c.77.14,1.35-.5,1.69-1.16a4.3,4.3,0,0,0,.41-1.49C169.34,215.77,169.43,214.31,169.55,212.86Z"/><path class="cls-2" d="M304.28,212.77c-.16,3-.44,5.84-2,8.46a7,7,0,0,1-7.62,3.65,6.16,6.16,0,0,1-4.45-3.14,11.75,11.75,0,0,1-1.91-6.19c0-1.66.05-3.33,0-5a11.22,11.22,0,0,1,1.63-6,6.11,6.11,0,0,1,5.76-3.56c4,.07,6.62,1.88,7.66,5.91C303.83,208.84,304,210.83,304.28,212.77Zm-5.93.14h0c0-1.25,0-2.5,0-3.75a2.88,2.88,0,0,0-.8-2.29,2.82,2.82,0,0,0-1.59-.76,1.53,1.53,0,0,0-1.56,1.27,7.43,7.43,0,0,0-.44,1.82c0,2.39-.06,4.79,0,7.18a5.89,5.89,0,0,0,.62,2.4,2.54,2.54,0,0,0,1.41,1.06c.67.21,1.15-.33,1.5-.87a4.46,4.46,0,0,0,.85-2.63C298.32,215.2,298.35,214.05,298.35,212.91Z"/><path class="cls-2" d="M177.42,213a21.15,21.15,0,0,1,1.81-8.24c2.22-4.74,9.68-5,12.15-.66a14.05,14.05,0,0,1,1.79,4.61,23,23,0,0,1,0,8.36,14.49,14.49,0,0,1-1.27,3.83,6.85,6.85,0,0,1-6.48,4.11c-3.09,0-5.06-1.56-6.37-4.23C177.85,218.24,177.66,215.55,177.42,213Zm5.69-.25h0c0,.83-.06,1.66,0,2.48a7.49,7.49,0,0,0,1.49,4.32,1.25,1.25,0,0,0,1.9,0,5.75,5.75,0,0,0,.88-1.61,16.73,16.73,0,0,0,.32-8.85A8.64,8.64,0,0,0,187,207a1.6,1.6,0,0,0-2.94,0,10.45,10.45,0,0,0-.94,2.93A17.3,17.3,0,0,0,183.11,212.7Z"/><path class="cls-2" d="M147.6,213c-.28,1.85-.48,3.82-.9,5.74a9.65,9.65,0,0,1-2.19,4.09c-2.4,2.83-8.08,3.25-10.63-.56a12.64,12.64,0,0,1-1.72-3.64,22.05,22.05,0,0,1-.08-11.12,13.86,13.86,0,0,1,1.68-3.65c2.29-3.8,9-3.74,11.24-.15a10.6,10.6,0,0,1,1.93,4.54C147.11,209.74,147.36,211.27,147.6,213ZM142,213l-.19,0c0-.83,0-1.65,0-2.48a2.56,2.56,0,0,0-.05-.62,17.19,17.19,0,0,0-.85-3,1.67,1.67,0,0,0-3,0,4,4,0,0,0-.49,1.14,21.12,21.12,0,0,0,.1,9.84c.34,1.31,1.3,2.2,2,2a2.36,2.36,0,0,0,1.72-2C141.63,216.31,141.79,214.67,142,213Z"/><path class="cls-2" d="M91.89,213.43a12.7,12.7,0,0,1-1,6.36c-.3.66-.67,1.29-1,1.92a7,7,0,0,1-12.08-.48A19.75,19.75,0,0,1,76,215a18.69,18.69,0,0,1,1.1-8.91,12,12,0,0,1,1.76-2.91c2.16-3,8.52-2.91,10.68.44a13.27,13.27,0,0,1,2.36,6.67C91.93,211.19,91.89,212.13,91.89,213.43ZM81.83,213h0a38.67,38.67,0,0,0,0,4,5.34,5.34,0,0,0,.88,2.24,1.42,1.42,0,0,0,2.38.08,2.88,2.88,0,0,0,.63-1,20.87,20.87,0,0,0,0-10.73A1.85,1.85,0,0,0,84,206a2.05,2.05,0,0,0-1.89,1.38,5.07,5.07,0,0,0-.31,1.5C81.8,210.25,81.83,211.6,81.83,213Z"/><path class="cls-2" d="M110.5,212.51c-.28,3.26-.47,6.18-2,8.77a6.81,6.81,0,0,1-5.79,3.67,6.7,6.7,0,0,1-6.47-3.54,14.11,14.11,0,0,1-1.78-6.25c-.33-3.45-.21-6.88,1.45-10a11,11,0,0,1,1.82-2.51c2.29-2.39,8.13-2.3,10.21,1.08a10.73,10.73,0,0,1,2,4.86C110,210,110.32,211.41,110.5,212.51Zm-5.72.43.16,0c-.18-1.54-.25-3.1-.57-4.61-.35-1.68-1.1-2.39-2.1-2.28-1.28.13-1.62,1.13-1.92,2.15a17.92,17.92,0,0,0-.17,8.58,9.39,9.39,0,0,0,.55,1.78,1.85,1.85,0,0,0,1.53,1.38,1.6,1.6,0,0,0,1.61-1.22,18.72,18.72,0,0,0,.89-3.28A15.79,15.79,0,0,0,104.78,212.94Z"/><path class="cls-2" d="M267.21,213.74a12.64,12.64,0,0,1-1.68,7.53,6.87,6.87,0,0,1-6.09,3.7c-3.93.13-6.16-2.45-7.21-5.78a20,20,0,0,1,0-12.31,12.23,12.23,0,0,1,2.1-3.78,5.34,5.34,0,0,1,4.34-2.06c4.14,0,6.22,1.42,7.79,5.31C267.31,208.58,267.16,210.84,267.21,213.74Zm-10-.88c0,1.25-.07,2.51,0,3.76a6,6,0,0,0,.59,2,1.67,1.67,0,0,0,1.64,1.21,2,2,0,0,0,1.6-1.35,6,6,0,0,0,.31-1.2,22.47,22.47,0,0,0-.05-9.31,5.45,5.45,0,0,0-.14-.61,1.85,1.85,0,0,0-1.57-1.34,1.66,1.66,0,0,0-1.79,1,5.68,5.68,0,0,0-.59,2.05C257.09,210.35,257.16,211.61,257.16,212.86Z"/><path class="cls-2" d="M26.59,201.24a15.39,15.39,0,0,1,4.89.12c.66,2.47.26,5,.32,7.42s0,5.21,0,7.81,0,5-.06,7.37c-2.25.85-2.77.86-5.26.23C26.1,221.54,26.13,203.94,26.59,201.24Z"/><path class="cls-2" d="M123.67,224.39a12.31,12.31,0,0,1-4.71.07,5.16,5.16,0,0,1-.34-.39.67.67,0,0,1-.1-.3q-.06-10.29-.09-20.6c0-.52.07-1,.11-1.51,1.89-.66,1.89-.66,5-.32a5,5,0,0,1,.37,1.36c0,6.77,0,13.53,0,20.3A7.53,7.53,0,0,1,123.67,224.39Z"/><path class="cls-2" d="M201.44,201.3a12.86,12.86,0,0,1,4.95,0,3.41,3.41,0,0,1,.36,1q0,10.33,0,20.68a6.66,6.66,0,0,1-.25,1.26,9.52,9.52,0,0,1-5,.19,5.12,5.12,0,0,1-.32-1.2q0-10.5,0-21A4.8,4.8,0,0,1,201.44,201.3Z"/><path class="cls-2" d="M224.93,224.19c-2.31.59-2.4.59-5.09.05-.5-1.43-.2-3-.25-4.52s0-3.13,0-4.7v-4.38c0-1.56,0-3.12,0-4.69a19.45,19.45,0,0,1,.21-4.58c1.74-.49,3.28-.15,4.93-.28a7.77,7.77,0,0,1,.38,1.61q0,10.16,0,20.33A7,7,0,0,1,224.93,224.19Z"/><path class="cls-2" d="M275.5,201.19c1.18,0,2.2-.08,3.23-.07a11,11,0,0,1,1.58.22,16.49,16.49,0,0,1,.28,1.9c.27,8.16.11,18.35-.33,21a8,8,0,0,1-4.68.15C275.17,222,275.09,204.94,275.5,201.19Z"/><path class="cls-2" d="M2.63,252.8a13,13,0,0,1,1-6.71,14,14,0,0,1,1.81-2.87,5.43,5.43,0,0,1,4.37-2c4,0,6.51,1.65,7.73,5.42a19.84,19.84,0,0,1,0,12.87c-1,3-3,5.27-6.44,5.58a6.48,6.48,0,0,1-6.73-3.56,12.55,12.55,0,0,1-1.75-5.92C2.62,254.78,2.63,253.94,2.63,252.8Zm10,.44h0c0-1.36.07-2.72,0-4.07a6.22,6.22,0,0,0-.64-2,1.54,1.54,0,0,0-1.52-.92,1.71,1.71,0,0,0-1.68,1.19,8.56,8.56,0,0,0-.55,2.43c-.08,2.09-.11,4.18,0,6.26a8.78,8.78,0,0,0,.76,3,1.56,1.56,0,0,0,2.78.21,4.55,4.55,0,0,0,.89-2.63C12.65,255.53,12.67,254.38,12.67,253.24Z"/><path class="cls-2" d="M57.73,252.61a12.23,12.23,0,0,1,1.1-6.6,15.1,15.1,0,0,1,1.61-2.65,5.59,5.59,0,0,1,4.62-2.14c4.08,0,6.58,1.91,7.74,5.82a19,19,0,0,1,0,12A14.15,14.15,0,0,1,71,262.57,6.86,6.86,0,0,1,59.76,262a12.29,12.29,0,0,1-2-6.46Zm10,.49h0c0-1.36,0-2.71,0-4.07a4.81,4.81,0,0,0-.51-1.76,1.75,1.75,0,0,0-1.77-1.05,1.72,1.72,0,0,0-1.57,1.32,8,8,0,0,0-.48,1.81c-.06,2.39-.08,4.79,0,7.19a5.73,5.73,0,0,0,.65,2.39,2.57,2.57,0,0,0,1.4,1.1,1.31,1.31,0,0,0,1.51-.85,7.58,7.58,0,0,0,.76-2.33A36.06,36.06,0,0,0,67.77,253.1Z"/><path class="cls-2" d="M55.37,253a19.2,19.2,0,0,1-1.69,7.9,6.88,6.88,0,0,1-6.43,4.19,6.74,6.74,0,0,1-6.15-3.54,14.78,14.78,0,0,1-1.78-6.25A17.24,17.24,0,0,1,40.92,245a8.14,8.14,0,0,1,2.19-2.59,7,7,0,0,1,9.31,1,9.79,9.79,0,0,1,2.25,4.4C55,249.51,55.14,251.28,55.37,253Zm-5.45.33-.23,0a15.9,15.9,0,0,0,0-2.49,18.22,18.22,0,0,0-.89-3.6,1.63,1.63,0,0,0-3-.2,4.87,4.87,0,0,0-.62,1.4A19.34,19.34,0,0,0,45.3,258a5.35,5.35,0,0,0,.87,1.63,1.32,1.32,0,0,0,2.14,0,3.78,3.78,0,0,0,.71-1.36C49.37,256.6,49.63,255,49.92,253.36Z"/><path class="cls-2" d="M232.64,252.05a16.61,16.61,0,0,1,1.45-6.56,10.68,10.68,0,0,1,1.77-2.55c2.46-2.63,8.37-2.47,10.44,1a13.69,13.69,0,0,1,1.44,2.76,18.94,18.94,0,0,1-.82,14.55,7,7,0,0,1-12.58,0C233.23,259.21,232.62,256.19,232.64,252.05Zm10.71.88-.18,0a9,9,0,0,0,0-1.87,34.84,34.84,0,0,0-1-3.89,1.4,1.4,0,0,0-1.49-.92,1.66,1.66,0,0,0-1.48,1,6,6,0,0,0-.42,1.17,18.6,18.6,0,0,0-.17,8.65,8.65,8.65,0,0,0,.56,1.79c.3.68.77,1.4,1.59,1.24a2.82,2.82,0,0,0,1.38-1.09,3.27,3.27,0,0,0,.58-1.44C242.92,256,243.12,254.47,243.35,252.93Z"/><path class="cls-2" d="M175.05,253.58a13.36,13.36,0,0,1-.84,5.95A17.22,17.22,0,0,1,173,262a7,7,0,0,1-11.62,0,10.48,10.48,0,0,1-1.24-2.51A20.47,20.47,0,0,1,160,247a10.89,10.89,0,0,1,1.32-2.8,6.09,6.09,0,0,1,5.49-3c3.72.09,6.06,1.59,7.31,5.11a12.11,12.11,0,0,1,.93,5.19C175,252,175.05,252.55,175.05,253.58Zm-5.5-.54h-.11c0-.83.05-1.67,0-2.5a18.77,18.77,0,0,0-.41-2.79,1.88,1.88,0,0,0-3.66-.14,4.21,4.21,0,0,0-.32,1.51c0,2.61-.06,5.22,0,7.82a4.35,4.35,0,0,0,.62,2.05,2.47,2.47,0,0,0,1.42,1.07c.77.13,1.35-.5,1.69-1.17a4.24,4.24,0,0,0,.41-1.48C169.34,256,169.43,254.49,169.55,253Z"/><path class="cls-2" d="M304.28,253c-.16,3-.44,5.84-2,8.46a7,7,0,0,1-7.62,3.65,6.18,6.18,0,0,1-4.45-3.14,11.75,11.75,0,0,1-1.91-6.19c0-1.67.05-3.34,0-5a11.19,11.19,0,0,1,1.63-5.95,6.11,6.11,0,0,1,5.76-3.56c4,.07,6.62,1.87,7.66,5.91A58.8,58.8,0,0,1,304.28,253Zm-5.93.14h0c0-1.25,0-2.51,0-3.75a2.75,2.75,0,0,0-2.39-3.06,1.55,1.55,0,0,0-1.56,1.28,7.43,7.43,0,0,0-.44,1.82c0,2.39-.06,4.78,0,7.17a5.89,5.89,0,0,0,.62,2.41A2.54,2.54,0,0,0,296,260c.67.21,1.15-.33,1.5-.88a4.41,4.41,0,0,0,.85-2.62C298.32,255.38,298.35,254.23,298.35,253.09Z"/><path class="cls-2" d="M177.42,253.13a21.15,21.15,0,0,1,1.81-8.24c2.22-4.74,9.68-5,12.15-.66a14,14,0,0,1,1.79,4.61,23,23,0,0,1,0,8.36,14.62,14.62,0,0,1-1.27,3.83,6.85,6.85,0,0,1-6.48,4.11c-3.09,0-5.06-1.56-6.37-4.23C177.85,258.42,177.66,255.73,177.42,253.13Zm5.69-.25h0c0,.83-.06,1.66,0,2.48a7.44,7.44,0,0,0,1.49,4.31,1.24,1.24,0,0,0,1.9,0,5.75,5.75,0,0,0,.88-1.61,16.73,16.73,0,0,0,.32-8.85,8.64,8.64,0,0,0-.67-2.05,1.6,1.6,0,0,0-2.94,0,10.45,10.45,0,0,0-.94,2.93A17.29,17.29,0,0,0,183.11,252.88Z"/><path class="cls-2" d="M147.6,253.13c-.28,1.85-.48,3.82-.9,5.74a9.65,9.65,0,0,1-2.19,4.09c-2.4,2.83-8.08,3.25-10.63-.57a12.4,12.4,0,0,1-1.72-3.64,22,22,0,0,1-.08-11.11,13.86,13.86,0,0,1,1.68-3.65c2.29-3.8,9-3.74,11.24-.15a10.6,10.6,0,0,1,1.93,4.54C147.11,249.92,147.36,251.45,147.6,253.13Zm-5.57.09-.19,0c0-.83,0-1.66,0-2.49a2.47,2.47,0,0,0-.05-.61,17.19,17.19,0,0,0-.85-3,1.67,1.67,0,0,0-3,0,4,4,0,0,0-.49,1.13,21.11,21.11,0,0,0,.1,9.84c.34,1.32,1.3,2.21,2,2a2.36,2.36,0,0,0,1.72-2C141.63,256.49,141.79,254.85,142,253.22Z"/><path class="cls-2" d="M91.89,253.6a12.72,12.72,0,0,1-1,6.37c-.3.65-.67,1.28-1,1.92a7,7,0,0,1-12.08-.48A19.73,19.73,0,0,1,76,255.13a18.67,18.67,0,0,1,1.1-8.9,12,12,0,0,1,1.76-2.91c2.16-3,8.52-2.91,10.68.44a13.24,13.24,0,0,1,2.36,6.67C91.93,251.37,91.89,252.31,91.89,253.6Zm-10.06-.47h0a38.67,38.67,0,0,0,0,4,5.34,5.34,0,0,0,.88,2.24,1.42,1.42,0,0,0,2.38.08,3,3,0,0,0,.63-1,20.91,20.91,0,0,0,0-10.74A1.85,1.85,0,0,0,84,246.21a2.06,2.06,0,0,0-1.89,1.37,5.21,5.21,0,0,0-.31,1.51C81.8,250.43,81.83,251.78,81.83,253.13Z"/><path class="cls-2" d="M110.5,252.69c-.28,3.26-.47,6.18-2,8.77a6.81,6.81,0,0,1-5.79,3.67,6.7,6.7,0,0,1-6.47-3.54,14.19,14.19,0,0,1-1.78-6.25c-.33-3.45-.21-6.88,1.45-10a11,11,0,0,1,1.82-2.51c2.29-2.39,8.13-2.3,10.21,1.08a10.73,10.73,0,0,1,2,4.86C110,250.17,110.32,251.59,110.5,252.69Zm-5.72.42h.16c-.18-1.54-.25-3.1-.57-4.61-.35-1.68-1.1-2.39-2.1-2.28-1.28.13-1.62,1.13-1.92,2.15a17.92,17.92,0,0,0-.17,8.58,9.39,9.39,0,0,0,.55,1.78,1.85,1.85,0,0,0,1.53,1.38,1.6,1.6,0,0,0,1.61-1.22,18.72,18.72,0,0,0,.89-3.28A15.9,15.9,0,0,0,104.78,253.11Z"/><path class="cls-2" d="M267.21,253.91a12.62,12.62,0,0,1-1.68,7.53,6.86,6.86,0,0,1-6.09,3.71c-3.93.13-6.16-2.45-7.21-5.78a20,20,0,0,1,0-12.31,12.23,12.23,0,0,1,2.1-3.78,5.31,5.31,0,0,1,4.34-2.06c4.14,0,6.22,1.42,7.79,5.31C267.31,248.76,267.16,251,267.21,253.91Zm-10-.87c0,1.25-.07,2.51,0,3.75a6,6,0,0,0,.59,2.06,1.67,1.67,0,0,0,1.64,1.21,2,2,0,0,0,1.6-1.35,6,6,0,0,0,.31-1.2,22.47,22.47,0,0,0-.05-9.31,5.45,5.45,0,0,0-.14-.61,1.85,1.85,0,0,0-1.57-1.34,1.66,1.66,0,0,0-1.79,1,5.68,5.68,0,0,0-.59,2C257.09,250.53,257.16,251.79,257.16,253Z"/><path class="cls-2" d="M26.59,241.42a15.39,15.39,0,0,1,4.89.12c.66,2.46.26,5,.32,7.42s0,5.21,0,7.81,0,5-.06,7.37c-2.25.85-2.77.86-5.26.23C26.1,261.72,26.13,244.12,26.59,241.42Z"/><path class="cls-2" d="M123.67,264.57a12.09,12.09,0,0,1-4.71.06,4,4,0,0,1-.34-.38.67.67,0,0,1-.1-.3q-.06-10.31-.09-20.6c0-.52.07-1,.11-1.51,1.89-.66,1.89-.66,5-.32a5,5,0,0,1,.37,1.36c0,6.76,0,13.53,0,20.3A7.69,7.69,0,0,1,123.67,264.57Z"/><path class="cls-2" d="M201.44,241.48a12.86,12.86,0,0,1,4.95,0,3.31,3.31,0,0,1,.36,1q0,10.33,0,20.68a6.66,6.66,0,0,1-.25,1.26,9.52,9.52,0,0,1-5,.19,5.25,5.25,0,0,1-.32-1.2q0-10.5,0-21A4.8,4.8,0,0,1,201.44,241.48Z"/><path class="cls-2" d="M224.93,264.37c-2.31.59-2.4.59-5.09.05-.5-1.43-.2-3-.25-4.53s0-3.12,0-4.69v-4.38c0-1.56,0-3.13,0-4.69a19.43,19.43,0,0,1,.21-4.58c1.74-.49,3.28-.15,4.93-.28a7.77,7.77,0,0,1,.38,1.61q0,10.16,0,20.33A7,7,0,0,1,224.93,264.37Z"/><path class="cls-2" d="M275.5,241.37c1.18,0,2.2-.09,3.23-.07a11,11,0,0,1,1.58.22,15.88,15.88,0,0,1,.28,1.9c.27,8.15.11,18.35-.33,21a8,8,0,0,1-4.68.15C275.17,262.15,275.09,245.12,275.5,241.37Z"/><path class="cls-2" d="M2.63,293a13,13,0,0,1,1-6.71,13.76,13.76,0,0,1,1.81-2.87,5.4,5.4,0,0,1,4.37-2c4,0,6.51,1.65,7.73,5.42a19.84,19.84,0,0,1,0,12.87c-1,3-3,5.27-6.44,5.58a6.48,6.48,0,0,1-6.73-3.56,12.55,12.55,0,0,1-1.75-5.92C2.62,295,2.63,294.12,2.63,293Zm10,.43h0c0-1.35.07-2.72,0-4.07a6.37,6.37,0,0,0-.64-2,1.55,1.55,0,0,0-1.52-.91,1.71,1.71,0,0,0-1.68,1.19A8.56,8.56,0,0,0,8.24,290c-.08,2.08-.11,4.18,0,6.26a8.78,8.78,0,0,0,.76,3,1.56,1.56,0,0,0,2.78.21,4.57,4.57,0,0,0,.89-2.63C12.65,295.71,12.67,294.56,12.67,293.41Z"/><path class="cls-2" d="M57.73,292.79a12.23,12.23,0,0,1,1.1-6.6,15.1,15.1,0,0,1,1.61-2.65,5.59,5.59,0,0,1,4.62-2.14c4.08,0,6.58,1.91,7.74,5.82a19,19,0,0,1,0,12A14.15,14.15,0,0,1,71,302.75a6.87,6.87,0,0,1-11.19-.59,12.29,12.29,0,0,1-2-6.46Zm10,.49h0c0-1.36,0-2.72,0-4.07a4.81,4.81,0,0,0-.51-1.76,1.75,1.75,0,0,0-1.77-1.05,1.72,1.72,0,0,0-1.57,1.32,8,8,0,0,0-.48,1.81c-.06,2.39-.08,4.79,0,7.19a5.73,5.73,0,0,0,.65,2.39,2.57,2.57,0,0,0,1.4,1.1,1.31,1.31,0,0,0,1.51-.85,7.58,7.58,0,0,0,.76-2.33A36.06,36.06,0,0,0,67.77,293.28Z"/><path class="cls-2" d="M55.37,293.21a19.2,19.2,0,0,1-1.69,7.9,6.89,6.89,0,0,1-6.43,4.19,6.73,6.73,0,0,1-6.15-3.55,14.74,14.74,0,0,1-1.78-6.24,17.24,17.24,0,0,1,1.6-10.31,8.14,8.14,0,0,1,2.19-2.59,7,7,0,0,1,9.31,1,9.69,9.69,0,0,1,2.25,4.4C55,289.69,55.14,291.46,55.37,293.21Zm-5.45.33-.23,0a15.9,15.9,0,0,0,0-2.49,18.22,18.22,0,0,0-.89-3.6,1.63,1.63,0,0,0-3-.21,5.05,5.05,0,0,0-.62,1.41,19.34,19.34,0,0,0,.11,9.53,5.19,5.19,0,0,0,.87,1.62,1.31,1.31,0,0,0,2.14,0,3.66,3.66,0,0,0,.71-1.35C49.37,296.78,49.63,295.16,49.92,293.54Z"/><path class="cls-2" d="M232.64,292.23a16.61,16.61,0,0,1,1.45-6.56,10.68,10.68,0,0,1,1.77-2.55c2.46-2.63,8.37-2.48,10.44,1a13.69,13.69,0,0,1,1.44,2.76,18.94,18.94,0,0,1-.82,14.55,7,7,0,0,1-12.58,0C233.23,299.39,232.62,296.37,232.64,292.23Zm10.71.88-.18,0a9,9,0,0,0,0-1.87,34.27,34.27,0,0,0-1-3.89,1.4,1.4,0,0,0-1.49-.92,1.66,1.66,0,0,0-1.48,1,6,6,0,0,0-.42,1.17,18.6,18.6,0,0,0-.17,8.65,8.38,8.38,0,0,0,.56,1.78c.3.68.77,1.41,1.59,1.25a2.88,2.88,0,0,0,1.38-1.09,3.27,3.27,0,0,0,.58-1.44C242.92,296.19,243.12,294.64,243.35,293.11Z"/><path class="cls-2" d="M175.05,293.76a13.38,13.38,0,0,1-.84,5.95,17.73,17.73,0,0,1-1.24,2.51,7,7,0,0,1-11.62,0,10.66,10.66,0,0,1-1.24-2.51,20.47,20.47,0,0,1-.1-12.6,10.89,10.89,0,0,1,1.32-2.8,6.09,6.09,0,0,1,5.49-3c3.72.09,6.06,1.59,7.31,5.11a12.11,12.11,0,0,1,.93,5.19C175,292.21,175.05,292.73,175.05,293.76Zm-5.5-.54h-.11c0-.83.05-1.67,0-2.5a18.77,18.77,0,0,0-.41-2.79,1.88,1.88,0,0,0-3.66-.14,4.17,4.17,0,0,0-.32,1.51c0,2.61-.06,5.22,0,7.82a4.38,4.38,0,0,0,.62,2.05,2.47,2.47,0,0,0,1.42,1.07c.77.13,1.35-.5,1.69-1.17a4.24,4.24,0,0,0,.41-1.49C169.34,296.13,169.43,294.67,169.55,293.22Z"/><path class="cls-2" d="M304.28,293.13c-.16,3-.44,5.84-2,8.46a7,7,0,0,1-7.62,3.65,6.18,6.18,0,0,1-4.45-3.14,11.75,11.75,0,0,1-1.91-6.19c0-1.67.05-3.34,0-5a11.19,11.19,0,0,1,1.63-6,6.11,6.11,0,0,1,5.76-3.56c4,.07,6.62,1.87,7.66,5.91A58.8,58.8,0,0,1,304.28,293.13Zm-5.93.13h0c0-1.25,0-2.5,0-3.75a2.75,2.75,0,0,0-2.39-3.05,1.55,1.55,0,0,0-1.56,1.28,7.43,7.43,0,0,0-.44,1.82c0,2.39-.06,4.78,0,7.17a5.85,5.85,0,0,0,.62,2.4A2.55,2.55,0,0,0,296,300.2c.67.21,1.15-.33,1.5-.88a4.41,4.41,0,0,0,.85-2.62C298.32,295.56,298.35,294.41,298.35,293.26Z"/><path class="cls-2" d="M177.42,293.31a21.15,21.15,0,0,1,1.81-8.24c2.22-4.74,9.68-5,12.15-.66a14,14,0,0,1,1.79,4.61,23,23,0,0,1,0,8.36,14.43,14.43,0,0,1-1.27,3.82,6.84,6.84,0,0,1-6.48,4.12c-3.09,0-5.06-1.56-6.37-4.23C177.85,298.6,177.66,295.91,177.42,293.31Zm5.69-.25h0c0,.82-.06,1.66,0,2.48a7.46,7.46,0,0,0,1.49,4.31,1.24,1.24,0,0,0,1.9,0,5.75,5.75,0,0,0,.88-1.61,16.73,16.73,0,0,0,.32-8.85,8.64,8.64,0,0,0-.67-2.05,1.59,1.59,0,0,0-2.94,0,10.45,10.45,0,0,0-.94,2.93A17.29,17.29,0,0,0,183.11,293.06Z"/><path class="cls-2" d="M147.6,293.31c-.28,1.85-.48,3.82-.9,5.73a9.59,9.59,0,0,1-2.19,4.09c-2.4,2.84-8.08,3.26-10.63-.56a12.4,12.4,0,0,1-1.72-3.64,22,22,0,0,1-.08-11.11,13.71,13.71,0,0,1,1.68-3.65c2.29-3.8,9-3.74,11.24-.15a10.6,10.6,0,0,1,1.93,4.54C147.11,290.1,147.36,291.63,147.6,293.31Zm-5.57.09-.19,0c0-.83,0-1.66,0-2.49a2.47,2.47,0,0,0-.05-.61,17.19,17.19,0,0,0-.85-3,1.67,1.67,0,0,0-3,0,4,4,0,0,0-.49,1.13,21.11,21.11,0,0,0,.1,9.84c.34,1.32,1.3,2.21,2,2a2.36,2.36,0,0,0,1.72-2C141.63,296.67,141.79,295,142,293.4Z"/><path class="cls-2" d="M91.89,293.78a12.69,12.69,0,0,1-1,6.36c-.3.66-.67,1.29-1,1.93a7,7,0,0,1-12.08-.48A19.73,19.73,0,0,1,76,295.31a18.67,18.67,0,0,1,1.1-8.9,12.21,12.21,0,0,1,1.76-2.92c2.16-3,8.52-2.9,10.68.45a13.21,13.21,0,0,1,2.36,6.67C91.93,291.55,91.89,292.49,91.89,293.78Zm-10.06-.48h0a38.84,38.84,0,0,0,0,4,5.34,5.34,0,0,0,.88,2.24,1.42,1.42,0,0,0,2.38.08,3,3,0,0,0,.63-1,20.91,20.91,0,0,0,0-10.74A1.85,1.85,0,0,0,84,286.39a2.06,2.06,0,0,0-1.89,1.37,5.21,5.21,0,0,0-.31,1.51C81.8,290.61,81.83,292,81.83,293.3Z"/><path class="cls-2" d="M110.5,292.86c-.28,3.27-.47,6.18-2,8.78a6.78,6.78,0,0,1-5.79,3.66,6.67,6.67,0,0,1-6.47-3.54,14.11,14.11,0,0,1-1.78-6.24c-.33-3.45-.21-6.88,1.45-10A11,11,0,0,1,97.73,283c2.29-2.39,8.13-2.3,10.21,1.08a10.73,10.73,0,0,1,2,4.86C110,290.35,110.32,291.77,110.5,292.86Zm-5.72.43h.16c-.18-1.54-.25-3.1-.57-4.61-.35-1.68-1.1-2.39-2.1-2.29-1.28.13-1.62,1.14-1.92,2.16a17.92,17.92,0,0,0-.17,8.58,9.08,9.08,0,0,0,.55,1.77,1.82,1.82,0,0,0,1.53,1.38,1.58,1.58,0,0,0,1.61-1.21,18.72,18.72,0,0,0,.89-3.28A15.9,15.9,0,0,0,104.78,293.29Z"/><path class="cls-2" d="M267.21,294.09a12.62,12.62,0,0,1-1.68,7.53,6.83,6.83,0,0,1-6.09,3.7c-3.93.14-6.16-2.44-7.21-5.77a20,20,0,0,1,0-12.32,12.07,12.07,0,0,1,2.1-3.77,5.31,5.31,0,0,1,4.34-2.06c4.14,0,6.22,1.42,7.79,5.31C267.31,288.94,267.16,291.2,267.21,294.09Zm-10-.87c0,1.25-.07,2.51,0,3.75a6,6,0,0,0,.59,2.06c.3.66.78,1.29,1.64,1.2a2,2,0,0,0,1.6-1.34,6,6,0,0,0,.31-1.21,22.42,22.42,0,0,0-.05-9.3,6.21,6.21,0,0,0-.14-.62,1.84,1.84,0,0,0-1.57-1.33,1.65,1.65,0,0,0-1.79,1,5.68,5.68,0,0,0-.59,2.05C257.09,290.71,257.16,292,257.16,293.22Z"/><path class="cls-2" d="M26.59,281.6a15.39,15.39,0,0,1,4.89.12c.66,2.46.26,5,.32,7.42s0,5.21,0,7.81,0,5-.06,7.37c-2.25.84-2.77.86-5.26.23C26.1,301.9,26.13,284.3,26.59,281.6Z"/><path class="cls-2" d="M123.67,304.75a12.09,12.09,0,0,1-4.71.06,4,4,0,0,1-.34-.38.67.67,0,0,1-.1-.3q-.06-10.31-.09-20.61c0-.51.07-1,.11-1.5,1.89-.66,1.89-.66,5-.33a5.16,5.16,0,0,1,.37,1.36c0,6.77,0,13.54,0,20.31A7.69,7.69,0,0,1,123.67,304.75Z"/><path class="cls-2" d="M201.44,281.66a12.86,12.86,0,0,1,4.95,0,3.31,3.31,0,0,1,.36,1q0,10.33,0,20.67a6.6,6.6,0,0,1-.25,1.27,9.63,9.63,0,0,1-5,.19,5.39,5.39,0,0,1-.32-1.2q0-10.5,0-21A4.8,4.8,0,0,1,201.44,281.66Z"/><path class="cls-2" d="M224.93,304.55c-2.31.59-2.4.59-5.09.05-.5-1.43-.2-3-.25-4.53s0-3.12,0-4.69V291c0-1.56,0-3.13,0-4.69a19.43,19.43,0,0,1,.21-4.58c1.74-.49,3.28-.15,4.93-.28a7.7,7.7,0,0,1,.38,1.6q0,10.17,0,20.34A7,7,0,0,1,224.93,304.55Z"/><path class="cls-2" d="M275.5,281.55c1.18,0,2.2-.09,3.23-.07a11,11,0,0,1,1.58.22,15.88,15.88,0,0,1,.28,1.9c.27,8.15.11,18.34-.33,21a8,8,0,0,1-4.68.15C275.17,302.33,275.09,285.3,275.5,281.55Z"/></g><path class="cls-2" d="M153.45,239.8a3.37,3.37,0,0,1-1.66-.57c-25.58-14.84-50.69-29.33-74.64-43.06-1.56-.9-2-1.57-2-3.24.11-10.75.09-21.68.08-32.25,0-3.58,0-7.17,0-10.76V139.38c0-10.64,0-21.64-.06-32.47a2.78,2.78,0,0,1,1.7-3c23.88-13.67,49-28.15,74.66-43a3.92,3.92,0,0,1,1.91-.69,3,3,0,0,1,1.57.53c22.42,13,46.83,27.11,74.63,43.06,1.57.9,2,1.56,2,3.2-.1,26.54-.1,54.67,0,86a2.86,2.86,0,0,1-1.69,3.06c-25.84,14.83-51,29.37-74.95,43.23A3.14,3.14,0,0,1,153.45,239.8Z"/><path class="cls-3" d="M153.49,61.74a1.81,1.81,0,0,1,.79.32c22.42,13,46.84,27.11,74.64,43.06,1.13.65,1.2.82,1.19,1.87-.1,26.42-.1,54.56,0,86,0,1.15-.13,1.26-.92,1.71-25.94,14.9-51.16,29.44-75,43.24a1.79,1.79,0,0,1-.77.31,2,2,0,0,1-.89-.37C126.9,223,101.79,208.53,77.92,194.83c-1.12-.64-1.19-.82-1.18-1.89.11-10.76.09-21.7.08-32.27,0-3.59,0-7.17,0-10.75s0-7,0-10.52c0-10.65,0-21.66-.06-32.5,0-1.05,0-1.15.92-1.65,23.83-13.65,49-28.12,74.68-43a2.71,2.71,0,0,1,1.13-.48m0-3.08a5.41,5.41,0,0,0-2.67.89q-37.28,21.61-74.66,43a4.24,4.24,0,0,0-2.47,4.34c.1,14.33,0,28.67,0,43s.07,28.66-.07,43a4.54,4.54,0,0,0,2.73,4.59Q113.76,219,151,240.56a4.83,4.83,0,0,0,2.43.78,4.53,4.53,0,0,0,2.32-.73q37.42-21.69,74.94-43.22a4.36,4.36,0,0,0,2.47-4.4q-.12-43,0-86c0-2.36-.83-3.46-2.73-4.55Q193.1,81,155.83,59.4a4.54,4.54,0,0,0-2.35-.74Z"/><g id="Layer_2" data-name="Layer 2"><g class="cls-5"><path class="cls-3" d="M95.69,173.58v-1H94.5V126.71h17.91a22.27,22.27,0,0,1,8.61,1.4,11.55,11.55,0,0,1,5.35,4.69,12.05,12.05,0,0,1,1.92,6.44,11.77,11.77,0,0,1-1.76,6,10.69,10.69,0,0,1-3,3.21A12.16,12.16,0,0,1,128,152a12,12,0,0,1,2.43,7.41A14.24,14.24,0,0,1,129,165.8a15.27,15.27,0,0,1-3.47,4.58,13.16,13.16,0,0,1-5.48,2.45,34.47,34.47,0,0,1-7.52.75Zm17-7.46a29.31,29.31,0,0,0,3.88-.13,9.05,9.05,0,0,0,2.89-1,5.94,5.94,0,0,0,1.81-2.07,7.08,7.08,0,0,0-.4-6.9,6.75,6.75,0,0,0-2.89-2.16,22.68,22.68,0,0,0-6.16-.66h-9.14v12.9Zm-1.45-20.65a18.53,18.53,0,0,0,5.26-.51,5,5,0,0,0,2.79-1.76,5.4,5.4,0,0,0,1-3.24,6.13,6.13,0,0,0-.84-3.3,4.28,4.28,0,0,0-2.43-1.83,27.09,27.09,0,0,0-6.46-.52h-7.69v11.16Z"/><path class="cls-2" d="M112.41,127.89a21.26,21.26,0,0,1,8.15,1.31,10.46,10.46,0,0,1,4.8,4.22,10.87,10.87,0,0,1,1.74,5.82,10.51,10.51,0,0,1-1.6,5.38,10.65,10.65,0,0,1-4.65,4.07,11.29,11.29,0,0,1,6.25,4.07,10.82,10.82,0,0,1,2.18,6.69,13.13,13.13,0,0,1-1.3,5.82,14.15,14.15,0,0,1-3.2,4.22,11.93,11.93,0,0,1-5,2.18,32.75,32.75,0,0,1-7.27.73H95.69V127.89h16.72m-10.76,18.76h9.6a18,18,0,0,0,5.67-.58,6.12,6.12,0,0,0,3.35-2.18,6.68,6.68,0,0,0,1.16-3.93,7.16,7.16,0,0,0-1-3.92,5.41,5.41,0,0,0-3-2.33,25.31,25.31,0,0,0-6.84-.58h-8.87v13.52m-.14,20.66H112.7a28.66,28.66,0,0,0,4.08-.15,10,10,0,0,0,3.34-1.16,7.3,7.3,0,0,0,2.18-2.47,7.59,7.59,0,0,0,.88-3.79,7.71,7.71,0,0,0-1.31-4.36,8.1,8.1,0,0,0-3.49-2.62,24.2,24.2,0,0,0-6.55-.72H101.51v15.27m-5.82,5.09v0m16.72-46.87H93.32v49.23h19.24a35.86,35.86,0,0,0,7.8-.78,14.35,14.35,0,0,0,5.87-2.62l0,0,.06,0a16.48,16.48,0,0,0,3.75-4.94,15.45,15.45,0,0,0,1.56-6.88,13.18,13.18,0,0,0-2.67-8.13,13.56,13.56,0,0,0-3.33-3.09,11.59,11.59,0,0,0,1.9-2.42,12.88,12.88,0,0,0,1.92-6.57,13.17,13.17,0,0,0-2.1-7.06,12.63,12.63,0,0,0-5.88-5.15,23.31,23.31,0,0,0-9.08-1.5Zm-8.39,10h6.5a24.37,24.37,0,0,1,6.09.46,3.16,3.16,0,0,1,1.8,1.33,4.94,4.94,0,0,1,.65,2.67,4.32,4.32,0,0,1-.72,2.56,3.93,3.93,0,0,1-2.1,1.29l-.07,0-.08,0a19.37,19.37,0,0,1-4.84.43H104V135.5Zm-.15,18.9h8a21.5,21.5,0,0,1,5.77.6,5.46,5.46,0,0,1,2.33,1.75,5.3,5.3,0,0,1,.88,3,5.43,5.43,0,0,1-.56,2.61,4.91,4.91,0,0,1-1.44,1.68,8.45,8.45,0,0,1-2.48.81,33.54,33.54,0,0,1-3.63.1h-8.83V154.4Z"/><path class="cls-3" d="M134.38,173.58v-1h-1.19V126.71H151.1a22.27,22.27,0,0,1,8.61,1.4,11.53,11.53,0,0,1,5.34,4.69,11.94,11.94,0,0,1,1.92,6.44,11.68,11.68,0,0,1-1.76,6,10.53,10.53,0,0,1-3,3.21,12.16,12.16,0,0,1,4.47,3.61,12,12,0,0,1,2.43,7.41,14.21,14.21,0,0,1-1.44,6.35,15.14,15.14,0,0,1-3.48,4.58,13.12,13.12,0,0,1-5.47,2.45,34.47,34.47,0,0,1-7.52.75Zm17-7.46a29.47,29.47,0,0,0,3.88-.13,8.9,8.9,0,0,0,2.88-1,5.94,5.94,0,0,0,1.81-2.07,7,7,0,0,0-.39-6.9,6.72,6.72,0,0,0-2.9-2.16,22.58,22.58,0,0,0-6.15-.66h-9.14v12.9Zm-1.45-20.65a18.49,18.49,0,0,0,5.25-.51,5.11,5.11,0,0,0,2.8-1.76,5.4,5.4,0,0,0,.94-3.24,6.13,6.13,0,0,0-.83-3.3,4.31,4.31,0,0,0-2.43-1.83,27.14,27.14,0,0,0-6.46-.52h-7.69v11.16Z"/><path class="cls-2" d="M151.1,127.89a21.26,21.26,0,0,1,8.15,1.31,10.46,10.46,0,0,1,4.8,4.22,10.87,10.87,0,0,1,1.74,5.82,10.51,10.51,0,0,1-1.6,5.38,10.76,10.76,0,0,1-4.65,4.07,11.29,11.29,0,0,1,6.25,4.07,10.88,10.88,0,0,1,2.18,6.69,13,13,0,0,1-1.31,5.82,13.83,13.83,0,0,1-3.2,4.22,12,12,0,0,1-4.94,2.18,32.75,32.75,0,0,1-7.27.73H134.38V127.89H151.1m-10.76,18.76h9.6a18,18,0,0,0,5.67-.58,6.09,6.09,0,0,0,3.34-2.18,6.62,6.62,0,0,0,1.17-3.93,7.16,7.16,0,0,0-1-3.92,5.48,5.48,0,0,0-3-2.33,25.31,25.31,0,0,0-6.84-.58h-8.87v13.52m-.15,20.66h11.2a28.5,28.5,0,0,0,4.07-.15,10.06,10.06,0,0,0,3.35-1.16,7.3,7.3,0,0,0,2.18-2.47,8.25,8.25,0,0,0-.44-8.15,8,8,0,0,0-3.49-2.62,24.06,24.06,0,0,0-6.54-.72H140.19v15.27m-5.81,5.09v0m16.72-46.87H132v49.23h19.24a35.86,35.86,0,0,0,7.8-.78,14.35,14.35,0,0,0,5.87-2.62l.05,0,.05,0a16.5,16.5,0,0,0,3.76-4.94,15.45,15.45,0,0,0,1.56-6.88,13.18,13.18,0,0,0-2.67-8.13,13.6,13.6,0,0,0-3.34-3.09,11.31,11.31,0,0,0,1.91-2.42,12.88,12.88,0,0,0,1.92-6.57,13.17,13.17,0,0,0-2.1-7.06,12.68,12.68,0,0,0-5.88-5.15,23.31,23.31,0,0,0-9.08-1.5Zm-8.39,10h6.5a24.43,24.43,0,0,1,6.09.46,3.1,3.1,0,0,1,1.79,1.33,4.85,4.85,0,0,1,.66,2.67,4.32,4.32,0,0,1-.72,2.56,3.93,3.93,0,0,1-2.1,1.29l-.08,0-.07,0a19.37,19.37,0,0,1-4.84.43h-7.23V135.5Zm-.15,18.9h8a21.4,21.4,0,0,1,5.76.6,5.49,5.49,0,0,1,2.34,1.75,5.3,5.3,0,0,1,.88,3,5.43,5.43,0,0,1-.56,2.61A5.13,5.13,0,0,1,157.5,164a8.55,8.55,0,0,1-2.48.81,33.54,33.54,0,0,1-3.63.1h-8.83V154.4Z"/><path class="cls-3" d="M192.7,174.31a23.28,23.28,0,0,1-12.41-3.09,18.85,18.85,0,0,1-7.3-9.12,31.15,31.15,0,0,1-2.42-12.39A28.29,28.29,0,0,1,173.31,137a19,19,0,0,1,8.06-8.36,24,24,0,0,1,11.33-2.91,19.43,19.43,0,0,1,11.91,3.58,19.13,19.13,0,0,1,6.82,10.22l.35,1.21-8.1,1.82-.33-1c-1-3.11-2.36-5.3-4.07-6.53a11.34,11.34,0,0,0-6.73-2,13.48,13.48,0,0,0-7.91,2.27,10.85,10.85,0,0,0-4.34,6,27.75,27.75,0,0,0-1.4,8.24,27.2,27.2,0,0,0,1.53,9.48,12,12,0,0,0,4.6,5.81,12.52,12.52,0,0,0,6.94,1.86,11.71,11.71,0,0,0,7.69-2.65,12,12,0,0,0,4.38-7.45l.24-1.22,8.35,2-.32,1.17c-1.42,5.2-3.81,9.13-7.11,11.68A19.94,19.94,0,0,1,192.7,174.31Z"/><path class="cls-2" d="M192.7,126.88a18.3,18.3,0,0,1,11.2,3.34,18,18,0,0,1,6.4,9.6l-5.82,1.31c-1-3.2-2.47-5.67-4.51-7.13a12.47,12.47,0,0,0-7.42-2.18,14.6,14.6,0,0,0-8.58,2.47,12,12,0,0,0-4.8,6.69,28.68,28.68,0,0,0,.15,18.47,13.15,13.15,0,0,0,5.09,6.4,13.69,13.69,0,0,0,7.56,2,12.94,12.94,0,0,0,8.44-2.91,13.11,13.11,0,0,0,4.79-8.14l6,1.45c-1.31,4.8-3.49,8.58-6.69,11.05a18.69,18.69,0,0,1-11.78,3.78,22.07,22.07,0,0,1-11.78-2.9,17.71,17.71,0,0,1-6.84-8.58,30.11,30.11,0,0,1-2.33-11.93,27.08,27.08,0,0,1,2.62-12.22,18,18,0,0,1,7.56-7.85,22.75,22.75,0,0,1,10.77-2.76m0-2.37a25.14,25.14,0,0,0-11.86,3,20.32,20.32,0,0,0-8.59,8.89,29.53,29.53,0,0,0-2.86,13.28,32.37,32.37,0,0,0,2.51,12.85,20,20,0,0,0,7.77,9.67,24.48,24.48,0,0,0,13,3.26,21.11,21.11,0,0,0,13.22-4.27c3.51-2.71,6-6.85,7.53-12.31l.64-2.34-2.36-.58-6-1.45-2.42-.59-.47,2.44a10.73,10.73,0,0,1-4,6.75,10.58,10.58,0,0,1-6.94,2.38,11.44,11.44,0,0,1-6.31-1.67,10.77,10.77,0,0,1-4.14-5.27,26.17,26.17,0,0,1-.09-16.88,9.73,9.73,0,0,1,3.88-5.46,12.37,12.37,0,0,1,7.24-2.05,10,10,0,0,1,6,1.74c1.5,1.07,2.72,3.06,3.63,5.92l.66,2.06,2.12-.47,5.81-1.31,2.45-.55-.69-2.41a20.24,20.24,0,0,0-7.24-10.83,20.5,20.5,0,0,0-12.63-3.83Z"/></g></g><path class="cls-3" d="M29.27,149.87c0-22.32.08-44.65-.08-67,0-3.31.94-5.1,3.85-6.77q58.25-33.36,116.31-67c2.8-1.62,4.81-2,7.82-.25q58,33.72,116.26,67.08c3,1.7,4.28,3.4,4.26,7.08q-.26,67,0,134c0,3.34-1,5.2-3.84,6.85q-58.45,33.56-116.75,67.34c-2.75,1.59-4.73,1.47-7.41-.08Q91.62,257.4,33.41,224c-3-1.72-4.28-3.49-4.25-7.15C29.38,194.53,29.27,172.2,29.27,149.87Z"/><g class="cls-6"><line class="cls-7" x1="-193.3" y1="288.93" x2="62.93" y2="161.19"/><line class="cls-7" x1="221.08" y1="280.34" x2="62.93" y2="161.19"/><line class="cls-7" x1="141.38" y1="65.22" x2="240.51" y2="178.41"/><line class="cls-7" x1="62.93" y1="161.19" x2="-19.59" y2="-32.43"/><line class="cls-7" x1="141.38" y1="65.22" x2="-19.59" y2="-32.43"/><line class="cls-7" x1="240.51" y1="178.41" x2="221.08" y2="280.34"/><line class="cls-7" x1="62.93" y1="161.19" x2="141.38" y2="65.22"/><line class="cls-7" x1="263.29" y1="22.02" x2="141.38" y2="65.22"/><line class="cls-7" x1="162.41" y1="-32.43" x2="141.38" y2="65.22"/><line class="cls-7" x1="288.29" y1="183.05" x2="62.93" y2="161.19"/><circle class="cls-2" cx="141.36" cy="65.15" r="38.07"/><circle class="cls-2" cx="240.49" cy="178.34" r="10.66"/><circle class="cls-2" cx="62.92" cy="161.12" r="14.41"/><circle class="cls-2" cx="221.07" cy="280.27" r="30.08"/><circle class="cls-2" cx="-19.6" cy="-32.5" r="72.13"/></g><path class="cls-2" d="M153.45,239.8a3.37,3.37,0,0,1-1.66-.57c-25.58-14.84-50.69-29.33-74.64-43.06-1.56-.9-2-1.57-2-3.24.11-10.75.09-21.68.08-32.25,0-3.58,0-7.17,0-10.76V139.38c0-10.64,0-21.64-.06-32.47a2.78,2.78,0,0,1,1.7-3c23.88-13.67,49-28.15,74.66-43a3.92,3.92,0,0,1,1.91-.69,3,3,0,0,1,1.57.53c22.42,13,46.83,27.11,74.63,43.06,1.57.9,2,1.56,2,3.2-.1,26.54-.1,54.67,0,86a2.86,2.86,0,0,1-1.69,3.06c-25.84,14.83-51,29.37-74.95,43.23A3.14,3.14,0,0,1,153.45,239.8Z"/><path class="cls-3" d="M153.49,61.74a1.81,1.81,0,0,1,.79.32c22.42,13,46.84,27.11,74.64,43.06,1.13.65,1.2.82,1.19,1.87-.1,26.42-.1,54.56,0,86,0,1.15-.13,1.26-.92,1.71-25.94,14.9-51.16,29.44-75,43.24a1.79,1.79,0,0,1-.77.31,2,2,0,0,1-.89-.37C126.9,223,101.79,208.53,77.92,194.83c-1.12-.64-1.19-.82-1.18-1.89.11-10.76.09-21.7.08-32.27,0-3.59,0-7.17,0-10.75s0-7,0-10.52c0-10.65,0-21.66-.06-32.5,0-1.05,0-1.15.92-1.65,23.83-13.65,49-28.12,74.68-43a2.71,2.71,0,0,1,1.13-.48m0-3.08a5.41,5.41,0,0,0-2.67.89q-37.28,21.61-74.66,43a4.24,4.24,0,0,0-2.47,4.34c.1,14.33,0,28.67,0,43s.07,28.66-.07,43a4.54,4.54,0,0,0,2.73,4.59Q113.76,219,151,240.56a4.83,4.83,0,0,0,2.43.78,4.53,4.53,0,0,0,2.32-.73q37.42-21.69,74.94-43.22a4.36,4.36,0,0,0,2.47-4.4q-.12-43,0-86c0-2.36-.83-3.46-2.73-4.55Q193.1,81,155.83,59.4a4.54,4.54,0,0,0-2.35-.74Z"/><g id="Layer_2-2" data-name="Layer 2"><g class="cls-5"><path class="cls-3" d="M95.69,173.58v-1H94.5V126.71h17.91a22.27,22.27,0,0,1,8.61,1.4,11.55,11.55,0,0,1,5.35,4.69,12.05,12.05,0,0,1,1.92,6.44,11.77,11.77,0,0,1-1.76,6,10.69,10.69,0,0,1-3,3.21A12.16,12.16,0,0,1,128,152a12,12,0,0,1,2.43,7.41A14.24,14.24,0,0,1,129,165.8a15.27,15.27,0,0,1-3.47,4.58,13.16,13.16,0,0,1-5.48,2.45,34.47,34.47,0,0,1-7.52.75Zm17-7.46a29.31,29.31,0,0,0,3.88-.13,9.05,9.05,0,0,0,2.89-1,5.94,5.94,0,0,0,1.81-2.07,7.08,7.08,0,0,0-.4-6.9,6.75,6.75,0,0,0-2.89-2.16,22.68,22.68,0,0,0-6.16-.66h-9.14v12.9Zm-1.45-20.65a18.53,18.53,0,0,0,5.26-.51,5,5,0,0,0,2.79-1.76,5.4,5.4,0,0,0,1-3.24,6.13,6.13,0,0,0-.84-3.3,4.28,4.28,0,0,0-2.43-1.83,27.09,27.09,0,0,0-6.46-.52h-7.69v11.16Z"/><path class="cls-2" d="M112.41,127.89a21.26,21.26,0,0,1,8.15,1.31,10.46,10.46,0,0,1,4.8,4.22,10.87,10.87,0,0,1,1.74,5.82,10.51,10.51,0,0,1-1.6,5.38,10.65,10.65,0,0,1-4.65,4.07,11.29,11.29,0,0,1,6.25,4.07,10.82,10.82,0,0,1,2.18,6.69,13.13,13.13,0,0,1-1.3,5.82,14.15,14.15,0,0,1-3.2,4.22,11.93,11.93,0,0,1-5,2.18,32.75,32.75,0,0,1-7.27.73H95.69V127.89h16.72m-10.76,18.76h9.6a18,18,0,0,0,5.67-.58,6.12,6.12,0,0,0,3.35-2.18,6.68,6.68,0,0,0,1.16-3.93,7.16,7.16,0,0,0-1-3.92,5.41,5.41,0,0,0-3-2.33,25.31,25.31,0,0,0-6.84-.58h-8.87v13.52m-.14,20.66H112.7a28.66,28.66,0,0,0,4.08-.15,10,10,0,0,0,3.34-1.16,7.3,7.3,0,0,0,2.18-2.47,7.59,7.59,0,0,0,.88-3.79,7.71,7.71,0,0,0-1.31-4.36,8.1,8.1,0,0,0-3.49-2.62,24.2,24.2,0,0,0-6.55-.72H101.51v15.27m-5.82,5.09v0m16.72-46.87H93.32v49.23h19.24a35.86,35.86,0,0,0,7.8-.78,14.35,14.35,0,0,0,5.87-2.62l0,0,.06,0a16.48,16.48,0,0,0,3.75-4.94,15.45,15.45,0,0,0,1.56-6.88,13.18,13.18,0,0,0-2.67-8.13,13.56,13.56,0,0,0-3.33-3.09,11.59,11.59,0,0,0,1.9-2.42,12.88,12.88,0,0,0,1.92-6.57,13.17,13.17,0,0,0-2.1-7.06,12.63,12.63,0,0,0-5.88-5.15,23.31,23.31,0,0,0-9.08-1.5Zm-8.39,10h6.5a24.37,24.37,0,0,1,6.09.46,3.16,3.16,0,0,1,1.8,1.33,4.94,4.94,0,0,1,.65,2.67,4.32,4.32,0,0,1-.72,2.56,3.93,3.93,0,0,1-2.1,1.29l-.07,0-.08,0a19.37,19.37,0,0,1-4.84.43H104V135.5Zm-.15,18.9h8a21.5,21.5,0,0,1,5.77.6,5.46,5.46,0,0,1,2.33,1.75,5.3,5.3,0,0,1,.88,3,5.43,5.43,0,0,1-.56,2.61,4.91,4.91,0,0,1-1.44,1.68,8.45,8.45,0,0,1-2.48.81,33.54,33.54,0,0,1-3.63.1h-8.83V154.4Z"/><path class="cls-3" d="M134.38,173.58v-1h-1.19V126.71H151.1a22.27,22.27,0,0,1,8.61,1.4,11.53,11.53,0,0,1,5.34,4.69,11.94,11.94,0,0,1,1.92,6.44,11.68,11.68,0,0,1-1.76,6,10.53,10.53,0,0,1-3,3.21,12.16,12.16,0,0,1,4.47,3.61,12,12,0,0,1,2.43,7.41,14.21,14.21,0,0,1-1.44,6.35,15.14,15.14,0,0,1-3.48,4.58,13.12,13.12,0,0,1-5.47,2.45,34.47,34.47,0,0,1-7.52.75Zm17-7.46a29.47,29.47,0,0,0,3.88-.13,8.9,8.9,0,0,0,2.88-1,5.94,5.94,0,0,0,1.81-2.07,7,7,0,0,0-.39-6.9,6.72,6.72,0,0,0-2.9-2.16,22.58,22.58,0,0,0-6.15-.66h-9.14v12.9Zm-1.45-20.65a18.49,18.49,0,0,0,5.25-.51,5.11,5.11,0,0,0,2.8-1.76,5.4,5.4,0,0,0,.94-3.24,6.13,6.13,0,0,0-.83-3.3,4.31,4.31,0,0,0-2.43-1.83,27.14,27.14,0,0,0-6.46-.52h-7.69v11.16Z"/><path class="cls-2" d="M151.1,127.89a21.26,21.26,0,0,1,8.15,1.31,10.46,10.46,0,0,1,4.8,4.22,10.87,10.87,0,0,1,1.74,5.82,10.51,10.51,0,0,1-1.6,5.38,10.76,10.76,0,0,1-4.65,4.07,11.29,11.29,0,0,1,6.25,4.07,10.88,10.88,0,0,1,2.18,6.69,13,13,0,0,1-1.31,5.82,13.83,13.83,0,0,1-3.2,4.22,12,12,0,0,1-4.94,2.18,32.75,32.75,0,0,1-7.27.73H134.38V127.89H151.1m-10.76,18.76h9.6a18,18,0,0,0,5.67-.58,6.09,6.09,0,0,0,3.34-2.18,6.62,6.62,0,0,0,1.17-3.93,7.16,7.16,0,0,0-1-3.92,5.48,5.48,0,0,0-3-2.33,25.31,25.31,0,0,0-6.84-.58h-8.87v13.52m-.15,20.66h11.2a28.5,28.5,0,0,0,4.07-.15,10.06,10.06,0,0,0,3.35-1.16,7.3,7.3,0,0,0,2.18-2.47,8.25,8.25,0,0,0-.44-8.15,8,8,0,0,0-3.49-2.62,24.06,24.06,0,0,0-6.54-.72H140.19v15.27m-5.81,5.09v0m16.72-46.87H132v49.23h19.24a35.86,35.86,0,0,0,7.8-.78,14.35,14.35,0,0,0,5.87-2.62l.05,0,.05,0a16.5,16.5,0,0,0,3.76-4.94,15.45,15.45,0,0,0,1.56-6.88,13.18,13.18,0,0,0-2.67-8.13,13.6,13.6,0,0,0-3.34-3.09,11.31,11.31,0,0,0,1.91-2.42,12.88,12.88,0,0,0,1.92-6.57,13.17,13.17,0,0,0-2.1-7.06,12.68,12.68,0,0,0-5.88-5.15,23.31,23.31,0,0,0-9.08-1.5Zm-8.39,10h6.5a24.43,24.43,0,0,1,6.09.46,3.1,3.1,0,0,1,1.79,1.33,4.85,4.85,0,0,1,.66,2.67,4.32,4.32,0,0,1-.72,2.56,3.93,3.93,0,0,1-2.1,1.29l-.08,0-.07,0a19.37,19.37,0,0,1-4.84.43h-7.23V135.5Zm-.15,18.9h8a21.4,21.4,0,0,1,5.76.6,5.49,5.49,0,0,1,2.34,1.75,5.3,5.3,0,0,1,.88,3,5.43,5.43,0,0,1-.56,2.61A5.13,5.13,0,0,1,157.5,164a8.55,8.55,0,0,1-2.48.81,33.54,33.54,0,0,1-3.63.1h-8.83V154.4Z"/><path class="cls-3" d="M192.7,174.31a23.28,23.28,0,0,1-12.41-3.09,18.85,18.85,0,0,1-7.3-9.12,31.15,31.15,0,0,1-2.42-12.39A28.29,28.29,0,0,1,173.31,137a19,19,0,0,1,8.06-8.36,24,24,0,0,1,11.33-2.91,19.43,19.43,0,0,1,11.91,3.58,19.13,19.13,0,0,1,6.82,10.22l.35,1.21-8.1,1.82-.33-1c-1-3.11-2.36-5.3-4.07-6.53a11.34,11.34,0,0,0-6.73-2,13.48,13.48,0,0,0-7.91,2.27,10.85,10.85,0,0,0-4.34,6,27.75,27.75,0,0,0-1.4,8.24,27.2,27.2,0,0,0,1.53,9.48,12,12,0,0,0,4.6,5.81,12.52,12.52,0,0,0,6.94,1.86,11.71,11.71,0,0,0,7.69-2.65,12,12,0,0,0,4.38-7.45l.24-1.22,8.35,2-.32,1.17c-1.42,5.2-3.81,9.13-7.11,11.68A19.94,19.94,0,0,1,192.7,174.31Z"/><path class="cls-2" d="M192.7,126.88a18.3,18.3,0,0,1,11.2,3.34,18,18,0,0,1,6.4,9.6l-5.82,1.31c-1-3.2-2.47-5.67-4.51-7.13a12.47,12.47,0,0,0-7.42-2.18,14.6,14.6,0,0,0-8.58,2.47,12,12,0,0,0-4.8,6.69,28.68,28.68,0,0,0,.15,18.47,13.15,13.15,0,0,0,5.09,6.4,13.69,13.69,0,0,0,7.56,2,12.94,12.94,0,0,0,8.44-2.91,13.11,13.11,0,0,0,4.79-8.14l6,1.45c-1.31,4.8-3.49,8.58-6.69,11.05a18.69,18.69,0,0,1-11.78,3.78,22.07,22.07,0,0,1-11.78-2.9,17.71,17.71,0,0,1-6.84-8.58,30.11,30.11,0,0,1-2.33-11.93,27.08,27.08,0,0,1,2.62-12.22,18,18,0,0,1,7.56-7.85,22.75,22.75,0,0,1,10.77-2.76m0-2.37a25.14,25.14,0,0,0-11.86,3,20.32,20.32,0,0,0-8.59,8.89,29.53,29.53,0,0,0-2.86,13.28,32.37,32.37,0,0,0,2.51,12.85,20,20,0,0,0,7.77,9.67,24.48,24.48,0,0,0,13,3.26,21.11,21.11,0,0,0,13.22-4.27c3.51-2.71,6-6.85,7.53-12.31l.64-2.34-2.36-.58-6-1.45-2.42-.59-.47,2.44a10.73,10.73,0,0,1-4,6.75,10.58,10.58,0,0,1-6.94,2.38,11.44,11.44,0,0,1-6.31-1.67,10.77,10.77,0,0,1-4.14-5.27,26.17,26.17,0,0,1-.09-16.88,9.73,9.73,0,0,1,3.88-5.46,12.37,12.37,0,0,1,7.24-2.05,10,10,0,0,1,6,1.74c1.5,1.07,2.72,3.06,3.63,5.92l.66,2.06,2.12-.47,5.81-1.31,2.45-.55-.69-2.41a20.24,20.24,0,0,0-7.24-10.83,20.5,20.5,0,0,0-12.63-3.83Z"/></g></g></g></svg>