<svg xmlns="http://www.w3.org/2000/svg" xmlns:xlink="http://www.w3.org/1999/xlink" viewBox="0 0 300 300"><defs><style>.cls-1{fill:none;}.cls-2{fill:#8ecc92;}.cls-3{clip-path:url(#clip-path);}.cls-4{fill:#fff;}</style><clipPath id="clip-path"><path class="cls-1" d="M31,149.88c0-21.86.08-43.73-.08-65.59,0-3.24.92-5,3.77-6.63Q91.75,45,148.61,12c2.74-1.59,4.7-2,7.65-.24q56.82,33,113.83,65.68c2.9,1.66,4.19,3.32,4.17,6.93q-.24,65.58,0,131.16c0,3.27-.95,5.1-3.76,6.71q-57.23,32.85-114.31,65.93c-2.69,1.56-4.63,1.44-7.25-.08q-56.85-33-113.84-65.67c-2.94-1.69-4.19-3.42-4.15-7C31.14,193.6,31,171.74,31,149.88Z"/></clipPath></defs><title>ri-cores</title><g id="mcbr"><path class="cls-2" d="M28.44,149.87c0-22.32.08-44.65-.08-67,0-3.31.93-5.1,3.85-6.77q58.25-33.36,116.31-67c2.8-1.62,4.8-2,7.82-.25q58,33.72,116.26,67.08c2.95,1.7,4.27,3.4,4.26,7.08q-.25,67,0,134c0,3.34-1,5.2-3.83,6.85q-58.45,33.56-116.76,67.34c-2.74,1.59-4.72,1.47-7.4-.08Q90.78,257.4,32.58,224c-3-1.72-4.28-3.49-4.25-7.15C28.55,194.53,28.44,172.2,28.44,149.87Z"/><g class="cls-3"><path class="cls-4" d="M202.24,158.59c.41.69,1.2,1.06,1.68.53.7-.78-.42-1-.81-1.38-2.6-3-4.88-5.92-9.35-6.89-28.94-6.32-57.77-13.07-86.7-19.43-5.83-1.28-11.61-3.19-17.88-3.5.26,5.29,3.48,6.55,7.51,7.44,24.36,5.35,48.66,10.95,73,16.26C180.55,154,191.25,156.94,202.24,158.59Z"/><path class="cls-4" d="M104.08,147.59c-.58-.67-1.41-1.08-2-.32-.37.5.47,1,1,1.26,1.93,2.92,3.94,5.72,7.67,6.55q47.67,10.56,95.34,21.1c3.89.85,7.7,2.45,11.91,2.21-1.12-4.54-3.75-6.6-7.95-7.5-21.32-4.59-42.59-9.41-63.88-14.11C132.17,153.68,118.12,150.65,104.08,147.59Z"/><path class="cls-4" d="M220.7,196.47c-3,2.14-5.82,4.44-8.9,6.4-12.45,8-26.42,12.24-40.46,16.22-21.32,6-43.13,10.25-64.33,16.81-9.68,3-19.3,6.21-29,11.37,4.86,2.89,9,5.34,13.16,7.85a4.47,4.47,0,0,0,4,.41c23.24-7.68,47.34-12.17,70.83-18.87,15.06-4.29,30.13-8.85,42.81-18.61,6.8-5.24,12-11.65,12.7-20.72.69-.4,1.06-1.19.54-1.66C221.31,195,221.13,196.12,220.7,196.47Z"/><path class="cls-4" d="M225.2,181.62c1.26-4.89,2.36-9,1.78-13.74-1.15-9.24-5.62-16.73-11-23.81C203.45,127.72,187.42,115,172,101.58,151.2,83.49,129.78,66,116,41.4c-6.61,3.65-6.66,3.67-4.37,10.69a67,67,0,0,0,3,7.75c5.5,11.67,13.7,21.4,22.57,30.58,13.84,14.33,29.46,26.7,44.35,39.89C198.43,145.19,216,159.51,225.2,181.62Z"/><path class="cls-4" d="M82.64,128.13a28.65,28.65,0,0,0,.84,22.5c4.28,9.76,11,17.7,18.39,25.13,11.54,11.66,24.31,21.93,37.16,32.11,4.5,3.56,8.45,9.17,13.48,10.34s10.92-2.12,16.44-3.49c.24-.06.4-.46.81-1-5.29-5.19-11-9.94-16.73-14.67-12.91-10.63-26.1-21-38.6-32.05S89.59,144.21,82.64,128.13Z"/><path class="cls-4" d="M145.44,70.26c3.14,4.35,7,7.06,10.14,10.51,1.5,1.65,2.84,1.81,5,1.23,15.38-4.15,30.72-8.41,45.59-14.16,5.1-2,10.36-3.79,15.21-7.29-3.95-2.35-7.58-4.37-11-6.63-2.25-1.47-4.19-1.48-6.8-.62-12.31,4.07-24.74,7.78-37.31,11C159.36,66,152.63,68.17,145.44,70.26Z"/><path class="cls-4" d="M125.52,168.58c-.13.37-.25.75-.37,1.12,3.28,3,6.29,6.43,10.92,7.47q37.19,8.4,74.41,16.73c3.77.85,6.75.13,8.73-4.29Z"/><path class="cls-4" d="M130.4,90.59c-3.15-3.77-5.92-6.89-8.46-10.17-1.27-1.64-2.47-1.38-4-.7-9.67,4.16-18.86,9-25.67,17.37-3.65,4.44-6.27,9.4-6.25,16.2C98.86,101.42,114.3,96.1,130.4,90.59Z"/><path class="cls-4" d="M180.83,137.62c-2.49-4.05-5.47-7.4-9.79-8.38-24-5.46-48-10.55-71.93-16.1-4.61-1.07-7,.68-9.55,4Z"/><path class="cls-4" d="M177.34,275.13c-24.27-5.47-48-10.85-71.66-16.1-1.93-.42-4.22-1.14-6.35.72,5.41,2.72,9.93,6.36,15.7,7.62,16.56,3.59,33.12,7.14,49.59,11.11C169.56,279.67,173.25,278.51,177.34,275.13Z"/><path class="cls-4" d="M201.06,48.73c-4.48-2.23-8.18-5.56-13-6.67-15.34-3.5-30.72-6.83-46-10.46-5-1.19-9.48-1.34-13.26,2.84a7.55,7.55,0,0,0,1.82,1c21.12,4.68,42.25,9.29,63.34,14C196.36,50.06,198.54,50.27,201.06,48.73Z"/><path class="cls-4" d="M175.47,239.76c6.93,6.67,13.45,13.65,18.62,21.78.9,1.42,1.84,4.23,4.16,2,1.85-1.76,6.71-1.36,4.51-6.52a99.72,99.72,0,0,0-6.84-14c-5.73-9.11-5.76-9.15-15.75-5.57C178.74,238,177,237.68,175.47,239.76Z"/><path class="cls-4" d="M192,268c-2.08-4.45-3.83-7.11-7.49-7.92-14.2-3.13-28.39-6.35-42.6-9.44-7.36-1.6-8.8-1.33-17.22,2.3Z"/><path class="cls-4" d="M176.17,55.94,123.94,44.27c1.91,5.29,5.06,7.72,10.16,8.41,5.46.75,10.79,2.44,16.19,3.64C159,58.26,167.7,61.55,176.17,55.94Z"/><path class="cls-4" d="M201.94,202.2l-48.16-10.74-.42,1.15c3.23,3.55,6.77,6.61,11.8,7.61,4.57.92,9.06,2.4,13.67,3C186.38,204.12,194.07,209.53,201.94,202.2Z"/><path class="cls-4" d="M155.47,115.46c-3.59-4.24-7.06-8.22-12.89-9.17a174,174,0,0,1-20.26-4.59c-5.21-1.52-9.43,0-14.42,3Z"/><path class="cls-4" d="M158.69,243.92c5.76,1.36,11.16,3,17.08,3.66C170.62,240.11,170.62,240.11,158.69,243.92Z"/><path class="cls-4" d="M148.51,22.82c2.12.51,4.09,1.11,6.1,1.42,1,.14,1.94.89,3,.26C153.46,20.32,152.86,20.2,148.51,22.82Z"/></g><path class="cls-4" d="M150,227.87a2.76,2.76,0,0,1-1.35-.46c-20.86-12.1-41.24-23.86-60.56-34.95a2.47,2.47,0,0,1-1.59-2.63c.09-8.71.08-17.57.06-26.14V146.31c0-8.61,0-17.51,0-26.27a2.25,2.25,0,0,1,1.37-2.44c19.44-11.13,39.82-22.87,60.59-34.91a3.14,3.14,0,0,1,1.55-.56,2.44,2.44,0,0,1,1.27.43c18.18,10.56,38,22,60.56,34.94a2.47,2.47,0,0,1,1.6,2.6c-.08,21.36-.09,44.19,0,69.79a2.31,2.31,0,0,1-1.37,2.48c-21.42,12.3-41.32,23.77-60.82,35.08A2.55,2.55,0,0,1,150,227.87Z"/><path class="cls-2" d="M150.05,83.38a1.52,1.52,0,0,1,.64.26c18.2,10.57,38,22,60.57,35,.92.52,1,.66,1,1.51-.08,21.44-.09,44.27,0,69.79,0,.94-.1,1-.74,1.39-21.05,12.09-41.51,23.89-60.82,35.09a1.56,1.56,0,0,1-.63.25,1.69,1.69,0,0,1-.72-.3c-20.82-12.07-41.2-23.82-60.57-34.94-.91-.52-1-.67-1-1.53.09-8.74.08-17.61.07-26.19q0-4.36,0-8.73V146.4c0-8.64,0-17.58,0-26.37,0-.86,0-.93.75-1.34,19.34-11.08,39.73-22.83,60.6-34.92a2.3,2.3,0,0,1,.92-.39m0-2.5a4.22,4.22,0,0,0-2.17.73q-30.25,17.52-60.59,34.91a3.46,3.46,0,0,0-2,3.52c.09,11.63,0,23.26,0,34.89s0,23.26-.06,34.89a3.69,3.69,0,0,0,2.21,3.73Q117.81,211,148,228.49a4,4,0,0,0,2,.63,3.72,3.72,0,0,0,1.88-.59q30.38-17.61,60.82-35.08a3.52,3.52,0,0,0,2-3.56q-.09-34.89,0-69.78a3.66,3.66,0,0,0-2.22-3.69Q182.18,99,152,81.48a3.7,3.7,0,0,0-1.9-.6Z"/><path class="cls-2" d="M92.55,172.5V141.8h6.1l7.3,21.7,1.5,4.5c.3-1.1.9-2.8,1.6-4.9l7.3-21.4h5.5v30.7H118V146.7l-8.9,25.7h-3.7l-8.9-26.1v26.1l-3.9.1Z"/><path class="cls-2" d="M147.75,161.7l4.1,1a13.9,13.9,0,0,1-4.6,7.6,12.91,12.91,0,0,1-8.1,2.6,15.22,15.22,0,0,1-8.1-2,12.19,12.19,0,0,1-4.7-5.9,20.63,20.63,0,0,1-1.6-8.2,18.48,18.48,0,0,1,1.8-8.4,12.33,12.33,0,0,1,5.2-5.4,15.55,15.55,0,0,1,7.4-1.9,12.54,12.54,0,0,1,7.7,2.3,12.31,12.31,0,0,1,4.4,6.6l-4,.9a9.27,9.27,0,0,0-3.1-4.9,8.51,8.51,0,0,0-5.1-1.5,10,10,0,0,0-5.9,1.7,8.19,8.19,0,0,0-3.3,4.6,19.73,19.73,0,0,0,.1,12.7,9.09,9.09,0,0,0,3.5,4.4,9.44,9.44,0,0,0,5.2,1.4,9.13,9.13,0,0,0,9.1-7.6Z"/><path class="cls-2" d="M154.15,172.5V141.8h11.5a14.44,14.44,0,0,1,5.6.9,7.16,7.16,0,0,1,3.3,2.9,7.47,7.47,0,0,1,1.2,4,7.14,7.14,0,0,1-1.1,3.7,7.36,7.36,0,0,1-3.2,2.8,7.72,7.72,0,0,1,4.3,2.8,7.46,7.46,0,0,1,1.5,4.6,9.1,9.1,0,0,1-.9,4,8.53,8.53,0,0,1-2.3,2.9,8.2,8.2,0,0,1-3.4,1.5,24,24,0,0,1-5,.5h-11.5Zm4.1-17.8h6.6a12.51,12.51,0,0,0,3.9-.4,4.25,4.25,0,0,0,2.3-1.5,4.49,4.49,0,0,0,.8-2.7,5,5,0,0,0-.7-2.7,3.74,3.74,0,0,0-2.1-1.6,17.26,17.26,0,0,0-4.7-.4h-6.1Zm0,14.2h7.6a20.17,20.17,0,0,0,2.8-.1,6.92,6.92,0,0,0,2.3-.8,5.1,5.1,0,0,0,1.5-1.7,5.66,5.66,0,0,0-.3-5.6,5.48,5.48,0,0,0-2.4-1.8,13.15,13.15,0,0,0-4.5-.5h-7.1l.1,10.5Z"/><path class="cls-2" d="M180.45,172.5V141.8h13.6a19.4,19.4,0,0,1,6.2.8,6.84,6.84,0,0,1,3.4,2.9,8.23,8.23,0,0,1,1.3,4.6,7.68,7.68,0,0,1-2.1,5.5c-1.4,1.5-3.6,2.4-6.5,2.8a8.43,8.43,0,0,1,2.4,1.5,20.27,20.27,0,0,1,3.4,4.1l5.3,8.4h-5.1l-4.1-6.4c-1.2-1.8-2.2-3.3-2.9-4.2a10,10,0,0,0-2.1-2.1,4.52,4.52,0,0,0-1.9-.8,13.58,13.58,0,0,0-2.3-.1h-4.7v13.6l-3.9.1Zm4.1-17.2h8.7a13.11,13.11,0,0,0,4.4-.6,5.56,5.56,0,0,0,2.4-1.8,5.32,5.32,0,0,0,.8-2.8,4.49,4.49,0,0,0-1.6-3.6c-1.1-1-2.7-1.4-5-1.4h-9.7v10.2Z"/></g></svg>