<svg xmlns="http://www.w3.org/2000/svg" xmlns:xlink="http://www.w3.org/1999/xlink" viewBox="0 0 300 300"><defs><style>.cls-1{fill:none;}.cls-2{fill:#2c3d6c;}.cls-3{opacity:0.5;}.cls-4{clip-path:url(#clip-path);}.cls-5,.cls-6,.cls-7{fill:#fff;}.cls-5,.cls-6{stroke:#2c3d6c;stroke-miterlimit:10;stroke-width:3.38px;}.cls-5{fill-rule:evenodd;}.cls-8{fill:#374f82;}.cls-9{opacity:0.4;}</style><clipPath id="clip-path"><path class="cls-1" d="M28.44,149.88c0-21.86.07-43.73-.09-65.59,0-3.24.92-5,3.78-6.63Q89.16,45,146,12c2.74-1.59,4.7-2,7.65-.24q56.82,33,113.83,65.68c2.9,1.66,4.19,3.32,4.18,6.93q-.26,65.58,0,131.16c0,3.27-.94,5.1-3.75,6.71q-57.22,32.85-114.32,65.93c-2.69,1.56-4.62,1.44-7.25-.08q-56.85-33-113.83-65.67c-3-1.69-4.19-3.42-4.16-7C28.54,193.6,28.44,171.74,28.44,149.88Z"/></clipPath></defs><g id="mcbr_copy_2" data-name="mcbr copy 2"><path class="cls-2" d="M25.84,149.87c0-22.32.08-44.65-.08-67,0-3.31.94-5.1,3.85-6.77q58.26-33.36,116.32-67c2.79-1.62,4.8-2,7.81-.25q58,33.72,116.26,67.08c3,1.7,4.28,3.4,4.26,7.08q-.25,67,0,134c0,3.34-1,5.2-3.84,6.85Q212,257.38,153.65,291.16c-2.75,1.59-4.73,1.47-7.41-.08Q88.19,257.4,30,224c-3-1.72-4.28-3.49-4.24-7.15C26,194.53,25.84,172.2,25.84,149.87Z"/><g class="cls-3"><g class="cls-4"><path class="cls-5" d="M113.69-34.12S94.13-20,86.06-12.78A113.26,113.26,0,0,0,58.78,24.49C55,32,49.13,45.89,48.21,60.8c-.15,2.45-.18,5.13-.09,8-.09,2.83-.06,5.51.09,8C49.13,91.65,55,105.58,58.78,113a113.26,113.26,0,0,0,27.28,37.27,279.66,279.66,0,0,0,27.63,21.34h70a279.48,279.48,0,0,0,27.62-21.34A113.16,113.16,0,0,0,238.63,113c3.73-7.46,9.65-21.39,10.57-36.31.15-2.45.18-5.13.09-8,.09-2.84.06-5.52-.09-8-.92-14.91-6.84-28.85-10.57-36.31a113.16,113.16,0,0,0-27.29-37.27c-8.07-7.26-27.62-21.34-27.62-21.34Zm35,183c-30.79-19.35-59.89-37.94-74.17-64.3a105.71,105.71,0,0,1-7-15.79,105.8,105.8,0,0,1,7-15.8C88.81,26.61,117.91,8,148.7-11.33,179.5,8,208.59,26.61,222.87,53a104.79,104.79,0,0,1,6.95,15.8,104.69,104.69,0,0,1-6.95,15.79C208.59,110.92,179.5,129.51,148.7,148.86Z"/><rect class="cls-6" x="139.01" y="55.45" width="95.61" height="14.06" rx="6.52"/><rect class="cls-6" x="64.47" y="55.45" width="74.54" height="14.06" rx="6.35"/><rect class="cls-6" x="149.55" y="9.75" width="68.42" height="13.69" rx="6.82"/><rect class="cls-6" x="84.78" y="9.75" width="64.78" height="13.69" rx="6.64"/><rect class="cls-6" x="71.58" y="102.16" width="62.06" height="13.73" rx="6.87"/><rect class="cls-6" x="133.64" y="102.16" width="84.91" height="13.73" rx="6.87"/><path class="cls-5" d="M113.69,171.65h70l-35-22.79c-30.79-19.35-59.89-37.94-74.17-64.3a105.71,105.71,0,0,1-7-15.79h-.06c-4.29-13.06-7.18-25.29-5.7-50.58l-3,6.3C55,32,49.13,45.89,48.21,60.8c-.15,2.45-.18,5.13-.09,8-.09,2.83-.06,5.51.09,8C49.13,91.65,55,105.58,58.78,113a113.26,113.26,0,0,0,27.28,37.27,279.66,279.66,0,0,0,27.63,21.34h0"/><path class="cls-5" d="M183.72-34.12h-70l35,22.79C179.5,8,208.59,26.61,222.87,53a104.79,104.79,0,0,1,6.95,15.8h.07c4.28,13,7.18,25.28,5.69,50.57l3-6.3c3.73-7.46,9.65-21.39,10.57-36.31.15-2.45.18-5.13.09-8,.09-2.84.06-5.52-.09-8-.92-14.91-6.84-28.85-10.57-36.31a113.16,113.16,0,0,0-27.29-37.27,279.48,279.48,0,0,0-27.62-21.34h0"/><path class="cls-5" d="M113.69,171.65S94.13,185.74,86.06,193a113.13,113.13,0,0,0-27.28,37.26c-3.74,7.46-9.65,21.4-10.57,36.31-.15,2.46-.18,5.13-.09,8-.09,2.84-.06,5.51.09,8,.92,14.92,6.83,28.86,10.57,36.31a113.26,113.26,0,0,0,27.28,37.27,279.69,279.69,0,0,0,27.63,21.35h70a279.52,279.52,0,0,0,27.62-21.35,113.16,113.16,0,0,0,27.29-37.27c3.73-7.45,9.65-21.39,10.57-36.31.15-2.45.18-5.12.09-8,.09-2.84.06-5.51-.09-8-.92-14.91-6.84-28.85-10.57-36.31A113,113,0,0,0,211.34,193c-8.07-7.26-27.62-21.35-27.62-21.35Zm35,183c-30.79-19.35-59.89-37.94-74.17-64.31a105.71,105.71,0,0,1-7-15.79,105.71,105.71,0,0,1,7-15.79c14.28-26.37,43.38-45,74.17-64.31,30.8,19.35,59.89,37.94,74.17,64.31a104.69,104.69,0,0,1,6.95,15.79,104.69,104.69,0,0,1-6.95,15.79C208.59,316.7,179.5,335.29,148.7,354.64Z"/><rect class="cls-6" x="139.01" y="261.22" width="95.61" height="14.06" rx="6.52"/><rect class="cls-6" x="64.47" y="261.22" width="74.54" height="14.06" rx="6.35"/><rect class="cls-6" x="149.55" y="215.53" width="68.42" height="13.69" rx="6.82"/><rect class="cls-6" x="84.78" y="215.53" width="64.78" height="13.69" rx="6.64"/><path class="cls-5" d="M113.69,377.43h70l-35-22.79c-30.79-19.35-59.89-37.94-74.17-64.31a105.71,105.71,0,0,1-7-15.79h-.06c-4.29-13.05-7.18-25.29-5.7-50.58l-3,6.3c-3.74,7.46-9.65,21.4-10.57,36.31-.15,2.46-.18,5.13-.09,8-.09,2.84-.06,5.51.09,8,.92,14.92,6.83,28.86,10.57,36.31a113.26,113.26,0,0,0,27.28,37.27,279.69,279.69,0,0,0,27.63,21.35h0"/><path class="cls-5" d="M183.72,171.65h-70l35,22.79c30.8,19.35,59.89,37.94,74.17,64.31a104.69,104.69,0,0,1,6.95,15.79h.07c4.28,13,7.18,25.29,5.69,50.57l3-6.3c3.73-7.45,9.65-21.39,10.57-36.31.15-2.45.18-5.12.09-8,.09-2.84.06-5.51-.09-8-.92-14.91-6.84-28.85-10.57-36.31A113,113,0,0,0,211.34,193a279.52,279.52,0,0,0-27.62-21.35h0"/></g></g><path class="cls-7" d="M87.84,179.51V151l-9.39,28.52H64.31l-8.28-27v27H40.8v-59H60.73l11.11,35.89,11.78-35.89h19.89v59Z"/><path class="cls-2" d="M101,123v54H90.34V151.46c0-1.21,0-2.6,0-4.17s.21-5.76.5-12.56h-.33L76.64,177H66.16l-13-42.35h-.33q.7,12.92.7,17.24V177H43.3V123H58.88l12.78,41.28h.22L85.43,123H101m5-5H81.81l-1.13,3.44-8.77,26.72-8.25-26.64L62.57,118H38.3v64H58.53V169.2l2.85,9.27L62.46,182h17.8l1.13-3.44,4-12V182H106V118Z"/><path class="cls-7" d="M136.45,180.24c-8.57,0-15.26-2.69-19.9-8s-6.85-12.67-6.85-22.16A36.11,36.11,0,0,1,113,134.25a24.68,24.68,0,0,1,9.79-10.77,28.62,28.62,0,0,1,14.72-3.72,39,39,0,0,1,16.88,4l2.11,1-5.54,14-2.41-1.15a58.59,58.59,0,0,0-5.85-2.41,15.65,15.65,0,0,0-5.19-.93,9.2,9.2,0,0,0-8,3.83c-2,2.78-3.07,6.84-3.07,12.06,0,13.94,6.31,15.55,11.05,15.55a40.64,40.64,0,0,0,12.94-2.7l3.33-1.17v14.79l-1.54.64A40.77,40.77,0,0,1,136.45,180.24Z"/><path class="cls-2" d="M137.52,122.26a36.24,36.24,0,0,1,15.8,3.8l-3.69,9.3a63.05,63.05,0,0,0-6.09-2.51,18.26,18.26,0,0,0-6-1.07,11.66,11.66,0,0,0-10,4.85Q124,141.49,124,150.17q0,18,13.55,18.05a43,43,0,0,0,13.77-2.84V175a38.32,38.32,0,0,1-14.84,2.76q-11.77,0-18-7.14t-6.23-20.51a33.53,33.53,0,0,1,3.06-14.75,22.21,22.21,0,0,1,8.8-9.71,26.09,26.09,0,0,1,13.46-3.37m0-5a31.08,31.08,0,0,0-16,4.06,27.18,27.18,0,0,0-10.77,11.85,38.44,38.44,0,0,0-3.56,16.92c0,10.12,2.51,18.12,7.47,23.8,5.13,5.87,12.46,8.85,21.78,8.85a43.4,43.4,0,0,0,16.76-3.15l3.08-1.28v-20l-6.66,2.34a38.12,38.12,0,0,1-12.11,2.56c-3,0-8.55,0-8.55-13.05,0-4.68.87-8.24,2.59-10.59a6.68,6.68,0,0,1,6-2.8,13.39,13.39,0,0,1,4.37.79,54.47,54.47,0,0,1,5.59,2.31l4.83,2.29,2-5L158,127.9l1.72-4.34-4.21-2a41.43,41.43,0,0,0-18-4.29Z"/><path class="cls-7" d="M160.27,179.51v-59h19.3c8.21,0,14.1,1.19,18,3.65,4.22,2.66,6.36,6.87,6.36,12.51a15.54,15.54,0,0,1-2.76,9.41,12,12,0,0,1-2.12,2.26,12.05,12.05,0,0,1,3.5,3.18,16.43,16.43,0,0,1,2.74,9.81c0,5.72-2.12,10.26-6.3,13.5-4,3.09-9.38,4.66-16,4.66Zm21.41-14.46c2.51,0,4.38-.43,5.41-1.25.32-.26,1.32-1.06,1.32-3.59,0-1.37,0-4.22-7.1-4.22h-4.59v9.06Zm-.82-23.14c3.37,0,4.78-.63,5.32-1,.28-.19,1-.7,1-2.71,0-1.47-.53-2-1.05-2.29-.77-.46-2.41-1-5.9-1h-3.52v7Z"/><path class="cls-2" d="M179.57,123q11.49,0,16.67,3.27t5.19,10.39a13.12,13.12,0,0,1-2.27,7.94,9.09,9.09,0,0,1-6,3.73v.37q5.13,1.14,7.4,4.28a13.87,13.87,0,0,1,2.27,8.34q0,7.4-5.33,11.52T183,177h-20.2V123h16.8m-5.35,21.38h6.64q4.65,0,6.74-1.44t2.09-4.77a4.76,4.76,0,0,0-2.27-4.44q-2.28-1.35-7.18-1.35h-6v12m0,23.14h7.46q4.73,0,7-1.8a6.7,6.7,0,0,0,2.26-5.54q0-6.72-9.6-6.72h-7.09v14.06M179.57,118h-21.8v64H183c7.21,0,13.11-1.75,17.55-5.19a20.56,20.56,0,0,0,4-26.74,13.93,13.93,0,0,0-1.76-2c.13-.16.26-.33.38-.5a18,18,0,0,0,3.24-10.89c0-8.17-4.09-12.46-7.52-14.62-4.32-2.72-10.64-4-19.34-4Zm-.35,19.38h1a12,12,0,0,1,4.44.56c0,.06,0,.14,0,.23a3.1,3.1,0,0,1-.07.72,9.9,9.9,0,0,1-3.76.49h-1.64v-2Zm0,21.08h2.09c3,0,4.07.59,4.33.77s.27.19.27,1c0,.31,0,1.35-.39,1.64-.09.07-1,.7-3.84.7h-2.46v-4.06Z"/><path class="cls-7" d="M242.61,179.51l-12.89-20.72h-2.2v20.72H211.07v-59H229.3c8,0,13.79,1.48,17.79,4.51,4.16,3.16,6.27,7.92,6.27,14.16a16.82,16.82,0,0,1-3.08,9.92,19.1,19.1,0,0,1-5.82,5.31c7.19,10.73,12,17.85,14.29,21.15l2.72,3.93Zm-13.9-35c3.83,0,5.69-.74,6.58-1.36.65-.45,1.52-1.33,1.52-3.63s-.78-2.92-1.45-3.34c-.93-.57-2.88-1.25-6.87-1.25h-1v9.58Z"/><path class="cls-2" d="M229.3,123q11,0,16.28,4t5.28,12.16a14.28,14.28,0,0,1-2.62,8.47,17.29,17.29,0,0,1-7.42,5.82Q253,171.69,256.7,177H244l-12.89-20.72H225V177H213.57V123H229.3M225,147h3.69q5.43,0,8-1.81c1.73-1.2,2.59-3.1,2.59-5.68s-.88-4.38-2.64-5.47-4.49-1.62-8.18-1.62H225V147m4.28-29H208.57v64H230V164l9.73,15.64,1.47,2.36h25l-5.45-7.86c-2.13-3.07-6.46-9.47-12.88-19.05a20.79,20.79,0,0,0,4.4-4.54,19.28,19.28,0,0,0,3.54-11.36c0-7.06-2.44-12.49-7.25-16.15-4.46-3.38-10.78-5-19.31-5ZM230,142v-4.51a9.09,9.09,0,0,1,4,.84c.24.15.26,1,.26,1.21,0,1.27-.33,1.5-.45,1.58-.27.19-1.26.73-3.84.88Z"/><path class="cls-8" d="M25.84,149.87c0-22.32.08-44.65-.08-67,0-3.31.94-5.1,3.85-6.77q58.26-33.36,116.32-67c2.79-1.62,4.8-2,7.81-.25q58,33.72,116.26,67.08c3,1.7,4.28,3.4,4.26,7.08q-.25,67,0,134c0,3.34-1,5.2-3.84,6.85Q212,257.38,153.65,291.16c-2.75,1.59-4.73,1.47-7.41-.08Q88.19,257.4,30,224c-3-1.72-4.28-3.49-4.24-7.15C26,194.53,25.84,172.2,25.84,149.87Z"/><g class="cls-9"><g class="cls-4"><path class="cls-5" d="M113.69-34.12S94.13-20,86.06-12.78A113.26,113.26,0,0,0,58.78,24.49C55,32,49.13,45.89,48.21,60.8c-.15,2.45-.18,5.13-.09,8-.09,2.83-.06,5.51.09,8C49.13,91.65,55,105.58,58.78,113a113.26,113.26,0,0,0,27.28,37.27,279.66,279.66,0,0,0,27.63,21.34h70a279.48,279.48,0,0,0,27.62-21.34A113.16,113.16,0,0,0,238.63,113c3.73-7.46,9.65-21.39,10.57-36.31.15-2.45.18-5.13.09-8,.09-2.84.06-5.52-.09-8-.92-14.91-6.84-28.85-10.57-36.31a113.16,113.16,0,0,0-27.29-37.27c-8.07-7.26-27.62-21.34-27.62-21.34Zm35,183c-30.79-19.35-59.89-37.94-74.17-64.3a105.71,105.71,0,0,1-7-15.79,105.8,105.8,0,0,1,7-15.8C88.81,26.61,117.91,8,148.7-11.33,179.5,8,208.59,26.61,222.87,53a104.79,104.79,0,0,1,6.95,15.8,104.69,104.69,0,0,1-6.95,15.79C208.59,110.92,179.5,129.51,148.7,148.86Z"/><rect class="cls-6" x="139.01" y="55.45" width="95.61" height="14.06" rx="6.52"/><rect class="cls-6" x="64.47" y="55.45" width="74.54" height="14.06" rx="6.35"/><rect class="cls-6" x="149.55" y="9.75" width="68.42" height="13.69" rx="6.82"/><rect class="cls-6" x="84.78" y="9.75" width="64.78" height="13.69" rx="6.64"/><rect class="cls-6" x="71.58" y="102.16" width="62.06" height="13.73" rx="6.87"/><rect class="cls-6" x="133.64" y="102.16" width="84.91" height="13.73" rx="6.87"/><path class="cls-5" d="M113.69,171.65h70l-35-22.79c-30.79-19.35-59.89-37.94-74.17-64.3a105.71,105.71,0,0,1-7-15.79h-.06c-4.29-13.06-7.18-25.29-5.7-50.58l-3,6.3C55,32,49.13,45.89,48.21,60.8c-.15,2.45-.18,5.13-.09,8-.09,2.83-.06,5.51.09,8C49.13,91.65,55,105.58,58.78,113a113.26,113.26,0,0,0,27.28,37.27,279.66,279.66,0,0,0,27.63,21.34h0"/><path class="cls-5" d="M183.72-34.12h-70l35,22.79C179.5,8,208.59,26.61,222.87,53a104.79,104.79,0,0,1,6.95,15.8h.07c4.28,13,7.18,25.28,5.69,50.57l3-6.3c3.73-7.46,9.65-21.39,10.57-36.31.15-2.45.18-5.13.09-8,.09-2.84.06-5.52-.09-8-.92-14.91-6.84-28.85-10.57-36.31a113.16,113.16,0,0,0-27.29-37.27,279.48,279.48,0,0,0-27.62-21.34h0"/><path class="cls-5" d="M113.69,171.65S94.13,185.74,86.06,193a113.13,113.13,0,0,0-27.28,37.26c-3.74,7.46-9.65,21.4-10.57,36.31-.15,2.46-.18,5.13-.09,8-.09,2.84-.06,5.51.09,8,.92,14.92,6.83,28.86,10.57,36.31a113.26,113.26,0,0,0,27.28,37.27,279.69,279.69,0,0,0,27.63,21.35h70a279.52,279.52,0,0,0,27.62-21.35,113.16,113.16,0,0,0,27.29-37.27c3.73-7.45,9.65-21.39,10.57-36.31.15-2.45.18-5.12.09-8,.09-2.84.06-5.51-.09-8-.92-14.91-6.84-28.85-10.57-36.31A113,113,0,0,0,211.34,193c-8.07-7.26-27.62-21.35-27.62-21.35Zm35,183c-30.79-19.35-59.89-37.94-74.17-64.31a105.71,105.71,0,0,1-7-15.79,105.71,105.71,0,0,1,7-15.79c14.28-26.37,43.38-45,74.17-64.31,30.8,19.35,59.89,37.94,74.17,64.31a104.69,104.69,0,0,1,6.95,15.79,104.69,104.69,0,0,1-6.95,15.79C208.59,316.7,179.5,335.29,148.7,354.64Z"/><rect class="cls-6" x="139.01" y="261.22" width="95.61" height="14.06" rx="6.52"/><rect class="cls-6" x="64.47" y="261.22" width="74.54" height="14.06" rx="6.35"/><rect class="cls-6" x="149.55" y="215.53" width="68.42" height="13.69" rx="6.82"/><rect class="cls-6" x="84.78" y="215.53" width="64.78" height="13.69" rx="6.64"/><path class="cls-5" d="M113.69,377.43h70l-35-22.79c-30.79-19.35-59.89-37.94-74.17-64.31a105.71,105.71,0,0,1-7-15.79h-.06c-4.29-13.05-7.18-25.29-5.7-50.58l-3,6.3c-3.74,7.46-9.65,21.4-10.57,36.31-.15,2.46-.18,5.13-.09,8-.09,2.84-.06,5.51.09,8,.92,14.92,6.83,28.86,10.57,36.31a113.26,113.26,0,0,0,27.28,37.27,279.69,279.69,0,0,0,27.63,21.35h0"/><path class="cls-5" d="M183.72,171.65h-70l35,22.79c30.8,19.35,59.89,37.94,74.17,64.31a104.69,104.69,0,0,1,6.95,15.79h.07c4.28,13,7.18,25.29,5.69,50.57l3-6.3c3.73-7.45,9.65-21.39,10.57-36.31.15-2.45.18-5.12.09-8,.09-2.84.06-5.51-.09-8-.92-14.91-6.84-28.85-10.57-36.31A113,113,0,0,0,211.34,193a279.52,279.52,0,0,0-27.62-21.35h0"/></g></g><path class="cls-7" d="M87.84,179.51V151l-9.39,28.52H64.31l-8.28-27v27H40.8v-59H60.73l11.11,35.89,11.78-35.89h19.89v59Z"/><path class="cls-2" d="M101,123v54H90.34V151.46c0-1.21,0-2.6,0-4.17s.21-5.76.5-12.56h-.33L76.64,177H66.16l-13-42.35h-.33q.7,12.92.7,17.24V177H43.3V123H58.88l12.78,41.28h.22L85.43,123H101m5-5H81.81l-1.13,3.44-8.77,26.72-8.25-26.64L62.57,118H38.3v64H58.53V169.2l2.85,9.27L62.46,182h17.8l1.13-3.44,4-12V182H106V118Z"/><path class="cls-7" d="M136.45,180.24c-8.57,0-15.26-2.69-19.9-8s-6.85-12.67-6.85-22.16A36.11,36.11,0,0,1,113,134.25a24.68,24.68,0,0,1,9.79-10.77,28.62,28.62,0,0,1,14.72-3.72,39,39,0,0,1,16.88,4l2.11,1-5.54,14-2.41-1.15a58.59,58.59,0,0,0-5.85-2.41,15.65,15.65,0,0,0-5.19-.93,9.2,9.2,0,0,0-8,3.83c-2,2.78-3.07,6.84-3.07,12.06,0,13.94,6.31,15.55,11.05,15.55a40.64,40.64,0,0,0,12.94-2.7l3.33-1.17v14.79l-1.54.64A40.77,40.77,0,0,1,136.45,180.24Z"/><path class="cls-2" d="M137.52,122.26a36.24,36.24,0,0,1,15.8,3.8l-3.69,9.3a63.05,63.05,0,0,0-6.09-2.51,18.26,18.26,0,0,0-6-1.07,11.66,11.66,0,0,0-10,4.85Q124,141.49,124,150.17q0,18,13.55,18.05a43,43,0,0,0,13.77-2.84V175a38.32,38.32,0,0,1-14.84,2.76q-11.77,0-18-7.14t-6.23-20.51a33.53,33.53,0,0,1,3.06-14.75,22.21,22.21,0,0,1,8.8-9.71,26.09,26.09,0,0,1,13.46-3.37m0-5a31.08,31.08,0,0,0-16,4.06,27.18,27.18,0,0,0-10.77,11.85,38.44,38.44,0,0,0-3.56,16.92c0,10.12,2.51,18.12,7.47,23.8,5.13,5.87,12.46,8.85,21.78,8.85a43.4,43.4,0,0,0,16.76-3.15l3.08-1.28v-20l-6.66,2.34a38.12,38.12,0,0,1-12.11,2.56c-3,0-8.55,0-8.55-13.05,0-4.68.87-8.24,2.59-10.59a6.68,6.68,0,0,1,6-2.8,13.39,13.39,0,0,1,4.37.79,54.47,54.47,0,0,1,5.59,2.31l4.83,2.29,2-5L158,127.9l1.72-4.34-4.21-2a41.43,41.43,0,0,0-18-4.29Z"/><path class="cls-7" d="M160.27,179.51v-59h19.3c8.21,0,14.1,1.19,18,3.65,4.22,2.66,6.36,6.87,6.36,12.51a15.54,15.54,0,0,1-2.76,9.41,12,12,0,0,1-2.12,2.26,12.05,12.05,0,0,1,3.5,3.18,16.43,16.43,0,0,1,2.74,9.81c0,5.72-2.12,10.26-6.3,13.5-4,3.09-9.38,4.66-16,4.66Zm21.41-14.46c2.51,0,4.38-.43,5.41-1.25.32-.26,1.32-1.06,1.32-3.59,0-1.37,0-4.22-7.1-4.22h-4.59v9.06Zm-.82-23.14c3.37,0,4.78-.63,5.32-1,.28-.19,1-.7,1-2.71,0-1.47-.53-2-1.05-2.29-.77-.46-2.41-1-5.9-1h-3.52v7Z"/><path class="cls-2" d="M179.57,123q11.49,0,16.67,3.27t5.19,10.39a13.12,13.12,0,0,1-2.27,7.94,9.09,9.09,0,0,1-6,3.73v.37q5.13,1.14,7.4,4.28a13.87,13.87,0,0,1,2.27,8.34q0,7.4-5.33,11.52T183,177h-20.2V123h16.8m-5.35,21.38h6.64q4.65,0,6.74-1.44t2.09-4.77a4.76,4.76,0,0,0-2.27-4.44q-2.28-1.35-7.18-1.35h-6v12m0,23.14h7.46q4.73,0,7-1.8a6.7,6.7,0,0,0,2.26-5.54q0-6.72-9.6-6.72h-7.09v14.06M179.57,118h-21.8v64H183c7.21,0,13.11-1.75,17.55-5.19a20.56,20.56,0,0,0,4-26.74,13.93,13.93,0,0,0-1.76-2c.13-.16.26-.33.38-.5a18,18,0,0,0,3.24-10.89c0-8.17-4.09-12.46-7.52-14.62-4.32-2.72-10.64-4-19.34-4Zm-.35,19.38h1a12,12,0,0,1,4.44.56c0,.06,0,.14,0,.23a3.1,3.1,0,0,1-.07.72,9.9,9.9,0,0,1-3.76.49h-1.64v-2Zm0,21.08h2.09c3,0,4.07.59,4.33.77s.27.19.27,1c0,.31,0,1.35-.39,1.64-.09.07-1,.7-3.84.7h-2.46v-4.06Z"/><path class="cls-7" d="M242.61,179.51l-12.89-20.72h-2.2v20.72H211.07v-59H229.3c8,0,13.79,1.48,17.79,4.51,4.16,3.16,6.27,7.92,6.27,14.16a16.82,16.82,0,0,1-3.08,9.92,19.1,19.1,0,0,1-5.82,5.31c7.19,10.73,12,17.85,14.29,21.15l2.72,3.93Zm-13.9-35c3.83,0,5.69-.74,6.58-1.36.65-.45,1.52-1.33,1.52-3.63s-.78-2.92-1.45-3.34c-.93-.57-2.88-1.25-6.87-1.25h-1v9.58Z"/><path class="cls-2" d="M229.3,123q11,0,16.28,4t5.28,12.16a14.28,14.28,0,0,1-2.62,8.47,17.29,17.29,0,0,1-7.42,5.82Q253,171.69,256.7,177H244l-12.89-20.72H225V177H213.57V123H229.3M225,147h3.69q5.43,0,8-1.81c1.73-1.2,2.59-3.1,2.59-5.68s-.88-4.38-2.64-5.47-4.49-1.62-8.18-1.62H225V147m4.28-29H208.57v64H230V164l9.73,15.64,1.47,2.36h25l-5.45-7.86c-2.13-3.07-6.46-9.47-12.88-19.05a20.79,20.79,0,0,0,4.4-4.54,19.28,19.28,0,0,0,3.54-11.36c0-7.06-2.44-12.49-7.25-16.15-4.46-3.38-10.78-5-19.31-5ZM230,142v-4.51a9.09,9.09,0,0,1,4,.84c.24.15.26,1,.26,1.21,0,1.27-.33,1.5-.45,1.58-.27.19-1.26.73-3.84.88Z"/></g></svg>