<?xml version="1.0" encoding="utf-8"?>
<!-- Generator: Adobe Illustrator 24.0.2, SVG Export Plug-In . SVG Version: 6.00 Build 0)  -->
<svg version="1.1" id="Layer_1" xmlns="http://www.w3.org/2000/svg" xmlns:xlink="http://www.w3.org/1999/xlink" x="0px" y="0px"
	 viewBox="0 0 418 314" style="enable-background:new 0 0 418 314;" xml:space="preserve">
<style type="text/css">
	.st0{fill:none;stroke:#2C3D6C;stroke-width:12;stroke-miterlimit:10;}
	.st1{fill:none;stroke:#2C3D6C;stroke-width:5;stroke-miterlimit:10;}
	.st2{fill:none;stroke:#2C3D6C;stroke-width:20;stroke-miterlimit:10;}
	.st3{fill:none;stroke:#2C3D6C;stroke-width:8.48;stroke-miterlimit:10;}
	.st4{fill:none;stroke:#2C3D6C;stroke-width:5.2;stroke-miterlimit:10;}
	.st5{fill:none;stroke:#2C3D6C;stroke-width:7.71;stroke-miterlimit:10;}
	.st6{fill:#2C3D6C;}
</style>
<title>ri</title>
<g id="Layer_1_1_">
	<circle class="st0" cx="209" cy="157" r="75.4"/>
	<path class="st1" d="M358.4,157C358.5,74.5,291.6,7.5,209,7.5c-82.5,0-149.5,66.9-149.5,149.4c0,42.6,18.1,83.1,49.9,111.5"/>
	<path class="st2" d="M332.5,196.3c21.7-68.2-16-141.2-84.3-162.9c-3.8-1.2-7.7-2.3-11.7-3.1"/>
	<path class="st2" d="M101.7,84.3C61.6,143.5,77,224.1,136.3,264.2c51.4,34.9,120.4,28.3,164.3-15.7"/>
	<path class="st3" d="M197,269.4c4,0.4,8,0.6,12,0.6c62.4,0,113-50.6,113-113"/>
	<path class="st3" d="M313.9,115c-23.2-57.9-89-86.1-146.9-62.9C124.1,69.3,96,110.8,96,157c0,1.9,0,3.8,0.1,5.7"/>
	<path class="st4" d="M228.7,65.4c-50.6-10.9-100.4,21.3-111.2,71.9s21.3,100.4,71.9,111.2s100.4-21.3,111.2-71.9
		c1.3-6.1,2-12.3,2.1-18.5"/>
	<path class="st5" d="M198.6,259.3c3.4,0.3,6.9,0.5,10.4,0.5c56.8,0,102.8-46,102.8-102.8c0-31.4-14.4-61.1-39-80.6"/>
	<path class="st5" d="M185.7,56.9C130.4,69.8,96,125,108.9,180.3c4.2,18.1,13.2,34.6,26.1,48"/>
	<circle class="st6" cx="209" cy="157" r="66.2"/>
</g>
</svg>
