<?xml version="1.0" encoding="utf-8"?>
<!-- Generator: Adobe Illustrator 21.1.0, SVG Export Plug-In . SVG Version: 6.00 Build 0)  -->
<svg version="1.1" id="Layer_1" xmlns="http://www.w3.org/2000/svg" xmlns:xlink="http://www.w3.org/1999/xlink" x="0px" y="0px"
	 viewBox="0 0 423.3 315" style="enable-background:new 0 0 423.3 315;" xml:space="preserve">
<style type="text/css">
	.st0{fill:none;stroke:#2C3D6C;stroke-width:12;stroke-miterlimit:10;}
	.st1{fill:none;stroke:#2C3D6C;stroke-width:5;stroke-miterlimit:10;}
	.st2{fill:none;stroke:#2C3D6C;stroke-width:20;stroke-miterlimit:10;}
	.st3{fill:none;stroke:#2C3D6C;stroke-width:8.48;stroke-miterlimit:10;}
	.st4{fill:none;stroke:#2C3D6C;stroke-width:5.2;stroke-miterlimit:10;}
	.st5{fill:none;stroke:#2C3D6C;stroke-width:7.71;stroke-miterlimit:10;}
	.st6{fill:#2C3D6C;}
	.st7{enable-background:new    ;}
	.st8{fill:#FFFFFF;}
</style>
<title>ri</title>
<g id="Layer_2">
	<circle class="st0" cx="225.3" cy="158" r="75.4"/>
	<path class="st1" d="M374.8,158c0-82.5-66.9-149.5-149.4-149.5c-82.5,0-149.5,66.9-149.5,149.4c0,42.6,18.1,83.1,49.9,111.5"/>
	<path class="st2" d="M348.8,197.3c21.7-68.2-16-141.2-84.3-162.9c-3.8-1.2-7.7-2.3-11.7-3.1"/>
	<path class="st2" d="M118.1,85.3c-40.1,59.2-24.7,139.8,34.6,179.9c51.4,34.9,120.4,28.3,164.3-15.7"/>
	<path class="st3" d="M213.4,270.4c4,0.4,8,0.6,12,0.6c62.4,0,113-50.6,113-113v0"/>
	<path class="st3" d="M330.2,116c-23.2-57.9-89-86.1-146.9-62.9c-42.9,17.2-71,58.7-71,104.9c0,1.9,0,3.8,0.1,5.7"/>
	<path class="st4" d="M245,66.4c-50.6-10.9-100.4,21.3-111.2,71.9s21.3,100.4,71.9,111.2c50.6,10.9,100.4-21.3,111.2-71.9
		c1.3-6.1,2-12.3,2.1-18.5"/>
	<path class="st5" d="M215,260.3c3.4,0.3,6.9,0.5,10.4,0.5c56.8,0,102.8-46,102.8-102.8c0-31.4-14.4-61.1-39-80.6"/>
	<path class="st5" d="M202,57.9c-55.3,12.9-89.7,68.2-76.8,123.4c4.2,18.1,13.2,34.6,26.1,48"/>
	<circle class="st6" cx="225.3" cy="158" r="66.2"/>
	<g class="st7">
		<path class="st8" d="M169.8,173.4v-30.7h6.1l7.3,21.7c0.7,2,1.2,3.5,1.5,4.5c0.3-1.1,0.9-2.8,1.6-4.9l7.3-21.4h5.5v30.7h-3.9
			v-25.7l-8.9,25.7h-3.7l-8.9-26.1v26.1H169.8z"/>
		<path class="st8" d="M225,162.6l4.1,1c-0.9,3.3-2.4,5.9-4.6,7.6s-4.9,2.6-8.1,2.6c-3.3,0-6-0.7-8.1-2c-2.1-1.3-3.6-3.3-4.7-5.9
			s-1.6-5.3-1.6-8.2c0-3.2,0.6-6,1.8-8.4c1.2-2.4,3-4.2,5.2-5.4c2.3-1.2,4.7-1.9,7.4-1.9c3.1,0,5.7,0.8,7.7,2.3
			c2.1,1.6,3.6,3.8,4.4,6.6l-4,0.9c-0.7-2.2-1.7-3.9-3.1-4.9c-1.4-1-3.1-1.5-5.1-1.5c-2.4,0-4.3,0.6-5.9,1.7
			c-1.6,1.1-2.7,2.6-3.3,4.6c-0.6,1.9-1,3.9-1,5.9c0,2.6,0.4,4.9,1.1,6.8c0.8,1.9,1.9,3.4,3.5,4.4c1.6,1,3.3,1.4,5.2,1.4
			c2.3,0,4.2-0.7,5.8-2S224.5,165.2,225,162.6z"/>
		<path class="st8" d="M231.4,173.4v-30.7h11.5c2.3,0,4.2,0.3,5.6,0.9c1.4,0.6,2.5,1.6,3.3,2.9c0.8,1.3,1.2,2.6,1.2,4
			c0,1.3-0.4,2.5-1.1,3.7c-0.7,1.2-1.8,2.1-3.2,2.8c1.9,0.5,3.3,1.5,4.3,2.8c1,1.3,1.5,2.9,1.5,4.6c0,1.4-0.3,2.8-0.9,4
			c-0.6,1.2-1.4,2.2-2.3,2.9c-0.9,0.7-2,1.2-3.4,1.5s-3,0.5-5,0.5H231.4z M235.5,155.6h6.6c1.8,0,3.1-0.1,3.9-0.4
			c1-0.3,1.8-0.8,2.3-1.5s0.8-1.6,0.8-2.7c0-1-0.2-1.9-0.7-2.7c-0.5-0.8-1.2-1.3-2.1-1.6s-2.5-0.4-4.7-0.4h-6.1V155.6z M235.5,169.8
			h7.6c1.3,0,2.2,0,2.8-0.1c0.9-0.2,1.7-0.4,2.3-0.8c0.6-0.4,1.1-1,1.5-1.7c0.4-0.7,0.6-1.6,0.6-2.6c0-1.1-0.3-2.1-0.9-3
			c-0.6-0.8-1.4-1.4-2.4-1.8s-2.5-0.5-4.5-0.5h-7.1V169.8z"/>
		<path class="st8" d="M257.7,173.4v-30.7h13.6c2.7,0,4.8,0.3,6.2,0.8c1.4,0.6,2.6,1.5,3.4,2.9c0.9,1.4,1.3,2.9,1.3,4.6
			c0,2.2-0.7,4-2.1,5.5c-1.4,1.5-3.6,2.4-6.5,2.8c1.1,0.5,1.9,1,2.4,1.5c1.2,1.1,2.3,2.4,3.4,4.1l5.3,8.4h-5.1l-4.1-6.4
			c-1.2-1.8-2.2-3.3-2.9-4.2c-0.8-1-1.5-1.7-2.1-2.1c-0.6-0.4-1.2-0.7-1.9-0.8c-0.5-0.1-1.2-0.1-2.3-0.1h-4.7v13.6H257.7z
			 M261.8,156.2h8.7c1.9,0,3.3-0.2,4.4-0.6c1-0.4,1.8-1,2.4-1.8c0.5-0.8,0.8-1.8,0.8-2.8c0-1.5-0.5-2.6-1.6-3.6s-2.7-1.4-5-1.4h-9.7
			V156.2z"/>
	</g>
</g>
</svg>
