<svg xmlns="http://www.w3.org/2000/svg" viewBox="0 0 423.34 315"><defs><style>.cls-1,.cls-2,.cls-3,.cls-4,.cls-5,.cls-6{fill:none;stroke:#2c3d6c;stroke-miterlimit:10;}.cls-1{stroke-width:12px;}.cls-2{stroke-width:5px;}.cls-3{stroke-width:20px;}.cls-4{stroke-width:8.48px;}.cls-5{stroke-width:5.2px;}.cls-6{stroke-width:7.71px;}.cls-7{fill:#2c3d6c;}.cls-8{font-size:42.87px;fill:#fff;font-family:OpenSans-Bold, Open Sans;font-weight:700;letter-spacing:-0.06em;}.cls-9{letter-spacing:-0.07em;}.cls-10{letter-spacing:-0.06em;}.cls-11{letter-spacing:-0.05em;}</style></defs><title>ri</title><g id="Layer_2" data-name="Layer 2"><circle class="cls-1" cx="225.34" cy="158" r="75.42"/><path class="cls-2" d="M374.78,158a149.44,149.44,0,1,0-249,111.41"/><path class="cls-3" d="M348.81,197.34a129.67,129.67,0,0,0-95.94-166"/><path class="cls-3" d="M118.07,85.33A129.56,129.56,0,0,0,316.95,249.61"/><path class="cls-4" d="M213.39,270.36a114.25,114.25,0,0,0,12,.63,113,113,0,0,0,113-113"/><path class="cls-4" d="M330.24,116a113,113,0,0,0-217.9,42q0,2.85.14,5.66"/><path class="cls-5" d="M245,66.42a93.66,93.66,0,1,0,74,92.69"/><path class="cls-6" d="M215,260.26q5.12.51,10.37.52A102.78,102.78,0,0,0,289.08,77.37"/><path class="cls-6" d="M202,57.87A102.79,102.79,0,0,0,151.32,229.3"/><circle class="cls-7" cx="225.34" cy="158" r="66.22"/><text class="cls-8" transform="translate(166.65 173.39)">M<tspan class="cls-9" x="37.69" y="0">C</tspan><tspan class="cls-10" x="62.16" y="0">B</tspan><tspan class="cls-11" x="88.36" y="0">R</tspan></text></g></svg>