<svg id="Layer_1" data-name="Layer 1" xmlns="http://www.w3.org/2000/svg" viewBox="0 0 418 314"><defs><style>.cls-1,.cls-2,.cls-3,.cls-4,.cls-5,.cls-6{fill:none;stroke:#2c3d6c;stroke-miterlimit:10;}.cls-1{stroke-width:12px;}.cls-2{stroke-width:5px;}.cls-3{stroke-width:20px;}.cls-4{stroke-width:8.48px;}.cls-5{stroke-width:5.2px;}.cls-6{stroke-width:7.71px;}.cls-7{fill:#2c3d6c;}.cls-8{isolation:isolate;}.cls-9{fill:#fff;}</style></defs><title>ri_mcbrCore</title><g id="Layer_1-2" data-name="Layer 1"><circle class="cls-1" cx="209" cy="157" r="75.4"/><path class="cls-2" d="M358.4,157A149.37,149.37,0,0,0,209,7.5C126.5,7.5,59.5,74.4,59.5,156.9a149.36,149.36,0,0,0,49.9,111.5"/><path class="cls-3" d="M332.5,196.3A129.7,129.7,0,0,0,248.2,33.4a111.6,111.6,0,0,0-11.7-3.1"/><path class="cls-3" d="M101.7,84.3A129.54,129.54,0,0,0,300.6,248.5"/><path class="cls-4" d="M197,269.4q6,.6,12,.6A113,113,0,0,0,322,157"/><path class="cls-4" d="M313.9,115A113,113,0,0,0,96,157c0,1.9,0,3.8.1,5.7"/><path class="cls-5" d="M228.7,65.4a93.64,93.64,0,1,0,71.9,111.2,96.23,96.23,0,0,0,2.1-18.5"/><path class="cls-6" d="M198.6,259.3c3.4.3,6.9.5,10.4.5A102.8,102.8,0,0,0,272.8,76.4"/><path class="cls-6" d="M185.7,56.9A102.75,102.75,0,0,0,135,228.3"/><circle class="cls-7" cx="209" cy="157" r="66.2"/></g><g id="Layer_2" data-name="Layer 2"><g class="cls-8"><path class="cls-9" d="M153.4,172.4V141.7h6.1l7.3,21.7q1,3,1.5,4.5c.3-1.1.9-2.8,1.6-4.9l7.3-21.4h5.5v30.7h-3.9V146.6l-8.9,25.7h-3.7l-8.9-26.1v26.1l-3.9.1Z"/><path class="cls-9" d="M208.6,161.6l4.1,1a13.88,13.88,0,0,1-4.6,7.6,12.88,12.88,0,0,1-8.1,2.6,15.18,15.18,0,0,1-8.1-2,12.19,12.19,0,0,1-4.7-5.9,20.67,20.67,0,0,1-1.6-8.2,18.56,18.56,0,0,1,1.8-8.4,12.35,12.35,0,0,1,5.2-5.4A15.66,15.66,0,0,1,200,141a12.58,12.58,0,0,1,7.7,2.3,12.32,12.32,0,0,1,4.4,6.6l-4,.9a9.26,9.26,0,0,0-3.1-4.9,8.54,8.54,0,0,0-5.1-1.5,10,10,0,0,0-5.9,1.7,8.24,8.24,0,0,0-3.3,4.6,19.7,19.7,0,0,0,.1,12.7,9.1,9.1,0,0,0,3.5,4.4,9.46,9.46,0,0,0,5.2,1.4,8.88,8.88,0,0,0,5.8-2A9,9,0,0,0,208.6,161.6Z"/><path class="cls-9" d="M215,172.4V141.7h11.5a14.57,14.57,0,0,1,5.6.9,7.15,7.15,0,0,1,3.3,2.9,7.46,7.46,0,0,1,1.2,4,7.23,7.23,0,0,1-1.1,3.7,7.35,7.35,0,0,1-3.2,2.8,7.76,7.76,0,0,1,4.3,2.8,7.46,7.46,0,0,1,1.5,4.6,9,9,0,0,1-.9,4,8.46,8.46,0,0,1-2.3,2.9,8.19,8.19,0,0,1-3.4,1.5,23.4,23.4,0,0,1-5,.5H215Zm4.1-17.8h6.6a12.44,12.44,0,0,0,3.9-.4,4.23,4.23,0,0,0,2.3-1.5,4.55,4.55,0,0,0,.8-2.7,5,5,0,0,0-.7-2.7,3.75,3.75,0,0,0-2.1-1.6,17.47,17.47,0,0,0-4.7-.4h-6.1Zm0,14.2h7.6a20.24,20.24,0,0,0,2.8-.1,6.9,6.9,0,0,0,2.3-.8,5,5,0,0,0,1.5-1.7,5.66,5.66,0,0,0-.3-5.6,5.46,5.46,0,0,0-2.4-1.8,13.22,13.22,0,0,0-4.5-.5H219l.1,10.5Z"/><path class="cls-9" d="M241.3,172.4V141.7h13.6a19.37,19.37,0,0,1,6.2.8,6.86,6.86,0,0,1,3.4,2.9,8.21,8.21,0,0,1,1.3,4.6,7.71,7.71,0,0,1-2.1,5.5c-1.4,1.5-3.6,2.4-6.5,2.8a8.31,8.31,0,0,1,2.4,1.5,20.58,20.58,0,0,1,3.4,4.1l5.3,8.4h-5.1l-4.1-6.4c-1.2-1.8-2.2-3.3-2.9-4.2a10.24,10.24,0,0,0-2.1-2.1,4.55,4.55,0,0,0-1.9-.8,13.52,13.52,0,0,0-2.3-.1h-4.7v13.6l-3.9.1Zm4.1-17.2h8.7a12.93,12.93,0,0,0,4.4-.6,5.46,5.46,0,0,0,2.4-1.8,5.38,5.38,0,0,0,.8-2.8,4.51,4.51,0,0,0-1.6-3.6c-1.1-1-2.7-1.4-5-1.4h-9.7v10.2Z"/></g></g></svg>