<?xml version="1.0" encoding="utf-8"?>
<!-- Generator: Adobe Illustrator 24.0.2, SVG Export Plug-In . SVG Version: 6.00 Build 0)  -->
<svg version="1.1" xmlns="http://www.w3.org/2000/svg" xmlns:xlink="http://www.w3.org/1999/xlink" x="0px" y="0px"
	 viewBox="0 0 418 314" style="enable-background:new 0 0 418 314;" xml:space="preserve">
<style type="text/css">
	.st0{display:none;opacity:0.43;}
	.st1{display:inline;}
	.st2{fill:#2C3D6C;}
	.st3{fill:#FFFFFF;}
	.st4{fill:none;stroke:#2C3D6C;stroke-linecap:round;stroke-linejoin:round;}
	.st5{fill:#FFFFFF;stroke:#2C3D6C;stroke-width:1.12;stroke-miterlimit:10;}
	.st6{fill:none;stroke:#2C3D6C;stroke-width:1.12;stroke-miterlimit:10;}
	.st7{fill:none;stroke:#2C3D6C;stroke-width:0.85;stroke-miterlimit:10;}
	.st8{fill:none;stroke:#2C3D6C;stroke-width:3;stroke-miterlimit:10;}
	.st9{clip-path:url(#SVGID_2_);fill:none;stroke:#2C3D6C;stroke-width:3;stroke-miterlimit:10;}
	.st10{fill:#FFFFFF;stroke:#2C3D6C;stroke-width:3;stroke-miterlimit:10;}
	.st11{fill:none;stroke:#FFFFFF;stroke-width:3;stroke-miterlimit:10;}
</style>
<g id="Layer_1" class="st0">
	<title>ri_pi2</title>
	<g id="Layer_3" class="st1">
		<path class="st2" d="M82.1,32.9h256.6c16.4,0,29.7,13.3,29.7,29.7v196.3c0,16.4-13.3,29.7-29.7,29.7H82.1
			c-16.4,0-29.7-13.3-29.7-29.7V62.6C52.5,46.2,65.7,32.9,82.1,32.9z"/>
		<path class="st3" d="M211.7,128c-23,0-24.6,8.5-35.5,15.3c-9,5.6-21.5,12.4-39.1,20.6c-4,2.6-6.5,7.2-6.7,10.9l-8.6,109h183.6
			l-12.3-109c-0.2-3.7-2.8-8.3-6.7-10.9c-15.7-5.9-30.1-15-39.1-20.6C236.3,136.6,233.7,128,211.7,128"/>
		<path class="st2" d="M234.1,168.9c2.5-0.8,5-1.6,7.6-2.3c2.9-0.8,5.8-1.6,8.7-2.3l-1,0.9l6.6-21.2l0.7,3.3l0,0
			c-1.5-1.4-3-2.7-4.7-3.9c-1.6-1.2-3.4-2.4-5.1-3.5c-1.7-1.1-3.6-2-5.4-2.8c-0.9-0.4-1.8-0.7-2.7-0.9c-0.4-0.1-0.9-0.2-1.3-0.3
			h-0.7l1.5-1.8l-26.1,87.4l0.5,1.4l-0.4-0.1l30.7-40.3l0,0l0.2,1.1c-1.5-2.5-2.9-4.9-4.3-7.3s-2.7-4.6-4.1-6.7L234.1,168.9z
			 M235.2,170.4c1.6,2,3.2,4,4.8,5.8l5.1,6l0.4,0.4l-0.2,0.6l0,0L212.6,223l-0.4-0.1l-0.5-1.4l21.6-89.5h0.6l1.3-0.4l0,0l0.3-0.1
			h0.2l0.3-0.1h0.6c0.4,0,0.7,0,1.1,0c0.6,0,1.3,0.1,1.9,0.3c1.2,0.3,2.3,0.6,3.5,1c2.2,0.8,4.2,1.7,6.3,2.8c2,1,3.9,2.2,5.8,3.5
			c1.9,1.3,3.7,2.7,5.5,4.1l0,0l1.5,1.6l-0.8,1.7l-9.4,20.1l-0.3,0.7l-0.7,0.2c-2.5,0.6-4.9,1.2-7.4,1.7s-5,0.9-7.6,1.4L235.2,170.4
			z"/>
		<path class="st2" d="M186.8,170.4l-0.9-0.2c-2.6-0.5-5.1-0.9-7.6-1.4s-4.9-1.1-7.4-1.7l-0.7-0.2l-0.3-0.7l-9.4-20.1l-0.8-1.7
			l1.5-1.6l0,0c1.7-1.5,3.6-2.9,5.5-4.1c1.9-1.3,3.8-2.4,5.8-3.5c2-1.1,4.1-2,6.3-2.8c1.1-0.4,2.3-0.7,3.5-1
			c0.6-0.1,1.3-0.2,1.9-0.3c0.4,0,0.7,0,1.1,0h0.6h0.3h0.2l0.3,0.1l0,0l1.3,0.4l0.2,1.4l26.2,95l0,0l-0.4,0.1l-37.3-45l0,0l-0.2-0.7
			l0.4-0.4l5.1-6C183.6,174.4,185.2,172.4,186.8,170.4z M187.9,168.9l-0.5,0.8c-1.4,2.1-2.7,4.4-4.1,6.7s-2.8,4.8-4.3,7.3l0.2-1.1
			l0,0l35.2,45.7l-0.4,0.1l0,0l-30.2-94.4l1.5,1.8h-0.7c-0.4,0.1-0.9,0.1-1.3,0.3c-0.9,0.2-1.8,0.6-2.7,0.9
			c-1.9,0.8-3.7,1.7-5.4,2.8c-1.8,1.1-3.5,2.2-5.1,3.5c-1.6,1.2-3.2,2.5-4.7,3.9l0.7-3.2l6.6,21.2l-1-0.9c2.9,0.7,5.8,1.4,8.7,2.3
			C182.8,167.4,185.4,168.2,187.9,168.9L187.9,168.9z"/>
		<path class="st2" d="M188.8,140.3c0.9,1.4,1.9,2.8,2.9,4.2l3.2,4.3c2.2,2.9,4.4,6,6.6,9.1l0.2,0.3l-0.1,0.4
			c-0.4,2.1-0.7,4.2-1.1,6.4l-1.2,6.4l-0.8,4l-1.2-3.9c-0.8-2.6-1.6-5.3-2.4-8s-1.5-5.4-2.1-8l-2-7.7
			C190.2,145.2,189.4,142.7,188.8,140.3z M188.8,140.3c0.9,2.8,1.8,5.4,2.7,8l2.8,7.6c0.9,2.5,1.8,4.9,2.6,7.4s1.6,4.9,2.4,7.4
			l-1.9,0.1l1.2-6.3c0.4-2.1,0.9-4.2,1.3-6.3l0.1,0.6c-1.9-2.9-3.6-5.9-5.4-9c-0.9-1.5-1.8-3.1-2.8-4.8S189.8,141.9,188.8,140.3z"/>
		<path class="st2" d="M234.1,140.3c-1.1,1.6-2.1,3.2-3,4.8c-1,1.6-1.9,3.2-2.8,4.8c-1.8,3.1-3.5,6-5.4,9l0.1-0.6
			c0.4,2.1,0.9,4.2,1.3,6.3l1.2,6.3l-1.9-0.1c0.8-2.5,1.6-5,2.4-7.4s1.7-4.9,2.6-7.4l2.8-7.6C232.3,145.7,233.2,143.1,234.1,140.3z
			 M234.1,140.3c-0.7,2.4-1.4,4.9-2.1,7.3l-2,7.7c-0.7,2.6-1.4,5.3-2.2,8s-1.6,5.3-2.4,8l-1.2,3.9l-0.8-4l-1.2-6.4
			c-0.4-2.1-0.8-4.2-1.1-6.4l-0.1-0.4l0.2-0.3c2.1-3.1,4.4-6.2,6.6-9.1l3.2-4.3C232.2,143.1,233.2,141.7,234.1,140.3z"/>
		<polyline class="st4" points="223.2,163.8 212.2,182.3 211.9,220.5 210.4,182.3 199.7,163.8 		"/>
		<path class="st2" d="M155.1,283.7c1.3-11.8,2.6-23.7,3.9-35.6c0.6-5.9,1.2-11.9,1.8-17.8c0.3-3,0.5-5.9,0.8-8.9
			c0.1-1.5,0.2-3,0.3-4.5l0.1-2.2v-2.3l0.1,2.3v2.3c0,1.5,0,3-0.1,4.5c-0.1,3-0.2,6-0.3,9c-0.2,6-0.5,12-0.8,17.9
			c-0.6,11.9-1.2,23.9-1.9,35.8L155.1,283.7z"/>
		<path class="st2" d="M161.2,243.9c-1.7,5-3.4,9.9-5.1,14.9c-0.9,2.5-1.8,4.9-2.7,7.4c-0.9,2.5-1.9,4.9-3,7.2l-0.2-0.2
			c1-2.4,1.9-4.8,2.6-7.3c0.8-2.5,1.5-5,2.3-7.5c1.5-5,2.9-10.1,4.3-15.2L161.2,243.9z"/>
		<path class="st2" d="M254.3,202.8c-1.1,0-2-0.9-2-2v-7c0-1.1,0.9-2,2-2s2,0.9,2,2v7C256.3,201.9,255.4,202.8,254.3,202.8z"/>
		<path class="st5" d="M235.6,200.8h25v27.5c0,1.3-1.1,2.4-2.4,2.4l0,0H238c-1.3,0-2.4-1.1-2.4-2.4l0,0l0,0L235.6,200.8L235.6,200.8
			z"/>
		<line class="st6" x1="235.6" y1="207.8" x2="260.6" y2="207.8"/>
		<line class="st7" x1="214.2" y1="228.1" x2="214.2" y2="288.7"/>
		<path class="st3" d="M248.6,104.6c-3.5,27-19.9,46.1-37.2,46.1c-17.7,0-33.3-19.7-37.2-46.1c-4-26.7,3.5-56.2,37.2-56.2
			C244.4,48.3,252.1,77.8,248.6,104.6z"/>
		<path class="st2" d="M248.8,104.6c-0.8,5.9-2.2,11.7-4.3,17.3c-2.1,5.6-4.9,10.9-8.6,15.6c-1.8,2.4-3.9,4.6-6.2,6.6
			c-2.3,2-4.8,3.7-7.6,5c-2.8,1.3-5.7,2.1-8.8,2.4c-3.1,0.3-6.2,0-9.1-0.9c-3-0.9-5.8-2.2-8.3-3.9c-2.6-1.7-4.9-3.7-7-5.9
			c-4.1-4.5-7.5-9.6-10-15.1c-2.5-5.5-4.4-11.3-5.6-17.2c-1.2-5.9-1.8-12-1.7-18c0-6.1,0.9-12.2,2.6-18c1.8-6,5-11.5,9.4-16
			c4.5-4.4,10.2-7.5,16.4-8.9c3-0.7,6.1-1.1,9.2-1.2c3.1-0.1,6.2,0.1,9.2,0.5c6.2,0.8,12.1,3.3,17.1,7.2c4.8,4,8.4,9.2,10.5,15
			c2.1,5.7,3.2,11.6,3.5,17.7C249.8,92.8,249.6,98.7,248.8,104.6z M248.4,104.6c0.3-2.9,0.6-5.9,0.6-8.8c0-3-0.1-5.9-0.4-8.8
			c-0.6-5.8-2.1-11.5-4.5-16.9c-4.6-10.7-14.6-18-26.1-19.2c-5.6-0.8-11.4-0.5-16.9,0.8c-5.5,1.2-10.5,3.8-14.6,7.7
			c-4,4-7,8.9-8.7,14.3c-1.8,5.5-2.7,11.2-2.8,17c-0.1,5.8,0.3,11.7,1.4,17.4c1,5.7,2.7,11.3,5.1,16.7c2.3,5.3,5.4,10.3,9.3,14.6
			c1.9,2.2,4.1,4.1,6.5,5.7c2.3,1.6,4.9,2.9,7.7,3.8c2.7,0.8,5.6,1.2,8.4,1c2.9-0.2,5.7-0.9,8.3-2.1c5.3-2.4,10-6,13.7-10.6
			c3.7-4.6,6.7-9.8,8.8-15.3C246.2,116.2,247.7,110.4,248.4,104.6L248.4,104.6z"/>
		<path class="st2" d="M265.8,284.1c-0.7-11.9-1.3-23.9-1.9-35.8c-0.3-6-0.5-12-0.8-17.9c-0.1-3-0.2-6-0.3-9c-0.1-1.5-0.1-3-0.1-4.5
			v-2.3l0.1-2.3v2.3l0.1,2.2c0.1,1.5,0.2,3,0.3,4.5c0.2,3,0.5,5.9,0.8,8.9c0.6,5.9,1.1,11.9,1.8,17.8c1.2,11.9,2.5,23.8,3.9,35.6
			L265.8,284.1z"/>
		<path class="st2" d="M265.4,243.1c1.4,5.1,2.8,10.1,4.3,15.2c0.7,2.5,1.5,5,2.3,7.5c0.7,2.5,1.6,4.9,2.6,7.3l-0.2,0.2
			c-1.2-2.3-2.2-4.7-3-7.2c-0.9-2.5-1.8-4.9-2.7-7.4c-1.7-4.9-3.4-9.9-5.1-14.9L265.4,243.1z"/>
	</g>
</g>
<g id="Layer_2">
	<path class="st2" d="M72.5,28.8h256.6c16.4,0,29.7,13.3,29.7,29.7v196.3c0,16.4-13.3,29.7-29.7,29.7H72.5
		c-16.4,0-29.7-13.3-29.7-29.7V58.5C42.8,42.1,56.1,28.8,72.5,28.8z"/>
	<g>
		<g>
			<path class="st3" d="M150.8,203.3c0-24.5-16.5-44.3-36.7-44.3s-36.7,19.9-36.7,44.3H150.8z"/>
			<polyline class="st8" points="114.1,220 114.1,200.2 99.2,158.8 89.6,162.8 95.1,176.4 100.3,177.1 100.3,182.9 114.1,200.2 			
				"/>
			<polyline class="st8" points="114.1,220 114.1,200.2 128.9,158.8 138.5,162.8 133,176.4 127.8,177.1 127.8,182.9 114.1,200.2 			
				"/>
			<polyline class="st8" points="120,158.8 114.1,195.7 108.1,158.8 			"/>
		</g>
		<g>
			<g>
				<path class="st3" d="M283.6,118.6c-5,0-9.1-3.7-9.1-8.3s4.1-8.3,9.1-8.3c5,0,9.1,3.7,9.1,8.3S288.6,118.6,283.6,118.6z"/>
				<path class="st2" d="M283.6,103.5c4.2,0,7.6,3,7.6,6.8s-3.4,6.8-7.6,6.8s-7.6-3-7.6-6.8S279.4,103.5,283.6,103.5 M283.6,100.5
					c-5.9,0-10.6,4.4-10.6,9.8s4.8,9.8,10.6,9.8s10.6-4.4,10.6-9.8S289.4,100.5,283.6,100.5L283.6,100.5z"/>
			</g>
			<ellipse class="st3" cx="284.1" cy="132.9" rx="20.1" ry="21.5"/>
			<g>
				<defs>
					<ellipse id="SVGID_1_" cx="284.1" cy="132.9" rx="20.1" ry="21.5"/>
				</defs>
				<clipPath id="SVGID_2_">
					<use xlink:href="#SVGID_1_"  style="overflow:visible;"/>
				</clipPath>
				<path class="st9" d="M281.8,111.4c-0.4,12.3-10.4,17.7-19.7,16.5"/>
				<path class="st9" d="M281.8,111.4c4,16.2,11.5,21,32,21.5"/>
			</g>
			<g>
				<path class="st2" d="M284.1,111.4c11.1,0,20.1,9.6,20.1,21.5s-9,21.5-20.1,21.5s-20.1-9.6-20.1-21.5S273,111.4,284.1,111.4
					 M284.1,108.4c-12.8,0-23.1,11-23.1,24.5s10.4,24.5,23.1,24.5s23.1-11,23.1-24.5S296.9,108.4,284.1,108.4L284.1,108.4z"/>
			</g>
		</g>
		<g>
			<path class="st3" d="M320.8,203.3c0-24.5-16.5-44.3-36.7-44.3s-36.7,19.9-36.7,44.3H320.8z"/>
			<polyline class="st8" points="284.1,220 284.1,200.2 269.2,158.8 259.7,162.8 265.2,176.4 270.4,177.1 270.4,182.9 284.1,200.2 
							"/>
			<polyline class="st8" points="284.1,220 284.1,200.2 299,158.8 308.6,162.8 303,176.4 297.8,177.1 297.8,182.9 284.1,200.2 			
				"/>
			<polyline class="st8" points="290.1,158.8 284.1,195.7 278.1,158.8 			"/>
		</g>
		<g>
			<ellipse class="st3" cx="199.1" cy="70.6" rx="26.5" ry="24.1"/>
			<path class="st2" d="M199.1,48c13.8,0,25,10.1,25,22.6c0,12.5-11.2,22.6-25,22.6c-13.8,0-25-10.1-25-22.6
				C174.1,58.1,185.3,48,199.1,48 M199.1,45c-15.4,0-28,11.5-28,25.6c0,14.1,12.5,25.6,28,25.6s28-11.5,28-25.6
				C227,56.5,214.5,45,199.1,45L199.1,45z"/>
		</g>
		<circle class="st3" cx="199.1" cy="68.8" r="14.6"/>
		<g>
			<ellipse class="st3" cx="199.1" cy="70.6" rx="26.5" ry="24.1"/>
			<path class="st2" d="M199.1,48c13.8,0,25,10.1,25,22.6c0,12.5-11.2,22.6-25,22.6c-13.8,0-25-10.1-25-22.6
				C174.1,58.1,185.3,48,199.1,48 M199.1,45c-15.4,0-28,11.5-28,25.6c0,14.1,12.5,25.6,28,25.6s28-11.5,28-25.6
				C227,56.5,214.5,45,199.1,45L199.1,45z"/>
		</g>
		<ellipse class="st3" cx="199.1" cy="69.4" rx="20.1" ry="21.5"/>
		<g>
			<defs>
				<ellipse id="SVGID_3_" cx="199.1" cy="69.4" rx="20.1" ry="21.5"/>
			</defs>
			<clipPath id="SVGID_4_">
				<use xlink:href="#SVGID_3_"  style="overflow:visible;"/>
			</clipPath>
		</g>
		<g>
			<g>
				<path class="st2" d="M199.1,47.8c11.1,0,20.1,9.6,20.1,21.5s-9,21.5-20.1,21.5c-11.1,0-20.1-9.6-20.1-21.5S188,47.8,199.1,47.8
					 M199.1,44.8c-12.8,0-23.1,11-23.1,24.5c0,13.5,10.4,24.5,23.1,24.5s23.1-11,23.1-24.5C222.2,55.8,211.8,44.8,199.1,44.8
					L199.1,44.8z"/>
			</g>
		</g>
		<g>
			<path class="st3" d="M235.8,139.8c0-24.5-16.5-44.3-36.7-44.3s-36.7,19.9-36.7,44.3H235.8z"/>
			<polyline class="st8" points="199.1,156.4 199.1,136.7 184.2,95.3 174.6,99.3 180.2,112.8 185.4,113.5 185.4,119.4 199.1,136.7 
							"/>
			<polyline class="st8" points="199.1,156.4 199.1,136.7 214,95.3 223.5,99.3 218,112.8 212.8,113.5 212.8,119.4 199.1,136.7 			
				"/>
			<polyline class="st8" points="205.1,95.3 199.1,132.1 193.1,95.3 			"/>
		</g>
		<path class="st10" d="M203.9,44.2c4,2.6-2.5,12.1-10.2,17.4c-7,4.7-15.9,6.8-19.3,4c-3.3-2.8,1.7-10,6.8-14.2
			C187.9,45.8,199.9,41.6,203.9,44.2z"/>
		<path class="st10" d="M195.8,54.2c1.4,2.3,5.2,0.8,9.7,1.7c10.8,2.3,14.7,16.5,17.7,15.4c1.8-0.7,1.5-5.9,0.8-9.1
			c-1.5-6.3-3.5-9.9-7.4-12.9c-3.5-2.7-8.2-3.4-8.7-3.5c-1.2-0.3-6.8-1.9-10.2,1.5C195.9,49.1,194.6,52.3,195.8,54.2z"/>
		<g>
			<circle class="st3" cx="114.1" cy="132.3" r="14.6"/>
			<ellipse class="st3" cx="114.1" cy="132.9" rx="20.1" ry="21.5"/>
			<g>
				<defs>
					<ellipse id="SVGID_5_" cx="114.1" cy="132.9" rx="20.1" ry="21.5"/>
				</defs>
				<clipPath id="SVGID_6_">
					<use xlink:href="#SVGID_5_"  style="overflow:visible;"/>
				</clipPath>
			</g>
			<g>
				<path class="st2" d="M114.1,111.4c11.1,0,20.1,9.6,20.1,21.5s-9,21.5-20.1,21.5c-11.1,0-20.1-9.6-20.1-21.5
					S102.9,111.4,114.1,111.4 M114.1,108.4c-12.8,0-23.1,11-23.1,24.5s10.4,24.5,23.1,24.5s23.1-11,23.1-24.5
					S126.8,108.4,114.1,108.4L114.1,108.4z"/>
			</g>
			<path class="st8" d="M120,109.9c1.1,3.6,3.4,9.6,8.7,15.4c3.3,3.6,7.6,9.1,10.3,10.6"/>
			<path class="st8" d="M81.2,125.4c0.5,2.2,21,3.1,24.9-2.4c5.8-8.2,16.3-4.7,17.1-5.5"/>
		</g>
		<g>
			<circle class="st3" cx="112.9" cy="132.3" r="14.6"/>
			<ellipse class="st3" cx="112.9" cy="132.9" rx="20.1" ry="21.5"/>
			<g>
				<defs>
					<ellipse id="SVGID_7_" cx="112.9" cy="132.9" rx="20.1" ry="21.5"/>
				</defs>
				<clipPath id="SVGID_8_">
					<use xlink:href="#SVGID_7_"  style="overflow:visible;"/>
				</clipPath>
			</g>
			<g>
				<path class="st2" d="M112.9,111.4c11.1,0,20.1,9.6,20.1,21.5s-9,21.5-20.1,21.5c-11.1,0-20.1-9.6-20.1-21.5
					S101.8,111.4,112.9,111.4 M112.9,108.4c-12.8,0-23.1,11-23.1,24.5s10.4,24.5,23.1,24.5c12.8,0,23.1-11,23.1-24.5
					S125.7,108.4,112.9,108.4L112.9,108.4z"/>
			</g>
			<path class="st8" d="M118.9,109.9c1.1,3.6,3.4,9.6,8.7,15.4c3.3,3.6,7.6,9.1,10.3,10.6"/>
			<path class="st8" d="M80.1,125.4c0.5,2.2,21,3.1,24.9-2.4c5.8-8.2,16.3-4.7,17.1-5.5"/>
		</g>
	</g>
	<g>
		<g>
			<path class="st3" d="M154,274.4c-3.6,0-6.8-1.9-8.6-5.1c-1.8-3.2-1.7-6.9,0.2-10l30.3-48.9v-68.8c-3.5-1.3-5.9-4.6-5.9-8.4
				c0-4.9,4-8.9,8.9-8.9h40.2c4.9,0,8.9,4,8.9,8.9c0,3.8-2.4,7.2-5.9,8.4v68.8l30.3,48.9c1.9,3.1,2,6.8,0.2,10s-5,5.1-8.6,5.1H154z
				 M179,130.3c-1.6,0-2.9,1.3-2.9,2.9s1.3,2.9,2.9,2.9h3v76l-31.2,50.3c-0.7,1.2-0.8,2.7-0.1,3.9s1.9,2,3.4,2h90.1
				c1.4,0,2.7-0.7,3.4-2s0.7-2.7-0.1-3.9l-31.2-50.3v-76h3c1.6,0,2.9-1.3,2.9-2.9s-1.3-2.9-2.9-2.9H179z"/>
			<path class="st2" d="M219.2,125.8c4.1,0,7.4,3.3,7.4,7.4c0,3.6-2.6,6.6-5.9,7.3v70.4l30.5,49.3c1.6,2.6,1.7,5.8,0.2,8.5
				c-1.5,2.7-4.2,4.3-7.3,4.3H154c-3.1,0-5.8-1.6-7.3-4.3c-1.5-2.7-1.4-5.8,0.2-8.5l30.5-49.3v-70.4c-3.4-0.7-5.9-3.7-5.9-7.3
				c0-4.1,3.3-7.4,7.4-7.4H219.2 M179,137.7h1.5v74.1l-0.2,0.4l-30.8,49.6c-1,1.7-1.1,3.7-0.1,5.4c1,1.7,2.7,2.7,4.7,2.7h90.1
				c2,0,3.7-1,4.7-2.7c1-1.7,0.9-3.7-0.1-5.4h0l-31-50v-74.1h1.5c2.4,0,4.4-2,4.4-4.4c0-2.4-2-4.4-4.4-4.4H179c-2.4,0-4.4,2-4.4,4.4
				C174.5,135.7,176.5,137.7,179,137.7 M219.2,122.8H179c-5.8,0-10.4,4.7-10.4,10.4c0,4.1,2.4,7.7,5.9,9.4v67.4l-30.1,48.5
				c-2.2,3.5-2.3,7.8-0.3,11.5c2,3.6,5.7,5.8,9.9,5.8h90.1c4.2,0,7.9-2.2,9.9-5.8c2-3.6,1.9-7.9-0.3-11.5l-30.1-48.5v-67.4
				c3.6-1.7,5.9-5.3,5.9-9.4C229.6,127.5,225,122.8,219.2,122.8L219.2,122.8z M179,134.7c-0.8,0-1.4-0.6-1.4-1.4s0.6-1.4,1.4-1.4
				h40.2c0.8,0,1.4,0.6,1.4,1.4s-0.6,1.4-1.4,1.4h-1.5h-3v3v74.1v0.9l0.5,0.7l31,50c0.5,0.7,0.5,1.6,0.1,2.4c-0.4,0.8-1.2,1.2-2,1.2
				H154c-0.9,0-1.6-0.4-2-1.2c-0.4-0.8-0.4-1.6,0.1-2.4l30.8-49.6l0.2-0.4l0.5-0.7v-0.9v-74.1v-3h-3H179L179,134.7z"/>
		</g>
		<path class="st11" d="M250,261l-30.8-49.6v-72.1c3.3,0,5.9-2.7,5.9-5.9c0-3.3-2.7-5.9-5.9-5.9H179c-3.3,0-5.9,2.7-5.9,5.9
			c0,3.3,2.7,5.9,5.9,5.9v72.1L148.2,261c-2.8,4.6,0.5,10.4,5.8,10.4h90.1C249.5,271.4,252.8,265.5,250,261z"/>
		<circle class="st3" cx="214.3" cy="237.5" r="7.7"/>
		<circle class="st3" cx="176.4" cy="248.4" r="3.2"/>
		<circle class="st3" cx="208.8" cy="191" r="5.1"/>
		<circle class="st3" cx="191.4" cy="224" r="6.3"/>
		<circle class="st3" cx="198.6" cy="257.7" r="4.6"/>
		<path class="st11" d="M178.9,197.2c2.8-1,5.9-1.5,9.1-0.9c7.3,1.3,9.5,7,16.3,8.9c3.5,1,8.3,0.9,14.9-2.4"/>
		<circle class="st3" cx="190.7" cy="174.8" r="3.2"/>
	</g>
</g>
</svg>
