<svg id="Layer_1" data-name="Layer 1" xmlns="http://www.w3.org/2000/svg" viewBox="0 0 418 314"><defs><style>.cls-1{fill:#2c3d6c;}.cls-2,.cls-4{fill:#fff;}.cls-3,.cls-5,.cls-6{fill:none;}.cls-3,.cls-4,.cls-5,.cls-6{stroke:#2c3d6c;}.cls-3{stroke-linecap:round;stroke-linejoin:round;}.cls-4,.cls-5,.cls-6{stroke-miterlimit:10;}.cls-4,.cls-5{stroke-width:1.12px;}.cls-6{stroke-width:0.85px;}</style></defs><title>ri_pi2</title><g id="Layer_3" data-name="Layer 3"><rect class="cls-1" x="52.45" y="32.93" width="315.98" height="255.69" rx="29.67"/><path class="cls-2" d="M211.67,128c-23,0-24.58,8.54-35.47,15.33-9,5.6-21.5,12.35-39.14,20.65-4,2.62-6.54,7.16-6.74,10.89l-8.6,109H305.3L293,174.91c-.2-3.73-2.77-8.27-6.74-10.89-15.69-5.91-30.15-15-39.13-20.65C236.27,136.59,233.7,128,211.67,128"/><path class="cls-1" d="M234.12,168.9c2.48-.76,5-1.55,7.57-2.28,2.89-.83,5.82-1.58,8.69-2.27l-1,.88,6.56-21.17.74,3.25h0a52.91,52.91,0,0,0-4.66-3.93,55.48,55.48,0,0,0-5.13-3.46,42.79,42.79,0,0,0-5.44-2.77,22.09,22.09,0,0,0-2.74-.93,11.3,11.3,0,0,0-1.29-.25h-.7l1.53-1.82-26.11,87.43.47,1.41-.43-.1,30.67-40.28h0l.18,1.1c-1.5-2.48-2.93-4.94-4.3-7.28s-2.71-4.58-4.08-6.71Zm1.1,1.52c1.59,2,3.18,4,4.76,5.84l5.12,6,.38.45-.2.65h0L212.6,223l-.43-.1-.47-1.41L233.29,132l.65,0,1.34-.44h0l.33-.09h.2l.34-.05h.6a9.37,9.37,0,0,1,1.06,0,15.38,15.38,0,0,1,1.91.26,26.27,26.27,0,0,1,3.46,1,48,48,0,0,1,6.27,2.77,60,60,0,0,1,5.82,3.48,56.71,56.71,0,0,1,5.48,4.15h0l1.53,1.57-.79,1.68-9.41,20.07-.33.71-.67.17c-2.48.63-4.92,1.21-7.39,1.7s-5,.94-7.58,1.4Z"/><path class="cls-1" d="M186.79,170.41l-.88-.16c-2.59-.47-5.12-.91-7.59-1.4s-4.91-1.06-7.39-1.69l-.67-.17-.33-.71-9.41-20.07-.79-1.68,1.53-1.57h0a56.71,56.71,0,0,1,5.48-4.15,60,60,0,0,1,5.82-3.48,48,48,0,0,1,6.27-2.77,26.27,26.27,0,0,1,3.46-1,15.38,15.38,0,0,1,1.91-.26,9.37,9.37,0,0,1,1.06,0h.6l.34,0h.2l.33.09h0l1.34.44.19,1.38,26.18,95h0l-.43.1-37.29-45h0l-.21-.66.39-.45,5.12-6C183.6,174.41,185.2,172.44,186.79,170.41Zm1.1-1.53-.53.83c-1.37,2.13-2.7,4.36-4.08,6.71s-2.8,4.81-4.3,7.28l.18-1.11h0l35.18,45.73-.43.1h0l-30.18-94.37,1.53,1.82h-.7a11.3,11.3,0,0,0-1.29.25,22.09,22.09,0,0,0-2.74.93,42.79,42.79,0,0,0-5.44,2.77,55.48,55.48,0,0,0-5.13,3.46,52.91,52.91,0,0,0-4.66,3.93L166,144l6.56,21.17-1-.88c2.88.69,5.81,1.44,8.7,2.26,2.59.83,5.12,1.61,7.6,2.38Z"/><path class="cls-1" d="M188.75,140.31c.94,1.37,1.92,2.78,2.94,4.19l3.2,4.28c2.2,2.91,4.45,6,6.56,9.11l.2.29-.07.37c-.37,2.12-.73,4.24-1.13,6.35l-1.19,6.35-.75,4-1.17-3.9c-.8-2.64-1.62-5.3-2.37-8s-1.48-5.36-2.15-8l-2-7.73C190.16,145.16,189.45,142.67,188.75,140.31Zm0,0c.89,2.75,1.76,5.39,2.71,8l2.76,7.65c.92,2.5,1.77,4.93,2.61,7.39s1.61,4.91,2.41,7.39l-1.93.1,1.24-6.33c.4-2.11.85-4.22,1.29-6.32l.13.65c-1.88-2.92-3.61-5.85-5.4-9-.89-1.54-1.81-3.15-2.78-4.76S189.81,141.94,188.75,140.31Z"/><path class="cls-1" d="M234.11,140.31q-1.59,2.44-3,4.84c-1,1.61-1.89,3.22-2.79,4.76-1.78,3.11-3.52,6-5.4,9l.13-.65c.44,2.1.89,4.21,1.3,6.32l1.23,6.33-1.92-.1c.79-2.48,1.56-5,2.4-7.39s1.7-4.89,2.62-7.39l2.76-7.65C232.34,145.7,233.22,143.06,234.11,140.31Zm0,0c-.7,2.36-1.42,4.85-2.07,7.34l-2,7.73c-.67,2.63-1.41,5.31-2.16,8s-1.57,5.34-2.36,8l-1.18,3.9-.75-4-1.19-6.35c-.4-2.11-.76-4.23-1.13-6.35l-.06-.37.19-.29c2.11-3.1,4.36-6.2,6.57-9.11l3.19-4.28C232.18,143.09,233.17,141.68,234.11,140.31Z"/><polyline class="cls-3" points="223.18 163.82 212.16 182.26 211.89 220.49 210.44 182.26 199.67 163.82"/><path class="cls-1" d="M155.08,283.68q2-17.73,3.86-35.58.92-8.9,1.76-17.81c.28-3,.53-5.94.77-8.91.1-1.49.24-3,.32-4.47l.13-2.23v-2.25l.09,2.25v2.25c0,1.5,0,3-.07,4.49q-.12,4.49-.28,9-.33,9-.76,17.93Q160,266.25,159,284.15Z"/><path class="cls-1" d="M161.22,243.93q-2.49,7.45-5.08,14.85c-.87,2.45-1.75,4.91-2.66,7.36a63.43,63.43,0,0,1-3,7.2l-.2-.18a64.91,64.91,0,0,0,2.59-7.33c.78-2.49,1.52-5,2.25-7.53q2.19-7.55,4.25-15.16Z"/><path class="cls-1" d="M254.31,202.82a2,2,0,0,1-2-2v-7a2,2,0,0,1,4,0v7A2,2,0,0,1,254.31,202.82Z"/><path class="cls-4" d="M235.55,200.82h25V228.3a2.41,2.41,0,0,1-2.41,2.41H238a2.41,2.41,0,0,1-2.41-2.41h0V200.82Z"/><line class="cls-5" x1="235.55" y1="207.76" x2="260.57" y2="207.76"/><line class="cls-6" x1="214.17" y1="228.11" x2="214.17" y2="288.72"/><path class="cls-2" d="M248.58,104.55c-3.52,27-19.85,46.12-37.18,46.12-17.68,0-33.25-19.67-37.17-46.12-4-26.73,3.5-56.2,37.17-56.2C244.37,48.35,252.06,77.76,248.58,104.55Z"/><path class="cls-1" d="M248.78,104.58a79.84,79.84,0,0,1-4.33,17.28,59.68,59.68,0,0,1-8.55,15.64,42.43,42.43,0,0,1-6.16,6.55,32.71,32.71,0,0,1-7.58,5,26.45,26.45,0,0,1-8.8,2.44,25,25,0,0,1-9.15-.85,29.53,29.53,0,0,1-8.31-3.9,38.31,38.31,0,0,1-7-5.93,56.73,56.73,0,0,1-10-15.13,77.71,77.71,0,0,1-5.55-17.21,87.63,87.63,0,0,1-1.74-18,62.13,62.13,0,0,1,2.62-18,38.37,38.37,0,0,1,9.37-16,34.32,34.32,0,0,1,16.42-8.87,47.28,47.28,0,0,1,9.21-1.16,53,53,0,0,1,9.24.49,35,35,0,0,1,17.07,7.24,35.52,35.52,0,0,1,10.5,15,57.88,57.88,0,0,1,3.48,17.66A93.16,93.16,0,0,1,248.78,104.58Zm-.4,0c.34-2.94.55-5.9.61-8.85a74.59,74.59,0,0,0-.39-8.85,55.13,55.13,0,0,0-4.47-16.9A31.91,31.91,0,0,0,218,50.8a48,48,0,0,0-16.94.76,30.57,30.57,0,0,0-14.62,7.65,34.75,34.75,0,0,0-8.73,14.26,59,59,0,0,0-2.82,17,84.68,84.68,0,0,0,1.39,17.4,75.27,75.27,0,0,0,5.07,16.7,54.8,54.8,0,0,0,9.29,14.63,36.53,36.53,0,0,0,6.47,5.71,27.65,27.65,0,0,0,7.67,3.77,23.46,23.46,0,0,0,8.45,1,24.88,24.88,0,0,0,8.33-2.07A36.92,36.92,0,0,0,235.24,137a57.33,57.33,0,0,0,8.84-15.27A72.12,72.12,0,0,0,248.38,104.53Z"/><path class="cls-1" d="M265.77,284.15q-1-17.91-1.87-35.83-.42-9-.76-17.93-.18-4.48-.28-9c-.07-1.5-.07-3-.07-4.49v-2.25l.09-2.25v2.25l.13,2.23c.08,1.49.22,3,.32,4.47q.35,4.45.77,8.91.84,8.91,1.76,17.81,1.86,17.85,3.86,35.58Z"/><path class="cls-1" d="M265.43,243.14q2.06,7.61,4.25,15.16c.73,2.52,1.47,5,2.25,7.53a63,63,0,0,0,2.59,7.33l-.2.18a60,60,0,0,1-3-7.2c-.91-2.45-1.79-4.91-2.66-7.36q-2.6-7.39-5.08-14.85Z"/></g></svg>