<svg xmlns="http://www.w3.org/2000/svg" viewBox="0 0 418 314"><defs><style>.cls-1{fill:#2c3d6c;}.cls-2,.cls-3{fill:#fff;}.cls-3,.cls-4{stroke:#2c3d6c;stroke-miterlimit:10;stroke-width:1.12px;}.cls-4{fill:none;}</style></defs><title>ri</title><g id="Layer_3" data-name="Layer 3"><rect class="cls-1" x="52.45" y="32.93" width="315.98" height="255.69" rx="29.67" ry="29.67"/><path class="cls-2" d="M211.66,128c-25.51,0-27.31,8.54-39.41,15.33-10,5.6-31.5,13.53-43.48,20.65-4.4,2.62-7.27,7.16-7.49,10.89l-16.65,109h214L302,174.91c-.22-3.73-3.08-8.27-7.49-10.89-12-7.12-33.5-15-43.48-20.65C239,136.59,236.14,128,211.66,128"/><path class="cls-1" d="M234.12,168.9c2.48-.76,5-1.55,7.57-2.28,2.89-.83,5.82-1.58,8.69-2.27l-1,.88,6.56-21.17.74,3.25h0a52.34,52.34,0,0,0-4.66-3.93,55.82,55.82,0,0,0-5.13-3.46,43.55,43.55,0,0,0-5.44-2.77,21.47,21.47,0,0,0-2.74-.93,10.53,10.53,0,0,0-1.29-.25l-.56,0h-.27s0,0,0,0l.13,0h0l1.53-1.82L213.79,285.17h0l-.43-.1,29.49-102.46h0l.18,1.1c-1.5-2.48-2.93-4.94-4.3-7.28s-2.71-4.58-4.08-6.71Zm1.1,1.52c1.59,2,3.18,4,4.76,5.84l5.12,6,.38.45-.2.65h0L213.78,285.2l-.43-.1h0l20.4-151.72.19-1.39,1.34-.44h0l.33-.09.2,0,.34-.05c.22,0,.4,0,.6,0a10.46,10.46,0,0,1,1.06,0,15,15,0,0,1,1.91.26,26.1,26.1,0,0,1,3.46,1,48.43,48.43,0,0,1,6.27,2.77,61.24,61.24,0,0,1,5.82,3.48,57.33,57.33,0,0,1,5.48,4.15h0l1.53,1.57-.79,1.68-9.41,20.07-.33.71-.67.17c-2.48.63-4.92,1.21-7.39,1.7s-5,.94-7.58,1.4Z"/><path class="cls-1" d="M186.79,170.41l-.88-.16c-2.59-.47-5.12-.91-7.59-1.4s-4.91-1.06-7.39-1.69l-.67-.17-.33-.71-9.41-20.07-.79-1.68,1.53-1.57h0a57.33,57.33,0,0,1,5.48-4.15,61.24,61.24,0,0,1,5.82-3.48,48.43,48.43,0,0,1,6.27-2.77,26.1,26.1,0,0,1,3.46-1,15,15,0,0,1,1.91-.26,10.46,10.46,0,0,1,1.06,0c.2,0,.38,0,.6,0l.34.05.2,0,.33.09h0l1.34.44.19,1.38,21,151.73h0l-.43.1L176.72,183.34h0l-.21-.66.39-.45,5.12-6C183.6,174.41,185.2,172.44,186.79,170.41Zm1.1-1.53-.53.83c-1.37,2.13-2.7,4.36-4.08,6.71s-2.8,4.81-4.3,7.28l.18-1.11h0l30,102.47-.43.1h0l-25-151.11,1.53,1.82h0l.13,0s0,0,0,0h-.27l-.56,0a10.53,10.53,0,0,0-1.29.25,21.48,21.48,0,0,0-2.74.93,43.56,43.56,0,0,0-5.44,2.77,55.82,55.82,0,0,0-5.13,3.46,52.35,52.35,0,0,0-4.66,3.93l.74-3.25,6.56,21.17-1-.88c2.88.69,5.81,1.44,8.7,2.26C182.89,167.34,185.42,168.12,187.9,168.89Z"/><path class="cls-2" d="M250.54,104.82c-3.7,28.46-28.63,48.54-39.13,48.54s-35-20.7-39.13-48.54c-4.17-28.14,3.68-59.16,39.13-59.16C249.17,45.66,254.21,76.61,250.54,104.82Z"/><path class="cls-1" d="M250.54,104.82a59.61,59.61,0,0,1-5.21,17.79,69.65,69.65,0,0,1-10,15.7,59.25,59.25,0,0,1-14,12.44,23.71,23.71,0,0,1-9,3.56,12.42,12.42,0,0,1-5-.55,26.83,26.83,0,0,1-4.5-1.83,57.79,57.79,0,0,1-15-11.67,72.13,72.13,0,0,1-11-15.48,63,63,0,0,1-6.25-18.06,90.92,90.92,0,0,1-1.15-19A61.46,61.46,0,0,1,173.18,69a37.93,37.93,0,0,1,10.91-15.79,36.4,36.4,0,0,1,17.38-7.82,51.84,51.84,0,0,1,9.45-.74,59.44,59.44,0,0,1,9.4.79,37.25,37.25,0,0,1,17.24,7.27A34.39,34.39,0,0,1,248.19,68a61,61,0,0,1,3.32,18.27A107.23,107.23,0,0,1,250.54,104.82Zm0,0a107.17,107.17,0,0,0,.84-18.55,57.54,57.54,0,0,0-3.6-18.12A36.57,36.57,0,0,0,243.41,60a30.43,30.43,0,0,0-6.44-6.5,36,36,0,0,0-16.9-6.45,57.68,57.68,0,0,0-9.14-.46,49.77,49.77,0,0,0-9,1A33.83,33.83,0,0,0,186,55.44a36,36,0,0,0-9.56,14.81,59.36,59.36,0,0,0-3.17,17.69,86.74,86.74,0,0,0,1.23,18.1,61.1,61.1,0,0,0,5.75,17,71.47,71.47,0,0,0,10.11,15A55,55,0,0,0,204,149.78a24.53,24.53,0,0,0,4,1.86,10.31,10.31,0,0,0,4.14.67,22.08,22.08,0,0,0,8.34-2.93,58.11,58.11,0,0,0,14.23-11.55,66.15,66.15,0,0,0,10.39-15.29A59.14,59.14,0,0,0,250.54,104.82Z"/><path class="cls-1" d="M140.09,283.75q2-15,3.86-30.1.92-7.53,1.76-15.07.42-3.77.77-7.54c.1-1.26.24-2.52.32-3.78l.13-1.89,0-1.9.09,1.9v1.9c0,1.27,0,2.53-.07,3.8q-.11,3.8-.28,7.59c-.22,5.06-.48,10.12-.76,15.17q-.85,15.17-1.87,30.32Z"/><path class="cls-1" d="M146.23,250.12q-2.49,6.31-5.08,12.56c-.87,2.08-1.75,4.16-2.66,6.23a48.3,48.3,0,0,1-3,6.09l-.2-.15a48.51,48.51,0,0,0,2.59-6.2c.78-2.11,1.52-4.24,2.25-6.37q2.19-6.39,4.25-12.83Z"/><path class="cls-1" d="M277.3,284.15q-1-15.16-1.87-30.32c-.28-5.05-.55-10.11-.76-15.17q-.17-3.79-.28-7.59c0-1.27-.08-2.53-.07-3.8v-1.9l.09-1.9,0,1.9.13,1.89c.07,1.26.21,2.52.32,3.78q.36,3.78.77,7.54.82,7.54,1.76,15.07,1.84,15.06,3.86,30.1Z"/><path class="cls-1" d="M261.31,202.82a2,2,0,0,1-2-2v-7a2,2,0,0,1,4,0v7A2,2,0,0,1,261.31,202.82Z"/><path class="cls-1" d="M277,249.45q2.07,6.43,4.25,12.83c.73,2.13,1.47,4.26,2.25,6.37a48.51,48.51,0,0,0,2.59,6.2l-.2.15a48.3,48.3,0,0,1-3-6.09c-.91-2.07-1.8-4.15-2.66-6.23q-2.61-6.26-5.08-12.56Z"/><path class="cls-3" d="M242.55,200.82h25a0,0,0,0,1,0,0V228.3a2.41,2.41,0,0,1-2.41,2.41H245a2.41,2.41,0,0,1-2.41-2.41V200.82A0,0,0,0,1,242.55,200.82Z"/><line class="cls-4" x1="242.55" y1="207.76" x2="267.57" y2="207.76"/></g></svg>