<svg xmlns="http://www.w3.org/2000/svg" xmlns:xlink="http://www.w3.org/1999/xlink" viewBox="0 0 418 314"><defs><style>.cls-1,.cls-5,.cls-8{fill:none;}.cls-2{opacity:0.43;}.cls-3{fill:#2c3d6c;}.cls-4,.cls-7{fill:#fff;}.cls-5,.cls-7{stroke:#2c3d6c;}.cls-5,.cls-7,.cls-8{stroke-miterlimit:10;stroke-width:3px;}.cls-6{clip-path:url(#clip-path);}.cls-8{stroke:#fff;}</style><clipPath id="clip-path"><ellipse class="cls-1" cx="292.32" cy="133.29" rx="20.12" ry="21.52"/></clipPath></defs><title>ri_pi2</title><g id="Layer_2" data-name="Layer 2"><rect class="cls-3" x="51.01" y="29.16" width="315.98" height="255.69" rx="29.67"/><path class="cls-4" d="M159,203.71c0-24.5-16.45-44.35-36.74-44.35s-36.75,19.85-36.75,44.35Z"/><polyline class="cls-5" points="122.27 220.35 122.27 200.6 107.38 159.19 97.81 163.18 103.35 176.75 108.55 177.46 108.55 183.29 122.27 200.6"/><polyline class="cls-5" points="122.27 220.35 122.27 200.6 137.15 159.19 146.72 163.18 141.18 176.75 135.98 177.46 135.98 183.29 122.27 200.6"/><polyline class="cls-5" points="128.25 159.22 122.27 196.06 116.28 159.22"/><path class="cls-4" d="M291.79,118.93c-5,0-9.12-3.72-9.12-8.29s4.1-8.29,9.12-8.29,9.13,3.72,9.13,8.29S296.82,118.93,291.79,118.93Z"/><path class="cls-3" d="M291.79,103.85c4.21,0,7.63,3,7.63,6.79s-3.42,6.79-7.63,6.79-7.62-3-7.62-6.79,3.42-6.79,7.62-6.79m0-3c-5.85,0-10.62,4.39-10.62,9.79s4.77,9.79,10.62,9.79,10.63-4.39,10.63-9.79-4.77-9.79-10.63-9.79Z"/><ellipse class="cls-4" cx="292.32" cy="133.29" rx="20.12" ry="21.52"/><g class="cls-6"><path class="cls-5" d="M290.05,111.77c-.43,12.26-10.45,17.66-19.69,16.48"/><path class="cls-5" d="M290.05,111.77c3.95,16.17,11.46,21,32,21.52"/></g><path class="cls-3" d="M292.32,111.77c11.11,0,20.12,9.63,20.12,21.52s-9,21.52-20.12,21.52-20.13-9.63-20.13-21.52,9-21.52,20.13-21.52m0-3c-12.75,0-23.13,11-23.13,24.52s10.38,24.52,23.13,24.52,23.12-11,23.12-24.52-10.37-24.52-23.12-24.52Z"/><path class="cls-4" d="M329.06,203.71c0-24.5-16.45-44.35-36.74-44.35s-36.74,19.85-36.74,44.35Z"/><polyline class="cls-5" points="292.32 220.35 292.32 200.6 277.44 159.19 267.86 163.18 273.4 176.75 278.6 177.46 278.6 183.29 292.32 200.6"/><polyline class="cls-5" points="292.32 220.35 292.32 200.6 307.2 159.19 316.77 163.18 311.23 176.75 306.04 177.46 306.04 183.29 292.32 200.6"/><polyline class="cls-5" points="298.31 159.22 292.32 196.06 286.33 159.22"/><ellipse class="cls-4" cx="207.29" cy="70.95" rx="26.46" ry="24.09"/><path class="cls-3" d="M207.29,48.36c13.79,0,25,10.11,25,22.59s-11.17,22.59-25,22.59-25-10.12-25-22.59,11.18-22.59,25-22.59m0-3c-15.41,0-28,11.48-28,25.59s12.55,25.59,28,25.59,28-11.48,28-25.59-12.54-25.59-28-25.59Z"/><circle class="cls-4" cx="207.29" cy="69.13" r="14.59"/><ellipse class="cls-4" cx="207.29" cy="70.95" rx="26.46" ry="24.09"/><path class="cls-3" d="M207.29,48.36c13.79,0,25,10.11,25,22.59s-11.17,22.59-25,22.59-25-10.12-25-22.59,11.18-22.59,25-22.59m0-3c-15.41,0-28,11.48-28,25.59s12.55,25.59,28,25.59,28-11.48,28-25.59-12.54-25.59-28-25.59Z"/><ellipse class="cls-4" cx="207.29" cy="69.74" rx="20.12" ry="21.52"/><path class="cls-3" d="M207.29,48.22c11.12,0,20.13,9.63,20.13,21.52s-9,21.52-20.13,21.52-20.12-9.64-20.12-21.52,9-21.52,20.12-21.52m0-3c-12.75,0-23.12,11-23.12,24.52s10.37,24.52,23.12,24.52,23.13-11,23.13-24.52S220,45.22,207.29,45.22Z"/><path class="cls-4" d="M244,140.15c0-24.49-16.45-44.35-36.74-44.35s-36.74,19.86-36.74,44.35Z"/><polyline class="cls-5" points="207.29 156.79 207.29 137.05 192.41 95.63 182.84 99.63 188.38 113.2 193.57 113.91 193.57 119.74 207.29 137.05"/><polyline class="cls-5" points="207.29 156.79 207.29 137.05 222.18 95.63 231.75 99.63 226.21 113.2 221.01 113.91 221.01 119.74 207.29 137.05"/><polyline class="cls-5" points="213.28 95.66 207.29 132.5 201.3 95.66"/><path class="cls-7" d="M212.07,44.56c4,2.56-2.47,12.14-10.21,17.37-7,4.71-15.93,6.84-19.33,4s1.69-10,6.83-14.22C196.14,46.17,208.07,42,212.07,44.56Z"/><path class="cls-7" d="M204,54.59c1.4,2.27,5.16.75,9.66,1.71,10.84,2.29,14.67,16.53,17.72,15.4,1.78-.67,1.53-5.92.8-9.06-1.46-6.32-3.55-9.91-7.39-12.89-3.45-2.68-8.18-3.37-8.71-3.52-1.18-.32-6.77-1.86-10.17,1.51C204.13,49.48,202.8,52.68,204,54.59Z"/><circle class="cls-4" cx="122.27" cy="132.69" r="14.59"/><ellipse class="cls-4" cx="122.27" cy="133.29" rx="20.12" ry="21.52"/><path class="cls-3" d="M122.27,111.77c11.11,0,20.12,9.63,20.12,21.52s-9,21.52-20.12,21.52-20.13-9.63-20.13-21.52,9-21.52,20.13-21.52m0-3c-12.75,0-23.13,11-23.13,24.52s10.38,24.52,23.13,24.52,23.12-11,23.12-24.52S135,108.77,122.27,108.77Z"/><path class="cls-5" d="M128.25,110.31a39.9,39.9,0,0,0,8.68,15.43c3.32,3.64,7.64,9.1,10.28,10.62"/><path class="cls-5" d="M89.45,125.78c.51,2.25,21,3.13,24.9-2.45,5.78-8.23,16.31-4.69,17.07-5.49"/><circle class="cls-4" cx="121.15" cy="132.69" r="14.59"/><ellipse class="cls-4" cx="121.15" cy="133.29" rx="20.12" ry="21.52"/><path class="cls-3" d="M121.15,111.77c11.11,0,20.12,9.63,20.12,21.52s-9,21.52-20.12,21.52S101,145.18,101,133.29s9-21.52,20.12-21.52m0-3c-12.75,0-23.12,11-23.12,24.52s10.37,24.52,23.12,24.52,23.12-11,23.12-24.52-10.37-24.52-23.12-24.52Z"/><path class="cls-5" d="M127.14,110.31a39.71,39.71,0,0,0,8.67,15.43c3.33,3.64,7.64,9.1,10.28,10.62"/><path class="cls-5" d="M88.33,125.78c.52,2.25,21,3.13,24.91-2.45,5.78-8.23,16.31-4.69,17.06-5.49"/><path class="cls-4" d="M162.23,274.79a9.84,9.84,0,0,1-8.37-15l30.32-48.89V142.08a8.94,8.94,0,0,1,3-17.37h40.23a8.94,8.94,0,0,1,3,17.37v68.79l30.32,48.89a9.84,9.84,0,0,1-8.37,15Zm25-144.08a2.95,2.95,0,0,0,0,5.89h3v76L159,262.92a3.84,3.84,0,0,0,3.27,5.87h90.13a3.84,3.84,0,0,0,3.26-5.87l-31.21-50.34v-76h3a2.95,2.95,0,0,0,0-5.89Z"/><path class="cls-3" d="M227.41,126.21a7.44,7.44,0,0,1,1.5,14.73V211.3l30.54,49.25a8.34,8.34,0,0,1-7.09,12.74H162.22a8.34,8.34,0,0,1-7.08-12.74l30.54-49.25V140.94a7.44,7.44,0,0,1,1.5-14.73h40.23M187.18,138.1h1.5v74.05l-.23.36-30.76,49.62a5.34,5.34,0,0,0,4.53,8.16h90.14a5.34,5.34,0,0,0,4.54-8.16h0l-31-50V138.1h1.5a4.45,4.45,0,0,0,0-8.89H187.18a4.45,4.45,0,0,0,0,8.89m40.23-14.89H187.18a10.45,10.45,0,0,0-4.5,19.87v67.36L152.59,259a11.33,11.33,0,0,0,9.63,17.32h90.14A11.34,11.34,0,0,0,262,259l-30.09-48.53V143.08a10.45,10.45,0,0,0-4.5-19.87ZM187.18,135.1a1.45,1.45,0,0,1,0-2.89h40.23a1.45,1.45,0,0,1,0,2.89h-4.5V213l.45.72,31,50a2.33,2.33,0,0,1-2,3.57H162.22a2.28,2.28,0,0,1-2-1.2,2.25,2.25,0,0,1,.06-2.37L191,214.09l.23-.36.45-.72V135.1h-4.5Z"/><path class="cls-8" d="M258.17,261.34l-30.76-49.62V139.6a5.95,5.95,0,0,0,0-11.89H187.18a5.95,5.95,0,0,0,0,11.89v72.12l-30.77,49.62a6.84,6.84,0,0,0,5.81,10.45h90.14A6.84,6.84,0,0,0,258.17,261.34Z"/><circle class="cls-4" cx="222.55" cy="237.83" r="7.75"/><circle class="cls-4" cx="184.65" cy="248.78" r="3.2"/><circle class="cls-4" cx="216.97" cy="191.41" r="5.06"/><circle class="cls-4" cx="199.59" cy="224.36" r="6.32"/><circle class="cls-4" cx="206.84" cy="258.08" r="4.65"/><path class="cls-8" d="M187.15,197.61a18.07,18.07,0,0,1,9.06-.91c7.33,1.28,9.53,7,16.32,8.89,3.49,1,8.3.93,14.88-2.37"/><circle class="cls-4" cx="198.93" cy="175.18" r="3.2"/></g></svg>