<svg xmlns="http://www.w3.org/2000/svg" xmlns:xlink="http://www.w3.org/1999/xlink" viewBox="0 0 418 314"><defs><style>.cls-1,.cls-5,.cls-8{fill:none;}.cls-2{opacity:0.43;}.cls-3{fill:#2c3d6c;}.cls-4,.cls-7{fill:#fff;}.cls-5,.cls-7{stroke:#2c3d6c;}.cls-5,.cls-7,.cls-8{stroke-miterlimit:10;stroke-width:3px;}.cls-6{clip-path:url(#clip-path);}.cls-8{stroke:#fff;}</style><clipPath id="clip-path"><ellipse class="cls-1" cx="293.22" cy="137.07" rx="20.12" ry="21.52"/></clipPath></defs><title>ri_pi2</title><g id="Layer_2" data-name="Layer 2"><rect class="cls-3" x="51.91" y="32.93" width="315.98" height="255.69" rx="29.67"/><path class="cls-4" d="M159.91,207.48c0-24.49-16.45-44.35-36.74-44.35S86.43,183,86.43,207.48Z"/><polyline class="cls-5" points="123.17 224.12 123.17 204.38 108.29 162.96 98.72 166.96 104.25 180.53 109.45 181.24 109.45 187.07 123.17 204.38"/><polyline class="cls-5" points="123.17 224.12 123.17 204.38 138.05 162.96 147.62 166.96 142.09 180.53 136.89 181.24 136.89 187.07 123.17 204.38"/><polyline class="cls-5" points="129.16 162.99 123.17 199.83 117.18 162.99"/><path class="cls-4" d="M292.7,122.71c-5,0-9.12-3.72-9.12-8.29s4.09-8.29,9.12-8.29,9.12,3.71,9.12,8.29S297.73,122.71,292.7,122.71Z"/><path class="cls-3" d="M292.7,107.63c4.21,0,7.62,3,7.62,6.79s-3.41,6.79-7.62,6.79-7.62-3-7.62-6.79,3.41-6.79,7.62-6.79m0-3c-5.86,0-10.62,4.39-10.62,9.79s4.76,9.79,10.62,9.79,10.62-4.4,10.62-9.79-4.77-9.79-10.62-9.79Z"/><ellipse class="cls-4" cx="293.22" cy="137.07" rx="20.12" ry="21.52"/><g class="cls-6"><path class="cls-5" d="M291,115.54c-.42,12.26-10.44,17.67-19.69,16.49"/><path class="cls-5" d="M291,115.54c4,16.18,11.47,21,32,21.53"/></g><path class="cls-3" d="M293.22,115.54c11.12,0,20.13,9.64,20.13,21.53s-9,21.52-20.13,21.52S273.1,149,273.1,137.07s9-21.53,20.12-21.53m0-3c-12.75,0-23.12,11-23.12,24.53s10.37,24.52,23.12,24.52,23.13-11,23.13-24.52S306,112.54,293.22,112.54Z"/><path class="cls-4" d="M330,207.48c0-24.49-16.45-44.35-36.74-44.35S256.48,183,256.48,207.48Z"/><polyline class="cls-5" points="293.22 224.12 293.22 204.38 278.34 162.96 268.77 166.96 274.31 180.53 279.5 181.24 279.5 187.07 293.22 204.38"/><polyline class="cls-5" points="293.22 224.12 293.22 204.38 308.11 162.96 317.68 166.96 312.14 180.53 306.94 181.24 306.94 187.07 293.22 204.38"/><polyline class="cls-5" points="299.21 162.99 293.22 199.83 287.23 162.99"/><ellipse class="cls-4" cx="208.2" cy="74.72" rx="26.46" ry="24.09"/><path class="cls-3" d="M208.2,52.13c13.78,0,25,10.11,25,22.59S222,97.31,208.2,97.31s-25-10.11-25-22.59,11.17-22.59,25-22.59m0-3c-15.42,0-28,11.48-28,25.59s12.54,25.59,28,25.59,28-11.48,28-25.59-12.55-25.59-28-25.59Z"/><circle class="cls-4" cx="208.2" cy="72.91" r="14.59"/><ellipse class="cls-4" cx="208.2" cy="74.72" rx="26.46" ry="24.09"/><path class="cls-3" d="M208.2,52.13c13.78,0,25,10.11,25,22.59S222,97.31,208.2,97.31s-25-10.11-25-22.59,11.17-22.59,25-22.59m0-3c-15.42,0-28,11.48-28,25.59s12.54,25.59,28,25.59,28-11.48,28-25.59-12.55-25.59-28-25.59Z"/><ellipse class="cls-4" cx="208.2" cy="73.51" rx="20.12" ry="21.52"/><path class="cls-3" d="M208.2,52c11.11,0,20.12,9.64,20.12,21.52S219.31,95,208.2,95s-20.13-9.63-20.13-21.52S197.08,52,208.2,52m0-3c-12.75,0-23.13,11-23.13,24.52S195.45,98,208.2,98s23.12-11,23.12-24.52S221,49,208.2,49Z"/><path class="cls-4" d="M244.94,143.93c0-24.5-16.45-44.35-36.74-44.35s-36.75,19.85-36.75,44.35Z"/><polyline class="cls-5" points="208.2 160.57 208.2 140.82 193.31 99.41 183.74 103.4 189.28 116.97 194.48 117.68 194.48 123.51 208.2 140.82"/><polyline class="cls-5" points="208.2 160.57 208.2 140.82 223.08 99.41 232.65 103.4 227.11 116.97 221.91 117.68 221.91 123.51 208.2 140.82"/><polyline class="cls-5" points="214.18 99.44 208.2 136.28 202.21 99.44"/><path class="cls-7" d="M213,48.34c4,2.56-2.46,12.13-10.21,17.37-7,4.7-15.93,6.83-19.33,4s1.69-10,6.83-14.22C197,49.94,209,45.76,213,48.34Z"/><path class="cls-7" d="M204.87,58.36c1.4,2.28,5.17.76,9.67,1.71,10.84,2.3,14.66,16.54,17.71,15.4,1.78-.66,1.53-5.91.8-9.06-1.46-6.31-3.54-9.91-7.39-12.89-3.45-2.67-8.17-3.36-8.71-3.51-1.17-.33-6.76-1.86-10.16,1.51C205,53.26,203.71,56.46,204.87,58.36Z"/><circle class="cls-4" cx="123.17" cy="136.46" r="14.59"/><ellipse class="cls-4" cx="123.17" cy="137.07" rx="20.12" ry="21.52"/><path class="cls-3" d="M123.17,115.54c11.11,0,20.12,9.64,20.12,21.53s-9,21.52-20.12,21.52-20.12-9.64-20.12-21.52,9-21.53,20.12-21.53m0-3c-12.75,0-23.12,11-23.12,24.53s10.37,24.52,23.12,24.52,23.12-11,23.12-24.52-10.37-24.53-23.12-24.53Z"/><path class="cls-5" d="M129.16,114.08a39.64,39.64,0,0,0,8.67,15.43c3.33,3.64,7.64,9.1,10.28,10.62"/><path class="cls-5" d="M90.35,129.56c.52,2.24,21,3.13,24.91-2.45,5.78-8.23,16.31-4.7,17.06-5.49"/><circle class="cls-4" cx="122.05" cy="136.46" r="14.59"/><ellipse class="cls-4" cx="122.05" cy="137.07" rx="20.12" ry="21.52"/><path class="cls-3" d="M122.05,115.54c11.12,0,20.13,9.64,20.13,21.53s-9,21.52-20.13,21.52-20.12-9.64-20.12-21.52,9-21.53,20.12-21.53m0-3c-12.75,0-23.12,11-23.12,24.53s10.37,24.52,23.12,24.52,23.13-11,23.13-24.52-10.38-24.53-23.13-24.53Z"/><path class="cls-5" d="M128,114.08a39.69,39.69,0,0,0,8.68,15.43c3.32,3.64,7.64,9.1,10.28,10.62"/><path class="cls-5" d="M89.24,129.56c.51,2.24,21,3.13,24.9-2.45,5.78-8.23,16.31-4.7,17.07-5.49"/><path class="cls-4" d="M163.13,278.57a9.85,9.85,0,0,1-8.37-15l30.32-48.9V145.85a8.94,8.94,0,0,1,3-17.36h40.23a8.94,8.94,0,0,1,3,17.36v68.79l30.32,48.9a9.85,9.85,0,0,1-8.37,15Zm25-144.08a2.94,2.94,0,0,0,0,5.88h3v76L159.86,266.7a3.85,3.85,0,0,0,3.27,5.87h90.13a3.85,3.85,0,0,0,3.27-5.87l-31.22-50.35v-76h3a2.94,2.94,0,0,0,0-5.88Z"/><path class="cls-3" d="M228.31,130a7.44,7.44,0,0,1,1.5,14.73v70.35l30.54,49.26a8.34,8.34,0,0,1-7.09,12.74H163.13A8.34,8.34,0,0,1,156,264.33l30.54-49.26V144.72a7.44,7.44,0,0,1,1.5-14.73h40.23m-40.23,11.88h1.5v74.06l-.22.36-30.77,49.62a5.34,5.34,0,0,0,4.54,8.16h90.13a5.34,5.34,0,0,0,4.54-8.16h0l-31-50V141.87h1.5a4.44,4.44,0,0,0,0-8.88H188.08a4.44,4.44,0,0,0,0,8.88M228.31,127H188.08a10.44,10.44,0,0,0-4.5,19.86v67.37l-30.09,48.53a11.35,11.35,0,0,0,9.64,17.32h90.13a11.35,11.35,0,0,0,9.64-17.32l-30.09-48.53V146.85a10.44,10.44,0,0,0-4.5-19.86Zm-40.23,11.88a1.44,1.44,0,0,1,0-2.88h40.23a1.44,1.44,0,0,1,0,2.88h-4.5v77.91l.45.73,31,50a2.34,2.34,0,0,1-2,3.58H163.13a2.34,2.34,0,0,1-2-3.58l30.77-49.62.22-.36.45-.73V138.87h-4.5Z"/><path class="cls-8" d="M259.08,265.12,228.31,215.5V143.37a5.94,5.94,0,0,0,0-11.88H188.08a5.94,5.94,0,0,0,0,11.88V215.5l-30.77,49.62a6.85,6.85,0,0,0,5.82,10.45h90.13A6.85,6.85,0,0,0,259.08,265.12Z"/><circle class="cls-4" cx="223.45" cy="241.6" r="7.75"/><circle class="cls-4" cx="185.55" cy="252.56" r="3.2"/><circle class="cls-4" cx="217.87" cy="195.18" r="5.06"/><circle class="cls-4" cx="200.49" cy="228.14" r="6.32"/><circle class="cls-4" cx="207.75" cy="261.86" r="4.65"/><path class="cls-8" d="M188.05,201.39a17.86,17.86,0,0,1,9.06-.91c7.33,1.27,9.53,7,16.33,8.89,3.48,1,8.3.93,14.87-2.37"/><circle class="cls-4" cx="199.83" cy="178.95" r="3.2"/></g></svg>