<svg xmlns="http://www.w3.org/2000/svg" xmlns:xlink="http://www.w3.org/1999/xlink" viewBox="0 0 418 353.08"><defs><style>.cls-1,.cls-10,.cls-8{fill:none;}.cls-2{opacity:0.43;}.cls-3,.cls-4,.cls-5{fill:#2c3d6c;}.cls-10,.cls-4,.cls-5{stroke:#fff;}.cls-10,.cls-4,.cls-5,.cls-8,.cls-9{stroke-miterlimit:10;}.cls-4{stroke-width:1.5px;}.cls-10,.cls-5,.cls-8,.cls-9{stroke-width:1.76px;}.cls-6,.cls-9{fill:#fff;}.cls-7{clip-path:url(#clip-path);}.cls-8,.cls-9{stroke:#2c3d6c;}</style><clipPath id="clip-path"><ellipse class="cls-1" cx="257.45" cy="185.2" rx="8.96" ry="9.58"/></clipPath></defs><title>ri_summer</title><g id="Layer_2" data-name="Layer 2"><rect class="cls-3" x="59.24" y="51.5" width="315.98" height="255.69" rx="29.67"/><rect class="cls-4" x="108.14" y="89.06" width="218.22" height="169.56" rx="10.59"/><rect class="cls-5" x="120.17" y="97.72" width="194.17" height="138.35"/><path class="cls-6" d="M257.21,179a3.92,3.92,0,1,1,4.27-3.91A4.11,4.11,0,0,1,257.21,179Z"/><path class="cls-3" d="M257.21,172.09a3,3,0,1,1-3.39,3,3.22,3.22,0,0,1,3.39-3m0-1.76a4.8,4.8,0,1,0,5.16,4.78,5,5,0,0,0-5.16-4.78Z"/><ellipse class="cls-6" cx="257.45" cy="185.2" rx="8.96" ry="9.58"/><g class="cls-7"><path class="cls-8" d="M256.44,175.62c-.2,5.45-4.65,7.86-8.77,7.33"/><path class="cls-8" d="M256.44,175.62c1.76,7.2,5.1,9.34,14.26,9.58"/></g><path class="cls-3" d="M257.45,175.62c4.94,0,8.95,4.29,8.95,9.58s-4,9.58-8.95,9.58-9-4.29-9-9.58,4-9.58,9-9.58m0-1.76c-5.92,0-10.72,5.08-10.72,11.34s4.8,11.34,10.72,11.34,10.71-5.09,10.71-11.34-4.8-11.34-10.71-11.34Z"/><path class="cls-6" d="M273.8,216.55c0-10.91-7.32-19.75-16.35-19.75s-16.36,8.84-16.36,19.75Z"/><polyline class="cls-8" points="257.44 223.96 257.44 215.16 250.82 196.73 246.56 198.5 249.02 204.55 251.34 204.86 251.34 207.46 257.44 215.16"/><polyline class="cls-8" points="257.44 223.96 257.44 215.16 264.07 196.73 268.33 198.5 265.87 204.55 263.55 204.86 263.55 207.46 257.44 215.16"/><polyline class="cls-8" points="260.11 196.74 257.44 213.14 254.78 196.74"/><ellipse class="cls-6" cx="257.45" cy="128.01" rx="11.99" ry="10.94"/><path class="cls-3" d="M257.45,118c6.13,0,11.11,4.5,11.11,10.06s-5,10.05-11.11,10.05-11.11-4.5-11.11-10.05,5-10.06,11.11-10.06m0-1.76c-7.1,0-12.87,5.3-12.87,11.82s5.77,11.81,12.87,11.81,12.87-5.3,12.87-11.81-5.78-11.82-12.87-11.82Z"/><circle class="cls-6" cx="257.45" cy="127.2" r="6.5"/><ellipse class="cls-6" cx="257.45" cy="128.01" rx="11.99" ry="10.94"/><path class="cls-3" d="M257.45,118c6.13,0,11.11,4.5,11.11,10.06s-5,10.05-11.11,10.05-11.11-4.5-11.11-10.05,5-10.06,11.11-10.06m0-1.76c-7.1,0-12.87,5.3-12.87,11.82s5.77,11.81,12.87,11.81,12.87-5.3,12.87-11.81-5.78-11.82-12.87-11.82Z"/><ellipse class="cls-6" cx="257.45" cy="127.47" rx="8.96" ry="9.58"/><path class="cls-3" d="M257.45,117.89c4.94,0,9,4.29,9,9.58s-4,9.58-9,9.58-9-4.29-9-9.58,4-9.58,9-9.58m0-1.76c-5.91,0-10.72,5.08-10.72,11.34s4.81,11.34,10.72,11.34,10.72-5.09,10.72-11.34-4.81-11.34-10.72-11.34Z"/><path class="cls-6" d="M273.8,158.81c0-10.9-7.32-19.74-16.35-19.74s-16.36,8.84-16.36,19.74Z"/><polyline class="cls-8" points="257.45 166.22 257.45 157.43 250.82 139 246.56 140.78 249.03 146.81 251.34 147.13 251.34 149.73 257.45 157.43"/><polyline class="cls-8" points="257.45 166.22 257.45 157.43 264.07 139 268.33 140.78 265.87 146.81 263.55 147.13 263.55 149.73 257.45 157.43"/><polyline class="cls-8" points="260.11 139.01 257.45 155.41 254.78 139.01"/><path class="cls-9" d="M259.57,116.26c1.77,1.14-1.09,5.4-4.54,7.73-3.1,2.1-7.09,3.05-8.61,1.78s.75-4.46,3-6.33C252.48,117,257.79,115.11,259.57,116.26Z"/><path class="cls-9" d="M256,120.72c.62,1,2.3.34,4.3.77,4.83,1,6.53,7.36,7.89,6.85.79-.3.68-2.63.35-4-.65-2.81-1.58-4.41-3.29-5.74a9.57,9.57,0,0,0-3.87-1.56c-.53-.15-3-.83-4.53.67C256,118.45,255.45,119.88,256,120.72Z"/><path class="cls-6" d="M193.19,158.81c0-10.9-7.32-19.74-16.36-19.74s-16.36,8.84-16.36,19.74Z"/><polyline class="cls-8" points="176.83 166.22 176.83 157.43 170.21 138.99 165.94 140.77 168.41 146.81 170.72 147.13 170.72 149.72 176.83 157.43"/><polyline class="cls-8" points="176.83 166.22 176.83 157.43 183.46 138.99 187.72 140.77 185.25 146.81 182.94 147.13 182.94 149.72 176.83 157.43"/><polyline class="cls-8" points="179.5 139 176.83 155.41 174.16 139"/><circle class="cls-6" cx="176.83" cy="127.19" r="6.5"/><ellipse class="cls-6" cx="176.83" cy="127.46" rx="8.96" ry="9.58"/><path class="cls-3" d="M176.83,117.88c4.95,0,9,4.29,9,9.58s-4,9.58-9,9.58-9-4.29-9-9.58,4-9.58,9-9.58m0-1.76c-5.91,0-10.72,5.09-10.72,11.34s4.81,11.34,10.72,11.34,10.72-5.08,10.72-11.34-4.81-11.34-10.72-11.34Z"/><path class="cls-8" d="M179.5,117.23a17.58,17.58,0,0,0,3.86,6.87c1.48,1.62,3.4,4.05,4.58,4.73"/><path class="cls-8" d="M162.22,124.12c.23,1,9.34,1.39,11.09-1.09,2.57-3.66,7.26-2.09,7.6-2.44"/><circle class="cls-6" cx="176.33" cy="127.19" r="6.5"/><ellipse class="cls-6" cx="176.33" cy="127.46" rx="8.96" ry="9.58"/><path class="cls-3" d="M176.33,117.88c4.95,0,9,4.29,9,9.58s-4,9.58-9,9.58-9-4.29-9-9.58,4-9.58,9-9.58m0-1.76c-5.91,0-10.72,5.09-10.72,11.34s4.81,11.34,10.72,11.34,10.72-5.08,10.72-11.34-4.81-11.34-10.72-11.34Z"/><path class="cls-8" d="M179,117.23a17.58,17.58,0,0,0,3.86,6.87c1.48,1.62,3.4,4.05,4.58,4.73"/><path class="cls-8" d="M161.72,124.12c.23,1,9.35,1.39,11.09-1.09,2.58-3.66,7.26-2.09,7.6-2.44"/><rect class="cls-10" x="142.85" y="106.68" width="67.55" height="52.85" rx="11.36"/><path class="cls-6" d="M193.19,216.55c0-10.9-7.32-19.74-16.36-19.74s-16.36,8.84-16.36,19.74Z"/><polyline class="cls-8" points="176.83 223.96 176.83 215.17 170.21 196.74 165.94 198.51 168.41 204.55 170.72 204.87 170.72 207.47 176.83 215.17"/><polyline class="cls-8" points="176.83 223.96 176.83 215.17 183.46 196.74 187.72 198.51 185.25 204.55 182.94 204.87 182.94 207.47 176.83 215.17"/><polyline class="cls-8" points="179.5 196.75 176.83 213.15 174.16 196.75"/><circle class="cls-6" cx="176.33" cy="184.94" r="6.5"/><ellipse class="cls-6" cx="176.33" cy="185.2" rx="8.96" ry="9.58"/><path class="cls-3" d="M176.33,175.62c4.95,0,9,4.29,9,9.58s-4,9.59-9,9.59-9-4.29-9-9.59,4-9.58,9-9.58m0-1.76c-5.91,0-10.72,5.09-10.72,11.34s4.81,11.35,10.72,11.35,10.72-5.09,10.72-11.35-4.81-11.34-10.72-11.34Z"/><path class="cls-8" d="M177.31,174.94a17.71,17.71,0,0,1-5.33,5.81c-1.81,1.24-4.24,3.17-5.54,3.56"/><path class="cls-8" d="M192.55,185.6c-.45.92-9.41-.78-10.54-3.6-1.67-4.15-6.59-3.69-6.84-4.11"/><rect class="cls-10" x="142.85" y="164.43" width="67.55" height="52.85" rx="11.36"/><circle class="cls-6" cx="216.93" cy="226.68" r="4.47"/><circle class="cls-6" cx="206" cy="226.68" r="4.47"/><circle class="cls-6" cx="227.87" cy="226.68" r="4.47"/><circle class="cls-6" cx="216.93" cy="93.18" r="2.13"/><rect class="cls-3" x="75.39" y="254.75" width="278.32" height="12.03"/><path class="cls-6" d="M353,255.5V266H76.14V255.5H353m1.5-1.5H74.64v13.53H354.45V254Z"/><polygon class="cls-3" points="79.22 253.25 108.26 243.47 326.21 243.47 350.57 253.25 79.22 253.25"/><path class="cls-6" d="M326.07,244.22l20.62,8.28H83.8l24.59-8.28H326.07m.29-1.5H108.14L74.64,254H354.45l-28.09-11.28Z"/><rect class="cls-10" x="223.46" y="106.68" width="67.55" height="52.85" rx="11.36"/><rect class="cls-10" x="223.46" y="164.43" width="67.55" height="52.85" rx="11.36"/></g></svg>