<svg xmlns="http://www.w3.org/2000/svg" xmlns:xlink="http://www.w3.org/1999/xlink" viewBox="0 0 418 353.08"><defs><style>.cls-1,.cls-10,.cls-8{fill:none;}.cls-2{opacity:0.43;}.cls-3,.cls-4,.cls-5{fill:#2c3d6c;}.cls-10,.cls-4,.cls-5{stroke:#fff;}.cls-10,.cls-4,.cls-5,.cls-8,.cls-9{stroke-miterlimit:10;}.cls-4{stroke-width:1.5px;}.cls-10,.cls-5,.cls-8,.cls-9{stroke-width:1.76px;}.cls-6,.cls-9{fill:#fff;}.cls-7{clip-path:url(#clip-path);}.cls-8,.cls-9{stroke:#2c3d6c;}</style><clipPath id="clip-path"><ellipse class="cls-1" cx="249.21" cy="182.4" rx="8.96" ry="9.58"/></clipPath></defs><title>ri_summer</title><g id="Layer_2" data-name="Layer 2"><rect class="cls-3" x="51.01" y="48.7" width="315.98" height="255.69" rx="29.67"/><rect class="cls-4" x="99.91" y="86.26" width="218.22" height="169.56" rx="10.59"/><rect class="cls-5" x="111.93" y="94.92" width="194.17" height="138.35"/><ellipse class="cls-6" cx="248.98" cy="172.31" rx="4.27" ry="3.9"/><path class="cls-3" d="M249,169.29a3,3,0,1,1-3.39,3,3.22,3.22,0,0,1,3.39-3m0-1.76a4.8,4.8,0,1,0,5.15,4.78,5,5,0,0,0-5.15-4.78Z"/><ellipse class="cls-6" cx="249.21" cy="182.4" rx="8.96" ry="9.58"/><g class="cls-7"><path class="cls-8" d="M248.2,172.81c-.19,5.46-4.65,7.87-8.76,7.34"/><path class="cls-8" d="M248.2,172.81c1.76,7.21,5.11,9.35,14.26,9.59"/></g><path class="cls-3" d="M249.21,172.81c4.95,0,9,4.29,9,9.59s-4,9.58-9,9.58-9-4.29-9-9.58,4-9.59,9-9.59m0-1.76c-5.91,0-10.72,5.09-10.72,11.35s4.81,11.34,10.72,11.34,10.72-5.09,10.72-11.34-4.81-11.35-10.72-11.35Z"/><path class="cls-6" d="M265.57,213.75c0-10.91-7.32-19.75-16.36-19.75s-16.35,8.84-16.35,19.75Z"/><polyline class="cls-8" points="249.21 221.15 249.21 212.36 242.59 193.93 238.33 195.71 240.79 201.75 243.11 202.06 243.11 204.66 249.21 212.36"/><polyline class="cls-8" points="249.21 221.15 249.21 212.36 255.84 193.93 260.1 195.71 257.64 201.75 255.32 202.06 255.32 204.66 249.21 212.36"/><polyline class="cls-8" points="251.88 193.94 249.21 210.34 246.55 193.94"/><path class="cls-6" d="M249.22,136.14c-6.62,0-12-4.9-12-10.93s5.37-10.94,12-10.94,12,4.91,12,10.94S255.83,136.14,249.22,136.14Z"/><path class="cls-3" d="M249.22,115.15c6.13,0,11.11,4.5,11.11,10.06s-5,10-11.11,10-11.11-4.5-11.11-10,5-10.06,11.11-10.06m0-1.76c-7.1,0-12.87,5.3-12.87,11.82S242.12,137,249.22,137s12.87-5.3,12.87-11.81-5.78-11.82-12.87-11.82Z"/><circle class="cls-6" cx="249.22" cy="124.4" r="6.5"/><path class="cls-6" d="M249.22,136.14c-6.62,0-12-4.9-12-10.93s5.37-10.94,12-10.94,12,4.91,12,10.94S255.83,136.14,249.22,136.14Z"/><path class="cls-3" d="M249.22,115.15c6.13,0,11.11,4.5,11.11,10.06s-5,10-11.11,10-11.11-4.5-11.11-10,5-10.06,11.11-10.06m0-1.76c-7.1,0-12.87,5.3-12.87,11.82S242.12,137,249.22,137s12.87-5.3,12.87-11.81-5.78-11.82-12.87-11.82Z"/><ellipse class="cls-6" cx="249.22" cy="124.67" rx="8.96" ry="9.58"/><path class="cls-3" d="M249.22,115.09c4.94,0,9,4.29,9,9.58s-4,9.58-9,9.58-9-4.29-9-9.58,4-9.58,9-9.58m0-1.76c-5.91,0-10.72,5.08-10.72,11.34S243.31,136,249.22,136s10.71-5.09,10.71-11.34-4.8-11.34-10.71-11.34Z"/><path class="cls-6" d="M265.57,156c0-10.9-7.32-19.74-16.35-19.74s-16.36,8.84-16.36,19.74Z"/><polyline class="cls-8" points="249.22 163.42 249.22 154.63 242.59 136.2 238.33 137.97 240.8 144.01 243.11 144.33 243.11 146.93 249.22 154.63"/><polyline class="cls-8" points="249.22 163.42 249.22 154.63 255.84 136.2 260.1 137.97 257.64 144.01 255.32 144.33 255.32 146.93 249.22 154.63"/><polyline class="cls-8" points="251.88 136.21 249.22 152.61 246.55 136.21"/><path class="cls-9" d="M251.34,113.46c1.77,1.14-1.09,5.4-4.54,7.73-3.1,2.1-7.09,3-8.61,1.78s.75-4.46,3-6.33C244.25,114.18,249.56,112.31,251.34,113.46Z"/><path class="cls-9" d="M247.74,117.92c.62,1,2.3.34,4.3.76,4.82,1,6.53,7.37,7.88,6.86.8-.3.69-2.63.36-4-.65-2.81-1.58-4.41-3.29-5.74a9.83,9.83,0,0,0-3.88-1.57c-.52-.14-3-.82-4.52.68C247.81,115.65,247.22,117.08,247.74,117.92Z"/><path class="cls-6" d="M185,156c0-10.9-7.33-19.74-16.36-19.74s-16.36,8.84-16.36,19.74Z"/><polyline class="cls-8" points="168.6 163.42 168.6 154.63 161.97 136.19 157.71 137.97 160.18 144.01 162.49 144.33 162.49 146.92 168.6 154.63"/><polyline class="cls-8" points="168.6 163.42 168.6 154.63 175.23 136.19 179.49 137.97 177.02 144.01 174.71 144.33 174.71 146.92 168.6 154.63"/><polyline class="cls-8" points="171.27 136.21 168.6 152.61 165.93 136.21"/><circle class="cls-6" cx="168.6" cy="124.39" r="6.5"/><ellipse class="cls-6" cx="168.6" cy="124.66" rx="8.96" ry="9.58"/><path class="cls-3" d="M168.6,115.08c5,0,9,4.29,9,9.58s-4,9.58-9,9.58-9-4.29-9-9.58,4-9.58,9-9.58m0-1.76c-5.91,0-10.72,5.09-10.72,11.34S162.69,136,168.6,136s10.72-5.08,10.72-11.34-4.81-11.34-10.72-11.34Z"/><path class="cls-8" d="M171.27,114.43a17.58,17.58,0,0,0,3.86,6.87c1.48,1.62,3.4,4,4.57,4.73"/><path class="cls-8" d="M154,121.32c.23,1,9.34,1.39,11.09-1.09,2.57-3.67,7.26-2.09,7.6-2.44"/><circle class="cls-6" cx="168.1" cy="124.39" r="6.5"/><ellipse class="cls-6" cx="168.1" cy="124.66" rx="8.96" ry="9.58"/><path class="cls-3" d="M168.1,115.08c5,0,9,4.29,9,9.58s-4,9.58-9,9.58-9-4.29-9-9.58,4-9.58,9-9.58m0-1.76c-5.91,0-10.72,5.09-10.72,11.34S162.19,136,168.1,136s10.72-5.08,10.72-11.34S174,113.32,168.1,113.32Z"/><path class="cls-8" d="M170.77,114.43a17.58,17.58,0,0,0,3.86,6.87c1.48,1.62,3.4,4,4.58,4.73"/><path class="cls-8" d="M153.49,121.32c.23,1,9.35,1.39,11.09-1.09,2.57-3.67,7.26-2.09,7.6-2.44"/><rect class="cls-10" x="134.62" y="103.88" width="67.55" height="52.85" rx="11.36"/><path class="cls-6" d="M185,213.75c0-10.9-7.33-19.74-16.36-19.74s-16.36,8.84-16.36,19.74Z"/><polyline class="cls-8" points="168.6 221.16 168.6 212.37 161.97 193.93 157.71 195.71 160.18 201.75 162.49 202.07 162.49 204.67 168.6 212.37"/><polyline class="cls-8" points="168.6 221.16 168.6 212.37 175.23 193.93 179.49 195.71 177.02 201.75 174.71 202.07 174.71 204.67 168.6 212.37"/><polyline class="cls-8" points="171.27 193.95 168.6 210.35 165.93 193.95"/><circle class="cls-6" cx="168.1" cy="182.13" r="6.5"/><ellipse class="cls-6" cx="168.1" cy="182.4" rx="8.96" ry="9.58"/><path class="cls-3" d="M168.1,172.82c5,0,9,4.29,9,9.58s-4,9.58-9,9.58-9-4.28-9-9.58,4-9.58,9-9.58m0-1.76c-5.91,0-10.72,5.09-10.72,11.34s4.81,11.34,10.72,11.34,10.72-5.08,10.72-11.34S174,171.06,168.1,171.06Z"/><path class="cls-8" d="M169.08,172.14a17.71,17.71,0,0,1-5.33,5.81c-1.81,1.24-4.24,3.17-5.54,3.56"/><path class="cls-8" d="M184.32,182.8c-.45.92-9.41-.78-10.54-3.6-1.67-4.15-6.6-3.69-6.84-4.11"/><rect class="cls-10" x="134.62" y="161.63" width="67.55" height="52.85" rx="11.36"/><circle class="cls-6" cx="208.7" cy="223.87" r="4.47"/><circle class="cls-6" cx="197.77" cy="223.87" r="4.47"/><circle class="cls-6" cx="219.64" cy="223.87" r="4.47"/><circle class="cls-6" cx="208.7" cy="90.38" r="2.13"/><rect class="cls-3" x="67.15" y="251.95" width="278.32" height="12.03"/><path class="cls-6" d="M344.72,252.7v10.53H67.9V252.7H344.72m1.5-1.5H66.4v13.53H346.22V251.2Z"/><polygon class="cls-3" points="70.98 250.45 100.03 240.67 317.98 240.67 342.34 250.45 70.98 250.45"/><path class="cls-6" d="M317.84,241.42l20.62,8.28H75.56l24.6-8.28H317.84m.29-1.5H99.91L66.4,251.2H346.22l-28.09-11.28Z"/><rect class="cls-10" x="215.23" y="103.88" width="67.55" height="52.85" rx="11.36"/><rect class="cls-10" x="215.23" y="161.63" width="67.55" height="52.85" rx="11.36"/></g></svg>